<svg width="352" height="146" viewBox="0 0 352 146" fill="none" xmlns="http://www.w3.org/2000/svg">
<g filter="url(#filter0_dd_204_12189)">
<path d="M17.4744 49H12.9403L21.7273 31.5455H27.3438L30.3352 49H25.8011L23.8835 35.9432H23.7472L17.4744 49ZM18.0199 42.1307H27.4972L26.9517 45.3352H17.4744L18.0199 42.1307ZM31.4219 53.9091L34.4389 35.9091H38.5639L38.1974 38.1506H38.3253C38.5526 37.7528 38.8537 37.3693 39.2287 37C39.6094 36.6307 40.0668 36.3295 40.6009 36.0966C41.1349 35.858 41.7457 35.7386 42.4332 35.7386C43.3423 35.7386 44.152 35.9773 44.8622 36.4545C45.5724 36.9318 46.0895 37.6676 46.4134 38.6619C46.7372 39.6562 46.7713 40.9233 46.5156 42.4631C46.2713 43.946 45.8281 45.1875 45.1861 46.1875C44.5497 47.1875 43.794 47.9375 42.919 48.4375C42.044 48.9375 41.1264 49.1875 40.1662 49.1875C39.5071 49.1875 38.9503 49.0795 38.4957 48.8636C38.0469 48.6477 37.6918 48.3636 37.4304 48.0114C37.169 47.6591 36.9872 47.2812 36.8849 46.8778H36.7656L35.6065 53.9091H31.4219ZM37.4304 42.4545C37.3168 43.1591 37.3111 43.7727 37.4134 44.2955C37.5156 44.8182 37.723 45.2244 38.0355 45.5142C38.3537 45.7983 38.7656 45.9403 39.2713 45.9403C39.7827 45.9403 40.2372 45.7983 40.6349 45.5142C41.0384 45.2244 41.3764 44.8182 41.6491 44.2955C41.9219 43.7727 42.1207 43.1591 42.2457 42.4545C42.3537 41.75 42.3565 41.1392 42.2543 40.6222C42.1577 40.1051 41.956 39.7045 41.6491 39.4205C41.3423 39.1364 40.9304 38.9943 40.4134 38.9943C39.9077 38.9943 39.4474 39.1335 39.0327 39.4119C38.6236 39.6903 38.2827 40.0881 38.0099 40.6051C37.7372 41.1222 37.544 41.7386 37.4304 42.4545ZM47.6129 49L49.7947 35.9091H53.843L53.4425 38.2955H53.5788C53.9595 37.4318 54.4567 36.7898 55.0703 36.3693C55.6839 35.9432 56.3487 35.7301 57.0646 35.7301C57.2578 35.7301 57.451 35.7443 57.6442 35.7727C57.843 35.7955 58.0305 35.8295 58.2067 35.875L57.593 39.5057C57.3999 39.4318 57.147 39.3778 56.8345 39.3438C56.522 39.304 56.2379 39.2841 55.9822 39.2841C55.4879 39.2841 55.0277 39.3949 54.6016 39.6165C54.1811 39.8324 53.8232 40.1364 53.5277 40.5284C53.2379 40.9148 53.0476 41.3693 52.9567 41.892L51.7805 49H47.6129ZM57.7145 49L59.8963 35.9091H64.0639L61.8821 49H57.7145ZM62.2741 34.375C61.6832 34.375 61.2031 34.179 60.8338 33.7869C60.4645 33.3949 60.3196 32.9261 60.3991 32.3807C60.4787 31.8295 60.7571 31.3608 61.2344 30.9744C61.7116 30.5881 62.2429 30.3949 62.8281 30.3949C63.419 30.3949 63.8935 30.5881 64.2514 30.9744C64.6151 31.3608 64.7571 31.8295 64.6776 32.3807C64.6094 32.9261 64.3366 33.3949 63.8594 33.7869C63.3878 34.179 62.8594 34.375 62.2741 34.375ZM70.6115 49.2472C69.2308 49.2472 68.0916 48.9631 67.1939 48.3949C66.3018 47.8267 65.6768 47.0369 65.3189 46.0256C64.9609 45.0085 64.8956 43.8324 65.1229 42.4972C65.3388 41.1562 65.7962 39.9801 66.495 38.9688C67.1939 37.9517 68.0859 37.1591 69.1712 36.5909C70.2564 36.0227 71.4837 35.7386 72.853 35.7386C74.0632 35.7386 75.0803 35.9574 75.9041 36.3949C76.7337 36.8324 77.3331 37.4517 77.7024 38.2528C78.0774 39.0483 78.1882 39.983 78.0348 41.0568H74.1399C74.174 40.392 74.0376 39.8693 73.7308 39.4886C73.424 39.1023 72.978 38.9091 72.3928 38.9091C71.8984 38.9091 71.4439 39.0455 71.0291 39.3182C70.62 39.5852 70.2706 39.983 69.9808 40.5114C69.6967 41.0341 69.4922 41.6818 69.3672 42.4545C69.2422 43.2273 69.2337 43.8807 69.3416 44.4148C69.4553 44.9432 69.6683 45.3437 69.9808 45.6165C70.299 45.8835 70.7024 46.017 71.1911 46.017C71.5774 46.017 71.9354 45.9347 72.2649 45.7699C72.5945 45.6051 72.8814 45.3636 73.1257 45.0455C73.37 44.7216 73.5604 44.3295 73.6967 43.8693H77.5831C77.3615 44.9545 76.9325 45.9006 76.2962 46.7074C75.6655 47.5085 74.8672 48.1335 73.9013 48.5824C72.9354 49.0256 71.8388 49.2472 70.6115 49.2472ZM84.9574 49.2472C83.5767 49.2472 82.4375 48.9631 81.5398 48.3949C80.6477 47.8267 80.0199 47.0341 79.6562 46.017C79.2926 45 79.2216 43.8182 79.4432 42.4716C79.6648 41.1307 80.1222 39.9545 80.8153 38.9432C81.5085 37.9318 82.3949 37.1449 83.4744 36.5824C84.554 36.0199 85.7784 35.7386 87.1477 35.7386C88.5227 35.7386 89.6563 36.0227 90.5483 36.5909C91.446 37.1591 92.0767 37.9517 92.4403 38.9688C92.8097 39.9858 92.8835 41.1705 92.6619 42.5227C92.4403 43.8636 91.9801 45.0398 91.2812 46.0511C90.5824 47.0568 89.696 47.8409 88.6222 48.4034C87.5483 48.9659 86.3267 49.2472 84.9574 49.2472ZM85.4261 46.1023C85.9375 46.1023 86.3949 45.9489 86.7983 45.642C87.2074 45.3352 87.5511 44.9062 87.8295 44.3551C88.108 43.804 88.3068 43.1648 88.4261 42.4375C88.5455 41.7216 88.5568 41.0938 88.4602 40.554C88.3693 40.0085 88.1761 39.5852 87.8807 39.2841C87.5852 38.9773 87.1847 38.8239 86.679 38.8239C86.1676 38.8239 85.7074 38.9801 85.2983 39.2926C84.8892 39.5994 84.5455 40.0284 84.267 40.5795C83.9943 41.125 83.7983 41.7642 83.679 42.4972C83.5597 43.2131 83.5455 43.8409 83.6364 44.3807C83.7273 44.9205 83.9233 45.3438 84.2244 45.6506C84.5256 45.9517 84.9261 46.1023 85.4261 46.1023ZM103.286 35.9091L102.766 38.9773H94.5071L95.027 35.9091H103.286ZM97.2685 32.7727H101.436L99.4247 44.8835C99.3849 45.1392 99.3906 45.3466 99.4418 45.5057C99.4986 45.6591 99.6009 45.7699 99.7486 45.8381C99.902 45.9006 100.089 45.9318 100.311 45.9318C100.464 45.9318 100.635 45.9148 100.822 45.8807C101.01 45.8466 101.152 45.821 101.249 45.804L101.385 48.8125C101.163 48.875 100.865 48.946 100.49 49.0256C100.121 49.1108 99.6889 49.1648 99.1946 49.1875C98.1946 49.2273 97.3679 49.1108 96.7145 48.8381C96.0668 48.5597 95.6094 48.1278 95.3423 47.5426C95.081 46.9574 95.0298 46.2244 95.1889 45.3438L97.2685 32.7727Z" fill="#FBEDE7"/>
</g>
<g filter="url(#filter1_dd_204_12189)">
<path d="M45.8191 96.598L45.9114 81.456H47.5733L56.16 69.5455H70.4711L56.0677 88.1037H52.4668L45.8191 96.598ZM34.3702 105V57.7273H47.1117V105H34.3702ZM56.2523 105L48.1273 90.9659L56.437 81.9176L70.8404 105H56.2523ZM83.6684 105.554C81.4063 105.554 79.4059 105.185 77.667 104.446C75.9435 103.692 74.5893 102.553 73.6045 101.03C72.6196 99.5064 72.1272 97.5675 72.1272 95.2131C72.1272 93.2741 72.4581 91.6199 73.1198 90.2504C73.7815 88.8654 74.7048 87.7344 75.8896 86.8572C77.0745 85.9801 78.4518 85.3107 80.0214 84.8491C81.6064 84.3874 83.3145 84.0874 85.1457 83.9489C87.1308 83.795 88.7235 83.6103 89.9237 83.3949C91.1394 83.1641 92.0165 82.8486 92.5551 82.4485C93.0937 82.033 93.363 81.4867 93.363 80.8097V80.7173C93.363 79.794 93.0091 79.0862 92.3012 78.5938C91.5934 78.1013 90.6855 77.8551 89.5775 77.8551C88.3618 77.8551 87.3693 78.1244 86.5999 78.663C85.8459 79.1862 85.3919 79.9941 85.238 81.0866H73.5122C73.666 78.9323 74.3508 76.9472 75.5665 75.1314C76.7976 73.3002 78.5903 71.8383 80.9447 70.7457C83.2991 69.6378 86.2383 69.0838 89.7622 69.0838C92.3012 69.0838 94.5787 69.3839 96.5945 69.984C98.6104 70.5688 100.326 71.392 101.742 72.4538C103.158 73.5002 104.235 74.7313 104.973 76.147C105.727 77.5473 106.104 79.0708 106.104 80.7173V105H94.194V100.014H93.917C93.2091 101.338 92.3474 102.407 91.3318 103.223C90.3315 104.038 89.1851 104.631 87.8925 105C86.6153 105.369 85.2072 105.554 83.6684 105.554ZM87.8232 97.5213C88.7927 97.5213 89.7006 97.3213 90.547 96.9212C91.4087 96.5211 92.1089 95.944 92.6475 95.19C93.1861 94.436 93.4553 93.5204 93.4553 92.4432V89.4886C93.1168 89.6271 92.7552 89.7579 92.3705 89.881C92.0012 90.0041 91.6011 90.1196 91.1702 90.2273C90.7547 90.335 90.3084 90.435 89.8314 90.5273C89.3698 90.6197 88.885 90.7043 88.3772 90.7812C87.3924 90.9351 86.5845 91.189 85.9536 91.543C85.338 91.8815 84.8764 92.3047 84.5686 92.8125C84.2762 93.3049 84.1301 93.8589 84.1301 94.4744C84.1301 95.4593 84.4763 96.2133 85.1688 96.7365C85.8612 97.2597 86.7461 97.5213 87.8232 97.5213ZM124.934 85.0568V105H112.192V69.5455H124.288V76.2855H124.657C125.426 74.0388 126.781 72.2769 128.719 70.9996C130.674 69.7224 132.951 69.0838 135.552 69.0838C138.06 69.0838 140.238 69.6609 142.084 70.815C143.946 71.9537 145.385 73.5233 146.401 75.5238C147.432 77.5243 147.939 79.8094 147.924 82.3793V105H135.183V85.0568C135.198 83.3026 134.752 81.9253 133.844 80.9251C132.951 79.9248 131.705 79.4247 130.104 79.4247C129.058 79.4247 128.142 79.6555 127.358 80.1172C126.588 80.5634 125.996 81.2098 125.58 82.0561C125.165 82.8871 124.949 83.8873 124.934 85.0568ZM171.295 119.034C167.74 119.034 164.693 118.526 162.154 117.511C159.631 116.51 157.669 115.125 156.268 113.356C154.883 111.602 154.106 109.586 153.937 107.308H166.217C166.34 108.062 166.648 108.67 167.14 109.132C167.633 109.593 168.263 109.924 169.033 110.124C169.818 110.34 170.695 110.447 171.664 110.447C173.311 110.447 174.673 110.047 175.75 109.247C176.842 108.447 177.389 107 177.389 104.908V98.9062H177.019C176.558 100.107 175.85 101.13 174.896 101.976C173.942 102.807 172.795 103.446 171.456 103.892C170.118 104.323 168.648 104.538 167.048 104.538C164.524 104.538 162.2 103.954 160.077 102.784C157.969 101.615 156.276 99.7603 154.999 97.2212C153.737 94.6822 153.106 91.366 153.106 87.2727C153.106 82.9948 153.768 79.517 155.091 76.8395C156.43 74.1619 158.153 72.1999 160.262 70.9535C162.385 69.707 164.616 69.0838 166.955 69.0838C168.71 69.0838 170.249 69.3916 171.572 70.0071C172.895 70.6072 174.003 71.4151 174.896 72.4308C175.788 73.431 176.465 74.5312 176.927 75.7315H177.204V69.5455H189.945V104.908C189.945 107.908 189.168 110.455 187.614 112.548C186.075 114.656 183.906 116.264 181.105 117.372C178.304 118.48 175.034 119.034 171.295 119.034ZM171.757 95.4901C172.926 95.4901 173.926 95.1669 174.757 94.5206C175.604 93.8589 176.25 92.9202 176.696 91.7045C177.158 90.4735 177.389 88.9962 177.389 87.2727C177.389 85.5185 177.158 84.0181 176.696 82.7717C176.25 81.5098 175.604 80.5481 174.757 79.8864C173.926 79.2093 172.926 78.8707 171.757 78.8707C170.587 78.8707 169.587 79.2093 168.756 79.8864C167.94 80.5481 167.309 81.5098 166.863 82.7717C166.432 84.0181 166.217 85.5185 166.217 87.2727C166.217 89.027 166.432 90.5196 166.863 91.7507C167.309 92.9664 167.94 93.8974 168.756 94.5437C169.587 95.1746 170.587 95.4901 171.757 95.4901ZM206.305 105.554C204.043 105.554 202.043 105.185 200.304 104.446C198.58 103.692 197.226 102.553 196.241 101.03C195.256 99.5064 194.764 97.5675 194.764 95.2131C194.764 93.2741 195.095 91.6199 195.756 90.2504C196.418 88.8654 197.341 87.7344 198.526 86.8572C199.711 85.9801 201.089 85.3107 202.658 84.8491C204.243 84.3874 205.951 84.0874 207.782 83.9489C209.767 83.795 211.36 83.6103 212.56 83.3949C213.776 83.1641 214.653 82.8486 215.192 82.4485C215.73 82.033 216 81.4867 216 80.8097V80.7173C216 79.794 215.646 79.0862 214.938 78.5938C214.23 78.1013 213.322 77.8551 212.214 77.8551C210.999 77.8551 210.006 78.1244 209.237 78.663C208.483 79.1862 208.029 79.9941 207.875 81.0866H196.149C196.303 78.9323 196.988 76.9472 198.203 75.1314C199.434 73.3002 201.227 71.8383 203.581 70.7457C205.936 69.6378 208.875 69.0838 212.399 69.0838C214.938 69.0838 217.215 69.3839 219.231 69.984C221.247 70.5688 222.963 71.392 224.379 72.4538C225.794 73.5002 226.872 74.7313 227.61 76.147C228.364 77.5473 228.741 79.0708 228.741 80.7173V105H216.831V100.014H216.554C215.846 101.338 214.984 102.407 213.968 103.223C212.968 104.038 211.822 104.631 210.529 105C209.252 105.369 207.844 105.554 206.305 105.554ZM210.46 97.5213C211.429 97.5213 212.337 97.3213 213.184 96.9212C214.045 96.5211 214.746 95.944 215.284 95.19C215.823 94.436 216.092 93.5204 216.092 92.4432V89.4886C215.754 89.6271 215.392 89.7579 215.007 89.881C214.638 90.0041 214.238 90.1196 213.807 90.2273C213.391 90.335 212.945 90.435 212.468 90.5273C212.006 90.6197 211.522 90.7043 211.014 90.7812C210.029 90.9351 209.221 91.189 208.59 91.543C207.975 91.8815 207.513 92.3047 207.205 92.8125C206.913 93.3049 206.767 93.8589 206.767 94.4744C206.767 95.4593 207.113 96.2133 207.805 96.7365C208.498 97.2597 209.383 97.5213 210.46 97.5213ZM234.829 105V69.5455H247.201V76.2855H247.571C248.217 73.7926 249.24 71.9691 250.641 70.815C252.056 69.6609 253.711 69.0838 255.603 69.0838C256.157 69.0838 256.704 69.13 257.242 69.2223C257.796 69.2992 258.327 69.4147 258.835 69.5685V80.4403C258.204 80.2249 257.427 80.0633 256.504 79.9556C255.58 79.8479 254.788 79.794 254.126 79.794C252.88 79.794 251.756 80.0787 250.756 80.6481C249.771 81.2021 248.994 81.9869 248.425 83.0025C247.855 84.0027 247.571 85.1799 247.571 86.5341V105H234.829ZM278.062 105.646C274.215 105.646 270.922 104.885 268.183 103.361C265.444 101.822 263.344 99.6834 261.882 96.9442C260.42 94.1897 259.689 90.9967 259.689 87.3651C259.689 83.7334 260.42 80.5481 261.882 77.8089C263.344 75.0544 265.444 72.9155 268.183 71.392C270.922 69.8532 274.215 69.0838 278.062 69.0838C281.91 69.0838 285.203 69.8532 287.942 71.392C290.681 72.9155 292.781 75.0544 294.243 77.8089C295.705 80.5481 296.436 83.7334 296.436 87.3651C296.436 90.9967 295.705 94.1897 294.243 96.9442C292.781 99.6834 290.681 101.822 287.942 103.361C285.203 104.885 281.91 105.646 278.062 105.646ZM278.155 96.2287C279.232 96.2287 280.163 95.8671 280.948 95.1438C281.733 94.4206 282.34 93.3896 282.771 92.0508C283.202 90.712 283.418 89.1193 283.418 87.2727C283.418 85.4107 283.202 83.8181 282.771 82.4947C282.34 81.1559 281.733 80.1249 280.948 79.4016C280.163 78.6784 279.232 78.3168 278.155 78.3168C277.016 78.3168 276.039 78.6784 275.223 79.4016C274.408 80.1249 273.785 81.1559 273.354 82.4947C272.923 83.8181 272.707 85.4107 272.707 87.2727C272.707 89.1193 272.923 90.712 273.354 92.0508C273.785 93.3896 274.408 94.4206 275.223 95.1438C276.039 95.8671 277.016 96.2287 278.155 96.2287ZM318.688 105.646C314.84 105.646 311.547 104.885 308.808 103.361C306.069 101.822 303.969 99.6834 302.507 96.9442C301.045 94.1897 300.314 90.9967 300.314 87.3651C300.314 83.7334 301.045 80.5481 302.507 77.8089C303.969 75.0544 306.069 72.9155 308.808 71.392C311.547 69.8532 314.84 69.0838 318.688 69.0838C322.535 69.0838 325.828 69.8532 328.567 71.392C331.306 72.9155 333.406 75.0544 334.868 77.8089C336.33 80.5481 337.061 83.7334 337.061 87.3651C337.061 90.9967 336.33 94.1897 334.868 96.9442C333.406 99.6834 331.306 101.822 328.567 103.361C325.828 104.885 322.535 105.646 318.688 105.646ZM318.78 96.2287C319.857 96.2287 320.788 95.8671 321.573 95.1438C322.358 94.4206 322.965 93.3896 323.396 92.0508C323.827 90.712 324.043 89.1193 324.043 87.2727C324.043 85.4107 323.827 83.8181 323.396 82.4947C322.965 81.1559 322.358 80.1249 321.573 79.4016C320.788 78.6784 319.857 78.3168 318.78 78.3168C317.641 78.3168 316.664 78.6784 315.848 79.4016C315.033 80.1249 314.41 81.1559 313.979 82.4947C313.548 83.8181 313.332 85.4107 313.332 87.2727C313.332 89.1193 313.548 90.712 313.979 92.0508C314.41 93.3896 315.033 94.4206 315.848 95.1438C316.664 95.8671 317.641 96.2287 318.78 96.2287Z" fill="#FBEDE7"/>
</g>
<defs>
<filter id="filter0_dd_204_12189" x="0.0862389" y="25.4167" width="118.053" height="55.4154" filterUnits="userSpaceOnUse" color-interpolation-filters="sRGB">
<feFlood flood-opacity="0" result="BackgroundImageFix"/>
<feColorMatrix in="SourceAlpha" type="matrix" values="0 0 0 0 0 0 0 0 0 0 0 0 0 0 0 0 0 0 127 0" result="hardAlpha"/>
<feOffset dx="1" dy="5.43135"/>
<feGaussianBlur stdDeviation="5.2048"/>
<feColorMatrix type="matrix" values="0 0 0 0 0 0 0 0 0 0 0 0 0 0 0 0 0 0 0.117297 0"/>
<feBlend mode="normal" in2="BackgroundImageFix" result="effect1_dropShadow_204_12189"/>
<feColorMatrix in="SourceAlpha" type="matrix" values="0 0 0 0 0 0 0 0 0 0 0 0 0 0 0 0 0 0 127 0" result="hardAlpha"/>
<feOffset dx="1" dy="13.0687"/>
<feGaussianBlur stdDeviation="6.9271"/>
<feColorMatrix type="matrix" values="0 0 0 0 0 0 0 0 0 0 0 0 0 0 0 0 0 0 0.0945694 0"/>
<feBlend mode="normal" in2="effect1_dropShadow_204_12189" result="effect2_dropShadow_204_12189"/>
<feBlend mode="normal" in="SourceGraphic" in2="effect2_dropShadow_204_12189" result="shape"/>
</filter>
<filter id="filter1_dd_204_12189" x="21.5159" y="52.7491" width="330.399" height="93.2079" filterUnits="userSpaceOnUse" color-interpolation-filters="sRGB">
<feFlood flood-opacity="0" result="BackgroundImageFix"/>
<feColorMatrix in="SourceAlpha" type="matrix" values="0 0 0 0 0 0 0 0 0 0 0 0 0 0 0 0 0 0 127 0" result="hardAlpha"/>
<feOffset dx="1" dy="5.43135"/>
<feGaussianBlur stdDeviation="5.2048"/>
<feColorMatrix type="matrix" values="0 0 0 0 0 0 0 0 0 0 0 0 0 0 0 0 0 0 0.117297 0"/>
<feBlend mode="normal" in2="BackgroundImageFix" result="effect1_dropShadow_204_12189"/>
<feColorMatrix in="SourceAlpha" type="matrix" values="0 0 0 0 0 0 0 0 0 0 0 0 0 0 0 0 0 0 127 0" result="hardAlpha"/>
<feOffset dx="1" dy="13.0687"/>
<feGaussianBlur stdDeviation="6.9271"/>
<feColorMatrix type="matrix" values="0 0 0 0 0 0 0 0 0 0 0 0 0 0 0 0 0 0 0.0945694 0"/>
<feBlend mode="normal" in2="effect1_dropShadow_204_12189" result="effect2_dropShadow_204_12189"/>
<feBlend mode="normal" in="SourceGraphic" in2="effect2_dropShadow_204_12189" result="shape"/>
</filter>
</defs>
</svg>
