<svg width="354" height="141" viewBox="0 0 354 141" fill="none" xmlns="http://www.w3.org/2000/svg">
<g filter="url(#filter0_dd_204_12188)">
<path d="M13.6832 44L16.581 26.5455H23.8594C25.1662 26.5455 26.2315 26.7301 27.0554 27.0994C27.8793 27.4687 28.4588 27.9858 28.794 28.6506C29.1349 29.3153 29.2315 30.0852 29.0838 30.9602C28.9645 31.6193 28.7202 32.2102 28.3509 32.733C27.9872 33.25 27.5327 33.6818 26.9872 34.0284C26.4418 34.3693 25.8395 34.608 25.1804 34.7443L25.1463 34.9148C25.8509 34.9432 26.473 35.1307 27.0128 35.4773C27.5582 35.8239 27.9616 36.3097 28.223 36.9347C28.4844 37.554 28.544 38.2812 28.402 39.1165C28.2486 40.054 27.8707 40.892 27.2685 41.6307C26.6719 42.3636 25.8849 42.9432 24.9077 43.3693C23.9304 43.7898 22.7997 44 21.5156 44H13.6832ZM18.4815 40.5994H21.0895C21.9929 40.5994 22.6918 40.4261 23.1861 40.0795C23.6861 39.7273 23.9815 39.2443 24.0724 38.6307C24.1463 38.1818 24.1065 37.7955 23.9531 37.4716C23.7997 37.142 23.544 36.8892 23.1861 36.7131C22.8281 36.5312 22.3764 36.4403 21.831 36.4403H19.1463L18.4815 40.5994ZM19.6151 33.7216H21.9588C22.4134 33.7216 22.831 33.6449 23.2116 33.4915C23.598 33.3381 23.9162 33.1165 24.1662 32.8267C24.4219 32.5369 24.581 32.1875 24.6435 31.7784C24.7401 31.1932 24.6065 30.733 24.2429 30.3977C23.8793 30.0625 23.348 29.8949 22.6491 29.8949H20.2457L19.6151 33.7216ZM33.277 44.2216C32.4474 44.2216 31.7315 44.0824 31.1293 43.804C30.5327 43.5199 30.0952 43.0909 29.8168 42.517C29.544 41.9432 29.4787 41.2273 29.6207 40.3693C29.7457 39.642 29.9759 39.0312 30.3111 38.5369C30.652 38.0369 31.0696 37.6307 31.5639 37.3182C32.0639 37.0057 32.6207 36.767 33.2344 36.6023C33.848 36.4375 34.4901 36.3267 35.1605 36.2699C35.9105 36.2017 36.5185 36.1278 36.9844 36.0483C37.456 35.9687 37.8082 35.858 38.0412 35.7159C38.2741 35.5682 38.4162 35.3636 38.4673 35.1023V35.0597C38.5355 34.6222 38.4418 34.2841 38.1861 34.0455C37.9304 33.8068 37.5469 33.6875 37.0355 33.6875C36.4901 33.6875 36.0241 33.8068 35.6378 34.0455C35.2514 34.2841 34.9815 34.6136 34.8281 35.0341L31.0099 34.8977C31.2486 34.1023 31.6577 33.392 32.2372 32.767C32.8168 32.1364 33.5526 31.642 34.4446 31.2841C35.3423 30.9205 36.3793 30.7386 37.5554 30.7386C38.3849 30.7386 39.1349 30.8381 39.8054 31.0369C40.4759 31.2301 41.0412 31.5142 41.5014 31.8892C41.9673 32.2585 42.2997 32.7131 42.4986 33.2528C42.6974 33.7926 42.7401 34.4091 42.6264 35.1023L41.1349 44H37.2145L37.5213 42.1761H37.419C37.1122 42.6193 36.7514 42.9943 36.3366 43.3011C35.9276 43.608 35.4673 43.8381 34.956 43.9915C34.4446 44.1449 33.8849 44.2216 33.277 44.2216ZM35.0327 41.4943C35.4702 41.4943 35.8849 41.4034 36.277 41.2216C36.669 41.0398 36.9986 40.7898 37.2656 40.4716C37.5384 40.1477 37.7116 39.7727 37.7855 39.3466L37.9815 38.1023C37.8622 38.1648 37.7116 38.2216 37.5298 38.2727C37.348 38.3239 37.1548 38.3722 36.9503 38.4176C36.7457 38.4574 36.5355 38.4972 36.3196 38.5369C36.1094 38.571 35.9077 38.6023 35.7145 38.6307C35.3054 38.6932 34.9503 38.7898 34.6491 38.9205C34.348 39.0511 34.1065 39.2216 33.9247 39.4318C33.7486 39.6364 33.6406 39.8807 33.6009 40.1648C33.5327 40.5909 33.6321 40.9205 33.8991 41.1534C34.1662 41.3807 34.544 41.4943 35.0327 41.4943ZM49.1207 36.5341L47.8764 44H43.7088L45.8906 30.9091H49.8537L49.4616 33.3125H49.6065C50.0156 32.5114 50.6094 31.8835 51.3878 31.429C52.1662 30.9688 53.0412 30.7386 54.0128 30.7386C54.9276 30.7386 55.6918 30.9432 56.3054 31.3523C56.919 31.7614 57.3537 32.3352 57.6094 33.0739C57.8651 33.8068 57.9077 34.6676 57.7372 35.6562L56.3395 44H52.1719L53.4247 36.4744C53.5497 35.7528 53.4616 35.1875 53.1605 34.7784C52.8651 34.3636 52.3821 34.1562 51.7116 34.1562C51.2741 34.1562 50.8736 34.2528 50.5099 34.446C50.152 34.6335 49.8509 34.9034 49.6065 35.2557C49.3679 35.608 49.206 36.0341 49.1207 36.5341ZM62.5504 44.2216C61.7209 44.2216 61.005 44.0824 60.4027 43.804C59.8061 43.5199 59.3686 43.0909 59.0902 42.517C58.8175 41.9432 58.7521 41.2273 58.8942 40.3693C59.0192 39.642 59.2493 39.0312 59.5845 38.5369C59.9254 38.0369 60.343 37.6307 60.8374 37.3182C61.3374 37.0057 61.8942 36.767 62.5078 36.6023C63.1214 36.4375 63.7635 36.3267 64.4339 36.2699C65.1839 36.2017 65.7919 36.1278 66.2578 36.0483C66.7294 35.9687 67.0817 35.858 67.3146 35.7159C67.5476 35.5682 67.6896 35.3636 67.7408 35.1023V35.0597C67.8089 34.6222 67.7152 34.2841 67.4595 34.0455C67.2038 33.8068 66.8203 33.6875 66.3089 33.6875C65.7635 33.6875 65.2976 33.8068 64.9112 34.0455C64.5249 34.2841 64.255 34.6136 64.1016 35.0341L60.2834 34.8977C60.522 34.1023 60.9311 33.392 61.5107 32.767C62.0902 32.1364 62.826 31.642 63.718 31.2841C64.6158 30.9205 65.6527 30.7386 66.8288 30.7386C67.6584 30.7386 68.4084 30.8381 69.0788 31.0369C69.7493 31.2301 70.3146 31.5142 70.7749 31.8892C71.2408 32.2585 71.5732 32.7131 71.772 33.2528C71.9709 33.7926 72.0135 34.4091 71.8999 35.1023L70.4084 44H66.4879L66.7947 42.1761H66.6925C66.3857 42.6193 66.0249 42.9943 65.6101 43.3011C65.201 43.608 64.7408 43.8381 64.2294 43.9915C63.718 44.1449 63.1584 44.2216 62.5504 44.2216ZM64.3061 41.4943C64.7436 41.4943 65.1584 41.4034 65.5504 41.2216C65.9425 41.0398 66.272 40.7898 66.5391 40.4716C66.8118 40.1477 66.9851 39.7727 67.0589 39.3466L67.255 38.1023C67.1357 38.1648 66.9851 38.2216 66.8033 38.2727C66.6214 38.3239 66.4283 38.3722 66.2237 38.4176C66.0192 38.4574 65.8089 38.4972 65.593 38.5369C65.3828 38.571 65.1811 38.6023 64.9879 38.6307C64.5788 38.6932 64.2237 38.7898 63.9226 38.9205C63.6214 39.0511 63.38 39.2216 63.1982 39.4318C63.022 39.6364 62.9141 39.8807 62.8743 40.1648C62.8061 40.5909 62.9055 40.9205 63.1726 41.1534C63.4396 41.3807 63.8175 41.4943 64.3061 41.4943ZM78.3942 36.5341L77.1499 44H72.9822L75.1641 30.9091H79.1271L78.7351 33.3125H78.88C79.2891 32.5114 79.8828 31.8835 80.6612 31.429C81.4396 30.9688 82.3146 30.7386 83.2862 30.7386C84.201 30.7386 84.9652 30.9432 85.5788 31.3523C86.1925 31.7614 86.6271 32.3352 86.8828 33.0739C87.1385 33.8068 87.1811 34.6676 87.0107 35.6562L85.6129 44H81.4453L82.6982 36.4744C82.8232 35.7528 82.7351 35.1875 82.4339 34.7784C82.1385 34.3636 81.6555 34.1562 80.9851 34.1562C80.5476 34.1562 80.147 34.2528 79.7834 34.446C79.4254 34.6335 79.1243 34.9034 78.88 35.2557C78.6413 35.608 78.4794 36.0341 78.3942 36.5341ZM91.8239 44.2216C90.9943 44.2216 90.2784 44.0824 89.6761 43.804C89.0795 43.5199 88.642 43.0909 88.3636 42.517C88.0909 41.9432 88.0256 41.2273 88.1676 40.3693C88.2926 39.642 88.5227 39.0312 88.858 38.5369C89.1989 38.0369 89.6165 37.6307 90.1108 37.3182C90.6108 37.0057 91.1676 36.767 91.7812 36.6023C92.3949 36.4375 93.0369 36.3267 93.7074 36.2699C94.4574 36.2017 95.0653 36.1278 95.5312 36.0483C96.0028 35.9687 96.3551 35.858 96.5881 35.7159C96.821 35.5682 96.9631 35.3636 97.0142 35.1023V35.0597C97.0824 34.6222 96.9886 34.2841 96.733 34.0455C96.4773 33.8068 96.0938 33.6875 95.5824 33.6875C95.0369 33.6875 94.571 33.8068 94.1847 34.0455C93.7983 34.2841 93.5284 34.6136 93.375 35.0341L89.5568 34.8977C89.7955 34.1023 90.2045 33.392 90.7841 32.767C91.3636 32.1364 92.0994 31.642 92.9915 31.2841C93.8892 30.9205 94.9261 30.7386 96.1023 30.7386C96.9318 30.7386 97.6818 30.8381 98.3523 31.0369C99.0227 31.2301 99.5881 31.5142 100.048 31.8892C100.514 32.2585 100.847 32.7131 101.045 33.2528C101.244 33.7926 101.287 34.4091 101.173 35.1023L99.6818 44H95.7614L96.0682 42.1761H95.9659C95.6591 42.6193 95.2983 42.9943 94.8835 43.3011C94.4744 43.608 94.0142 43.8381 93.5028 43.9915C92.9915 44.1449 92.4318 44.2216 91.8239 44.2216ZM93.5795 41.4943C94.017 41.4943 94.4318 41.4034 94.8239 41.2216C95.2159 41.0398 95.5455 40.7898 95.8125 40.4716C96.0852 40.1477 96.2585 39.7727 96.3324 39.3466L96.5284 38.1023C96.4091 38.1648 96.2585 38.2216 96.0767 38.2727C95.8949 38.3239 95.7017 38.3722 95.4972 38.4176C95.2926 38.4574 95.0824 38.4972 94.8665 38.5369C94.6563 38.571 94.4545 38.6023 94.2614 38.6307C93.8523 38.6932 93.4972 38.7898 93.196 38.9205C92.8949 39.0511 92.6534 39.2216 92.4716 39.4318C92.2955 39.6364 92.1875 39.8807 92.1477 40.1648C92.0795 40.5909 92.179 40.9205 92.446 41.1534C92.7131 41.3807 93.0909 41.4943 93.5795 41.4943Z" fill="#FDF6E2"/>
</g>
<g filter="url(#filter1_dd_204_12188)">
<path d="M44.8191 91.598L44.9114 76.456H46.5733L55.16 64.5455H69.4711L55.0677 83.1037H51.4668L44.8191 91.598ZM33.3702 100V52.7273H46.1117V100H33.3702ZM55.2523 100L47.1273 85.9659L55.437 76.9176L69.8404 100H55.2523ZM82.6684 100.554C80.4063 100.554 78.4059 100.185 76.667 99.446C74.9435 98.692 73.5893 97.5533 72.6045 96.0298C71.6196 94.5064 71.1272 92.5675 71.1272 90.2131C71.1272 88.2741 71.4581 86.6199 72.1198 85.2504C72.7815 83.8654 73.7048 82.7344 74.8896 81.8572C76.0745 80.9801 77.4518 80.3107 79.0214 79.8491C80.6064 79.3874 82.3145 79.0874 84.1457 78.9489C86.1308 78.795 87.7235 78.6103 88.9237 78.3949C90.1394 78.1641 91.0165 77.8486 91.5551 77.4485C92.0937 77.033 92.363 76.4867 92.363 75.8097V75.7173C92.363 74.794 92.0091 74.0862 91.3012 73.5938C90.5934 73.1013 89.6855 72.8551 88.5775 72.8551C87.3618 72.8551 86.3693 73.1244 85.5999 73.663C84.8459 74.1862 84.3919 74.9941 84.238 76.0866H72.5122C72.666 73.9323 73.3508 71.9472 74.5665 70.1314C75.7976 68.3002 77.5903 66.8383 79.9447 65.7457C82.2991 64.6378 85.2383 64.0838 88.7622 64.0838C91.3012 64.0838 93.5787 64.3839 95.5945 64.984C97.6104 65.5688 99.3262 66.392 100.742 67.4538C102.158 68.5002 103.235 69.7313 103.973 71.147C104.727 72.5473 105.104 74.0708 105.104 75.7173V100H93.194V95.0142H92.917C92.2091 96.3376 91.3474 97.4071 90.3318 98.2227C89.3315 99.0382 88.1851 99.6307 86.8925 100C85.6153 100.369 84.2072 100.554 82.6684 100.554ZM86.8232 92.5213C87.7927 92.5213 88.7006 92.3213 89.547 91.9212C90.4087 91.5211 91.1089 90.944 91.6475 90.19C92.1861 89.436 92.4553 88.5204 92.4553 87.4432V84.4886C92.1168 84.6271 91.7552 84.7579 91.3705 84.881C91.0012 85.0041 90.6011 85.1196 90.1702 85.2273C89.7547 85.335 89.3084 85.435 88.8314 85.5273C88.3698 85.6197 87.885 85.7043 87.3772 85.7812C86.3924 85.9351 85.5845 86.189 84.9536 86.543C84.338 86.8815 83.8764 87.3047 83.5686 87.8125C83.2762 88.3049 83.1301 88.8589 83.1301 89.4744C83.1301 90.4593 83.4763 91.2133 84.1688 91.7365C84.8612 92.2597 85.7461 92.5213 86.8232 92.5213ZM123.934 80.0568V100H111.192V64.5455H123.288V71.2855H123.657C124.426 69.0388 125.781 67.2769 127.719 65.9996C129.674 64.7224 131.951 64.0838 134.552 64.0838C137.06 64.0838 139.238 64.6609 141.084 65.815C142.946 66.9537 144.385 68.5233 145.401 70.5238C146.432 72.5243 146.939 74.8094 146.924 77.3793V100H134.183V80.0568C134.198 78.3026 133.752 76.9253 132.844 75.9251C131.951 74.9248 130.705 74.4247 129.104 74.4247C128.058 74.4247 127.142 74.6555 126.358 75.1172C125.588 75.5634 124.996 76.2098 124.58 77.0561C124.165 77.8871 123.949 78.8873 123.934 80.0568ZM170.295 114.034C166.74 114.034 163.693 113.526 161.154 112.511C158.631 111.51 156.669 110.125 155.268 108.356C153.883 106.602 153.106 104.586 152.937 102.308H165.217C165.34 103.062 165.648 103.67 166.14 104.132C166.633 104.593 167.263 104.924 168.033 105.124C168.818 105.34 169.695 105.447 170.664 105.447C172.311 105.447 173.673 105.047 174.75 104.247C175.842 103.447 176.389 102 176.389 99.9077V93.9062H176.019C175.558 95.1065 174.85 96.1299 173.896 96.9762C172.942 97.8072 171.795 98.4458 170.456 98.892C169.118 99.3229 167.648 99.5384 166.048 99.5384C163.524 99.5384 161.2 98.9536 159.077 97.7841C156.969 96.6146 155.276 94.7603 153.999 92.2212C152.737 89.6822 152.106 86.366 152.106 82.2727C152.106 77.9948 152.768 74.517 154.091 71.8395C155.43 69.1619 157.153 67.1999 159.262 65.9535C161.385 64.707 163.616 64.0838 165.955 64.0838C167.71 64.0838 169.249 64.3916 170.572 65.0071C171.895 65.6072 173.003 66.4151 173.896 67.4308C174.788 68.431 175.465 69.5312 175.927 70.7315H176.204V64.5455H188.945V99.9077C188.945 102.908 188.168 105.455 186.614 107.548C185.075 109.656 182.906 111.264 180.105 112.372C177.304 113.48 174.034 114.034 170.295 114.034ZM170.757 90.4901C171.926 90.4901 172.926 90.1669 173.757 89.5206C174.604 88.8589 175.25 87.9202 175.696 86.7045C176.158 85.4735 176.389 83.9962 176.389 82.2727C176.389 80.5185 176.158 79.0181 175.696 77.7717C175.25 76.5098 174.604 75.5481 173.757 74.8864C172.926 74.2093 171.926 73.8707 170.757 73.8707C169.587 73.8707 168.587 74.2093 167.756 74.8864C166.94 75.5481 166.309 76.5098 165.863 77.7717C165.432 79.0181 165.217 80.5185 165.217 82.2727C165.217 84.027 165.432 85.5196 165.863 86.7507C166.309 87.9664 166.94 88.8974 167.756 89.5437C168.587 90.1746 169.587 90.4901 170.757 90.4901ZM205.305 100.554C203.043 100.554 201.043 100.185 199.304 99.446C197.58 98.692 196.226 97.5533 195.241 96.0298C194.256 94.5064 193.764 92.5675 193.764 90.2131C193.764 88.2741 194.095 86.6199 194.756 85.2504C195.418 83.8654 196.341 82.7344 197.526 81.8572C198.711 80.9801 200.089 80.3107 201.658 79.8491C203.243 79.3874 204.951 79.0874 206.782 78.9489C208.767 78.795 210.36 78.6103 211.56 78.3949C212.776 78.1641 213.653 77.8486 214.192 77.4485C214.73 77.033 215 76.4867 215 75.8097V75.7173C215 74.794 214.646 74.0862 213.938 73.5938C213.23 73.1013 212.322 72.8551 211.214 72.8551C209.999 72.8551 209.006 73.1244 208.237 73.663C207.483 74.1862 207.029 74.9941 206.875 76.0866H195.149C195.303 73.9323 195.988 71.9472 197.203 70.1314C198.434 68.3002 200.227 66.8383 202.581 65.7457C204.936 64.6378 207.875 64.0838 211.399 64.0838C213.938 64.0838 216.215 64.3839 218.231 64.984C220.247 65.5688 221.963 66.392 223.379 67.4538C224.794 68.5002 225.872 69.7313 226.61 71.147C227.364 72.5473 227.741 74.0708 227.741 75.7173V100H215.831V95.0142H215.554C214.846 96.3376 213.984 97.4071 212.968 98.2227C211.968 99.0382 210.822 99.6307 209.529 100C208.252 100.369 206.844 100.554 205.305 100.554ZM209.46 92.5213C210.429 92.5213 211.337 92.3213 212.184 91.9212C213.045 91.5211 213.746 90.944 214.284 90.19C214.823 89.436 215.092 88.5204 215.092 87.4432V84.4886C214.754 84.6271 214.392 84.7579 214.007 84.881C213.638 85.0041 213.238 85.1196 212.807 85.2273C212.391 85.335 211.945 85.435 211.468 85.5273C211.006 85.6197 210.522 85.7043 210.014 85.7812C209.029 85.9351 208.221 86.189 207.59 86.543C206.975 86.8815 206.513 87.3047 206.205 87.8125C205.913 88.3049 205.767 88.8589 205.767 89.4744C205.767 90.4593 206.113 91.2133 206.805 91.7365C207.498 92.2597 208.383 92.5213 209.46 92.5213ZM233.829 100V64.5455H246.201V71.2855H246.571C247.217 68.7926 248.24 66.9691 249.641 65.815C251.056 64.6609 252.711 64.0838 254.603 64.0838C255.157 64.0838 255.704 64.13 256.242 64.2223C256.796 64.2992 257.327 64.4147 257.835 64.5685V75.4403C257.204 75.2249 256.427 75.0633 255.504 74.9556C254.58 74.8479 253.788 74.794 253.126 74.794C251.88 74.794 250.756 75.0787 249.756 75.6481C248.771 76.2021 247.994 76.9869 247.425 78.0025C246.855 79.0027 246.571 80.1799 246.571 81.5341V100H233.829ZM277.062 100.646C273.215 100.646 269.922 99.8846 267.183 98.3612C264.444 96.8223 262.344 94.6834 260.882 91.9442C259.42 89.1897 258.689 85.9967 258.689 82.3651C258.689 78.7334 259.42 75.5481 260.882 72.8089C262.344 70.0544 264.444 67.9155 267.183 66.392C269.922 64.8532 273.215 64.0838 277.062 64.0838C280.91 64.0838 284.203 64.8532 286.942 66.392C289.681 67.9155 291.781 70.0544 293.243 72.8089C294.705 75.5481 295.436 78.7334 295.436 82.3651C295.436 85.9967 294.705 89.1897 293.243 91.9442C291.781 94.6834 289.681 96.8223 286.942 98.3612C284.203 99.8846 280.91 100.646 277.062 100.646ZM277.155 91.2287C278.232 91.2287 279.163 90.8671 279.948 90.1438C280.733 89.4206 281.34 88.3896 281.771 87.0508C282.202 85.712 282.418 84.1193 282.418 82.2727C282.418 80.4107 282.202 78.8181 281.771 77.4947C281.34 76.1559 280.733 75.1249 279.948 74.4016C279.163 73.6784 278.232 73.3168 277.155 73.3168C276.016 73.3168 275.039 73.6784 274.223 74.4016C273.408 75.1249 272.785 76.1559 272.354 77.4947C271.923 78.8181 271.707 80.4107 271.707 82.2727C271.707 84.1193 271.923 85.712 272.354 87.0508C272.785 88.3896 273.408 89.4206 274.223 90.1438C275.039 90.8671 276.016 91.2287 277.155 91.2287ZM317.688 100.646C313.84 100.646 310.547 99.8846 307.808 98.3612C305.069 96.8223 302.969 94.6834 301.507 91.9442C300.045 89.1897 299.314 85.9967 299.314 82.3651C299.314 78.7334 300.045 75.5481 301.507 72.8089C302.969 70.0544 305.069 67.9155 307.808 66.392C310.547 64.8532 313.84 64.0838 317.688 64.0838C321.535 64.0838 324.828 64.8532 327.567 66.392C330.306 67.9155 332.406 70.0544 333.868 72.8089C335.33 75.5481 336.061 78.7334 336.061 82.3651C336.061 85.9967 335.33 89.1897 333.868 91.9442C332.406 94.6834 330.306 96.8223 327.567 98.3612C324.828 99.8846 321.535 100.646 317.688 100.646ZM317.78 91.2287C318.857 91.2287 319.788 90.8671 320.573 90.1438C321.358 89.4206 321.965 88.3896 322.396 87.0508C322.827 85.712 323.043 84.1193 323.043 82.2727C323.043 80.4107 322.827 78.8181 322.396 77.4947C321.965 76.1559 321.358 75.1249 320.573 74.4016C319.788 73.6784 318.857 73.3168 317.78 73.3168C316.641 73.3168 315.664 73.6784 314.848 74.4016C314.033 75.1249 313.41 76.1559 312.979 77.4947C312.548 78.8181 312.332 80.4107 312.332 82.2727C312.332 84.1193 312.548 85.712 312.979 87.0508C313.41 88.3896 314.033 89.4206 314.848 90.1438C315.664 90.8671 316.641 91.2287 317.78 91.2287Z" fill="#FDF6E2"/>
</g>
<defs>
<filter id="filter0_dd_204_12188" x="0.829159" y="21.5672" width="115.369" height="49.5773" filterUnits="userSpaceOnUse" color-interpolation-filters="sRGB">
<feFlood flood-opacity="0" result="BackgroundImageFix"/>
<feColorMatrix in="SourceAlpha" type="matrix" values="0 0 0 0 0 0 0 0 0 0 0 0 0 0 0 0 0 0 127 0" result="hardAlpha"/>
<feOffset dx="1" dy="5.43135"/>
<feGaussianBlur stdDeviation="5.2048"/>
<feColorMatrix type="matrix" values="0 0 0 0 0 0 0 0 0 0 0 0 0 0 0 0 0 0 0.117297 0"/>
<feBlend mode="normal" in2="BackgroundImageFix" result="effect1_dropShadow_204_12188"/>
<feColorMatrix in="SourceAlpha" type="matrix" values="0 0 0 0 0 0 0 0 0 0 0 0 0 0 0 0 0 0 127 0" result="hardAlpha"/>
<feOffset dx="1" dy="13.0687"/>
<feGaussianBlur stdDeviation="6.9271"/>
<feColorMatrix type="matrix" values="0 0 0 0 0 0 0 0 0 0 0 0 0 0 0 0 0 0 0.0945694 0"/>
<feBlend mode="normal" in2="effect1_dropShadow_204_12188" result="effect2_dropShadow_204_12188"/>
<feBlend mode="normal" in="SourceGraphic" in2="effect2_dropShadow_204_12188" result="shape"/>
</filter>
<filter id="filter1_dd_204_12188" x="20.5159" y="47.7491" width="330.399" height="93.2079" filterUnits="userSpaceOnUse" color-interpolation-filters="sRGB">
<feFlood flood-opacity="0" result="BackgroundImageFix"/>
<feColorMatrix in="SourceAlpha" type="matrix" values="0 0 0 0 0 0 0 0 0 0 0 0 0 0 0 0 0 0 127 0" result="hardAlpha"/>
<feOffset dx="1" dy="5.43135"/>
<feGaussianBlur stdDeviation="5.2048"/>
<feColorMatrix type="matrix" values="0 0 0 0 0 0 0 0 0 0 0 0 0 0 0 0 0 0 0.117297 0"/>
<feBlend mode="normal" in2="BackgroundImageFix" result="effect1_dropShadow_204_12188"/>
<feColorMatrix in="SourceAlpha" type="matrix" values="0 0 0 0 0 0 0 0 0 0 0 0 0 0 0 0 0 0 127 0" result="hardAlpha"/>
<feOffset dx="1" dy="13.0687"/>
<feGaussianBlur stdDeviation="6.9271"/>
<feColorMatrix type="matrix" values="0 0 0 0 0 0 0 0 0 0 0 0 0 0 0 0 0 0 0.0945694 0"/>
<feBlend mode="normal" in2="effect1_dropShadow_204_12188" result="effect2_dropShadow_204_12188"/>
<feBlend mode="normal" in="SourceGraphic" in2="effect2_dropShadow_204_12188" result="shape"/>
</filter>
</defs>
</svg>
