<svg width="265" height="63" viewBox="0 0 265 63" fill="none" xmlns="http://www.w3.org/2000/svg">
<g filter="url(#filter0_dd_68_6323)">
<path d="M13.2876 29L16.9098 7.18182H26.0078C27.6413 7.18182 28.973 7.41264 30.0028 7.87429C31.0327 8.33594 31.7571 8.98224 32.1761 9.81321C32.6023 10.6442 32.723 11.6065 32.5384 12.7003C32.3892 13.5241 32.0838 14.2628 31.6222 14.9162C31.1676 15.5625 30.5994 16.1023 29.9176 16.5355C29.2358 16.9616 28.483 17.2599 27.6591 17.4304L27.6165 17.6435C28.4972 17.679 29.2749 17.9134 29.9496 18.3466C30.6314 18.7798 31.1357 19.3871 31.4624 20.1683C31.7891 20.9425 31.8636 21.8516 31.6861 22.8956C31.4943 24.0675 31.022 25.1151 30.2692 26.0384C29.5234 26.9545 28.5398 27.679 27.3182 28.2116C26.0966 28.7372 24.6832 29 23.0781 29H13.2876ZM19.2855 24.7493H22.5455C23.6747 24.7493 24.5483 24.5327 25.1662 24.0994C25.7912 23.6591 26.1605 23.0554 26.2741 22.2884C26.3665 21.7273 26.3168 21.2443 26.125 20.8395C25.9332 20.4276 25.6136 20.1115 25.1662 19.8913C24.7188 19.6641 24.1541 19.5504 23.4723 19.5504H20.1165L19.2855 24.7493ZM20.7024 16.152H23.6321C24.2003 16.152 24.7223 16.0561 25.1982 15.8643C25.6811 15.6726 26.0788 15.3956 26.3913 15.0334C26.7109 14.6712 26.9098 14.2344 26.9879 13.723C27.1087 12.9915 26.9418 12.4162 26.4872 11.9972C26.0327 11.5781 25.3686 11.3686 24.495 11.3686H21.4908L20.7024 16.152ZM37.7798 29.277C36.7429 29.277 35.848 29.103 35.0952 28.755C34.3494 28.3999 33.8026 27.8636 33.4545 27.1463C33.1136 26.429 33.032 25.5341 33.2095 24.4616C33.3658 23.5526 33.6534 22.7891 34.0724 22.1712C34.4986 21.5462 35.0206 21.0384 35.6385 20.6477C36.2635 20.2571 36.9595 19.9588 37.7266 19.7528C38.4936 19.5469 39.2962 19.4084 40.1342 19.3374C41.0717 19.2521 41.8317 19.1598 42.4141 19.0604C43.0036 18.9609 43.4439 18.8224 43.7351 18.6449C44.0263 18.4602 44.2038 18.2045 44.2678 17.8778V17.8246C44.353 17.2777 44.2358 16.8551 43.9162 16.5568C43.5966 16.2585 43.1172 16.1094 42.478 16.1094C41.7962 16.1094 41.2138 16.2585 40.7308 16.5568C40.2479 16.8551 39.9105 17.267 39.7188 17.7926L34.946 17.6222C35.2443 16.6278 35.7557 15.7401 36.4801 14.9588C37.2045 14.1705 38.1243 13.5526 39.2393 13.1051C40.3615 12.6506 41.6577 12.4233 43.1278 12.4233C44.1648 12.4233 45.1023 12.5476 45.9403 12.7962C46.7784 13.0376 47.4851 13.3928 48.0604 13.8615C48.6428 14.3232 49.0582 14.8913 49.3068 15.5661C49.5554 16.2408 49.6087 17.0114 49.4666 17.8778L47.6023 29H42.7017L43.0852 26.7202H42.9574C42.5739 27.2741 42.1229 27.7429 41.6044 28.1264C41.093 28.5099 40.5178 28.7976 39.8786 28.9893C39.2393 29.1811 38.5398 29.277 37.7798 29.277ZM39.9744 25.8679C40.5213 25.8679 41.0398 25.7543 41.5298 25.527C42.0199 25.2997 42.4318 24.9872 42.7656 24.5895C43.1065 24.1847 43.3232 23.7159 43.4155 23.1832L43.6605 21.6278C43.5114 21.706 43.3232 21.777 43.0959 21.8409C42.8686 21.9048 42.6271 21.9652 42.3714 22.022C42.1158 22.0717 41.853 22.1214 41.5831 22.1712C41.3203 22.2138 41.0682 22.2528 40.8267 22.2884C40.3153 22.3665 39.8714 22.4872 39.495 22.6506C39.1186 22.8139 38.8168 23.027 38.5895 23.2898C38.3693 23.5455 38.2344 23.8509 38.1847 24.206C38.0994 24.7386 38.2237 25.1506 38.5575 25.4418C38.8913 25.7259 39.3636 25.8679 39.9744 25.8679ZM57.5845 19.6676L56.0291 29H50.8196L53.5469 12.6364H58.5007L58.0107 15.6406H58.1918C58.7031 14.6392 59.4453 13.8544 60.4183 13.2862C61.3913 12.7109 62.4851 12.4233 63.6996 12.4233C64.843 12.4233 65.7983 12.679 66.5653 13.1903C67.3324 13.7017 67.8757 14.419 68.1953 15.3423C68.5149 16.2585 68.5682 17.3345 68.3551 18.5703L66.608 29H61.3984L62.9645 19.593C63.1207 18.6911 63.0107 17.9844 62.6342 17.473C62.2649 16.9545 61.6612 16.6953 60.8232 16.6953C60.2763 16.6953 59.7756 16.8161 59.321 17.0575C58.8736 17.2919 58.4972 17.6293 58.1918 18.0696C57.8935 18.5099 57.6911 19.0426 57.5845 19.6676ZM74.3716 29.277C73.3347 29.277 72.4398 29.103 71.687 28.755C70.9412 28.3999 70.3944 27.8636 70.0463 27.1463C69.7054 26.429 69.6238 25.5341 69.8013 24.4616C69.9576 23.5526 70.2452 22.7891 70.6642 22.1712C71.0904 21.5462 71.6124 21.0384 72.2303 20.6477C72.8553 20.2571 73.5513 19.9588 74.3184 19.7528C75.0854 19.5469 75.888 19.4084 76.726 19.3374C77.6635 19.2521 78.4235 19.1598 79.0059 19.0604C79.5953 18.9609 80.0357 18.8224 80.3269 18.6449C80.6181 18.4602 80.7956 18.2045 80.8596 17.8778V17.8246C80.9448 17.2777 80.8276 16.8551 80.508 16.5568C80.1884 16.2585 79.709 16.1094 79.0698 16.1094C78.388 16.1094 77.8056 16.2585 77.3226 16.5568C76.8397 16.8551 76.5023 17.267 76.3105 17.7926L71.5378 17.6222C71.8361 16.6278 72.3475 15.7401 73.0719 14.9588C73.7963 14.1705 74.7161 13.5526 75.8311 13.1051C76.9533 12.6506 78.2495 12.4233 79.7196 12.4233C80.7566 12.4233 81.6941 12.5476 82.5321 12.7962C83.3702 13.0376 84.0769 13.3928 84.6522 13.8615C85.2346 14.3232 85.65 14.8913 85.8986 15.5661C86.1472 16.2408 86.2005 17.0114 86.0584 17.8778L84.1941 29H79.2935L79.677 26.7202H79.5492C79.1657 27.2741 78.7147 27.7429 78.1962 28.1264C77.6848 28.5099 77.1096 28.7976 76.4703 28.9893C75.8311 29.1811 75.1316 29.277 74.3716 29.277ZM76.5662 25.8679C77.1131 25.8679 77.6316 25.7543 78.1216 25.527C78.6117 25.2997 79.0236 24.9872 79.3574 24.5895C79.6983 24.1847 79.915 23.7159 80.0073 23.1832L80.2523 21.6278C80.1032 21.706 79.915 21.777 79.6877 21.8409C79.4604 21.9048 79.2189 21.9652 78.9632 22.022C78.7076 22.0717 78.4448 22.1214 78.1749 22.1712C77.9121 22.2138 77.66 22.2528 77.4185 22.2884C76.9071 22.3665 76.4632 22.4872 76.0868 22.6506C75.7104 22.8139 75.4086 23.027 75.1813 23.2898C74.9611 23.5455 74.8262 23.8509 74.7765 24.206C74.6912 24.7386 74.8155 25.1506 75.1493 25.4418C75.4831 25.7259 75.9554 25.8679 76.5662 25.8679ZM94.1763 19.6676L92.6209 29H87.4114L90.1387 12.6364H95.0925L94.6025 15.6406H94.7836C95.2949 14.6392 96.0371 13.8544 97.0101 13.2862C97.9831 12.7109 99.0769 12.4233 100.291 12.4233C101.435 12.4233 102.39 12.679 103.157 13.1903C103.924 13.7017 104.468 14.419 104.787 15.3423C105.107 16.2585 105.16 17.3345 104.947 18.5703L103.2 29H97.9902L99.5563 19.593C99.7125 18.6911 99.6025 17.9844 99.226 17.473C98.8567 16.9545 98.253 16.6953 97.415 16.6953C96.8681 16.6953 96.3674 16.8161 95.9128 17.0575C95.4654 17.2919 95.089 17.6293 94.7836 18.0696C94.4853 18.5099 94.2828 19.0426 94.1763 19.6676ZM110.963 29.277C109.926 29.277 109.032 29.103 108.279 28.755C107.533 28.3999 106.986 27.8636 106.638 27.1463C106.297 26.429 106.216 25.5341 106.393 24.4616C106.549 23.5526 106.837 22.7891 107.256 22.1712C107.682 21.5462 108.204 21.0384 108.822 20.6477C109.447 20.2571 110.143 19.9588 110.91 19.7528C111.677 19.5469 112.48 19.4084 113.318 19.3374C114.255 19.2521 115.015 19.1598 115.598 19.0604C116.187 18.9609 116.627 18.8224 116.919 18.6449C117.21 18.4602 117.387 18.2045 117.451 17.8778V17.8246C117.537 17.2777 117.419 16.8551 117.1 16.5568C116.78 16.2585 116.301 16.1094 115.662 16.1094C114.98 16.1094 114.397 16.2585 113.914 16.5568C113.431 16.8551 113.094 17.267 112.902 17.7926L108.13 17.6222C108.428 16.6278 108.939 15.7401 109.664 14.9588C110.388 14.1705 111.308 13.5526 112.423 13.1051C113.545 12.6506 114.841 12.4233 116.311 12.4233C117.348 12.4233 118.286 12.5476 119.124 12.7962C119.962 13.0376 120.669 13.3928 121.244 13.8615C121.826 14.3232 122.242 14.8913 122.49 15.5661C122.739 16.2408 122.792 17.0114 122.65 17.8778L120.786 29H115.885L116.269 26.7202H116.141C115.757 27.2741 115.306 27.7429 114.788 28.1264C114.277 28.5099 113.701 28.7976 113.062 28.9893C112.423 29.1811 111.723 29.277 110.963 29.277ZM113.158 25.8679C113.705 25.8679 114.223 25.7543 114.713 25.527C115.203 25.2997 115.615 24.9872 115.949 24.5895C116.29 24.1847 116.507 23.7159 116.599 23.1832L116.844 21.6278C116.695 21.706 116.507 21.777 116.279 21.8409C116.052 21.9048 115.811 21.9652 115.555 22.022C115.299 22.0717 115.037 22.1214 114.767 22.1712C114.504 22.2138 114.252 22.2528 114.01 22.2884C113.499 22.3665 113.055 22.4872 112.679 22.6506C112.302 22.8139 112 23.027 111.773 23.2898C111.553 23.5455 111.418 23.8509 111.368 24.206C111.283 24.7386 111.407 25.1506 111.741 25.4418C112.075 25.7259 112.547 25.8679 113.158 25.8679ZM136.233 18.1655L135.583 22.1818H125.495L126.145 18.1655H136.233ZM142.841 29H137.173L148.157 7.18182H155.178L158.917 29H153.249L150.852 12.679H150.682L142.841 29ZM143.523 20.4134H155.369L154.688 24.419H142.841L143.523 20.4134ZM160.275 35.1364L164.047 12.6364H169.203L168.745 15.4382H168.905C169.189 14.9411 169.565 14.4616 170.034 14C170.51 13.5384 171.081 13.1619 171.749 12.8707C172.417 12.5724 173.18 12.4233 174.04 12.4233C175.176 12.4233 176.188 12.7216 177.076 13.3182C177.964 13.9148 178.61 14.8345 179.015 16.0774C179.42 17.3203 179.462 18.9041 179.143 20.8288C178.837 22.6825 178.283 24.2344 177.481 25.4844C176.685 26.7344 175.741 27.6719 174.647 28.2969C173.553 28.9219 172.406 29.2344 171.206 29.2344C170.382 29.2344 169.686 29.0994 169.118 28.8295C168.557 28.5597 168.113 28.2045 167.786 27.7642C167.459 27.3239 167.232 26.8516 167.104 26.3473H166.955L165.506 35.1364H160.275ZM167.786 20.8182C167.644 21.6989 167.637 22.4659 167.765 23.1193C167.893 23.7727 168.152 24.2805 168.542 24.6428C168.94 24.9979 169.455 25.1754 170.087 25.1754C170.726 25.1754 171.295 24.9979 171.792 24.6428C172.296 24.2805 172.719 23.7727 173.059 23.1193C173.4 22.4659 173.649 21.6989 173.805 20.8182C173.94 19.9375 173.944 19.174 173.816 18.5277C173.695 17.8814 173.443 17.3807 173.059 17.0256C172.676 16.6705 172.161 16.4929 171.515 16.4929C170.883 16.4929 170.307 16.6669 169.789 17.0149C169.278 17.3629 168.851 17.8601 168.51 18.5064C168.17 19.1527 167.928 19.9233 167.786 20.8182ZM180.514 29L183.241 12.6364H188.302L187.801 15.6193H187.972C188.447 14.5398 189.069 13.7372 189.836 13.2116C190.603 12.679 191.434 12.4126 192.329 12.4126C192.57 12.4126 192.812 12.4304 193.053 12.4659C193.302 12.4943 193.536 12.5369 193.756 12.5938L192.989 17.1321C192.748 17.0398 192.432 16.9723 192.041 16.9297C191.651 16.88 191.295 16.8551 190.976 16.8551C190.358 16.8551 189.783 16.9936 189.25 17.2706C188.724 17.5405 188.277 17.9205 187.908 18.4105C187.545 18.8935 187.308 19.4616 187.194 20.1151L185.724 29H180.514ZM193.141 29L195.868 12.6364H201.078L198.351 29H193.141ZM198.841 10.7188C198.102 10.7188 197.502 10.4737 197.04 9.98366C196.579 9.49361 196.398 8.90767 196.497 8.22585C196.596 7.53693 196.944 6.95099 197.541 6.46804C198.138 5.98509 198.802 5.74361 199.533 5.74361C200.272 5.74361 200.865 5.98509 201.312 6.46804C201.767 6.95099 201.944 7.53693 201.845 8.22585C201.76 8.90767 201.419 9.49361 200.822 9.98366C200.233 10.4737 199.572 10.7188 198.841 10.7188ZM209.262 29.3089C207.537 29.3089 206.113 28.9538 204.99 28.2436C203.875 27.5334 203.094 26.5462 202.647 25.282C202.199 24.0107 202.118 22.5405 202.402 20.8714C202.672 19.1953 203.243 17.7251 204.117 16.4609C204.99 15.1896 206.105 14.1989 207.462 13.4886C208.819 12.7784 210.353 12.4233 212.064 12.4233C213.577 12.4233 214.848 12.6967 215.878 13.2436C216.915 13.7905 217.664 14.5646 218.126 15.5661C218.595 16.5604 218.733 17.7287 218.542 19.071H213.673C213.716 18.2401 213.545 17.5866 213.162 17.1108C212.778 16.6278 212.221 16.3864 211.489 16.3864C210.871 16.3864 210.303 16.5568 209.784 16.8977C209.273 17.2315 208.836 17.7287 208.474 18.3892C208.119 19.0426 207.863 19.8523 207.707 20.8182C207.551 21.7841 207.54 22.6009 207.675 23.2685C207.817 23.929 208.083 24.4297 208.474 24.7706C208.872 25.1044 209.376 25.2713 209.987 25.2713C210.47 25.2713 210.917 25.1683 211.329 24.9624C211.741 24.7564 212.1 24.4545 212.405 24.0568C212.711 23.652 212.949 23.1619 213.119 22.5866H217.977C217.7 23.9432 217.164 25.1257 216.368 26.1342C215.58 27.1357 214.582 27.9169 213.375 28.478C212.167 29.032 210.797 29.3089 209.262 29.3089ZM227.195 29.3089C225.469 29.3089 224.045 28.9538 222.923 28.2436C221.808 27.5334 221.023 26.5426 220.568 25.2713C220.114 24 220.025 22.5227 220.302 20.8395C220.579 19.1634 221.151 17.6932 222.017 16.429C222.884 15.1648 223.992 14.1811 225.341 13.478C226.691 12.7749 228.221 12.4233 229.933 12.4233C231.651 12.4233 233.068 12.7784 234.183 13.4886C235.306 14.1989 236.094 15.1896 236.548 16.4609C237.01 17.7322 237.102 19.2131 236.825 20.9034C236.548 22.5795 235.973 24.0497 235.1 25.3139C234.226 26.571 233.118 27.5511 231.776 28.2543C230.433 28.9574 228.906 29.3089 227.195 29.3089ZM227.781 25.3778C228.42 25.3778 228.992 25.1861 229.496 24.8026C230.007 24.419 230.437 23.8828 230.785 23.1939C231.133 22.505 231.382 21.706 231.531 20.7969C231.68 19.902 231.694 19.1172 231.573 18.4425C231.46 17.7607 231.218 17.2315 230.849 16.8551C230.48 16.4716 229.979 16.2798 229.347 16.2798C228.708 16.2798 228.132 16.4751 227.621 16.8658C227.11 17.2493 226.68 17.7855 226.332 18.4744C225.991 19.1562 225.746 19.9553 225.597 20.8714C225.448 21.7663 225.43 22.5511 225.544 23.2259C225.657 23.9006 225.902 24.4297 226.279 24.8132C226.655 25.1896 227.156 25.3778 227.781 25.3778ZM250.105 12.6364L249.455 16.4716H239.132L239.782 12.6364H250.105ZM242.584 8.71591H247.793L245.279 23.8544C245.229 24.174 245.236 24.4332 245.3 24.6321C245.371 24.8239 245.499 24.9624 245.684 25.0476C245.876 25.1257 246.11 25.1648 246.387 25.1648C246.579 25.1648 246.792 25.1435 247.026 25.1009C247.26 25.0582 247.438 25.0263 247.559 25.005L247.729 28.7656C247.452 28.8438 247.079 28.9325 246.611 29.032C246.149 29.1385 245.609 29.206 244.991 29.2344C243.741 29.2841 242.708 29.1385 241.891 28.7976C241.081 28.4496 240.51 27.9098 240.176 27.1783C239.849 26.4467 239.785 25.5305 239.984 24.4297L242.584 8.71591Z" fill="#FDF6E2"/>
</g>
<defs>
<filter id="filter0_dd_68_6323" x="0.433407" y="0.765417" width="264.526" height="61.294" filterUnits="userSpaceOnUse" color-interpolation-filters="sRGB">
<feFlood flood-opacity="0" result="BackgroundImageFix"/>
<feColorMatrix in="SourceAlpha" type="matrix" values="0 0 0 0 0 0 0 0 0 0 0 0 0 0 0 0 0 0 127 0" result="hardAlpha"/>
<feOffset dx="1" dy="5.43135"/>
<feGaussianBlur stdDeviation="5.2048"/>
<feColorMatrix type="matrix" values="0 0 0 0 0 0 0 0 0 0 0 0 0 0 0 0 0 0 0.117297 0"/>
<feBlend mode="normal" in2="BackgroundImageFix" result="effect1_dropShadow_68_6323"/>
<feColorMatrix in="SourceAlpha" type="matrix" values="0 0 0 0 0 0 0 0 0 0 0 0 0 0 0 0 0 0 127 0" result="hardAlpha"/>
<feOffset dx="1" dy="13.0687"/>
<feGaussianBlur stdDeviation="6.9271"/>
<feColorMatrix type="matrix" values="0 0 0 0 0 0 0 0 0 0 0 0 0 0 0 0 0 0 0.0945694 0"/>
<feBlend mode="normal" in2="effect1_dropShadow_68_6323" result="effect2_dropShadow_68_6323"/>
<feBlend mode="normal" in="SourceGraphic" in2="effect2_dropShadow_68_6323" result="shape"/>
</filter>
</defs>
</svg>
