<svg width="265" height="88" viewBox="0 0 265 88" fill="none" xmlns="http://www.w3.org/2000/svg">
<g filter="url(#filter0_dd_264_12506)">
<path d="M13.6738 60V9.09091H27.3954V28.4801H27.5943C28.0914 27.1875 28.8206 26.0026 29.7818 24.9254C30.743 23.8317 31.9361 22.9616 33.3613 22.3153C34.7865 21.6525 36.4437 21.321 38.3329 21.321C40.8519 21.321 43.2465 21.9922 45.5169 23.3345C47.8038 24.6768 49.6599 26.7898 51.0851 29.6733C52.5268 32.5568 53.2477 36.3021 53.2477 40.9091C53.2477 45.3172 52.56 48.9714 51.1845 51.8714C49.8256 54.7715 48.0027 56.9342 45.7157 58.3594C43.4454 59.7846 40.9513 60.4972 38.2335 60.4972C36.4437 60.4972 34.8445 60.2071 33.4359 59.6271C32.0439 59.0305 30.8507 58.2268 29.8564 57.2159C28.8786 56.1884 28.1246 55.0284 27.5943 53.7358H27.296V60H13.6738ZM27.0971 40.9091C27.0971 42.7652 27.3374 44.3726 27.818 45.7315C28.3152 47.0739 29.0112 48.1179 29.9061 48.8636C30.8175 49.5928 31.903 49.9574 33.1625 49.9574C34.4219 49.9574 35.4908 49.6011 36.3691 48.8885C37.264 48.1593 37.9435 47.1236 38.4075 45.7812C38.8881 44.4223 39.1284 42.7983 39.1284 40.9091C39.1284 39.0199 38.8881 37.4041 38.4075 36.0618C37.9435 34.7029 37.264 33.6671 36.3691 32.9545C35.4908 32.2254 34.4219 31.8608 33.1625 31.8608C31.903 31.8608 30.8175 32.2254 29.9061 32.9545C29.0112 33.6671 28.3152 34.7029 27.818 36.0618C27.3374 37.4041 27.0971 39.0199 27.0971 40.9091ZM58.9899 60V21.8182H72.7115V60H58.9899ZM65.8507 17.8409C63.9946 17.8409 62.4037 17.2277 61.0779 16.0014C59.7522 14.7751 59.0893 13.3002 59.0893 11.5767C59.0893 9.85322 59.7522 8.37831 61.0779 7.15199C62.4037 5.92566 63.9946 5.3125 65.8507 5.3125C67.7233 5.3125 69.3142 5.92566 70.6234 7.15199C71.9492 8.37831 72.612 9.85322 72.612 11.5767C72.612 13.3002 71.9492 14.7751 70.6234 16.0014C69.3142 17.2277 67.7233 17.8409 65.8507 17.8409ZM93.4244 9.09091V60H79.7028V9.09091H93.4244ZM114.137 9.09091V60H100.416V9.09091H114.137ZM121.129 60V21.8182H134.85V60H121.129ZM127.989 17.8409C126.133 17.8409 124.542 17.2277 123.217 16.0014C121.891 14.7751 121.228 13.3002 121.228 11.5767C121.228 9.85322 121.891 8.37831 123.217 7.15199C124.542 5.92566 126.133 5.3125 127.989 5.3125C129.862 5.3125 131.453 5.92566 132.762 7.15199C134.088 8.37831 134.751 9.85322 134.751 11.5767C134.751 13.3002 134.088 14.7751 132.762 16.0014C131.453 17.2277 129.862 17.8409 127.989 17.8409ZM152.481 60.5966C150.045 60.5966 147.89 60.1989 146.018 59.4034C144.162 58.5914 142.703 57.3651 141.643 55.7244C140.582 54.0838 140.052 51.9957 140.052 49.4602C140.052 47.3722 140.408 45.5907 141.121 44.1158C141.833 42.6243 142.827 41.4062 144.104 40.4616C145.38 39.517 146.863 38.7962 148.553 38.299C150.26 37.8018 152.099 37.4787 154.072 37.3295C156.209 37.1638 157.925 36.965 159.217 36.733C160.526 36.4844 161.471 36.1446 162.051 35.7138C162.631 35.2663 162.921 34.678 162.921 33.9489V33.8494C162.921 32.8551 162.54 32.0928 161.778 31.5625C161.015 31.0322 160.037 30.767 158.844 30.767C157.535 30.767 156.466 31.0571 155.638 31.6371C154.826 32.2005 154.337 33.0705 154.171 34.2472H141.543C141.709 31.9271 142.446 29.7893 143.756 27.8338C145.081 25.8617 147.012 24.2874 149.547 23.1108C152.083 21.9176 155.248 21.321 159.043 21.321C161.778 21.321 164.23 21.6442 166.401 22.2905C168.572 22.9202 170.42 23.8068 171.944 24.9503C173.469 26.0772 174.629 27.4029 175.425 28.9276C176.237 30.4356 176.643 32.0762 176.643 33.8494V60H163.816V54.6307H163.518C162.755 56.0559 161.827 57.2076 160.733 58.0859C159.656 58.9643 158.422 59.6023 157.03 60C155.654 60.3977 154.138 60.5966 152.481 60.5966ZM156.955 51.946C157.999 51.946 158.977 51.7306 159.888 51.2997C160.816 50.8688 161.57 50.2474 162.15 49.4354C162.73 48.6233 163.02 47.6373 163.02 46.4773V43.2955C162.656 43.4446 162.266 43.5855 161.852 43.718C161.454 43.8506 161.023 43.9749 160.559 44.0909C160.112 44.2069 159.631 44.3146 159.118 44.4141C158.621 44.5135 158.099 44.6046 157.552 44.6875C156.491 44.8532 155.621 45.1267 154.942 45.5078C154.279 45.8724 153.782 46.3281 153.45 46.875C153.135 47.4053 152.978 48.0019 152.978 48.6648C152.978 49.7254 153.351 50.5374 154.096 51.1009C154.842 51.6643 155.795 51.946 156.955 51.946ZM183.199 60V21.8182H196.523V29.0767H196.92C197.616 26.392 198.719 24.4283 200.227 23.1854C201.751 21.9425 203.533 21.321 205.571 21.321C206.168 21.321 206.756 21.3707 207.336 21.4702C207.933 21.553 208.504 21.6773 209.051 21.843V33.5511C208.372 33.3191 207.535 33.1451 206.54 33.0291C205.546 32.9131 204.693 32.8551 203.98 32.8551C202.638 32.8551 201.428 33.1617 200.351 33.7749C199.29 34.3714 198.453 35.2166 197.84 36.3104C197.227 37.3875 196.92 38.6553 196.92 40.1136V60H183.199ZM225.184 60.4972C222.466 60.4972 219.964 59.7846 217.677 58.3594C215.406 56.9342 213.584 54.7715 212.208 51.8714C210.849 48.9714 210.17 45.3172 210.17 40.9091C210.17 36.3021 210.882 32.5568 212.308 29.6733C213.749 26.7898 215.605 24.6768 217.876 23.3345C220.163 21.9922 222.566 21.321 225.085 21.321C226.974 21.321 228.631 21.6525 230.056 22.3153C231.481 22.9616 232.674 23.8317 233.636 24.9254C234.597 26.0026 235.326 27.1875 235.823 28.4801H236.022V9.09091H249.744V60H236.121V53.7358H235.823C235.293 55.0284 234.531 56.1884 233.536 57.2159C232.558 58.2268 231.365 59.0305 229.957 59.6271C228.565 60.2071 226.974 60.4972 225.184 60.4972ZM230.255 49.9574C231.514 49.9574 232.592 49.5928 233.487 48.8636C234.398 48.1179 235.094 47.0739 235.575 45.7315C236.072 44.3726 236.32 42.7652 236.32 40.9091C236.32 39.0199 236.072 37.4041 235.575 36.0618C235.094 34.7029 234.398 33.6671 233.487 32.9545C232.592 32.2254 231.514 31.8608 230.255 31.8608C228.996 31.8608 227.918 32.2254 227.023 32.9545C226.145 33.6671 225.466 34.7029 224.985 36.0618C224.521 37.4041 224.289 39.0199 224.289 40.9091C224.289 42.7983 224.521 44.4223 224.985 45.7812C225.466 47.1236 226.145 48.1593 227.023 48.8885C227.918 49.6011 228.996 49.9574 230.255 49.9574Z" fill="#FDF6E2"/>
</g>
<defs>
<filter id="filter0_dd_264_12506" x="0.819637" y="0.334264" width="263.778" height="87.1853" filterUnits="userSpaceOnUse" color-interpolation-filters="sRGB">
<feFlood flood-opacity="0" result="BackgroundImageFix"/>
<feColorMatrix in="SourceAlpha" type="matrix" values="0 0 0 0 0 0 0 0 0 0 0 0 0 0 0 0 0 0 127 0" result="hardAlpha"/>
<feOffset dx="1" dy="5.43135"/>
<feGaussianBlur stdDeviation="5.2048"/>
<feColorMatrix type="matrix" values="0 0 0 0 0 0 0 0 0 0 0 0 0 0 0 0 0 0 0.117297 0"/>
<feBlend mode="normal" in2="BackgroundImageFix" result="effect1_dropShadow_264_12506"/>
<feColorMatrix in="SourceAlpha" type="matrix" values="0 0 0 0 0 0 0 0 0 0 0 0 0 0 0 0 0 0 127 0" result="hardAlpha"/>
<feOffset dx="1" dy="13.0687"/>
<feGaussianBlur stdDeviation="6.9271"/>
<feColorMatrix type="matrix" values="0 0 0 0 0 0 0 0 0 0 0 0 0 0 0 0 0 0 0.0945694 0"/>
<feBlend mode="normal" in2="effect1_dropShadow_264_12506" result="effect2_dropShadow_264_12506"/>
<feBlend mode="normal" in="SourceGraphic" in2="effect2_dropShadow_264_12506" result="shape"/>
</filter>
</defs>
</svg>
