<svg width="353" height="149" viewBox="0 0 353 149" fill="none" xmlns="http://www.w3.org/2000/svg">
<g filter="url(#filter0_dd_218_10324)">
<path d="M46.8191 99.598L46.9114 84.456H48.5733L57.16 72.5455H71.4711L57.0677 91.1037H53.4668L46.8191 99.598ZM35.3702 108V60.7273H48.1117V108H35.3702ZM57.2523 108L49.1273 93.9659L57.437 84.9176L71.8404 108H57.2523ZM84.6684 108.554C82.4063 108.554 80.4059 108.185 78.667 107.446C76.9435 106.692 75.5893 105.553 74.6045 104.03C73.6196 102.506 73.1272 100.567 73.1272 98.2131C73.1272 96.2741 73.4581 94.6199 74.1198 93.2504C74.7815 91.8654 75.7048 90.7344 76.8896 89.8572C78.0745 88.9801 79.4518 88.3107 81.0214 87.8491C82.6064 87.3874 84.3145 87.0874 86.1457 86.9489C88.1308 86.795 89.7235 86.6103 90.9237 86.3949C92.1394 86.1641 93.0165 85.8486 93.5551 85.4485C94.0937 85.033 94.363 84.4867 94.363 83.8097V83.7173C94.363 82.794 94.0091 82.0862 93.3012 81.5938C92.5934 81.1013 91.6855 80.8551 90.5775 80.8551C89.3618 80.8551 88.3693 81.1244 87.5999 81.663C86.8459 82.1862 86.3919 82.9941 86.238 84.0866H74.5122C74.666 81.9323 75.3508 79.9472 76.5665 78.1314C77.7976 76.3002 79.5903 74.8383 81.9447 73.7457C84.2991 72.6378 87.2383 72.0838 90.7622 72.0838C93.3012 72.0838 95.5787 72.3839 97.5945 72.984C99.6104 73.5688 101.326 74.392 102.742 75.4538C104.158 76.5002 105.235 77.7313 105.973 79.147C106.727 80.5473 107.104 82.0708 107.104 83.7173V108H95.194V103.014H94.917C94.2091 104.338 93.3474 105.407 92.3318 106.223C91.3315 107.038 90.1851 107.631 88.8925 108C87.6153 108.369 86.2072 108.554 84.6684 108.554ZM88.8232 100.521C89.7927 100.521 90.7006 100.321 91.547 99.9212C92.4087 99.5211 93.1089 98.944 93.6475 98.19C94.1861 97.436 94.4553 96.5204 94.4553 95.4432V92.4886C94.1168 92.6271 93.7552 92.7579 93.3705 92.881C93.0012 93.0041 92.6011 93.1196 92.1702 93.2273C91.7547 93.335 91.3084 93.435 90.8314 93.5273C90.3698 93.6197 89.885 93.7043 89.3772 93.7812C88.3924 93.9351 87.5845 94.189 86.9536 94.543C86.338 94.8815 85.8764 95.3047 85.5686 95.8125C85.2762 96.3049 85.1301 96.8589 85.1301 97.4744C85.1301 98.4593 85.4763 99.2133 86.1688 99.7365C86.8612 100.26 87.7461 100.521 88.8232 100.521ZM125.934 88.0568V108H113.192V72.5455H125.288V79.2855H125.657C126.426 77.0388 127.781 75.2769 129.719 73.9996C131.674 72.7224 133.951 72.0838 136.552 72.0838C139.06 72.0838 141.238 72.6609 143.084 73.815C144.946 74.9537 146.385 76.5233 147.401 78.5238C148.432 80.5243 148.939 82.8094 148.924 85.3793V108H136.183V88.0568C136.198 86.3026 135.752 84.9253 134.844 83.9251C133.951 82.9248 132.705 82.4247 131.104 82.4247C130.058 82.4247 129.142 82.6555 128.358 83.1172C127.588 83.5634 126.996 84.2098 126.58 85.0561C126.165 85.8871 125.949 86.8873 125.934 88.0568ZM172.295 122.034C168.74 122.034 165.693 121.526 163.154 120.511C160.631 119.51 158.669 118.125 157.268 116.356C155.883 114.602 155.106 112.586 154.937 110.308H167.217C167.34 111.062 167.648 111.67 168.14 112.132C168.633 112.593 169.263 112.924 170.033 113.124C170.818 113.34 171.695 113.447 172.664 113.447C174.311 113.447 175.673 113.047 176.75 112.247C177.842 111.447 178.389 110 178.389 107.908V101.906H178.019C177.558 103.107 176.85 104.13 175.896 104.976C174.942 105.807 173.795 106.446 172.456 106.892C171.118 107.323 169.648 107.538 168.048 107.538C165.524 107.538 163.2 106.954 161.077 105.784C158.969 104.615 157.276 102.76 155.999 100.221C154.737 97.6822 154.106 94.366 154.106 90.2727C154.106 85.9948 154.768 82.517 156.091 79.8395C157.43 77.1619 159.153 75.1999 161.262 73.9535C163.385 72.707 165.616 72.0838 167.955 72.0838C169.71 72.0838 171.249 72.3916 172.572 73.0071C173.895 73.6072 175.003 74.4151 175.896 75.4308C176.788 76.431 177.465 77.5312 177.927 78.7315H178.204V72.5455H190.945V107.908C190.945 110.908 190.168 113.455 188.614 115.548C187.075 117.656 184.906 119.264 182.105 120.372C179.304 121.48 176.034 122.034 172.295 122.034ZM172.757 98.4901C173.926 98.4901 174.926 98.1669 175.757 97.5206C176.604 96.8589 177.25 95.9202 177.696 94.7045C178.158 93.4735 178.389 91.9962 178.389 90.2727C178.389 88.5185 178.158 87.0181 177.696 85.7717C177.25 84.5098 176.604 83.5481 175.757 82.8864C174.926 82.2093 173.926 81.8707 172.757 81.8707C171.587 81.8707 170.587 82.2093 169.756 82.8864C168.94 83.5481 168.309 84.5098 167.863 85.7717C167.432 87.0181 167.217 88.5185 167.217 90.2727C167.217 92.027 167.432 93.5196 167.863 94.7507C168.309 95.9664 168.94 96.8974 169.756 97.5437C170.587 98.1746 171.587 98.4901 172.757 98.4901ZM207.305 108.554C205.043 108.554 203.043 108.185 201.304 107.446C199.58 106.692 198.226 105.553 197.241 104.03C196.256 102.506 195.764 100.567 195.764 98.2131C195.764 96.2741 196.095 94.6199 196.756 93.2504C197.418 91.8654 198.341 90.7344 199.526 89.8572C200.711 88.9801 202.089 88.3107 203.658 87.8491C205.243 87.3874 206.951 87.0874 208.782 86.9489C210.767 86.795 212.36 86.6103 213.56 86.3949C214.776 86.1641 215.653 85.8486 216.192 85.4485C216.73 85.033 217 84.4867 217 83.8097V83.7173C217 82.794 216.646 82.0862 215.938 81.5938C215.23 81.1013 214.322 80.8551 213.214 80.8551C211.999 80.8551 211.006 81.1244 210.237 81.663C209.483 82.1862 209.029 82.9941 208.875 84.0866H197.149C197.303 81.9323 197.988 79.9472 199.203 78.1314C200.434 76.3002 202.227 74.8383 204.581 73.7457C206.936 72.6378 209.875 72.0838 213.399 72.0838C215.938 72.0838 218.215 72.3839 220.231 72.984C222.247 73.5688 223.963 74.392 225.379 75.4538C226.794 76.5002 227.872 77.7313 228.61 79.147C229.364 80.5473 229.741 82.0708 229.741 83.7173V108H217.831V103.014H217.554C216.846 104.338 215.984 105.407 214.968 106.223C213.968 107.038 212.822 107.631 211.529 108C210.252 108.369 208.844 108.554 207.305 108.554ZM211.46 100.521C212.429 100.521 213.337 100.321 214.184 99.9212C215.045 99.5211 215.746 98.944 216.284 98.19C216.823 97.436 217.092 96.5204 217.092 95.4432V92.4886C216.754 92.6271 216.392 92.7579 216.007 92.881C215.638 93.0041 215.238 93.1196 214.807 93.2273C214.391 93.335 213.945 93.435 213.468 93.5273C213.006 93.6197 212.522 93.7043 212.014 93.7812C211.029 93.9351 210.221 94.189 209.59 94.543C208.975 94.8815 208.513 95.3047 208.205 95.8125C207.913 96.3049 207.767 96.8589 207.767 97.4744C207.767 98.4593 208.113 99.2133 208.805 99.7365C209.498 100.26 210.383 100.521 211.46 100.521ZM235.829 108V72.5455H248.201V79.2855H248.571C249.217 76.7926 250.24 74.9691 251.641 73.815C253.056 72.6609 254.711 72.0838 256.603 72.0838C257.157 72.0838 257.704 72.13 258.242 72.2223C258.796 72.2992 259.327 72.4147 259.835 72.5685V83.4403C259.204 83.2249 258.427 83.0633 257.504 82.9556C256.58 82.8479 255.788 82.794 255.126 82.794C253.88 82.794 252.756 83.0787 251.756 83.6481C250.771 84.2021 249.994 84.9869 249.425 86.0025C248.855 87.0027 248.571 88.1799 248.571 89.5341V108H235.829ZM279.062 108.646C275.215 108.646 271.922 107.885 269.183 106.361C266.444 104.822 264.344 102.683 262.882 99.9442C261.42 97.1897 260.689 93.9967 260.689 90.3651C260.689 86.7334 261.42 83.5481 262.882 80.8089C264.344 78.0544 266.444 75.9155 269.183 74.392C271.922 72.8532 275.215 72.0838 279.062 72.0838C282.91 72.0838 286.203 72.8532 288.942 74.392C291.681 75.9155 293.781 78.0544 295.243 80.8089C296.705 83.5481 297.436 86.7334 297.436 90.3651C297.436 93.9967 296.705 97.1897 295.243 99.9442C293.781 102.683 291.681 104.822 288.942 106.361C286.203 107.885 282.91 108.646 279.062 108.646ZM279.155 99.2287C280.232 99.2287 281.163 98.8671 281.948 98.1438C282.733 97.4206 283.34 96.3896 283.771 95.0508C284.202 93.712 284.418 92.1193 284.418 90.2727C284.418 88.4107 284.202 86.8181 283.771 85.4947C283.34 84.1559 282.733 83.1249 281.948 82.4016C281.163 81.6784 280.232 81.3168 279.155 81.3168C278.016 81.3168 277.039 81.6784 276.223 82.4016C275.408 83.1249 274.785 84.1559 274.354 85.4947C273.923 86.8181 273.707 88.4107 273.707 90.2727C273.707 92.1193 273.923 93.712 274.354 95.0508C274.785 96.3896 275.408 97.4206 276.223 98.1438C277.039 98.8671 278.016 99.2287 279.155 99.2287ZM319.688 108.646C315.84 108.646 312.547 107.885 309.808 106.361C307.069 104.822 304.969 102.683 303.507 99.9442C302.045 97.1897 301.314 93.9967 301.314 90.3651C301.314 86.7334 302.045 83.5481 303.507 80.8089C304.969 78.0544 307.069 75.9155 309.808 74.392C312.547 72.8532 315.84 72.0838 319.688 72.0838C323.535 72.0838 326.828 72.8532 329.567 74.392C332.306 75.9155 334.406 78.0544 335.868 80.8089C337.33 83.5481 338.061 86.7334 338.061 90.3651C338.061 93.9967 337.33 97.1897 335.868 99.9442C334.406 102.683 332.306 104.822 329.567 106.361C326.828 107.885 323.535 108.646 319.688 108.646ZM319.78 99.2287C320.857 99.2287 321.788 98.8671 322.573 98.1438C323.358 97.4206 323.965 96.3896 324.396 95.0508C324.827 93.712 325.043 92.1193 325.043 90.2727C325.043 88.4107 324.827 86.8181 324.396 85.4947C323.965 84.1559 323.358 83.1249 322.573 82.4016C321.788 81.6784 320.857 81.3168 319.78 81.3168C318.641 81.3168 317.664 81.6784 316.848 82.4016C316.033 83.1249 315.41 84.1559 314.979 85.4947C314.548 86.8181 314.332 88.4107 314.332 90.2727C314.332 92.1193 314.548 93.712 314.979 95.0508C315.41 96.3896 316.033 97.4206 316.848 98.1438C317.664 98.8671 318.641 99.2287 319.78 99.2287Z" fill="#E1EEEE"/>
</g>
<g filter="url(#filter1_dd_218_10324)">
<path d="M19.5646 52.2472C18.1839 52.2472 17.0447 51.9631 16.147 51.3949C15.255 50.8267 14.63 50.0369 14.272 49.0256C13.9141 48.0085 13.8487 46.8324 14.076 45.4972C14.2919 44.1562 14.7493 42.9801 15.4482 41.9688C16.147 40.9517 17.0391 40.1591 18.1243 39.5909C19.2095 39.0227 20.4368 38.7386 21.8061 38.7386C23.0163 38.7386 24.0334 38.9574 24.8572 39.3949C25.6868 39.8324 26.2862 40.4517 26.6555 41.2528C27.0305 42.0483 27.1413 42.983 26.9879 44.0568H23.093C23.1271 43.392 22.9908 42.8693 22.6839 42.4886C22.3771 42.1023 21.9311 41.9091 21.3459 41.9091C20.8516 41.9091 20.397 42.0455 19.9822 42.3182C19.5732 42.5852 19.2237 42.983 18.9339 43.5114C18.6499 44.0341 18.4453 44.6818 18.3203 45.4545C18.1953 46.2273 18.1868 46.8807 18.2947 47.4148C18.4084 47.9432 18.6214 48.3437 18.9339 48.6165C19.2521 48.8835 19.6555 49.017 20.1442 49.017C20.5305 49.017 20.8885 48.9347 21.218 48.7699C21.5476 48.6051 21.8345 48.3636 22.0788 48.0455C22.3232 47.7216 22.5135 47.3295 22.6499 46.8693H26.5362C26.3146 47.9545 25.8857 48.9006 25.2493 49.7074C24.6186 50.5085 23.8203 51.1335 22.8544 51.5824C21.8885 52.0256 20.7919 52.2472 19.5646 52.2472ZM31.4645 52.2216C30.6349 52.2216 29.919 52.0824 29.3168 51.804C28.7202 51.5199 28.2827 51.0909 28.0043 50.517C27.7315 49.9432 27.6662 49.2273 27.8082 48.3693C27.9332 47.642 28.1634 47.0312 28.4986 46.5369C28.8395 46.0369 29.2571 45.6307 29.7514 45.3182C30.2514 45.0057 30.8082 44.767 31.4219 44.6023C32.0355 44.4375 32.6776 44.3267 33.348 44.2699C34.098 44.2017 34.706 44.1278 35.1719 44.0483C35.6435 43.9687 35.9957 43.858 36.2287 43.7159C36.4616 43.5682 36.6037 43.3636 36.6548 43.1023V43.0597C36.723 42.6222 36.6293 42.2841 36.3736 42.0455C36.1179 41.8068 35.7344 41.6875 35.223 41.6875C34.6776 41.6875 34.2116 41.8068 33.8253 42.0455C33.4389 42.2841 33.169 42.6136 33.0156 43.0341L29.1974 42.8977C29.4361 42.1023 29.8452 41.392 30.4247 40.767C31.0043 40.1364 31.7401 39.642 32.6321 39.2841C33.5298 38.9205 34.5668 38.7386 35.7429 38.7386C36.5724 38.7386 37.3224 38.8381 37.9929 39.0369C38.6634 39.2301 39.2287 39.5142 39.6889 39.8892C40.1548 40.2585 40.4872 40.7131 40.6861 41.2528C40.8849 41.7926 40.9276 42.4091 40.8139 43.1023L39.3224 52H35.402L35.7088 50.1761H35.6065C35.2997 50.6193 34.9389 50.9943 34.5241 51.3011C34.1151 51.608 33.6548 51.8381 33.1435 51.9915C32.6321 52.1449 32.0724 52.2216 31.4645 52.2216ZM33.2202 49.4943C33.6577 49.4943 34.0724 49.4034 34.4645 49.2216C34.8565 49.0398 35.1861 48.7898 35.4531 48.4716C35.7259 48.1477 35.8991 47.7727 35.973 47.3466L36.169 46.1023C36.0497 46.1648 35.8991 46.2216 35.7173 46.2727C35.5355 46.3239 35.3423 46.3722 35.1378 46.4176C34.9332 46.4574 34.723 46.4972 34.5071 46.5369C34.2969 46.571 34.0952 46.6023 33.902 46.6307C33.4929 46.6932 33.1378 46.7898 32.8366 46.9205C32.5355 47.0511 32.294 47.2216 32.1122 47.4318C31.9361 47.6364 31.8281 47.8807 31.7884 48.1648C31.7202 48.5909 31.8196 48.9205 32.0866 49.1534C32.3537 49.3807 32.7315 49.4943 33.2202 49.4943ZM41.8707 52L44.0526 38.9091H48.1009L47.7003 41.2955H47.8366C48.2173 40.4318 48.7145 39.7898 49.3281 39.3693C49.9418 38.9432 50.6065 38.7301 51.3224 38.7301C51.5156 38.7301 51.7088 38.7443 51.902 38.7727C52.1009 38.7955 52.2884 38.8295 52.4645 38.875L51.8509 42.5057C51.6577 42.4318 51.4048 42.3778 51.0923 42.3438C50.7798 42.304 50.4957 42.2841 50.2401 42.2841C49.7457 42.2841 49.2855 42.3949 48.8594 42.6165C48.4389 42.8324 48.081 43.1364 47.7855 43.5284C47.4957 43.9148 47.3054 44.3693 47.2145 44.892L46.0384 52H41.8707ZM51.9723 52L54.1541 38.9091H58.3217L56.1399 52H51.9723ZM56.532 37.375C55.9411 37.375 55.4609 37.179 55.0916 36.7869C54.7223 36.3949 54.5774 35.9261 54.657 35.3807C54.7365 34.8295 55.0149 34.3608 55.4922 33.9744C55.9695 33.5881 56.5007 33.3949 57.0859 33.3949C57.6768 33.3949 58.1513 33.5881 58.5092 33.9744C58.8729 34.3608 59.0149 34.8295 58.9354 35.3807C58.8672 35.9261 58.5945 36.3949 58.1172 36.7869C57.6456 37.179 57.1172 37.375 56.532 37.375ZM58.7926 52L61.6903 34.5455H65.858L64.7756 41.1506H64.8608C65.0881 40.7528 65.3892 40.3693 65.7642 40C66.1449 39.6307 66.6023 39.3295 67.1364 39.0966C67.6705 38.858 68.2812 38.7386 68.9688 38.7386C69.8778 38.7386 70.6875 38.9773 71.3977 39.4545C72.108 39.9318 72.625 40.6676 72.9489 41.6619C73.2727 42.6562 73.3068 43.9233 73.0511 45.4631C72.8068 46.946 72.3665 48.1875 71.7301 49.1875C71.0938 50.1875 70.3352 50.9375 69.4545 51.4375C68.5795 51.9375 67.6591 52.1875 66.6932 52.1875C66.0341 52.1875 65.4801 52.0795 65.0312 51.8636C64.5881 51.6477 64.233 51.3636 63.9659 51.0114C63.7045 50.6591 63.5227 50.2812 63.4205 49.8778H63.2585L62.9176 52H58.7926ZM63.9659 45.4545C63.8523 46.1591 63.8466 46.7727 63.9489 47.2955C64.0568 47.8182 64.2642 48.2244 64.571 48.5142C64.8835 48.7983 65.2955 48.9403 65.8068 48.9403C66.3182 48.9403 66.7756 48.7983 67.179 48.5142C67.5824 48.2244 67.9205 47.8182 68.1932 47.2955C68.4659 46.7727 68.6591 46.1591 68.7727 45.4545C68.8864 44.75 68.892 44.1392 68.7898 43.6222C68.6932 43.1051 68.4915 42.7045 68.1847 42.4205C67.8778 42.1364 67.4659 41.9943 66.9489 41.9943C66.4375 41.9943 65.9773 42.1335 65.5682 42.4119C65.1648 42.6903 64.8239 43.0881 64.5455 43.6051C64.2727 44.1222 64.0795 44.7386 63.9659 45.4545ZM74.1442 52L77.0419 34.5455H81.2095L80.1271 41.1506H80.2124C80.4396 40.7528 80.7408 40.3693 81.1158 40C81.4964 39.6307 81.9538 39.3295 82.4879 39.0966C83.022 38.858 83.6328 38.7386 84.3203 38.7386C85.2294 38.7386 86.0391 38.9773 86.7493 39.4545C87.4595 39.9318 87.9766 40.6676 88.3004 41.6619C88.6243 42.6562 88.6584 43.9233 88.4027 45.4631C88.1584 46.946 87.718 48.1875 87.0817 49.1875C86.4453 50.1875 85.6868 50.9375 84.8061 51.4375C83.9311 51.9375 83.0107 52.1875 82.0447 52.1875C81.3857 52.1875 80.8317 52.0795 80.3828 51.8636C79.9396 51.6477 79.5845 51.3636 79.3175 51.0114C79.0561 50.6591 78.8743 50.2812 78.772 49.8778H78.6101L78.2692 52H74.1442ZM79.3175 45.4545C79.2038 46.1591 79.1982 46.7727 79.3004 47.2955C79.4084 47.8182 79.6158 48.2244 79.9226 48.5142C80.2351 48.7983 80.647 48.9403 81.1584 48.9403C81.6697 48.9403 82.1271 48.7983 82.5305 48.5142C82.9339 48.2244 83.272 47.8182 83.5447 47.2955C83.8175 46.7727 84.0107 46.1591 84.1243 45.4545C84.2379 44.75 84.2436 44.1392 84.1413 43.6222C84.0447 43.1051 83.843 42.7045 83.5362 42.4205C83.2294 42.1364 82.8175 41.9943 82.3004 41.9943C81.7891 41.9943 81.3288 42.1335 80.9197 42.4119C80.5163 42.6903 80.1754 43.0881 79.897 43.6051C79.6243 44.1222 79.4311 44.7386 79.3175 45.4545ZM95.581 52.2472C94.2116 52.2472 93.0753 51.9773 92.1719 51.4375C91.2741 50.892 90.6435 50.1165 90.2798 49.1108C89.9162 48.0994 89.8509 46.8977 90.0838 45.5057C90.3111 44.1534 90.7741 42.9716 91.473 41.9602C92.1776 40.9432 93.0639 40.1534 94.1321 39.5909C95.2003 39.0227 96.3906 38.7386 97.7031 38.7386C98.6349 38.7386 99.4616 38.8835 100.183 39.1733C100.905 39.4631 101.501 39.8949 101.973 40.4688C102.445 41.0369 102.766 41.7358 102.936 42.5653C103.107 43.3949 103.101 44.3466 102.919 45.4205L102.757 46.4602H91.3878L91.7713 44.0398H99.2713C99.3395 43.5966 99.3026 43.2017 99.1605 42.8551C99.0185 42.5085 98.7884 42.2386 98.4702 42.0455C98.1577 41.8466 97.7741 41.7472 97.3196 41.7472C96.8594 41.7472 96.4276 41.8551 96.0241 42.071C95.6264 42.2812 95.2884 42.5653 95.0099 42.9233C94.7315 43.2812 94.5497 43.6847 94.4645 44.1335L94.0128 46.6136C93.9219 47.1648 93.9474 47.6364 94.0895 48.0284C94.2315 48.4205 94.4759 48.7216 94.8224 48.9318C95.169 49.1364 95.6151 49.2386 96.1605 49.2386C96.5241 49.2386 96.8651 49.1903 97.1832 49.0938C97.5014 48.9915 97.7855 48.8409 98.0355 48.642C98.2912 48.4375 98.4986 48.1903 98.6577 47.9006L102.459 48.0114C102.152 48.8693 101.678 49.6165 101.036 50.2528C100.393 50.8835 99.6094 51.375 98.6832 51.7273C97.7628 52.0739 96.7287 52.2472 95.581 52.2472ZM107.613 52.2216C106.783 52.2216 106.067 52.0824 105.465 51.804C104.869 51.5199 104.431 51.0909 104.153 50.517C103.88 49.9432 103.815 49.2273 103.957 48.3693C104.082 47.642 104.312 47.0312 104.647 46.5369C104.988 46.0369 105.406 45.6307 105.9 45.3182C106.4 45.0057 106.957 44.767 107.57 44.6023C108.184 44.4375 108.826 44.3267 109.496 44.2699C110.246 44.2017 110.854 44.1278 111.32 44.0483C111.792 43.9687 112.144 43.858 112.377 43.7159C112.61 43.5682 112.752 43.3636 112.803 43.1023V43.0597C112.871 42.6222 112.778 42.2841 112.522 42.0455C112.266 41.8068 111.883 41.6875 111.371 41.6875C110.826 41.6875 110.36 41.8068 109.974 42.0455C109.587 42.2841 109.317 42.6136 109.164 43.0341L105.346 42.8977C105.585 42.1023 105.994 41.392 106.573 40.767C107.153 40.1364 107.888 39.642 108.781 39.2841C109.678 38.9205 110.715 38.7386 111.891 38.7386C112.721 38.7386 113.471 38.8381 114.141 39.0369C114.812 39.2301 115.377 39.5142 115.837 39.8892C116.303 40.2585 116.636 40.7131 116.835 41.2528C117.033 41.7926 117.076 42.4091 116.962 43.1023L115.471 52H111.55L111.857 50.1761H111.755C111.448 50.6193 111.087 50.9943 110.673 51.3011C110.263 51.608 109.803 51.8381 109.292 51.9915C108.781 52.1449 108.221 52.2216 107.613 52.2216ZM109.369 49.4943C109.806 49.4943 110.221 49.4034 110.613 49.2216C111.005 49.0398 111.335 48.7898 111.602 48.4716C111.874 48.1477 112.048 47.7727 112.121 47.3466L112.317 46.1023C112.198 46.1648 112.048 46.2216 111.866 46.2727C111.684 46.3239 111.491 46.3722 111.286 46.4176C111.082 46.4574 110.871 46.4972 110.656 46.5369C110.445 46.571 110.244 46.6023 110.05 46.6307C109.641 46.6932 109.286 46.7898 108.985 46.9205C108.684 47.0511 108.442 47.2216 108.261 47.4318C108.085 47.6364 107.977 47.8807 107.937 48.1648C107.869 48.5909 107.968 48.9205 108.235 49.1534C108.502 49.3807 108.88 49.4943 109.369 49.4943ZM123.457 44.5341L122.212 52H118.045L120.227 38.9091H124.19L123.798 41.3125H123.942C124.352 40.5114 124.945 39.8835 125.724 39.429C126.502 38.9688 127.377 38.7386 128.349 38.7386C129.263 38.7386 130.028 38.9432 130.641 39.3523C131.255 39.7614 131.69 40.3352 131.945 41.0739C132.201 41.8068 132.244 42.6676 132.073 43.6562L130.675 52H126.508L127.761 44.4744C127.886 43.7528 127.798 43.1875 127.496 42.7784C127.201 42.3636 126.718 42.1562 126.048 42.1562C125.61 42.1562 125.21 42.2528 124.846 42.446C124.488 42.6335 124.187 42.9034 123.942 43.2557C123.704 43.608 123.542 44.0341 123.457 44.5341Z" fill="#E1EEEE"/>
</g>
<defs>
<filter id="filter0_dd_218_10324" x="22.516" y="55.7491" width="330.399" height="93.2079" filterUnits="userSpaceOnUse" color-interpolation-filters="sRGB">
<feFlood flood-opacity="0" result="BackgroundImageFix"/>
<feColorMatrix in="SourceAlpha" type="matrix" values="0 0 0 0 0 0 0 0 0 0 0 0 0 0 0 0 0 0 127 0" result="hardAlpha"/>
<feOffset dx="1" dy="5.43135"/>
<feGaussianBlur stdDeviation="5.2048"/>
<feColorMatrix type="matrix" values="0 0 0 0 0 0 0 0 0 0 0 0 0 0 0 0 0 0 0.117297 0"/>
<feBlend mode="normal" in2="BackgroundImageFix" result="effect1_dropShadow_218_10324"/>
<feColorMatrix in="SourceAlpha" type="matrix" values="0 0 0 0 0 0 0 0 0 0 0 0 0 0 0 0 0 0 127 0" result="hardAlpha"/>
<feOffset dx="1" dy="13.0687"/>
<feGaussianBlur stdDeviation="6.9271"/>
<feColorMatrix type="matrix" values="0 0 0 0 0 0 0 0 0 0 0 0 0 0 0 0 0 0 0.0945694 0"/>
<feBlend mode="normal" in2="effect1_dropShadow_218_10324" result="effect2_dropShadow_218_10324"/>
<feBlend mode="normal" in="SourceGraphic" in2="effect2_dropShadow_218_10324" result="shape"/>
</filter>
<filter id="filter1_dd_218_10324" x="0.880894" y="28.4167" width="146.302" height="50.7534" filterUnits="userSpaceOnUse" color-interpolation-filters="sRGB">
<feFlood flood-opacity="0" result="BackgroundImageFix"/>
<feColorMatrix in="SourceAlpha" type="matrix" values="0 0 0 0 0 0 0 0 0 0 0 0 0 0 0 0 0 0 127 0" result="hardAlpha"/>
<feOffset dx="1" dy="5.43135"/>
<feGaussianBlur stdDeviation="5.2048"/>
<feColorMatrix type="matrix" values="0 0 0 0 0 0 0 0 0 0 0 0 0 0 0 0 0 0 0.117297 0"/>
<feBlend mode="normal" in2="BackgroundImageFix" result="effect1_dropShadow_218_10324"/>
<feColorMatrix in="SourceAlpha" type="matrix" values="0 0 0 0 0 0 0 0 0 0 0 0 0 0 0 0 0 0 127 0" result="hardAlpha"/>
<feOffset dx="1" dy="13.0687"/>
<feGaussianBlur stdDeviation="6.9271"/>
<feColorMatrix type="matrix" values="0 0 0 0 0 0 0 0 0 0 0 0 0 0 0 0 0 0 0.0945694 0"/>
<feBlend mode="normal" in2="effect1_dropShadow_218_10324" result="effect2_dropShadow_218_10324"/>
<feBlend mode="normal" in="SourceGraphic" in2="effect2_dropShadow_218_10324" result="shape"/>
</filter>
</defs>
</svg>
