<svg width="352" height="149" viewBox="0 0 352 149" fill="none" xmlns="http://www.w3.org/2000/svg">
<g filter="url(#filter0_dd_223_11190)">
<path d="M18.6911 44.5341L17.4467 52H13.2791L16.1768 34.5455H20.2081L19.1001 41.3125H19.245C19.6655 40.5057 20.2507 39.875 21.0007 39.4205C21.7507 38.9659 22.62 38.7386 23.6087 38.7386C24.5178 38.7386 25.2791 38.9432 25.8928 39.3523C26.5064 39.7557 26.9411 40.3267 27.1967 41.0653C27.4524 41.804 27.4979 42.6676 27.3331 43.6562L25.9354 52H21.7678L23.0291 44.4744C23.1428 43.7472 23.049 43.179 22.7479 42.7699C22.4467 42.3608 21.9638 42.1562 21.299 42.1562C20.8615 42.1562 20.4581 42.2528 20.0888 42.446C19.7251 42.6335 19.4212 42.9034 19.1768 43.2557C18.9325 43.608 18.7706 44.0341 18.6911 44.5341ZM34.5966 52.2472C33.2273 52.2472 32.0909 51.9773 31.1875 51.4375C30.2898 50.892 29.6591 50.1165 29.2955 49.1108C28.9318 48.0994 28.8665 46.8977 29.0994 45.5057C29.3267 44.1534 29.7898 42.9716 30.4886 41.9602C31.1932 40.9432 32.0795 40.1534 33.1477 39.5909C34.2159 39.0227 35.4062 38.7386 36.7188 38.7386C37.6506 38.7386 38.4773 38.8835 39.1989 39.1733C39.9205 39.4631 40.517 39.8949 40.9886 40.4688C41.4602 41.0369 41.7813 41.7358 41.9517 42.5653C42.1222 43.3949 42.1165 44.3466 41.9347 45.4205L41.7727 46.4602H30.4034L30.7869 44.0398H38.2869C38.3551 43.5966 38.3182 43.2017 38.1761 42.8551C38.0341 42.5085 37.804 42.2386 37.4858 42.0455C37.1733 41.8466 36.7898 41.7472 36.3352 41.7472C35.875 41.7472 35.4432 41.8551 35.0398 42.071C34.642 42.2812 34.304 42.5653 34.0256 42.9233C33.7472 43.2812 33.5653 43.6847 33.4801 44.1335L33.0284 46.6136C32.9375 47.1648 32.9631 47.6364 33.1051 48.0284C33.2472 48.4205 33.4915 48.7216 33.8381 48.9318C34.1847 49.1364 34.6307 49.2386 35.1761 49.2386C35.5398 49.2386 35.8807 49.1903 36.1989 49.0938C36.517 48.9915 36.8011 48.8409 37.0511 48.642C37.3068 48.4375 37.5142 48.1903 37.6733 47.9006L41.4744 48.0114C41.1676 48.8693 40.6932 49.6165 40.0511 50.2528C39.4091 50.8835 38.625 51.375 37.6989 51.7273C36.7784 52.0739 35.7443 52.2472 34.5966 52.2472ZM46.6286 52.2216C45.799 52.2216 45.0831 52.0824 44.4808 51.804C43.8842 51.5199 43.4467 51.0909 43.1683 50.517C42.8956 49.9432 42.8303 49.2273 42.9723 48.3693C43.0973 47.642 43.3274 47.0312 43.6626 46.5369C44.0036 46.0369 44.4212 45.6307 44.9155 45.3182C45.4155 45.0057 45.9723 44.767 46.5859 44.6023C47.1996 44.4375 47.8416 44.3267 48.5121 44.2699C49.2621 44.2017 49.87 44.1278 50.3359 44.0483C50.8075 43.9687 51.1598 43.858 51.3928 43.7159C51.6257 43.5682 51.7678 43.3636 51.8189 43.1023V43.0597C51.8871 42.6222 51.7933 42.2841 51.5376 42.0455C51.282 41.8068 50.8984 41.6875 50.3871 41.6875C49.8416 41.6875 49.3757 41.8068 48.9893 42.0455C48.603 42.2841 48.3331 42.6136 48.1797 43.0341L44.3615 42.8977C44.6001 42.1023 45.0092 41.392 45.5888 40.767C46.1683 40.1364 46.9041 39.642 47.7962 39.2841C48.6939 38.9205 49.7308 38.7386 50.907 38.7386C51.7365 38.7386 52.4865 38.8381 53.157 39.0369C53.8274 39.2301 54.3928 39.5142 54.853 39.8892C55.3189 40.2585 55.6513 40.7131 55.8501 41.2528C56.049 41.7926 56.0916 42.4091 55.978 43.1023L54.4865 52H50.5661L50.8729 50.1761H50.7706C50.4638 50.6193 50.103 50.9943 49.6882 51.3011C49.2791 51.608 48.8189 51.8381 48.3075 51.9915C47.7962 52.1449 47.2365 52.2216 46.6286 52.2216ZM48.3842 49.4943C48.8217 49.4943 49.2365 49.4034 49.6286 49.2216C50.0206 49.0398 50.3501 48.7898 50.6172 48.4716C50.8899 48.1477 51.0632 47.7727 51.1371 47.3466L51.3331 46.1023C51.2138 46.1648 51.0632 46.2216 50.8814 46.2727C50.6996 46.3239 50.5064 46.3722 50.3018 46.4176C50.0973 46.4574 49.8871 46.4972 49.6712 46.5369C49.4609 46.571 49.2592 46.6023 49.0661 46.6307C48.657 46.6932 48.3018 46.7898 48.0007 46.9205C47.6996 47.0511 47.4581 47.2216 47.2763 47.4318C47.1001 47.6364 46.9922 47.8807 46.9524 48.1648C46.8842 48.5909 46.9837 48.9205 47.2507 49.1534C47.5178 49.3807 47.8956 49.4943 48.3842 49.4943ZM71.4467 38.9091L64.7734 52H60.0007L57.6996 38.9091H61.9354L62.8558 47.9261H62.9922L66.9041 38.9091H71.4467ZM76.5263 52.2472C75.157 52.2472 74.0206 51.9773 73.1172 51.4375C72.2195 50.892 71.5888 50.1165 71.2251 49.1108C70.8615 48.0994 70.7962 46.8977 71.0291 45.5057C71.2564 44.1534 71.7195 42.9716 72.4183 41.9602C73.1229 40.9432 74.0092 40.1534 75.0774 39.5909C76.1456 39.0227 77.3359 38.7386 78.6484 38.7386C79.5803 38.7386 80.407 38.8835 81.1286 39.1733C81.8501 39.4631 82.4467 39.8949 82.9183 40.4688C83.3899 41.0369 83.7109 41.7358 83.8814 42.5653C84.0518 43.3949 84.0462 44.3466 83.8643 45.4205L83.7024 46.4602H72.3331L72.7166 44.0398H80.2166C80.2848 43.5966 80.2479 43.2017 80.1058 42.8551C79.9638 42.5085 79.7337 42.2386 79.4155 42.0455C79.103 41.8466 78.7195 41.7472 78.2649 41.7472C77.8047 41.7472 77.3729 41.8551 76.9695 42.071C76.5717 42.2812 76.2337 42.5653 75.9553 42.9233C75.6768 43.2812 75.495 43.6847 75.4098 44.1335L74.9581 46.6136C74.8672 47.1648 74.8928 47.6364 75.0348 48.0284C75.1768 48.4205 75.4212 48.7216 75.7678 48.9318C76.1143 49.1364 76.5604 49.2386 77.1058 49.2386C77.4695 49.2386 77.8104 49.1903 78.1286 49.0938C78.4467 48.9915 78.7308 48.8409 78.9808 48.642C79.2365 48.4375 79.4439 48.1903 79.603 47.9006L83.4041 48.0114C83.0973 48.8693 82.6229 49.6165 81.9808 50.2528C81.3388 50.8835 80.5547 51.375 79.6286 51.7273C78.7081 52.0739 77.674 52.2472 76.5263 52.2472ZM90.3395 44.5341L89.0952 52H84.9276L87.1094 38.9091H91.0724L90.6804 41.3125H90.8253C91.2344 40.5114 91.8281 39.8835 92.6065 39.429C93.3849 38.9688 94.2599 38.7386 95.2315 38.7386C96.1463 38.7386 96.9105 38.9432 97.5241 39.3523C98.1378 39.7614 98.5724 40.3352 98.8281 41.0739C99.0838 41.8068 99.1264 42.6676 98.956 43.6562L97.5582 52H93.3906L94.6435 44.4744C94.7685 43.7528 94.6804 43.1875 94.3793 42.7784C94.0838 42.3636 93.6009 42.1562 92.9304 42.1562C92.4929 42.1562 92.0923 42.2528 91.7287 42.446C91.3707 42.6335 91.0696 42.9034 90.8253 43.2557C90.5866 43.608 90.4247 44.0341 90.3395 44.5341ZM107.178 34.5455L104.281 52H100.113L103.011 34.5455H107.178ZM108.68 56.9091C108.18 56.9091 107.714 56.8693 107.283 56.7898C106.857 56.7159 106.493 56.6165 106.192 56.4915L107.624 53.4659C108.004 53.6023 108.354 53.679 108.672 53.696C108.996 53.7188 109.286 53.6648 109.541 53.5341C109.803 53.4091 110.03 53.1847 110.223 52.8608L110.462 52.4602L108.067 38.9091H112.277L113.129 48.2585H113.266L117.271 38.9091H121.814L114.51 53.2528C114.141 53.9688 113.695 54.6023 113.172 55.1534C112.649 55.7045 112.018 56.1335 111.28 56.4403C110.547 56.7528 109.68 56.9091 108.68 56.9091Z" fill="#ECF0FB"/>
</g>
<g filter="url(#filter1_dd_223_11190)">
<path d="M45.8191 99.598L45.9114 84.456H47.5733L56.16 72.5455H70.4711L56.0677 91.1037H52.4668L45.8191 99.598ZM34.3702 108V60.7273H47.1117V108H34.3702ZM56.2523 108L48.1273 93.9659L56.437 84.9176L70.8404 108H56.2523ZM83.6684 108.554C81.4063 108.554 79.4059 108.185 77.667 107.446C75.9435 106.692 74.5893 105.553 73.6045 104.03C72.6196 102.506 72.1272 100.567 72.1272 98.2131C72.1272 96.2741 72.4581 94.6199 73.1198 93.2504C73.7815 91.8654 74.7048 90.7344 75.8896 89.8572C77.0745 88.9801 78.4518 88.3107 80.0214 87.8491C81.6064 87.3874 83.3145 87.0874 85.1457 86.9489C87.1308 86.795 88.7235 86.6103 89.9237 86.3949C91.1394 86.1641 92.0165 85.8486 92.5551 85.4485C93.0937 85.033 93.363 84.4867 93.363 83.8097V83.7173C93.363 82.794 93.0091 82.0862 92.3012 81.5938C91.5934 81.1013 90.6855 80.8551 89.5775 80.8551C88.3618 80.8551 87.3693 81.1244 86.5999 81.663C85.8459 82.1862 85.3919 82.9941 85.238 84.0866H73.5122C73.666 81.9323 74.3508 79.9472 75.5665 78.1314C76.7976 76.3002 78.5903 74.8383 80.9447 73.7457C83.2991 72.6378 86.2383 72.0838 89.7622 72.0838C92.3012 72.0838 94.5787 72.3839 96.5945 72.984C98.6104 73.5688 100.326 74.392 101.742 75.4538C103.158 76.5002 104.235 77.7313 104.973 79.147C105.727 80.5473 106.104 82.0708 106.104 83.7173V108H94.194V103.014H93.917C93.2091 104.338 92.3474 105.407 91.3318 106.223C90.3315 107.038 89.1851 107.631 87.8925 108C86.6153 108.369 85.2072 108.554 83.6684 108.554ZM87.8232 100.521C88.7927 100.521 89.7006 100.321 90.547 99.9212C91.4087 99.5211 92.1089 98.944 92.6475 98.19C93.1861 97.436 93.4553 96.5204 93.4553 95.4432V92.4886C93.1168 92.6271 92.7552 92.7579 92.3705 92.881C92.0012 93.0041 91.6011 93.1196 91.1702 93.2273C90.7547 93.335 90.3084 93.435 89.8314 93.5273C89.3698 93.6197 88.885 93.7043 88.3772 93.7812C87.3924 93.9351 86.5845 94.189 85.9536 94.543C85.338 94.8815 84.8764 95.3047 84.5686 95.8125C84.2762 96.3049 84.1301 96.8589 84.1301 97.4744C84.1301 98.4593 84.4763 99.2133 85.1688 99.7365C85.8612 100.26 86.7461 100.521 87.8232 100.521ZM124.934 88.0568V108H112.192V72.5455H124.288V79.2855H124.657C125.426 77.0388 126.781 75.2769 128.719 73.9996C130.674 72.7224 132.951 72.0838 135.552 72.0838C138.06 72.0838 140.238 72.6609 142.084 73.815C143.946 74.9537 145.385 76.5233 146.401 78.5238C147.432 80.5243 147.939 82.8094 147.924 85.3793V108H135.183V88.0568C135.198 86.3026 134.752 84.9253 133.844 83.9251C132.951 82.9248 131.705 82.4247 130.104 82.4247C129.058 82.4247 128.142 82.6555 127.358 83.1172C126.588 83.5634 125.996 84.2098 125.58 85.0561C125.165 85.8871 124.949 86.8873 124.934 88.0568ZM171.295 122.034C167.74 122.034 164.693 121.526 162.154 120.511C159.631 119.51 157.669 118.125 156.268 116.356C154.883 114.602 154.106 112.586 153.937 110.308H166.217C166.34 111.062 166.648 111.67 167.14 112.132C167.633 112.593 168.263 112.924 169.033 113.124C169.818 113.34 170.695 113.447 171.664 113.447C173.311 113.447 174.673 113.047 175.75 112.247C176.842 111.447 177.389 110 177.389 107.908V101.906H177.019C176.558 103.107 175.85 104.13 174.896 104.976C173.942 105.807 172.795 106.446 171.456 106.892C170.118 107.323 168.648 107.538 167.048 107.538C164.524 107.538 162.2 106.954 160.077 105.784C157.969 104.615 156.276 102.76 154.999 100.221C153.737 97.6822 153.106 94.366 153.106 90.2727C153.106 85.9948 153.768 82.517 155.091 79.8395C156.43 77.1619 158.153 75.1999 160.262 73.9535C162.385 72.707 164.616 72.0838 166.955 72.0838C168.71 72.0838 170.249 72.3916 171.572 73.0071C172.895 73.6072 174.003 74.4151 174.896 75.4308C175.788 76.431 176.465 77.5312 176.927 78.7315H177.204V72.5455H189.945V107.908C189.945 110.908 189.168 113.455 187.614 115.548C186.075 117.656 183.906 119.264 181.105 120.372C178.304 121.48 175.034 122.034 171.295 122.034ZM171.757 98.4901C172.926 98.4901 173.926 98.1669 174.757 97.5206C175.604 96.8589 176.25 95.9202 176.696 94.7045C177.158 93.4735 177.389 91.9962 177.389 90.2727C177.389 88.5185 177.158 87.0181 176.696 85.7717C176.25 84.5098 175.604 83.5481 174.757 82.8864C173.926 82.2093 172.926 81.8707 171.757 81.8707C170.587 81.8707 169.587 82.2093 168.756 82.8864C167.94 83.5481 167.309 84.5098 166.863 85.7717C166.432 87.0181 166.217 88.5185 166.217 90.2727C166.217 92.027 166.432 93.5196 166.863 94.7507C167.309 95.9664 167.94 96.8974 168.756 97.5437C169.587 98.1746 170.587 98.4901 171.757 98.4901ZM206.305 108.554C204.043 108.554 202.043 108.185 200.304 107.446C198.58 106.692 197.226 105.553 196.241 104.03C195.256 102.506 194.764 100.567 194.764 98.2131C194.764 96.2741 195.095 94.6199 195.756 93.2504C196.418 91.8654 197.341 90.7344 198.526 89.8572C199.711 88.9801 201.089 88.3107 202.658 87.8491C204.243 87.3874 205.951 87.0874 207.782 86.9489C209.767 86.795 211.36 86.6103 212.56 86.3949C213.776 86.1641 214.653 85.8486 215.192 85.4485C215.73 85.033 216 84.4867 216 83.8097V83.7173C216 82.794 215.646 82.0862 214.938 81.5938C214.23 81.1013 213.322 80.8551 212.214 80.8551C210.999 80.8551 210.006 81.1244 209.237 81.663C208.483 82.1862 208.029 82.9941 207.875 84.0866H196.149C196.303 81.9323 196.988 79.9472 198.203 78.1314C199.434 76.3002 201.227 74.8383 203.581 73.7457C205.936 72.6378 208.875 72.0838 212.399 72.0838C214.938 72.0838 217.215 72.3839 219.231 72.984C221.247 73.5688 222.963 74.392 224.379 75.4538C225.794 76.5002 226.872 77.7313 227.61 79.147C228.364 80.5473 228.741 82.0708 228.741 83.7173V108H216.831V103.014H216.554C215.846 104.338 214.984 105.407 213.968 106.223C212.968 107.038 211.822 107.631 210.529 108C209.252 108.369 207.844 108.554 206.305 108.554ZM210.46 100.521C211.429 100.521 212.337 100.321 213.184 99.9212C214.045 99.5211 214.746 98.944 215.284 98.19C215.823 97.436 216.092 96.5204 216.092 95.4432V92.4886C215.754 92.6271 215.392 92.7579 215.007 92.881C214.638 93.0041 214.238 93.1196 213.807 93.2273C213.391 93.335 212.945 93.435 212.468 93.5273C212.006 93.6197 211.522 93.7043 211.014 93.7812C210.029 93.9351 209.221 94.189 208.59 94.543C207.975 94.8815 207.513 95.3047 207.205 95.8125C206.913 96.3049 206.767 96.8589 206.767 97.4744C206.767 98.4593 207.113 99.2133 207.805 99.7365C208.498 100.26 209.383 100.521 210.46 100.521ZM234.829 108V72.5455H247.201V79.2855H247.571C248.217 76.7926 249.24 74.9691 250.641 73.815C252.056 72.6609 253.711 72.0838 255.603 72.0838C256.157 72.0838 256.704 72.13 257.242 72.2223C257.796 72.2992 258.327 72.4147 258.835 72.5685V83.4403C258.204 83.2249 257.427 83.0633 256.504 82.9556C255.58 82.8479 254.788 82.794 254.126 82.794C252.88 82.794 251.756 83.0787 250.756 83.6481C249.771 84.2021 248.994 84.9869 248.425 86.0025C247.855 87.0027 247.571 88.1799 247.571 89.5341V108H234.829ZM278.062 108.646C274.215 108.646 270.922 107.885 268.183 106.361C265.444 104.822 263.344 102.683 261.882 99.9442C260.42 97.1897 259.689 93.9967 259.689 90.3651C259.689 86.7334 260.42 83.5481 261.882 80.8089C263.344 78.0544 265.444 75.9155 268.183 74.392C270.922 72.8532 274.215 72.0838 278.062 72.0838C281.91 72.0838 285.203 72.8532 287.942 74.392C290.681 75.9155 292.781 78.0544 294.243 80.8089C295.705 83.5481 296.436 86.7334 296.436 90.3651C296.436 93.9967 295.705 97.1897 294.243 99.9442C292.781 102.683 290.681 104.822 287.942 106.361C285.203 107.885 281.91 108.646 278.062 108.646ZM278.155 99.2287C279.232 99.2287 280.163 98.8671 280.948 98.1438C281.733 97.4206 282.34 96.3896 282.771 95.0508C283.202 93.712 283.418 92.1193 283.418 90.2727C283.418 88.4107 283.202 86.8181 282.771 85.4947C282.34 84.1559 281.733 83.1249 280.948 82.4016C280.163 81.6784 279.232 81.3168 278.155 81.3168C277.016 81.3168 276.039 81.6784 275.223 82.4016C274.408 83.1249 273.785 84.1559 273.354 85.4947C272.923 86.8181 272.707 88.4107 272.707 90.2727C272.707 92.1193 272.923 93.712 273.354 95.0508C273.785 96.3896 274.408 97.4206 275.223 98.1438C276.039 98.8671 277.016 99.2287 278.155 99.2287ZM318.688 108.646C314.84 108.646 311.547 107.885 308.808 106.361C306.069 104.822 303.969 102.683 302.507 99.9442C301.045 97.1897 300.314 93.9967 300.314 90.3651C300.314 86.7334 301.045 83.5481 302.507 80.8089C303.969 78.0544 306.069 75.9155 308.808 74.392C311.547 72.8532 314.84 72.0838 318.688 72.0838C322.535 72.0838 325.828 72.8532 328.567 74.392C331.306 75.9155 333.406 78.0544 334.868 80.8089C336.33 83.5481 337.061 86.7334 337.061 90.3651C337.061 93.9967 336.33 97.1897 334.868 99.9442C333.406 102.683 331.306 104.822 328.567 106.361C325.828 107.885 322.535 108.646 318.688 108.646ZM318.78 99.2287C319.857 99.2287 320.788 98.8671 321.573 98.1438C322.358 97.4206 322.965 96.3896 323.396 95.0508C323.827 93.712 324.043 92.1193 324.043 90.2727C324.043 88.4107 323.827 86.8181 323.396 85.4947C322.965 84.1559 322.358 83.1249 321.573 82.4016C320.788 81.6784 319.857 81.3168 318.78 81.3168C317.641 81.3168 316.664 81.6784 315.848 82.4016C315.033 83.1249 314.41 84.1559 313.979 85.4947C313.548 86.8181 313.332 88.4107 313.332 90.2727C313.332 92.1193 313.548 93.712 313.979 95.0508C314.41 96.3896 315.033 97.4206 315.848 98.1438C316.664 98.8671 317.641 99.2287 318.78 99.2287Z" fill="#ECF0FB"/>
</g>
<defs>
<filter id="filter0_dd_223_11190" x="0.424923" y="29.5672" width="136.243" height="54.2648" filterUnits="userSpaceOnUse" color-interpolation-filters="sRGB">
<feFlood flood-opacity="0" result="BackgroundImageFix"/>
<feColorMatrix in="SourceAlpha" type="matrix" values="0 0 0 0 0 0 0 0 0 0 0 0 0 0 0 0 0 0 127 0" result="hardAlpha"/>
<feOffset dx="1" dy="5.43135"/>
<feGaussianBlur stdDeviation="5.2048"/>
<feColorMatrix type="matrix" values="0 0 0 0 0 0 0 0 0 0 0 0 0 0 0 0 0 0 0.117297 0"/>
<feBlend mode="normal" in2="BackgroundImageFix" result="effect1_dropShadow_223_11190"/>
<feColorMatrix in="SourceAlpha" type="matrix" values="0 0 0 0 0 0 0 0 0 0 0 0 0 0 0 0 0 0 127 0" result="hardAlpha"/>
<feOffset dx="1" dy="13.0687"/>
<feGaussianBlur stdDeviation="6.9271"/>
<feColorMatrix type="matrix" values="0 0 0 0 0 0 0 0 0 0 0 0 0 0 0 0 0 0 0.0945694 0"/>
<feBlend mode="normal" in2="effect1_dropShadow_223_11190" result="effect2_dropShadow_223_11190"/>
<feBlend mode="normal" in="SourceGraphic" in2="effect2_dropShadow_223_11190" result="shape"/>
</filter>
<filter id="filter1_dd_223_11190" x="21.516" y="55.7491" width="330.399" height="93.2079" filterUnits="userSpaceOnUse" color-interpolation-filters="sRGB">
<feFlood flood-opacity="0" result="BackgroundImageFix"/>
<feColorMatrix in="SourceAlpha" type="matrix" values="0 0 0 0 0 0 0 0 0 0 0 0 0 0 0 0 0 0 127 0" result="hardAlpha"/>
<feOffset dx="1" dy="5.43135"/>
<feGaussianBlur stdDeviation="5.2048"/>
<feColorMatrix type="matrix" values="0 0 0 0 0 0 0 0 0 0 0 0 0 0 0 0 0 0 0.117297 0"/>
<feBlend mode="normal" in2="BackgroundImageFix" result="effect1_dropShadow_223_11190"/>
<feColorMatrix in="SourceAlpha" type="matrix" values="0 0 0 0 0 0 0 0 0 0 0 0 0 0 0 0 0 0 127 0" result="hardAlpha"/>
<feOffset dx="1" dy="13.0687"/>
<feGaussianBlur stdDeviation="6.9271"/>
<feColorMatrix type="matrix" values="0 0 0 0 0 0 0 0 0 0 0 0 0 0 0 0 0 0 0.0945694 0"/>
<feBlend mode="normal" in2="effect1_dropShadow_223_11190" result="effect2_dropShadow_223_11190"/>
<feBlend mode="normal" in="SourceGraphic" in2="effect2_dropShadow_223_11190" result="shape"/>
</filter>
</defs>
</svg>
