<svg width="352" height="149" viewBox="0 0 352 149" fill="none" xmlns="http://www.w3.org/2000/svg">
<g filter="url(#filter0_dd_222_10476)">
<path d="M13.1364 52L15.3182 38.9091H19.4858L17.304 52H13.1364ZM17.696 37.375C17.1051 37.375 16.625 37.179 16.2557 36.7869C15.8864 36.3949 15.7415 35.9261 15.821 35.3807C15.9006 34.8295 16.179 34.3608 16.6562 33.9744C17.1335 33.5881 17.6648 33.3949 18.25 33.3949C18.8409 33.3949 19.3153 33.5881 19.6733 33.9744C20.0369 34.3608 20.179 34.8295 20.0994 35.3807C20.0313 35.9261 19.7585 36.3949 19.2812 36.7869C18.8097 37.179 18.2813 37.375 17.696 37.375ZM19.9567 52L22.8544 34.5455H27.022L25.9396 41.1506H26.0249C26.2521 40.7528 26.5533 40.3693 26.9283 40C27.3089 39.6307 27.7663 39.3295 28.3004 39.0966C28.8345 38.858 29.4453 38.7386 30.1328 38.7386C31.0419 38.7386 31.8516 38.9773 32.5618 39.4545C33.272 39.9318 33.7891 40.6676 34.1129 41.6619C34.4368 42.6562 34.4709 43.9233 34.2152 45.4631C33.9709 46.946 33.5305 48.1875 32.8942 49.1875C32.2578 50.1875 31.4993 50.9375 30.6186 51.4375C29.7436 51.9375 28.8232 52.1875 27.8572 52.1875C27.1982 52.1875 26.6442 52.0795 26.1953 51.8636C25.7521 51.6477 25.397 51.3636 25.13 51.0114C24.8686 50.6591 24.6868 50.2812 24.5845 49.8778H24.4226L24.0817 52H19.9567ZM25.13 45.4545C25.0163 46.1591 25.0107 46.7727 25.1129 47.2955C25.2209 47.8182 25.4283 48.2244 25.7351 48.5142C26.0476 48.7983 26.4595 48.9403 26.9709 48.9403C27.4822 48.9403 27.9396 48.7983 28.343 48.5142C28.7464 48.2244 29.0845 47.8182 29.3572 47.2955C29.63 46.7727 29.8232 46.1591 29.9368 45.4545C30.0504 44.75 30.0561 44.1392 29.9538 43.6222C29.8572 43.1051 29.6555 42.7045 29.3487 42.4205C29.0419 42.1364 28.63 41.9943 28.1129 41.9943C27.6016 41.9943 27.1413 42.1335 26.7322 42.4119C26.3288 42.6903 25.9879 43.0881 25.7095 43.6051C25.4368 44.1222 25.2436 44.7386 25.13 45.4545ZM35.3082 52L37.4901 38.9091H41.6577L39.4759 52H35.3082ZM39.8679 37.375C39.277 37.375 38.7969 37.179 38.4276 36.7869C38.0582 36.3949 37.9134 35.9261 37.9929 35.3807C38.0724 34.8295 38.3509 34.3608 38.8281 33.9744C39.3054 33.5881 39.8366 33.3949 40.4219 33.3949C41.0128 33.3949 41.4872 33.5881 41.8452 33.9744C42.2088 34.3608 42.3509 34.8295 42.2713 35.3807C42.2031 35.9261 41.9304 36.3949 41.4531 36.7869C40.9815 37.179 40.4531 37.375 39.8679 37.375ZM42.1882 52L42.5717 49.6222L49.8587 42.233L49.8928 42.1477H44.0291L44.5831 38.9091H55.407L54.9979 41.517L48.1882 48.6761L48.1541 48.7614H53.9837L53.4638 52H42.1882ZM59.8239 52.2216C58.9943 52.2216 58.2784 52.0824 57.6761 51.804C57.0795 51.5199 56.642 51.0909 56.3636 50.517C56.0909 49.9432 56.0256 49.2273 56.1676 48.3693C56.2926 47.642 56.5227 47.0312 56.858 46.5369C57.1989 46.0369 57.6165 45.6307 58.1108 45.3182C58.6108 45.0057 59.1676 44.767 59.7812 44.6023C60.3949 44.4375 61.0369 44.3267 61.7074 44.2699C62.4574 44.2017 63.0653 44.1278 63.5312 44.0483C64.0028 43.9687 64.3551 43.858 64.5881 43.7159C64.821 43.5682 64.9631 43.3636 65.0142 43.1023V43.0597C65.0824 42.6222 64.9886 42.2841 64.733 42.0455C64.4773 41.8068 64.0938 41.6875 63.5824 41.6875C63.0369 41.6875 62.571 41.8068 62.1847 42.0455C61.7983 42.2841 61.5284 42.6136 61.375 43.0341L57.5568 42.8977C57.7955 42.1023 58.2045 41.392 58.7841 40.767C59.3636 40.1364 60.0994 39.642 60.9915 39.2841C61.8892 38.9205 62.9261 38.7386 64.1023 38.7386C64.9318 38.7386 65.6818 38.8381 66.3523 39.0369C67.0227 39.2301 67.5881 39.5142 68.0483 39.8892C68.5142 40.2585 68.8466 40.7131 69.0455 41.2528C69.2443 41.7926 69.2869 42.4091 69.1733 43.1023L67.6818 52H63.7614L64.0682 50.1761H63.9659C63.6591 50.6193 63.2983 50.9943 62.8835 51.3011C62.4744 51.608 62.0142 51.8381 61.5028 51.9915C60.9915 52.1449 60.4318 52.2216 59.8239 52.2216ZM61.5795 49.4943C62.017 49.4943 62.4318 49.4034 62.8239 49.2216C63.2159 49.0398 63.5455 48.7898 63.8125 48.4716C64.0852 48.1477 64.2585 47.7727 64.3324 47.3466L64.5284 46.1023C64.4091 46.1648 64.2585 46.2216 64.0767 46.2727C63.8949 46.3239 63.7017 46.3722 63.4972 46.4176C63.2926 46.4574 63.0824 46.4972 62.8665 46.5369C62.6563 46.571 62.4545 46.6023 62.2614 46.6307C61.8523 46.6932 61.4972 46.7898 61.196 46.9205C60.8949 47.0511 60.6534 47.2216 60.4716 47.4318C60.2955 47.6364 60.1875 47.8807 60.1477 48.1648C60.0795 48.5909 60.179 48.9205 60.446 49.1534C60.7131 49.3807 61.0909 49.4943 61.5795 49.4943Z" fill="#D5DCE3"/>
</g>
<g filter="url(#filter1_dd_222_10476)">
<path d="M45.8191 99.598L45.9114 84.456H47.5733L56.16 72.5455H70.4711L56.0677 91.1037H52.4668L45.8191 99.598ZM34.3702 108V60.7273H47.1117V108H34.3702ZM56.2523 108L48.1273 93.9659L56.437 84.9176L70.8404 108H56.2523ZM83.6684 108.554C81.4063 108.554 79.4059 108.185 77.667 107.446C75.9435 106.692 74.5893 105.553 73.6045 104.03C72.6196 102.506 72.1272 100.567 72.1272 98.2131C72.1272 96.2741 72.4581 94.6199 73.1198 93.2504C73.7815 91.8654 74.7048 90.7344 75.8896 89.8572C77.0745 88.9801 78.4518 88.3107 80.0214 87.8491C81.6064 87.3874 83.3145 87.0874 85.1457 86.9489C87.1308 86.795 88.7235 86.6103 89.9237 86.3949C91.1394 86.1641 92.0165 85.8486 92.5551 85.4485C93.0937 85.033 93.363 84.4867 93.363 83.8097V83.7173C93.363 82.794 93.0091 82.0862 92.3012 81.5938C91.5934 81.1013 90.6855 80.8551 89.5775 80.8551C88.3618 80.8551 87.3693 81.1244 86.5999 81.663C85.8459 82.1862 85.3919 82.9941 85.238 84.0866H73.5122C73.666 81.9323 74.3508 79.9472 75.5665 78.1314C76.7976 76.3002 78.5903 74.8383 80.9447 73.7457C83.2991 72.6378 86.2383 72.0838 89.7622 72.0838C92.3012 72.0838 94.5787 72.3839 96.5945 72.984C98.6104 73.5688 100.326 74.392 101.742 75.4538C103.158 76.5002 104.235 77.7313 104.973 79.147C105.727 80.5473 106.104 82.0708 106.104 83.7173V108H94.194V103.014H93.917C93.2091 104.338 92.3474 105.407 91.3318 106.223C90.3315 107.038 89.1851 107.631 87.8925 108C86.6153 108.369 85.2072 108.554 83.6684 108.554ZM87.8232 100.521C88.7927 100.521 89.7006 100.321 90.547 99.9212C91.4087 99.5211 92.1089 98.944 92.6475 98.19C93.1861 97.436 93.4553 96.5204 93.4553 95.4432V92.4886C93.1168 92.6271 92.7552 92.7579 92.3705 92.881C92.0012 93.0041 91.6011 93.1196 91.1702 93.2273C90.7547 93.335 90.3084 93.435 89.8314 93.5273C89.3698 93.6197 88.885 93.7043 88.3772 93.7812C87.3924 93.9351 86.5845 94.189 85.9536 94.543C85.338 94.8815 84.8764 95.3047 84.5686 95.8125C84.2762 96.3049 84.1301 96.8589 84.1301 97.4744C84.1301 98.4593 84.4763 99.2133 85.1688 99.7365C85.8612 100.26 86.7461 100.521 87.8232 100.521ZM124.934 88.0568V108H112.192V72.5455H124.288V79.2855H124.657C125.426 77.0388 126.781 75.2769 128.719 73.9996C130.674 72.7224 132.951 72.0838 135.552 72.0838C138.06 72.0838 140.238 72.6609 142.084 73.815C143.946 74.9537 145.385 76.5233 146.401 78.5238C147.432 80.5243 147.939 82.8094 147.924 85.3793V108H135.183V88.0568C135.198 86.3026 134.752 84.9253 133.844 83.9251C132.951 82.9248 131.705 82.4247 130.104 82.4247C129.058 82.4247 128.142 82.6555 127.358 83.1172C126.588 83.5634 125.996 84.2098 125.58 85.0561C125.165 85.8871 124.949 86.8873 124.934 88.0568ZM171.295 122.034C167.74 122.034 164.693 121.526 162.154 120.511C159.631 119.51 157.669 118.125 156.268 116.356C154.883 114.602 154.106 112.586 153.937 110.308H166.217C166.34 111.062 166.648 111.67 167.14 112.132C167.633 112.593 168.263 112.924 169.033 113.124C169.818 113.34 170.695 113.447 171.664 113.447C173.311 113.447 174.673 113.047 175.75 112.247C176.842 111.447 177.389 110 177.389 107.908V101.906H177.019C176.558 103.107 175.85 104.13 174.896 104.976C173.942 105.807 172.795 106.446 171.456 106.892C170.118 107.323 168.648 107.538 167.048 107.538C164.524 107.538 162.2 106.954 160.077 105.784C157.969 104.615 156.276 102.76 154.999 100.221C153.737 97.6822 153.106 94.366 153.106 90.2727C153.106 85.9948 153.768 82.517 155.091 79.8395C156.43 77.1619 158.153 75.1999 160.262 73.9535C162.385 72.707 164.616 72.0838 166.955 72.0838C168.71 72.0838 170.249 72.3916 171.572 73.0071C172.895 73.6072 174.003 74.4151 174.896 75.4308C175.788 76.431 176.465 77.5312 176.927 78.7315H177.204V72.5455H189.945V107.908C189.945 110.908 189.168 113.455 187.614 115.548C186.075 117.656 183.906 119.264 181.105 120.372C178.304 121.48 175.034 122.034 171.295 122.034ZM171.757 98.4901C172.926 98.4901 173.926 98.1669 174.757 97.5206C175.604 96.8589 176.25 95.9202 176.696 94.7045C177.158 93.4735 177.389 91.9962 177.389 90.2727C177.389 88.5185 177.158 87.0181 176.696 85.7717C176.25 84.5098 175.604 83.5481 174.757 82.8864C173.926 82.2093 172.926 81.8707 171.757 81.8707C170.587 81.8707 169.587 82.2093 168.756 82.8864C167.94 83.5481 167.309 84.5098 166.863 85.7717C166.432 87.0181 166.217 88.5185 166.217 90.2727C166.217 92.027 166.432 93.5196 166.863 94.7507C167.309 95.9664 167.94 96.8974 168.756 97.5437C169.587 98.1746 170.587 98.4901 171.757 98.4901ZM206.305 108.554C204.043 108.554 202.043 108.185 200.304 107.446C198.58 106.692 197.226 105.553 196.241 104.03C195.256 102.506 194.764 100.567 194.764 98.2131C194.764 96.2741 195.095 94.6199 195.756 93.2504C196.418 91.8654 197.341 90.7344 198.526 89.8572C199.711 88.9801 201.089 88.3107 202.658 87.8491C204.243 87.3874 205.951 87.0874 207.782 86.9489C209.767 86.795 211.36 86.6103 212.56 86.3949C213.776 86.1641 214.653 85.8486 215.192 85.4485C215.73 85.033 216 84.4867 216 83.8097V83.7173C216 82.794 215.646 82.0862 214.938 81.5938C214.23 81.1013 213.322 80.8551 212.214 80.8551C210.999 80.8551 210.006 81.1244 209.237 81.663C208.483 82.1862 208.029 82.9941 207.875 84.0866H196.149C196.303 81.9323 196.988 79.9472 198.203 78.1314C199.434 76.3002 201.227 74.8383 203.581 73.7457C205.936 72.6378 208.875 72.0838 212.399 72.0838C214.938 72.0838 217.215 72.3839 219.231 72.984C221.247 73.5688 222.963 74.392 224.379 75.4538C225.794 76.5002 226.872 77.7313 227.61 79.147C228.364 80.5473 228.741 82.0708 228.741 83.7173V108H216.831V103.014H216.554C215.846 104.338 214.984 105.407 213.968 106.223C212.968 107.038 211.822 107.631 210.529 108C209.252 108.369 207.844 108.554 206.305 108.554ZM210.46 100.521C211.429 100.521 212.337 100.321 213.184 99.9212C214.045 99.5211 214.746 98.944 215.284 98.19C215.823 97.436 216.092 96.5204 216.092 95.4432V92.4886C215.754 92.6271 215.392 92.7579 215.007 92.881C214.638 93.0041 214.238 93.1196 213.807 93.2273C213.391 93.335 212.945 93.435 212.468 93.5273C212.006 93.6197 211.522 93.7043 211.014 93.7812C210.029 93.9351 209.221 94.189 208.59 94.543C207.975 94.8815 207.513 95.3047 207.205 95.8125C206.913 96.3049 206.767 96.8589 206.767 97.4744C206.767 98.4593 207.113 99.2133 207.805 99.7365C208.498 100.26 209.383 100.521 210.46 100.521ZM234.829 108V72.5455H247.201V79.2855H247.571C248.217 76.7926 249.24 74.9691 250.641 73.815C252.056 72.6609 253.711 72.0838 255.603 72.0838C256.157 72.0838 256.704 72.13 257.242 72.2223C257.796 72.2992 258.327 72.4147 258.835 72.5685V83.4403C258.204 83.2249 257.427 83.0633 256.504 82.9556C255.58 82.8479 254.788 82.794 254.126 82.794C252.88 82.794 251.756 83.0787 250.756 83.6481C249.771 84.2021 248.994 84.9869 248.425 86.0025C247.855 87.0027 247.571 88.1799 247.571 89.5341V108H234.829ZM278.062 108.646C274.215 108.646 270.922 107.885 268.183 106.361C265.444 104.822 263.344 102.683 261.882 99.9442C260.42 97.1897 259.689 93.9967 259.689 90.3651C259.689 86.7334 260.42 83.5481 261.882 80.8089C263.344 78.0544 265.444 75.9155 268.183 74.392C270.922 72.8532 274.215 72.0838 278.062 72.0838C281.91 72.0838 285.203 72.8532 287.942 74.392C290.681 75.9155 292.781 78.0544 294.243 80.8089C295.705 83.5481 296.436 86.7334 296.436 90.3651C296.436 93.9967 295.705 97.1897 294.243 99.9442C292.781 102.683 290.681 104.822 287.942 106.361C285.203 107.885 281.91 108.646 278.062 108.646ZM278.155 99.2287C279.232 99.2287 280.163 98.8671 280.948 98.1438C281.733 97.4206 282.34 96.3896 282.771 95.0508C283.202 93.712 283.418 92.1193 283.418 90.2727C283.418 88.4107 283.202 86.8181 282.771 85.4947C282.34 84.1559 281.733 83.1249 280.948 82.4016C280.163 81.6784 279.232 81.3168 278.155 81.3168C277.016 81.3168 276.039 81.6784 275.223 82.4016C274.408 83.1249 273.785 84.1559 273.354 85.4947C272.923 86.8181 272.707 88.4107 272.707 90.2727C272.707 92.1193 272.923 93.712 273.354 95.0508C273.785 96.3896 274.408 97.4206 275.223 98.1438C276.039 98.8671 277.016 99.2287 278.155 99.2287ZM318.688 108.646C314.84 108.646 311.547 107.885 308.808 106.361C306.069 104.822 303.969 102.683 302.507 99.9442C301.045 97.1897 300.314 93.9967 300.314 90.3651C300.314 86.7334 301.045 83.5481 302.507 80.8089C303.969 78.0544 306.069 75.9155 308.808 74.392C311.547 72.8532 314.84 72.0838 318.688 72.0838C322.535 72.0838 325.828 72.8532 328.567 74.392C331.306 75.9155 333.406 78.0544 334.868 80.8089C336.33 83.5481 337.061 86.7334 337.061 90.3651C337.061 93.9967 336.33 97.1897 334.868 99.9442C333.406 102.683 331.306 104.822 328.567 106.361C325.828 107.885 322.535 108.646 318.688 108.646ZM318.78 99.2287C319.857 99.2287 320.788 98.8671 321.573 98.1438C322.358 97.4206 322.965 96.3896 323.396 95.0508C323.827 93.712 324.043 92.1193 324.043 90.2727C324.043 88.4107 323.827 86.8181 323.396 85.4947C322.965 84.1559 322.358 83.1249 321.573 82.4016C320.788 81.6784 319.857 81.3168 318.78 81.3168C317.641 81.3168 316.664 81.6784 315.848 82.4016C315.033 83.1249 314.41 84.1559 313.979 85.4947C313.548 86.8181 313.332 88.4107 313.332 90.2727C313.332 92.1193 313.548 93.712 313.979 95.0508C314.41 96.3896 315.033 97.4206 315.848 98.1438C316.664 98.8671 317.641 99.2287 318.78 99.2287Z" fill="#D5DCE3"/>
</g>
<defs>
<filter id="filter0_dd_222_10476" x="0.282162" y="28.4167" width="83.9158" height="50.7279" filterUnits="userSpaceOnUse" color-interpolation-filters="sRGB">
<feFlood flood-opacity="0" result="BackgroundImageFix"/>
<feColorMatrix in="SourceAlpha" type="matrix" values="0 0 0 0 0 0 0 0 0 0 0 0 0 0 0 0 0 0 127 0" result="hardAlpha"/>
<feOffset dx="1" dy="5.43135"/>
<feGaussianBlur stdDeviation="5.2048"/>
<feColorMatrix type="matrix" values="0 0 0 0 0 0 0 0 0 0 0 0 0 0 0 0 0 0 0.117297 0"/>
<feBlend mode="normal" in2="BackgroundImageFix" result="effect1_dropShadow_222_10476"/>
<feColorMatrix in="SourceAlpha" type="matrix" values="0 0 0 0 0 0 0 0 0 0 0 0 0 0 0 0 0 0 127 0" result="hardAlpha"/>
<feOffset dx="1" dy="13.0687"/>
<feGaussianBlur stdDeviation="6.9271"/>
<feColorMatrix type="matrix" values="0 0 0 0 0 0 0 0 0 0 0 0 0 0 0 0 0 0 0.0945694 0"/>
<feBlend mode="normal" in2="effect1_dropShadow_222_10476" result="effect2_dropShadow_222_10476"/>
<feBlend mode="normal" in="SourceGraphic" in2="effect2_dropShadow_222_10476" result="shape"/>
</filter>
<filter id="filter1_dd_222_10476" x="21.516" y="55.7491" width="330.399" height="93.2079" filterUnits="userSpaceOnUse" color-interpolation-filters="sRGB">
<feFlood flood-opacity="0" result="BackgroundImageFix"/>
<feColorMatrix in="SourceAlpha" type="matrix" values="0 0 0 0 0 0 0 0 0 0 0 0 0 0 0 0 0 0 127 0" result="hardAlpha"/>
<feOffset dx="1" dy="5.43135"/>
<feGaussianBlur stdDeviation="5.2048"/>
<feColorMatrix type="matrix" values="0 0 0 0 0 0 0 0 0 0 0 0 0 0 0 0 0 0 0.117297 0"/>
<feBlend mode="normal" in2="BackgroundImageFix" result="effect1_dropShadow_222_10476"/>
<feColorMatrix in="SourceAlpha" type="matrix" values="0 0 0 0 0 0 0 0 0 0 0 0 0 0 0 0 0 0 127 0" result="hardAlpha"/>
<feOffset dx="1" dy="13.0687"/>
<feGaussianBlur stdDeviation="6.9271"/>
<feColorMatrix type="matrix" values="0 0 0 0 0 0 0 0 0 0 0 0 0 0 0 0 0 0 0.0945694 0"/>
<feBlend mode="normal" in2="effect1_dropShadow_222_10476" result="effect2_dropShadow_222_10476"/>
<feBlend mode="normal" in="SourceGraphic" in2="effect2_dropShadow_222_10476" result="shape"/>
</filter>
</defs>
</svg>
