<svg width="215" height="63" viewBox="0 0 215 63" fill="none" xmlns="http://www.w3.org/2000/svg">
<g filter="url(#filter0_dd_68_6470)">
<path d="M16.9098 7.18182H23.4403L26.7429 20.6903H26.9986L34.7756 7.18182H41.3061L37.6839 29H32.549L34.7756 15.598H34.5945L27.1584 28.8615H23.8878L20.8622 15.5234H20.6811L18.4226 29H13.2876L16.9098 7.18182ZM45.5435 29.277C44.5066 29.277 43.6117 29.103 42.8588 28.755C42.1131 28.3999 41.5662 27.8636 41.2182 27.1463C40.8773 26.429 40.7956 25.5341 40.9732 24.4616C41.1294 23.5526 41.4171 22.7891 41.8361 22.1712C42.2623 21.5462 42.7843 21.0384 43.4022 20.6477C44.0272 20.2571 44.7232 19.9588 45.4902 19.7528C46.2573 19.5469 47.0598 19.4084 47.8979 19.3374C48.8354 19.2521 49.5953 19.1598 50.1777 19.0604C50.7672 18.9609 51.2076 18.8224 51.4988 18.6449C51.79 18.4602 51.9675 18.2045 52.0314 17.8778V17.8246C52.1167 17.2777 51.9995 16.8551 51.6799 16.5568C51.3603 16.2585 50.8809 16.1094 50.2417 16.1094C49.5598 16.1094 48.9775 16.2585 48.4945 16.5568C48.0115 16.8551 47.6742 17.267 47.4824 17.7926L42.7097 17.6222C43.008 16.6278 43.5194 15.7401 44.2438 14.9588C44.9682 14.1705 45.888 13.5526 47.003 13.1051C48.1252 12.6506 49.4213 12.4233 50.8915 12.4233C51.9284 12.4233 52.8659 12.5476 53.704 12.7962C54.5421 13.0376 55.2488 13.3928 55.824 13.8615C56.4064 14.3232 56.8219 14.8913 57.0705 15.5661C57.3191 16.2408 57.3723 17.0114 57.2303 17.8778L55.3659 29H50.4654L50.8489 26.7202H50.7211C50.3375 27.2741 49.8865 27.7429 49.3681 28.1264C48.8567 28.5099 48.2814 28.7976 47.6422 28.9893C47.003 29.1811 46.3034 29.277 45.5435 29.277ZM47.7381 25.8679C48.285 25.8679 48.8034 25.7543 49.2935 25.527C49.7836 25.2997 50.1955 24.9872 50.5293 24.5895C50.8702 24.1847 51.0868 23.7159 51.1792 23.1832L51.4242 21.6278C51.275 21.706 51.0868 21.777 50.8596 21.8409C50.6323 21.9048 50.3908 21.9652 50.1351 22.022C49.8794 22.0717 49.6167 22.1214 49.3468 22.1712C49.084 22.2138 48.8319 22.2528 48.5904 22.2884C48.079 22.3665 47.6351 22.4872 47.2587 22.6506C46.8823 22.8139 46.5804 23.027 46.3532 23.2898C46.133 23.5455 45.998 23.8509 45.9483 24.206C45.8631 24.7386 45.9874 25.1506 46.3212 25.4418C46.655 25.7259 47.1273 25.8679 47.7381 25.8679ZM65.3482 19.6676L63.7928 29H58.5833L61.3105 12.6364H66.2644L65.7743 15.6406H65.9554C66.4668 14.6392 67.209 13.8544 68.182 13.2862C69.155 12.7109 70.2488 12.4233 71.4632 12.4233C72.6067 12.4233 73.562 12.679 74.329 13.1903C75.0961 13.7017 75.6394 14.419 75.959 15.3423C76.2786 16.2585 76.3319 17.3345 76.1188 18.5703L74.3716 29H69.1621L70.7282 19.593C70.8844 18.6911 70.7743 17.9844 70.3979 17.473C70.0286 16.9545 69.4249 16.6953 68.5868 16.6953C68.04 16.6953 67.5392 16.8161 67.0847 17.0575C66.6373 17.2919 66.2608 17.6293 65.9554 18.0696C65.6571 18.5099 65.4547 19.0426 65.3482 19.6676ZM84.1701 35.4773C82.6076 35.4773 81.3079 35.2607 80.271 34.8274C79.234 34.3942 78.4599 33.8011 77.9485 33.0483C77.4371 32.2955 77.1921 31.4432 77.2134 30.4915L82.1992 30.2145C82.2418 30.5554 82.3661 30.8501 82.5721 31.0987C82.7781 31.3473 83.0728 31.5355 83.4563 31.6634C83.8398 31.7983 84.3157 31.8658 84.8839 31.8658C85.7575 31.8658 86.5174 31.6527 87.1637 31.2266C87.81 30.8004 88.2077 30.0653 88.3569 29.0213L88.8363 26.1449H88.6552C88.3711 26.6491 87.9876 27.1001 87.5046 27.4979C87.0217 27.8956 86.4499 28.2081 85.7894 28.4354C85.1289 28.6626 84.3974 28.7763 83.5948 28.7763C82.3945 28.7763 81.3469 28.4993 80.4521 27.9453C79.5572 27.3842 78.9109 26.5178 78.5131 25.3459C78.1154 24.1669 78.0692 22.6506 78.3746 20.7969C78.6942 18.8864 79.2624 17.3132 80.0792 16.0774C80.896 14.8345 81.8477 13.9148 82.9343 13.3182C84.0281 12.7216 85.1467 12.4233 86.2901 12.4233C87.1495 12.4233 87.8597 12.5724 88.4208 12.8707C88.9819 13.1619 89.4222 13.5384 89.7418 14C90.0614 14.4616 90.2887 14.9411 90.4237 15.4382H90.5728L91.0309 12.6364H96.2191L93.4918 29.0639C93.2717 30.456 92.7354 31.6278 91.8832 32.5795C91.0309 33.5313 89.9407 34.2521 88.6126 34.7422C87.2844 35.2322 85.8036 35.4773 84.1701 35.4773ZM86.0025 24.9837C86.6346 24.9837 87.2063 24.8168 87.7177 24.483C88.229 24.1491 88.6587 23.6697 89.0067 23.0447C89.3548 22.4197 89.5998 21.6705 89.7418 20.7969C89.8839 19.9091 89.8839 19.1456 89.7418 18.5064C89.6069 17.8601 89.3441 17.3629 88.9535 17.0149C88.5629 16.6669 88.0479 16.4929 87.4087 16.4929C86.7624 16.4929 86.1871 16.6705 85.6829 17.0256C85.1857 17.3807 84.7667 17.8814 84.4258 18.5277C84.092 19.1669 83.8576 19.9233 83.7227 20.7969C83.5806 21.6705 83.57 22.4197 83.6907 23.0447C83.8185 23.6697 84.0742 24.1491 84.4577 24.483C84.8484 24.8168 85.3633 24.9837 86.0025 24.9837ZM104.441 29.3089C102.715 29.3089 101.291 28.9538 100.169 28.2436C99.0538 27.5334 98.269 26.5426 97.8145 25.2713C97.3599 24 97.2711 22.5227 97.5481 20.8395C97.8251 19.1634 98.3968 17.6932 99.2633 16.429C100.13 15.1648 101.238 14.1811 102.587 13.478C103.937 12.7749 105.467 12.4233 107.179 12.4233C108.898 12.4233 110.314 12.7784 111.43 13.4886C112.552 14.1989 113.34 15.1896 113.795 16.4609C114.256 17.7322 114.349 19.2131 114.072 20.9034C113.795 22.5795 113.219 24.0497 112.346 25.3139C111.472 26.571 110.364 27.5511 109.022 28.2543C107.68 28.9574 106.153 29.3089 104.441 29.3089ZM105.027 25.3778C105.666 25.3778 106.238 25.1861 106.742 24.8026C107.253 24.419 107.683 23.8828 108.031 23.1939C108.379 22.505 108.628 21.706 108.777 20.7969C108.926 19.902 108.94 19.1172 108.819 18.4425C108.706 17.7607 108.464 17.2315 108.095 16.8551C107.726 16.4716 107.225 16.2798 106.593 16.2798C105.954 16.2798 105.378 16.4751 104.867 16.8658C104.356 17.2493 103.926 17.7855 103.578 18.4744C103.237 19.1562 102.992 19.9553 102.843 20.8714C102.694 21.7663 102.676 22.5511 102.79 23.2259C102.903 23.9006 103.148 24.4297 103.525 24.8132C103.901 25.1896 104.402 25.3778 105.027 25.3778ZM127.649 18.1655L126.999 22.1818H116.911L117.561 18.1655H127.649ZM138.433 7.18182L134.811 29H129.538L133.16 7.18182H138.433ZM138.122 29L141.744 7.18182H146.953L145.6 15.4382H145.707C145.991 14.9411 146.367 14.4616 146.836 14C147.312 13.5384 147.884 13.1619 148.551 12.8707C149.219 12.5724 149.982 12.4233 150.842 12.4233C151.978 12.4233 152.99 12.7216 153.878 13.3182C154.766 13.9148 155.412 14.8345 155.817 16.0774C156.222 17.3203 156.264 18.9041 155.945 20.8288C155.639 22.6825 155.089 24.2344 154.294 25.4844C153.498 26.7344 152.55 27.6719 151.449 28.2969C150.355 28.9219 149.205 29.2344 147.997 29.2344C147.173 29.2344 146.481 29.0994 145.92 28.8295C145.366 28.5597 144.922 28.2045 144.588 27.7642C144.262 27.3239 144.034 26.8516 143.906 26.3473H143.704L143.278 29H138.122ZM144.588 20.8182C144.446 21.6989 144.439 22.4659 144.567 23.1193C144.702 23.7727 144.961 24.2805 145.345 24.6428C145.735 24.9979 146.25 25.1754 146.889 25.1754C147.529 25.1754 148.1 24.9979 148.605 24.6428C149.109 24.2805 149.531 23.7727 149.872 23.1193C150.213 22.4659 150.455 21.6989 150.597 20.8182C150.739 19.9375 150.746 19.174 150.618 18.5277C150.497 17.8814 150.245 17.3807 149.862 17.0256C149.478 16.6705 148.963 16.4929 148.317 16.4929C147.678 16.4929 147.102 16.6669 146.591 17.0149C146.087 17.3629 145.661 17.8601 145.313 18.5064C144.972 19.1527 144.73 19.9233 144.588 20.8182ZM157.311 29L160.038 12.6364H165.248L162.521 29H157.311ZM163.011 10.7188C162.272 10.7188 161.672 10.4737 161.21 9.98366C160.749 9.49361 160.567 8.90767 160.667 8.22585C160.766 7.53693 161.114 6.95099 161.711 6.46804C162.308 5.98509 162.972 5.74361 163.703 5.74361C164.442 5.74361 165.035 5.98509 165.482 6.46804C165.937 6.95099 166.114 7.53693 166.015 8.22585C165.93 8.90767 165.589 9.49361 164.992 9.98366C164.403 10.4737 163.742 10.7188 163.011 10.7188ZM165.911 29L166.39 26.0277L175.499 16.7912L175.542 16.6847H168.212L168.905 12.6364H182.434L181.923 15.8963L173.411 24.8452L173.368 24.9517H180.655L180.006 29H165.911ZM187.956 29.277C186.919 29.277 186.024 29.103 185.271 28.755C184.525 28.3999 183.978 27.8636 183.63 27.1463C183.289 26.429 183.208 25.5341 183.385 24.4616C183.542 23.5526 183.829 22.7891 184.248 22.1712C184.674 21.5462 185.196 21.0384 185.814 20.6477C186.439 20.2571 187.135 19.9588 187.902 19.7528C188.669 19.5469 189.472 19.4084 190.31 19.3374C191.248 19.2521 192.007 19.1598 192.59 19.0604C193.179 18.9609 193.62 18.8224 193.911 18.6449C194.202 18.4602 194.38 18.2045 194.444 17.8778V17.8246C194.529 17.2777 194.412 16.8551 194.092 16.5568C193.772 16.2585 193.293 16.1094 192.654 16.1094C191.972 16.1094 191.39 16.2585 190.907 16.5568C190.424 16.8551 190.086 17.267 189.895 17.7926L185.122 17.6222C185.42 16.6278 185.931 15.7401 186.656 14.9588C187.38 14.1705 188.3 13.5526 189.415 13.1051C190.537 12.6506 191.833 12.4233 193.304 12.4233C194.341 12.4233 195.278 12.5476 196.116 12.7962C196.954 13.0376 197.661 13.3928 198.236 13.8615C198.819 14.3232 199.234 14.8913 199.483 15.5661C199.731 16.2408 199.784 17.0114 199.642 17.8778L197.778 29H192.877L193.261 26.7202H193.133C192.75 27.2741 192.299 27.7429 191.78 28.1264C191.269 28.5099 190.694 28.7976 190.054 28.9893C189.415 29.1811 188.716 29.277 187.956 29.277ZM190.15 25.8679C190.697 25.8679 191.216 25.7543 191.706 25.527C192.196 25.2997 192.608 24.9872 192.941 24.5895C193.282 24.1847 193.499 23.7159 193.591 23.1832L193.836 21.6278C193.687 21.706 193.499 21.777 193.272 21.8409C193.044 21.9048 192.803 21.9652 192.547 22.022C192.292 22.0717 192.029 22.1214 191.759 22.1712C191.496 22.2138 191.244 22.2528 191.002 22.2884C190.491 22.3665 190.047 22.4872 189.671 22.6506C189.294 22.8139 188.993 23.027 188.765 23.2898C188.545 23.5455 188.41 23.8509 188.36 24.206C188.275 24.7386 188.4 25.1506 188.733 25.4418C189.067 25.7259 189.539 25.8679 190.15 25.8679Z" fill="#FFEFDB"/>
</g>
<defs>
<filter id="filter0_dd_68_6470" x="0.433407" y="0.765417" width="214.276" height="61.6348" filterUnits="userSpaceOnUse" color-interpolation-filters="sRGB">
<feFlood flood-opacity="0" result="BackgroundImageFix"/>
<feColorMatrix in="SourceAlpha" type="matrix" values="0 0 0 0 0 0 0 0 0 0 0 0 0 0 0 0 0 0 127 0" result="hardAlpha"/>
<feOffset dx="1" dy="5.43135"/>
<feGaussianBlur stdDeviation="5.2048"/>
<feColorMatrix type="matrix" values="0 0 0 0 0 0 0 0 0 0 0 0 0 0 0 0 0 0 0.117297 0"/>
<feBlend mode="normal" in2="BackgroundImageFix" result="effect1_dropShadow_68_6470"/>
<feColorMatrix in="SourceAlpha" type="matrix" values="0 0 0 0 0 0 0 0 0 0 0 0 0 0 0 0 0 0 127 0" result="hardAlpha"/>
<feOffset dx="1" dy="13.0687"/>
<feGaussianBlur stdDeviation="6.9271"/>
<feColorMatrix type="matrix" values="0 0 0 0 0 0 0 0 0 0 0 0 0 0 0 0 0 0 0.0945694 0"/>
<feBlend mode="normal" in2="effect1_dropShadow_68_6470" result="effect2_dropShadow_68_6470"/>
<feBlend mode="normal" in="SourceGraphic" in2="effect2_dropShadow_68_6470" result="shape"/>
</filter>
</defs>
</svg>
