<svg width="353" height="149" viewBox="0 0 353 149" fill="none" xmlns="http://www.w3.org/2000/svg">
<g filter="url(#filter0_dd_223_11189)">
<path d="M16.4482 34.5455H21.6726L24.3146 45.3523H24.5192L30.7408 34.5455H35.9652L33.0675 52H28.9595L30.7408 41.2784H30.5959L24.647 51.8892H22.0305L19.6101 41.2188H19.4652L17.6584 52H13.5504L16.4482 34.5455ZM39.3551 52.2216C38.5256 52.2216 37.8097 52.0824 37.2074 51.804C36.6108 51.5199 36.1733 51.0909 35.8949 50.517C35.6222 49.9432 35.5568 49.2273 35.6989 48.3693C35.8239 47.642 36.054 47.0312 36.3892 46.5369C36.7301 46.0369 37.1477 45.6307 37.642 45.3182C38.142 45.0057 38.6989 44.767 39.3125 44.6023C39.9261 44.4375 40.5682 44.3267 41.2386 44.2699C41.9886 44.2017 42.5966 44.1278 43.0625 44.0483C43.5341 43.9687 43.8864 43.858 44.1193 43.7159C44.3523 43.5682 44.4943 43.3636 44.5455 43.1023V43.0597C44.6136 42.6222 44.5199 42.2841 44.2642 42.0455C44.0085 41.8068 43.625 41.6875 43.1136 41.6875C42.5682 41.6875 42.1023 41.8068 41.7159 42.0455C41.3295 42.2841 41.0597 42.6136 40.9062 43.0341L37.0881 42.8977C37.3267 42.1023 37.7358 41.392 38.3153 40.767C38.8949 40.1364 39.6307 39.642 40.5227 39.2841C41.4205 38.9205 42.4574 38.7386 43.6335 38.7386C44.4631 38.7386 45.2131 38.8381 45.8835 39.0369C46.554 39.2301 47.1193 39.5142 47.5795 39.8892C48.0455 40.2585 48.3778 40.7131 48.5767 41.2528C48.7756 41.7926 48.8182 42.4091 48.7045 43.1023L47.2131 52H43.2926L43.5994 50.1761H43.4972C43.1903 50.6193 42.8295 50.9943 42.4148 51.3011C42.0057 51.608 41.5455 51.8381 41.0341 51.9915C40.5227 52.1449 39.9631 52.2216 39.3551 52.2216ZM41.1108 49.4943C41.5483 49.4943 41.9631 49.4034 42.3551 49.2216C42.7472 49.0398 43.0767 48.7898 43.3438 48.4716C43.6165 48.1477 43.7898 47.7727 43.8636 47.3466L44.0597 46.1023C43.9403 46.1648 43.7898 46.2216 43.608 46.2727C43.4261 46.3239 43.233 46.3722 43.0284 46.4176C42.8239 46.4574 42.6136 46.4972 42.3977 46.5369C42.1875 46.571 41.9858 46.6023 41.7926 46.6307C41.3835 46.6932 41.0284 46.7898 40.7273 46.9205C40.4261 47.0511 40.1847 47.2216 40.0028 47.4318C39.8267 47.6364 39.7188 47.8807 39.679 48.1648C39.6108 48.5909 39.7102 48.9205 39.9773 49.1534C40.2443 49.3807 40.6222 49.4943 41.1108 49.4943ZM55.1989 44.5341L53.9545 52H49.7869L51.9688 38.9091H55.9318L55.5398 41.3125H55.6847C56.0938 40.5114 56.6875 39.8835 57.4659 39.429C58.2443 38.9688 59.1193 38.7386 60.0909 38.7386C61.0057 38.7386 61.7699 38.9432 62.3835 39.3523C62.9972 39.7614 63.4318 40.3352 63.6875 41.0739C63.9432 41.8068 63.9858 42.6676 63.8153 43.6562L62.4176 52H58.25L59.5028 44.4744C59.6278 43.7528 59.5398 43.1875 59.2386 42.7784C58.9432 42.3636 58.4602 42.1562 57.7898 42.1562C57.3523 42.1562 56.9517 42.2528 56.5881 42.446C56.2301 42.6335 55.929 42.9034 55.6847 43.2557C55.446 43.608 55.2841 44.0341 55.1989 44.5341ZM70.2564 57.1818C69.0064 57.1818 67.9666 57.0085 67.1371 56.6619C66.3075 56.3153 65.6882 55.8409 65.2791 55.2386C64.87 54.6364 64.674 53.9545 64.6911 53.1932L68.6797 52.9716C68.7138 53.2443 68.8132 53.4801 68.978 53.679C69.1428 53.8778 69.3786 54.0284 69.6854 54.1307C69.9922 54.2386 70.3729 54.2926 70.8274 54.2926C71.5263 54.2926 72.1342 54.1222 72.6513 53.7812C73.1683 53.4403 73.4865 52.8523 73.6058 52.017L73.9893 49.7159H73.8445C73.6172 50.1193 73.3104 50.4801 72.924 50.7983C72.5376 51.1165 72.0803 51.3665 71.5518 51.5483C71.0234 51.7301 70.4382 51.821 69.7962 51.821C68.8359 51.821 67.9979 51.5994 67.282 51.1562C66.5661 50.7074 66.049 50.0142 65.7308 49.0767C65.4126 48.1335 65.3757 46.9205 65.62 45.4375C65.8757 43.9091 66.3303 42.6506 66.9837 41.6619C67.6371 40.6676 68.3984 39.9318 69.2678 39.4545C70.1428 38.9773 71.0376 38.7386 71.9524 38.7386C72.6399 38.7386 73.2081 38.858 73.657 39.0966C74.1058 39.3295 74.4581 39.6307 74.7138 40C74.9695 40.3693 75.1513 40.7528 75.2592 41.1506H75.3786L75.745 38.9091H79.8956L77.7138 52.0511C77.5376 53.1648 77.1087 54.1023 76.4268 54.8636C75.745 55.625 74.8729 56.2017 73.8104 56.5938C72.7479 56.9858 71.5632 57.1818 70.2564 57.1818ZM71.7223 48.7869C72.228 48.7869 72.6854 48.6534 73.0945 48.3864C73.5036 48.1193 73.8473 47.7358 74.1257 47.2358C74.4041 46.7358 74.6001 46.1364 74.7138 45.4375C74.8274 44.7273 74.8274 44.1165 74.7138 43.6051C74.6058 43.0881 74.3956 42.6903 74.0831 42.4119C73.7706 42.1335 73.3587 41.9943 72.8473 41.9943C72.3303 41.9943 71.87 42.1364 71.4666 42.4205C71.0689 42.7045 70.7337 43.1051 70.4609 43.6222C70.1939 44.1335 70.0064 44.7386 69.8984 45.4375C69.7848 46.1364 69.7763 46.7358 69.8729 47.2358C69.9751 47.7358 70.1797 48.1193 70.4865 48.3864C70.799 48.6534 71.2109 48.7869 71.7223 48.7869ZM86.473 52.2472C85.0923 52.2472 83.9531 51.9631 83.0554 51.3949C82.1634 50.8267 81.5355 50.0341 81.1719 49.017C80.8082 48 80.7372 46.8182 80.9588 45.4716C81.1804 44.1307 81.6378 42.9545 82.331 41.9432C83.0241 40.9318 83.9105 40.1449 84.9901 39.5824C86.0696 39.0199 87.294 38.7386 88.6634 38.7386C90.0384 38.7386 91.1719 39.0227 92.0639 39.5909C92.9616 40.1591 93.5923 40.9517 93.956 41.9688C94.3253 42.9858 94.3991 44.1705 94.1776 45.5227C93.956 46.8636 93.4957 48.0398 92.7969 49.0511C92.098 50.0568 91.2116 50.8409 90.1378 51.4034C89.0639 51.9659 87.8423 52.2472 86.473 52.2472ZM86.9418 49.1023C87.4531 49.1023 87.9105 48.9489 88.3139 48.642C88.723 48.3352 89.0668 47.9062 89.3452 47.3551C89.6236 46.804 89.8224 46.1648 89.9418 45.4375C90.0611 44.7216 90.0724 44.0938 89.9759 43.554C89.8849 43.0085 89.6918 42.5852 89.3963 42.2841C89.1009 41.9773 88.7003 41.8239 88.1946 41.8239C87.6832 41.8239 87.223 41.9801 86.8139 42.2926C86.4048 42.5994 86.0611 43.0284 85.7827 43.5795C85.5099 44.125 85.3139 44.7642 85.1946 45.4972C85.0753 46.2131 85.0611 46.8409 85.152 47.3807C85.2429 47.9205 85.4389 48.3438 85.7401 48.6506C86.0412 48.9517 86.4418 49.1023 86.9418 49.1023Z" fill="#FFEFDB"/>
</g>
<g filter="url(#filter1_dd_223_11189)">
<path d="M46.8191 99.598L46.9114 84.456H48.5733L57.16 72.5455H71.4711L57.0677 91.1037H53.4668L46.8191 99.598ZM35.3702 108V60.7273H48.1117V108H35.3702ZM57.2523 108L49.1273 93.9659L57.437 84.9176L71.8404 108H57.2523ZM84.6684 108.554C82.4063 108.554 80.4059 108.185 78.667 107.446C76.9435 106.692 75.5893 105.553 74.6045 104.03C73.6196 102.506 73.1272 100.567 73.1272 98.2131C73.1272 96.2741 73.4581 94.6199 74.1198 93.2504C74.7815 91.8654 75.7048 90.7344 76.8896 89.8572C78.0745 88.9801 79.4518 88.3107 81.0214 87.8491C82.6064 87.3874 84.3145 87.0874 86.1457 86.9489C88.1308 86.795 89.7235 86.6103 90.9237 86.3949C92.1394 86.1641 93.0165 85.8486 93.5551 85.4485C94.0937 85.033 94.363 84.4867 94.363 83.8097V83.7173C94.363 82.794 94.0091 82.0862 93.3012 81.5938C92.5934 81.1013 91.6855 80.8551 90.5775 80.8551C89.3618 80.8551 88.3693 81.1244 87.5999 81.663C86.8459 82.1862 86.3919 82.9941 86.238 84.0866H74.5122C74.666 81.9323 75.3508 79.9472 76.5665 78.1314C77.7976 76.3002 79.5903 74.8383 81.9447 73.7457C84.2991 72.6378 87.2383 72.0838 90.7622 72.0838C93.3012 72.0838 95.5787 72.3839 97.5945 72.984C99.6104 73.5688 101.326 74.392 102.742 75.4538C104.158 76.5002 105.235 77.7313 105.973 79.147C106.727 80.5473 107.104 82.0708 107.104 83.7173V108H95.194V103.014H94.917C94.2091 104.338 93.3474 105.407 92.3318 106.223C91.3315 107.038 90.1851 107.631 88.8925 108C87.6153 108.369 86.2072 108.554 84.6684 108.554ZM88.8232 100.521C89.7927 100.521 90.7006 100.321 91.547 99.9212C92.4087 99.5211 93.1089 98.944 93.6475 98.19C94.1861 97.436 94.4553 96.5204 94.4553 95.4432V92.4886C94.1168 92.6271 93.7552 92.7579 93.3705 92.881C93.0012 93.0041 92.6011 93.1196 92.1702 93.2273C91.7547 93.335 91.3084 93.435 90.8314 93.5273C90.3698 93.6197 89.885 93.7043 89.3772 93.7812C88.3924 93.9351 87.5845 94.189 86.9536 94.543C86.338 94.8815 85.8764 95.3047 85.5686 95.8125C85.2762 96.3049 85.1301 96.8589 85.1301 97.4744C85.1301 98.4593 85.4763 99.2133 86.1688 99.7365C86.8612 100.26 87.7461 100.521 88.8232 100.521ZM125.934 88.0568V108H113.192V72.5455H125.288V79.2855H125.657C126.426 77.0388 127.781 75.2769 129.719 73.9996C131.674 72.7224 133.951 72.0838 136.552 72.0838C139.06 72.0838 141.238 72.6609 143.084 73.815C144.946 74.9537 146.385 76.5233 147.401 78.5238C148.432 80.5243 148.939 82.8094 148.924 85.3793V108H136.183V88.0568C136.198 86.3026 135.752 84.9253 134.844 83.9251C133.951 82.9248 132.705 82.4247 131.104 82.4247C130.058 82.4247 129.142 82.6555 128.358 83.1172C127.588 83.5634 126.996 84.2098 126.58 85.0561C126.165 85.8871 125.949 86.8873 125.934 88.0568ZM172.295 122.034C168.74 122.034 165.693 121.526 163.154 120.511C160.631 119.51 158.669 118.125 157.268 116.356C155.883 114.602 155.106 112.586 154.937 110.308H167.217C167.34 111.062 167.648 111.67 168.14 112.132C168.633 112.593 169.263 112.924 170.033 113.124C170.818 113.34 171.695 113.447 172.664 113.447C174.311 113.447 175.673 113.047 176.75 112.247C177.842 111.447 178.389 110 178.389 107.908V101.906H178.019C177.558 103.107 176.85 104.13 175.896 104.976C174.942 105.807 173.795 106.446 172.456 106.892C171.118 107.323 169.648 107.538 168.048 107.538C165.524 107.538 163.2 106.954 161.077 105.784C158.969 104.615 157.276 102.76 155.999 100.221C154.737 97.6822 154.106 94.366 154.106 90.2727C154.106 85.9948 154.768 82.517 156.091 79.8395C157.43 77.1619 159.153 75.1999 161.262 73.9535C163.385 72.707 165.616 72.0838 167.955 72.0838C169.71 72.0838 171.249 72.3916 172.572 73.0071C173.895 73.6072 175.003 74.4151 175.896 75.4308C176.788 76.431 177.465 77.5312 177.927 78.7315H178.204V72.5455H190.945V107.908C190.945 110.908 190.168 113.455 188.614 115.548C187.075 117.656 184.906 119.264 182.105 120.372C179.304 121.48 176.034 122.034 172.295 122.034ZM172.757 98.4901C173.926 98.4901 174.926 98.1669 175.757 97.5206C176.604 96.8589 177.25 95.9202 177.696 94.7045C178.158 93.4735 178.389 91.9962 178.389 90.2727C178.389 88.5185 178.158 87.0181 177.696 85.7717C177.25 84.5098 176.604 83.5481 175.757 82.8864C174.926 82.2093 173.926 81.8707 172.757 81.8707C171.587 81.8707 170.587 82.2093 169.756 82.8864C168.94 83.5481 168.309 84.5098 167.863 85.7717C167.432 87.0181 167.217 88.5185 167.217 90.2727C167.217 92.027 167.432 93.5196 167.863 94.7507C168.309 95.9664 168.94 96.8974 169.756 97.5437C170.587 98.1746 171.587 98.4901 172.757 98.4901ZM207.305 108.554C205.043 108.554 203.043 108.185 201.304 107.446C199.58 106.692 198.226 105.553 197.241 104.03C196.256 102.506 195.764 100.567 195.764 98.2131C195.764 96.2741 196.095 94.6199 196.756 93.2504C197.418 91.8654 198.341 90.7344 199.526 89.8572C200.711 88.9801 202.089 88.3107 203.658 87.8491C205.243 87.3874 206.951 87.0874 208.782 86.9489C210.767 86.795 212.36 86.6103 213.56 86.3949C214.776 86.1641 215.653 85.8486 216.192 85.4485C216.73 85.033 217 84.4867 217 83.8097V83.7173C217 82.794 216.646 82.0862 215.938 81.5938C215.23 81.1013 214.322 80.8551 213.214 80.8551C211.999 80.8551 211.006 81.1244 210.237 81.663C209.483 82.1862 209.029 82.9941 208.875 84.0866H197.149C197.303 81.9323 197.988 79.9472 199.203 78.1314C200.434 76.3002 202.227 74.8383 204.581 73.7457C206.936 72.6378 209.875 72.0838 213.399 72.0838C215.938 72.0838 218.215 72.3839 220.231 72.984C222.247 73.5688 223.963 74.392 225.379 75.4538C226.794 76.5002 227.872 77.7313 228.61 79.147C229.364 80.5473 229.741 82.0708 229.741 83.7173V108H217.831V103.014H217.554C216.846 104.338 215.984 105.407 214.968 106.223C213.968 107.038 212.822 107.631 211.529 108C210.252 108.369 208.844 108.554 207.305 108.554ZM211.46 100.521C212.429 100.521 213.337 100.321 214.184 99.9212C215.045 99.5211 215.746 98.944 216.284 98.19C216.823 97.436 217.092 96.5204 217.092 95.4432V92.4886C216.754 92.6271 216.392 92.7579 216.007 92.881C215.638 93.0041 215.238 93.1196 214.807 93.2273C214.391 93.335 213.945 93.435 213.468 93.5273C213.006 93.6197 212.522 93.7043 212.014 93.7812C211.029 93.9351 210.221 94.189 209.59 94.543C208.975 94.8815 208.513 95.3047 208.205 95.8125C207.913 96.3049 207.767 96.8589 207.767 97.4744C207.767 98.4593 208.113 99.2133 208.805 99.7365C209.498 100.26 210.383 100.521 211.46 100.521ZM235.829 108V72.5455H248.201V79.2855H248.571C249.217 76.7926 250.24 74.9691 251.641 73.815C253.056 72.6609 254.711 72.0838 256.603 72.0838C257.157 72.0838 257.704 72.13 258.242 72.2223C258.796 72.2992 259.327 72.4147 259.835 72.5685V83.4403C259.204 83.2249 258.427 83.0633 257.504 82.9556C256.58 82.8479 255.788 82.794 255.126 82.794C253.88 82.794 252.756 83.0787 251.756 83.6481C250.771 84.2021 249.994 84.9869 249.425 86.0025C248.855 87.0027 248.571 88.1799 248.571 89.5341V108H235.829ZM279.062 108.646C275.215 108.646 271.922 107.885 269.183 106.361C266.444 104.822 264.344 102.683 262.882 99.9442C261.42 97.1897 260.689 93.9967 260.689 90.3651C260.689 86.7334 261.42 83.5481 262.882 80.8089C264.344 78.0544 266.444 75.9155 269.183 74.392C271.922 72.8532 275.215 72.0838 279.062 72.0838C282.91 72.0838 286.203 72.8532 288.942 74.392C291.681 75.9155 293.781 78.0544 295.243 80.8089C296.705 83.5481 297.436 86.7334 297.436 90.3651C297.436 93.9967 296.705 97.1897 295.243 99.9442C293.781 102.683 291.681 104.822 288.942 106.361C286.203 107.885 282.91 108.646 279.062 108.646ZM279.155 99.2287C280.232 99.2287 281.163 98.8671 281.948 98.1438C282.733 97.4206 283.34 96.3896 283.771 95.0508C284.202 93.712 284.418 92.1193 284.418 90.2727C284.418 88.4107 284.202 86.8181 283.771 85.4947C283.34 84.1559 282.733 83.1249 281.948 82.4016C281.163 81.6784 280.232 81.3168 279.155 81.3168C278.016 81.3168 277.039 81.6784 276.223 82.4016C275.408 83.1249 274.785 84.1559 274.354 85.4947C273.923 86.8181 273.707 88.4107 273.707 90.2727C273.707 92.1193 273.923 93.712 274.354 95.0508C274.785 96.3896 275.408 97.4206 276.223 98.1438C277.039 98.8671 278.016 99.2287 279.155 99.2287ZM319.688 108.646C315.84 108.646 312.547 107.885 309.808 106.361C307.069 104.822 304.969 102.683 303.507 99.9442C302.045 97.1897 301.314 93.9967 301.314 90.3651C301.314 86.7334 302.045 83.5481 303.507 80.8089C304.969 78.0544 307.069 75.9155 309.808 74.392C312.547 72.8532 315.84 72.0838 319.688 72.0838C323.535 72.0838 326.828 72.8532 329.567 74.392C332.306 75.9155 334.406 78.0544 335.868 80.8089C337.33 83.5481 338.061 86.7334 338.061 90.3651C338.061 93.9967 337.33 97.1897 335.868 99.9442C334.406 102.683 332.306 104.822 329.567 106.361C326.828 107.885 323.535 108.646 319.688 108.646ZM319.78 99.2287C320.857 99.2287 321.788 98.8671 322.573 98.1438C323.358 97.4206 323.965 96.3896 324.396 95.0508C324.827 93.712 325.043 92.1193 325.043 90.2727C325.043 88.4107 324.827 86.8181 324.396 85.4947C323.965 84.1559 323.358 83.1249 322.573 82.4016C321.788 81.6784 320.857 81.3168 319.78 81.3168C318.641 81.3168 317.664 81.6784 316.848 82.4016C316.033 83.1249 315.41 84.1559 314.979 85.4947C314.548 86.8181 314.332 88.4107 314.332 90.2727C314.332 92.1193 314.548 93.712 314.979 95.0508C315.41 96.3896 316.033 97.4206 316.848 98.1438C317.664 98.8671 318.641 99.2287 319.78 99.2287Z" fill="#FFEFDB"/>
</g>
<defs>
<filter id="filter0_dd_223_11189" x="0.696346" y="29.5672" width="108.668" height="54.5375" filterUnits="userSpaceOnUse" color-interpolation-filters="sRGB">
<feFlood flood-opacity="0" result="BackgroundImageFix"/>
<feColorMatrix in="SourceAlpha" type="matrix" values="0 0 0 0 0 0 0 0 0 0 0 0 0 0 0 0 0 0 127 0" result="hardAlpha"/>
<feOffset dx="1" dy="5.43135"/>
<feGaussianBlur stdDeviation="5.2048"/>
<feColorMatrix type="matrix" values="0 0 0 0 0 0 0 0 0 0 0 0 0 0 0 0 0 0 0.117297 0"/>
<feBlend mode="normal" in2="BackgroundImageFix" result="effect1_dropShadow_223_11189"/>
<feColorMatrix in="SourceAlpha" type="matrix" values="0 0 0 0 0 0 0 0 0 0 0 0 0 0 0 0 0 0 127 0" result="hardAlpha"/>
<feOffset dx="1" dy="13.0687"/>
<feGaussianBlur stdDeviation="6.9271"/>
<feColorMatrix type="matrix" values="0 0 0 0 0 0 0 0 0 0 0 0 0 0 0 0 0 0 0.0945694 0"/>
<feBlend mode="normal" in2="effect1_dropShadow_223_11189" result="effect2_dropShadow_223_11189"/>
<feBlend mode="normal" in="SourceGraphic" in2="effect2_dropShadow_223_11189" result="shape"/>
</filter>
<filter id="filter1_dd_223_11189" x="22.5159" y="55.7491" width="330.399" height="93.2079" filterUnits="userSpaceOnUse" color-interpolation-filters="sRGB">
<feFlood flood-opacity="0" result="BackgroundImageFix"/>
<feColorMatrix in="SourceAlpha" type="matrix" values="0 0 0 0 0 0 0 0 0 0 0 0 0 0 0 0 0 0 127 0" result="hardAlpha"/>
<feOffset dx="1" dy="5.43135"/>
<feGaussianBlur stdDeviation="5.2048"/>
<feColorMatrix type="matrix" values="0 0 0 0 0 0 0 0 0 0 0 0 0 0 0 0 0 0 0.117297 0"/>
<feBlend mode="normal" in2="BackgroundImageFix" result="effect1_dropShadow_223_11189"/>
<feColorMatrix in="SourceAlpha" type="matrix" values="0 0 0 0 0 0 0 0 0 0 0 0 0 0 0 0 0 0 127 0" result="hardAlpha"/>
<feOffset dx="1" dy="13.0687"/>
<feGaussianBlur stdDeviation="6.9271"/>
<feColorMatrix type="matrix" values="0 0 0 0 0 0 0 0 0 0 0 0 0 0 0 0 0 0 0.0945694 0"/>
<feBlend mode="normal" in2="effect1_dropShadow_223_11189" result="effect2_dropShadow_223_11189"/>
<feBlend mode="normal" in="SourceGraphic" in2="effect2_dropShadow_223_11189" result="shape"/>
</filter>
</defs>
</svg>
