<svg width="316" height="63" viewBox="0 0 316 63" fill="none" xmlns="http://www.w3.org/2000/svg">
<g filter="url(#filter0_dd_68_6558)">
<path d="M13.2876 29L16.9098 7.18182H25.9226C27.5561 7.18182 28.9162 7.49787 30.0028 8.12997C31.0895 8.76207 31.8601 9.64631 32.3146 10.7827C32.7692 11.919 32.8722 13.2365 32.6236 14.7351C32.3821 16.2479 31.8388 17.5653 30.9936 18.6875C30.1555 19.8097 29.076 20.6797 27.755 21.2976C26.4339 21.9155 24.9318 22.2244 23.2486 22.2244H17.6982L18.3906 18.0696H22.9716C23.7741 18.0696 24.4666 17.9311 25.049 17.6541C25.6385 17.3771 26.1108 16.9901 26.4659 16.4929C26.821 15.9957 27.0554 15.4098 27.169 14.7351C27.2756 14.0604 27.233 13.478 27.0412 12.9879C26.8494 12.4908 26.505 12.1072 26.0078 11.8374C25.5178 11.5675 24.8786 11.4325 24.0902 11.4325H21.4908L18.5611 29H13.2876ZM36.813 29.277C35.7761 29.277 34.8812 29.103 34.1284 28.755C33.3826 28.3999 32.8358 27.8636 32.4877 27.1463C32.1468 26.429 32.0652 25.5341 32.2427 24.4616C32.399 23.5526 32.6866 22.7891 33.1056 22.1712C33.5318 21.5462 34.0538 21.0384 34.6717 20.6477C35.2967 20.2571 35.9927 19.9588 36.7598 19.7528C37.5268 19.5469 38.3294 19.4084 39.1674 19.3374C40.1049 19.2521 40.8649 19.1598 41.4473 19.0604C42.0368 18.9609 42.4771 18.8224 42.7683 18.6449C43.0595 18.4602 43.237 18.2045 43.301 17.8778V17.8246C43.3862 17.2777 43.269 16.8551 42.9494 16.5568C42.6298 16.2585 42.1504 16.1094 41.5112 16.1094C40.8294 16.1094 40.247 16.2585 39.764 16.5568C39.2811 16.8551 38.9437 17.267 38.752 17.7926L33.9792 17.6222C34.2775 16.6278 34.7889 15.7401 35.5133 14.9588C36.2377 14.1705 37.1575 13.5526 38.2725 13.1051C39.3947 12.6506 40.6909 12.4233 42.161 12.4233C43.198 12.4233 44.1355 12.5476 44.9735 12.7962C45.8116 13.0376 46.5183 13.3928 47.0936 13.8615C47.676 14.3232 48.0914 14.8913 48.34 15.5661C48.5886 16.2408 48.6419 17.0114 48.4998 17.8778L46.6355 29H41.7349L42.1184 26.7202H41.9906C41.6071 27.2741 41.1561 27.7429 40.6376 28.1264C40.1262 28.5099 39.551 28.7976 38.9118 28.9893C38.2725 29.1811 37.573 29.277 36.813 29.277ZM39.0076 25.8679C39.5545 25.8679 40.073 25.7543 40.563 25.527C41.0531 25.2997 41.465 24.9872 41.7988 24.5895C42.1397 24.1847 42.3564 23.7159 42.4487 23.1832L42.6937 21.6278C42.5446 21.706 42.3564 21.777 42.1291 21.8409C41.9018 21.9048 41.6603 21.9652 41.4047 22.022C41.149 22.0717 40.8862 22.1214 40.6163 22.1712C40.3535 22.2138 40.1014 22.2528 39.8599 22.2884C39.3485 22.3665 38.9047 22.4872 38.5282 22.6506C38.1518 22.8139 37.85 23.027 37.6227 23.2898C37.4025 23.5455 37.2676 23.8509 37.2179 24.206C37.1326 24.7386 37.2569 25.1506 37.5907 25.4418C37.9245 25.7259 38.3968 25.8679 39.0076 25.8679ZM58.6525 7.18182L55.0304 29H49.8208L53.443 7.18182H58.6525ZM65.9528 29.3089C64.2411 29.3089 62.8207 28.9716 61.6914 28.2969C60.5692 27.6151 59.7809 26.6456 59.3263 25.3885C58.8718 24.1243 58.7901 22.6222 59.0813 20.8821C59.3654 19.1918 59.9442 17.7145 60.8178 16.4503C61.6985 15.179 62.8065 14.1918 64.1417 13.4886C65.4769 12.7784 66.9648 12.4233 68.6055 12.4233C69.7702 12.4233 70.8036 12.6044 71.7056 12.9666C72.6076 13.3288 73.3533 13.8686 73.9428 14.5859C74.5323 15.2962 74.9336 16.1697 75.1467 17.2067C75.3597 18.2436 75.3526 19.4332 75.1254 20.7756L74.9229 22.0753H60.7113L61.1907 19.0497H70.5657C70.6509 18.4957 70.6048 18.0021 70.4272 17.5689C70.2496 17.1357 69.962 16.7983 69.5643 16.5568C69.1737 16.3082 68.6942 16.1839 68.1261 16.1839C67.5508 16.1839 67.011 16.3189 66.5067 16.5888C66.0096 16.8516 65.587 17.2067 65.239 17.6541C64.891 18.1016 64.6637 18.6058 64.5572 19.1669L63.9925 22.267C63.8789 22.956 63.9109 23.5455 64.0884 24.0355C64.266 24.5256 64.5714 24.902 65.0046 25.1648C65.4379 25.4205 65.9954 25.5483 66.6772 25.5483C67.1317 25.5483 67.5579 25.4879 67.9556 25.3672C68.3533 25.2393 68.7085 25.0511 69.021 24.8026C69.3406 24.5469 69.5998 24.2379 69.7987 23.8757L74.5501 24.0142C74.1665 25.0866 73.5735 26.0206 72.771 26.8161C71.9684 27.6044 70.9883 28.2187 69.8306 28.6591C68.68 29.0923 67.3874 29.3089 65.9528 29.3089ZM81.877 35.1364L85.6483 12.6364H90.8045L90.3464 15.4382H90.5062C90.7903 14.9411 91.1667 14.4616 91.6355 14C92.1113 13.5384 92.6831 13.1619 93.3507 12.8707C94.0183 12.5724 94.7818 12.4233 95.6412 12.4233C96.7775 12.4233 97.7896 12.7216 98.6774 13.3182C99.5652 13.9148 100.211 14.8345 100.616 16.0774C101.021 17.3203 101.064 18.9041 100.744 20.8288C100.439 22.6825 99.8848 24.2344 99.0822 25.4844C98.2868 26.7344 97.3422 27.6719 96.2484 28.2969C95.1547 28.9219 94.0076 29.2344 92.8074 29.2344C91.9835 29.2344 91.2875 29.0994 90.7193 28.8295C90.1582 28.5597 89.7143 28.2045 89.3876 27.7642C89.0609 27.3239 88.8336 26.8516 88.7058 26.3473H88.5566L87.1078 35.1364H81.877ZM89.3876 20.8182C89.2456 21.6989 89.2385 22.4659 89.3663 23.1193C89.4941 23.7727 89.7534 24.2805 90.144 24.6428C90.5417 24.9979 91.0566 25.1754 91.6887 25.1754C92.3279 25.1754 92.8961 24.9979 93.3933 24.6428C93.8975 24.2805 94.3201 23.7727 94.661 23.1193C95.002 22.4659 95.2505 21.6989 95.4068 20.8182C95.5417 19.9375 95.5453 19.174 95.4174 18.5277C95.2967 17.8814 95.0446 17.3807 94.661 17.0256C94.2775 16.6705 93.7626 16.4929 93.1163 16.4929C92.4842 16.4929 91.9089 16.6669 91.3904 17.0149C90.8791 17.3629 90.4529 17.8601 90.112 18.5064C89.7711 19.1527 89.5297 19.9233 89.3876 20.8182ZM102.116 29L104.843 12.6364H110.053L107.325 29H102.116ZM107.815 10.7188C107.077 10.7188 106.477 10.4737 106.015 9.98366C105.553 9.49361 105.372 8.90767 105.472 8.22585C105.571 7.53693 105.919 6.95099 106.516 6.46804C107.112 5.98509 107.776 5.74361 108.508 5.74361C109.246 5.74361 109.839 5.98509 110.287 6.46804C110.741 6.95099 110.919 7.53693 110.82 8.22585C110.734 8.90767 110.393 9.49361 109.797 9.98366C109.207 10.4737 108.547 10.7188 107.815 10.7188ZM117.438 19.6676L115.883 29H110.673L113.4 12.6364H118.354L117.864 15.6406H118.045C118.557 14.6392 119.299 13.8544 120.272 13.2862C121.245 12.7109 122.339 12.4233 123.553 12.4233C124.697 12.4233 125.652 12.679 126.419 13.1903C127.186 13.7017 127.729 14.419 128.049 15.3423C128.368 16.2585 128.422 17.3345 128.209 18.5703L126.461 29H121.252L122.818 19.593C122.974 18.6911 122.864 17.9844 122.488 17.473C122.118 16.9545 121.515 16.6953 120.677 16.6953C120.13 16.6953 119.629 16.8161 119.175 17.0575C118.727 17.2919 118.351 17.6293 118.045 18.0696C117.747 18.5099 117.545 19.0426 117.438 19.6676ZM135.056 24.7067L136.111 18.4957H136.825L142.428 12.6364H148.33L140.106 21.0312H138.732L135.056 24.7067ZM129.655 29L133.277 7.18182H138.487L134.864 29H129.655ZM139.818 29L136.665 22.2031L140.724 18.5064L145.837 29H139.818ZM159.436 18.1655L158.787 22.1818H148.698L149.348 18.1655H159.436ZM161.325 29L164.947 7.18182H170.22L168.771 15.9389H177.369L178.818 7.18182H184.08L180.458 29H175.195L176.644 20.2322H168.047L166.598 29H161.325ZM191.373 29.3089C189.661 29.3089 188.241 28.9716 187.111 28.2969C185.989 27.6151 185.201 26.6456 184.746 25.3885C184.292 24.1243 184.21 22.6222 184.501 20.8821C184.785 19.1918 185.364 17.7145 186.238 16.4503C187.118 15.179 188.226 14.1918 189.562 13.4886C190.897 12.7784 192.385 12.4233 194.025 12.4233C195.19 12.4233 196.224 12.6044 197.126 12.9666C198.028 13.3288 198.773 13.8686 199.363 14.5859C199.952 15.2962 200.354 16.1697 200.567 17.2067C200.78 18.2436 200.773 19.4332 200.545 20.7756L200.343 22.0753H186.131L186.611 19.0497H195.986C196.071 18.4957 196.025 18.0021 195.847 17.5689C195.67 17.1357 195.382 16.7983 194.984 16.5568C194.594 16.3082 194.114 16.1839 193.546 16.1839C192.971 16.1839 192.431 16.3189 191.927 16.5888C191.43 16.8516 191.007 17.2067 190.659 17.6541C190.311 18.1016 190.084 18.6058 189.977 19.1669L189.412 22.267C189.299 22.956 189.331 23.5455 189.508 24.0355C189.686 24.5256 189.991 24.902 190.425 25.1648C190.858 25.4205 191.415 25.5483 192.097 25.5483C192.552 25.5483 192.978 25.4879 193.376 25.3672C193.773 25.2393 194.128 25.0511 194.441 24.8026C194.76 24.5469 195.02 24.2379 195.219 23.8757L199.97 24.0142C199.586 25.0866 198.993 26.0206 198.191 26.8161C197.388 27.6044 196.408 28.2187 195.251 28.6591C194.1 29.0923 192.807 29.3089 191.373 29.3089ZM206.413 29.277C205.376 29.277 204.481 29.103 203.728 28.755C202.982 28.3999 202.435 27.8636 202.087 27.1463C201.746 26.429 201.665 25.5341 201.842 24.4616C201.999 23.5526 202.286 22.7891 202.705 22.1712C203.131 21.5462 203.653 21.0384 204.271 20.6477C204.896 20.2571 205.592 19.9588 206.359 19.7528C207.126 19.5469 207.929 19.4084 208.767 19.3374C209.705 19.2521 210.464 19.1598 211.047 19.0604C211.636 18.9609 212.077 18.8224 212.368 18.6449C212.659 18.4602 212.837 18.2045 212.901 17.8778V17.8246C212.986 17.2777 212.869 16.8551 212.549 16.5568C212.229 16.2585 211.75 16.1094 211.111 16.1094C210.429 16.1094 209.847 16.2585 209.364 16.5568C208.881 16.8551 208.543 17.267 208.352 17.7926L203.579 17.6222C203.877 16.6278 204.388 15.7401 205.113 14.9588C205.837 14.1705 206.757 13.5526 207.872 13.1051C208.994 12.6506 210.29 12.4233 211.761 12.4233C212.798 12.4233 213.735 12.5476 214.573 12.7962C215.411 13.0376 216.118 13.3928 216.693 13.8615C217.276 14.3232 217.691 14.8913 217.94 15.5661C218.188 16.2408 218.241 17.0114 218.099 17.8778L216.235 29H211.335L211.718 26.7202H211.59C211.207 27.2741 210.756 27.7429 210.237 28.1264C209.726 28.5099 209.151 28.7976 208.511 28.9893C207.872 29.1811 207.173 29.277 206.413 29.277ZM208.607 25.8679C209.154 25.8679 209.673 25.7543 210.163 25.527C210.653 25.2997 211.065 24.9872 211.398 24.5895C211.739 24.1847 211.956 23.7159 212.048 23.1832L212.293 21.6278C212.144 21.706 211.956 21.777 211.729 21.8409C211.501 21.9048 211.26 21.9652 211.004 22.022C210.749 22.0717 210.486 22.1214 210.216 22.1712C209.953 22.2138 209.701 22.2528 209.46 22.2884C208.948 22.3665 208.504 22.4872 208.128 22.6506C207.751 22.8139 207.45 23.027 207.222 23.2898C207.002 23.5455 206.867 23.8509 206.817 24.206C206.732 24.7386 206.857 25.1506 207.19 25.4418C207.524 25.7259 207.996 25.8679 208.607 25.8679ZM237.435 12.6364L229.094 29H223.128L220.251 12.6364H225.546L226.697 23.9077H226.867L231.757 12.6364H237.435ZM243.785 29.3089C242.073 29.3089 240.653 28.9716 239.523 28.2969C238.401 27.6151 237.613 26.6456 237.158 25.3885C236.704 24.1243 236.622 22.6222 236.913 20.8821C237.197 19.1918 237.776 17.7145 238.65 16.4503C239.531 15.179 240.638 14.1918 241.974 13.4886C243.309 12.7784 244.797 12.4233 246.438 12.4233C247.602 12.4233 248.636 12.6044 249.538 12.9666C250.44 13.3288 251.185 13.8686 251.775 14.5859C252.364 15.2962 252.766 16.1697 252.979 17.2067C253.192 18.2436 253.185 19.4332 252.957 20.7756L252.755 22.0753H238.543L239.023 19.0497H248.398C248.483 18.4957 248.437 18.0021 248.259 17.5689C248.082 17.1357 247.794 16.7983 247.396 16.5568C247.006 16.3082 246.526 16.1839 245.958 16.1839C245.383 16.1839 244.843 16.3189 244.339 16.5888C243.842 16.8516 243.419 17.2067 243.071 17.6541C242.723 18.1016 242.496 18.6058 242.389 19.1669L241.825 22.267C241.711 22.956 241.743 23.5455 241.92 24.0355C242.098 24.5256 242.403 24.902 242.837 25.1648C243.27 25.4205 243.827 25.5483 244.509 25.5483C244.964 25.5483 245.39 25.4879 245.788 25.3672C246.185 25.2393 246.54 25.0511 246.853 24.8026C247.173 24.5469 247.432 24.2379 247.631 23.8757L252.382 24.0142C251.999 25.0866 251.406 26.0206 250.603 26.8161C249.8 27.6044 248.82 28.2187 247.663 28.6591C246.512 29.0923 245.219 29.3089 243.785 29.3089ZM261.051 19.6676L259.496 29H254.286L257.014 12.6364H261.968L261.477 15.6406H261.659C262.17 14.6392 262.912 13.8544 263.885 13.2862C264.858 12.7109 265.952 12.4233 267.166 12.4233C268.31 12.4233 269.265 12.679 270.032 13.1903C270.799 13.7017 271.343 14.419 271.662 15.3423C271.982 16.2585 272.035 17.3345 271.822 18.5703L270.075 29H264.865L266.431 19.593C266.588 18.6911 266.477 17.9844 266.101 17.473C265.732 16.9545 265.128 16.6953 264.29 16.6953C263.743 16.6953 263.242 16.8161 262.788 17.0575C262.34 17.2919 261.964 17.6293 261.659 18.0696C261.36 18.5099 261.158 19.0426 261.051 19.6676ZM282.1 7.18182L278.478 29H273.268L276.89 7.18182H282.1ZM283.977 35.1364C283.352 35.1364 282.77 35.0866 282.23 34.9872C281.698 34.8949 281.243 34.7706 280.867 34.6143L282.656 30.8324C283.132 31.0028 283.569 31.0987 283.967 31.12C284.372 31.1484 284.734 31.081 285.053 30.9176C285.38 30.7614 285.664 30.4808 285.906 30.076L286.204 29.5753L283.21 12.6364H288.473L289.539 24.3232H289.709L294.716 12.6364H300.394L291.264 30.5661C290.803 31.4609 290.245 32.2528 289.592 32.9418C288.938 33.6307 288.15 34.1669 287.227 34.5504C286.311 34.9411 285.227 35.1364 283.977 35.1364Z" fill="#FCF2F6"/>
</g>
<defs>
<filter id="filter0_dd_68_6558" x="0.433407" y="0.765417" width="314.815" height="61.294" filterUnits="userSpaceOnUse" color-interpolation-filters="sRGB">
<feFlood flood-opacity="0" result="BackgroundImageFix"/>
<feColorMatrix in="SourceAlpha" type="matrix" values="0 0 0 0 0 0 0 0 0 0 0 0 0 0 0 0 0 0 127 0" result="hardAlpha"/>
<feOffset dx="1" dy="5.43135"/>
<feGaussianBlur stdDeviation="5.2048"/>
<feColorMatrix type="matrix" values="0 0 0 0 0 0 0 0 0 0 0 0 0 0 0 0 0 0 0.117297 0"/>
<feBlend mode="normal" in2="BackgroundImageFix" result="effect1_dropShadow_68_6558"/>
<feColorMatrix in="SourceAlpha" type="matrix" values="0 0 0 0 0 0 0 0 0 0 0 0 0 0 0 0 0 0 127 0" result="hardAlpha"/>
<feOffset dx="1" dy="13.0687"/>
<feGaussianBlur stdDeviation="6.9271"/>
<feColorMatrix type="matrix" values="0 0 0 0 0 0 0 0 0 0 0 0 0 0 0 0 0 0 0.0945694 0"/>
<feBlend mode="normal" in2="effect1_dropShadow_68_6558" result="effect2_dropShadow_68_6558"/>
<feBlend mode="normal" in="SourceGraphic" in2="effect2_dropShadow_68_6558" result="shape"/>
</filter>
</defs>
</svg>
