<svg width="352" height="149" viewBox="0 0 352 149" fill="none" xmlns="http://www.w3.org/2000/svg">
<g filter="url(#filter0_dd_222_10477)">
<path d="M12.8594 56.9091L15.8764 38.9091H20.0014L19.6349 41.1506H19.7628C19.9901 40.7528 20.2912 40.3693 20.6662 40C21.0469 39.6307 21.5043 39.3295 22.0384 39.0966C22.5724 38.858 23.1832 38.7386 23.8707 38.7386C24.7798 38.7386 25.5895 38.9773 26.2997 39.4545C27.0099 39.9318 27.527 40.6676 27.8509 41.6619C28.1747 42.6562 28.2088 43.9233 27.9531 45.4631C27.7088 46.946 27.2656 48.1875 26.6236 49.1875C25.9872 50.1875 25.2315 50.9375 24.3565 51.4375C23.4815 51.9375 22.5639 52.1875 21.6037 52.1875C20.9446 52.1875 20.3878 52.0795 19.9332 51.8636C19.4844 51.6477 19.1293 51.3636 18.8679 51.0114C18.6065 50.6591 18.4247 50.2812 18.3224 49.8778H18.2031L17.044 56.9091H12.8594ZM18.8679 45.4545C18.7543 46.1591 18.7486 46.7727 18.8509 47.2955C18.9531 47.8182 19.1605 48.2244 19.473 48.5142C19.7912 48.7983 20.2031 48.9403 20.7088 48.9403C21.2202 48.9403 21.6747 48.7983 22.0724 48.5142C22.4759 48.2244 22.8139 47.8182 23.0866 47.2955C23.3594 46.7727 23.5582 46.1591 23.6832 45.4545C23.7912 44.75 23.794 44.1392 23.6918 43.6222C23.5952 43.1051 23.3935 42.7045 23.0866 42.4205C22.7798 42.1364 22.3679 41.9943 21.8509 41.9943C21.3452 41.9943 20.8849 42.1335 20.4702 42.4119C20.0611 42.6903 19.7202 43.0881 19.4474 43.6051C19.1747 44.1222 18.9815 44.7386 18.8679 45.4545ZM32.7067 52.2216C31.8771 52.2216 31.1612 52.0824 30.5589 51.804C29.9624 51.5199 29.5249 51.0909 29.2464 50.517C28.9737 49.9432 28.9084 49.2273 29.0504 48.3693C29.1754 47.642 29.4055 47.0312 29.7408 46.5369C30.0817 46.0369 30.4993 45.6307 30.9936 45.3182C31.4936 45.0057 32.0504 44.767 32.6641 44.6023C33.2777 44.4375 33.9197 44.3267 34.5902 44.2699C35.3402 44.2017 35.9482 44.1278 36.4141 44.0483C36.8857 43.9687 37.2379 43.858 37.4709 43.7159C37.7038 43.5682 37.8459 43.3636 37.897 43.1023V43.0597C37.9652 42.6222 37.8714 42.2841 37.6158 42.0455C37.3601 41.8068 36.9766 41.6875 36.4652 41.6875C35.9197 41.6875 35.4538 41.8068 35.0675 42.0455C34.6811 42.2841 34.4112 42.6136 34.2578 43.0341L30.4396 42.8977C30.6783 42.1023 31.0874 41.392 31.6669 40.767C32.2464 40.1364 32.9822 39.642 33.8743 39.2841C34.772 38.9205 35.8089 38.7386 36.9851 38.7386C37.8146 38.7386 38.5646 38.8381 39.2351 39.0369C39.9055 39.2301 40.4709 39.5142 40.9311 39.8892C41.397 40.2585 41.7294 40.7131 41.9283 41.2528C42.1271 41.7926 42.1697 42.4091 42.0561 43.1023L40.5646 52H36.6442L36.951 50.1761H36.8487C36.5419 50.6193 36.1811 50.9943 35.7663 51.3011C35.3572 51.608 34.897 51.8381 34.3857 51.9915C33.8743 52.1449 33.3146 52.2216 32.7067 52.2216ZM34.4624 49.4943C34.8999 49.4943 35.3146 49.4034 35.7067 49.2216C36.0987 49.0398 36.4283 48.7898 36.6953 48.4716C36.968 48.1477 37.1413 47.7727 37.2152 47.3466L37.4112 46.1023C37.2919 46.1648 37.1413 46.2216 36.9595 46.2727C36.7777 46.3239 36.5845 46.3722 36.38 46.4176C36.1754 46.4574 35.9652 46.4972 35.7493 46.5369C35.5391 46.571 35.3374 46.6023 35.1442 46.6307C34.7351 46.6932 34.38 46.7898 34.0788 46.9205C33.7777 47.0511 33.5362 47.2216 33.3544 47.4318C33.1783 47.6364 33.0703 47.8807 33.0305 48.1648C32.9624 48.5909 33.0618 48.9205 33.3288 49.1534C33.5959 49.3807 33.9737 49.4943 34.4624 49.4943ZM50.1783 34.5455L47.2805 52H43.1129L46.0107 34.5455H50.1783ZM56.0185 52.2472C54.6491 52.2472 53.5128 51.9773 52.6094 51.4375C51.7116 50.892 51.081 50.1165 50.7173 49.1108C50.3537 48.0994 50.2884 46.8977 50.5213 45.5057C50.7486 44.1534 51.2116 42.9716 51.9105 41.9602C52.6151 40.9432 53.5014 40.1534 54.5696 39.5909C55.6378 39.0227 56.8281 38.7386 58.1406 38.7386C59.0724 38.7386 59.8991 38.8835 60.6207 39.1733C61.3423 39.4631 61.9389 39.8949 62.4105 40.4688C62.8821 41.0369 63.2031 41.7358 63.3736 42.5653C63.544 43.3949 63.5384 44.3466 63.3565 45.4205L63.1946 46.4602H51.8253L52.2088 44.0398H59.7088C59.777 43.5966 59.7401 43.2017 59.598 42.8551C59.456 42.5085 59.2259 42.2386 58.9077 42.0455C58.5952 41.8466 58.2116 41.7472 57.7571 41.7472C57.2969 41.7472 56.8651 41.8551 56.4616 42.071C56.0639 42.2812 55.7259 42.5653 55.4474 42.9233C55.169 43.2812 54.9872 43.6847 54.902 44.1335L54.4503 46.6136C54.3594 47.1648 54.3849 47.6364 54.527 48.0284C54.669 48.4205 54.9134 48.7216 55.2599 48.9318C55.6065 49.1364 56.0526 49.2386 56.598 49.2386C56.9616 49.2386 57.3026 49.1903 57.6207 49.0938C57.9389 48.9915 58.223 48.8409 58.473 48.642C58.7287 48.4375 58.9361 48.1903 59.0952 47.9006L62.8963 48.0114C62.5895 48.8693 62.1151 49.6165 61.473 50.2528C60.831 50.8835 60.0469 51.375 59.1207 51.7273C58.2003 52.0739 57.1662 52.2472 56.0185 52.2472ZM68.7578 56.9091L71.7749 38.9091H75.8999L75.5334 41.1506H75.6612C75.8885 40.7528 76.1896 40.3693 76.5646 40C76.9453 39.6307 77.4027 39.3295 77.9368 39.0966C78.4709 38.858 79.0817 38.7386 79.7692 38.7386C80.6783 38.7386 81.4879 38.9773 82.1982 39.4545C82.9084 39.9318 83.4254 40.6676 83.7493 41.6619C84.0732 42.6562 84.1072 43.9233 83.8516 45.4631C83.6072 46.946 83.1641 48.1875 82.522 49.1875C81.8857 50.1875 81.13 50.9375 80.255 51.4375C79.38 51.9375 78.4624 52.1875 77.5021 52.1875C76.843 52.1875 76.2862 52.0795 75.8317 51.8636C75.3828 51.6477 75.0277 51.3636 74.7663 51.0114C74.505 50.6591 74.3232 50.2812 74.2209 49.8778H74.1016L72.9425 56.9091H68.7578ZM74.7663 45.4545C74.6527 46.1591 74.647 46.7727 74.7493 47.2955C74.8516 47.8182 75.0589 48.2244 75.3714 48.5142C75.6896 48.7983 76.1016 48.9403 76.6072 48.9403C77.1186 48.9403 77.5732 48.7983 77.9709 48.5142C78.3743 48.2244 78.7124 47.8182 78.9851 47.2955C79.2578 46.7727 79.4567 46.1591 79.5817 45.4545C79.6896 44.75 79.6925 44.1392 79.5902 43.6222C79.4936 43.1051 79.2919 42.7045 78.9851 42.4205C78.6783 42.1364 78.2663 41.9943 77.7493 41.9943C77.2436 41.9943 76.7834 42.1335 76.3686 42.4119C75.9595 42.6903 75.6186 43.0881 75.3459 43.6051C75.0732 44.1222 74.88 44.7386 74.7663 45.4545ZM84.9489 52L87.1307 38.9091H91.2983L89.1165 52H84.9489ZM89.5085 37.375C88.9176 37.375 88.4375 37.179 88.0682 36.7869C87.6989 36.3949 87.554 35.9261 87.6335 35.3807C87.7131 34.8295 87.9915 34.3608 88.4688 33.9744C88.946 33.5881 89.4773 33.3949 90.0625 33.3949C90.6534 33.3949 91.1278 33.5881 91.4858 33.9744C91.8494 34.3608 91.9915 34.8295 91.9119 35.3807C91.8438 35.9261 91.571 36.3949 91.0938 36.7869C90.6222 37.179 90.0938 37.375 89.5085 37.375ZM97.2067 44.5341L95.9624 52H91.7947L93.9766 38.9091H97.9396L97.5476 41.3125H97.6925C98.1016 40.5114 98.6953 39.8835 99.4737 39.429C100.252 38.9688 101.127 38.7386 102.099 38.7386C103.013 38.7386 103.778 38.9432 104.391 39.3523C105.005 39.7614 105.44 40.3352 105.695 41.0739C105.951 41.8068 105.994 42.6676 105.823 43.6562L104.425 52H100.258L101.511 44.4744C101.636 43.7528 101.548 43.1875 101.246 42.7784C100.951 42.3636 100.468 42.1562 99.7976 42.1562C99.3601 42.1562 98.9595 42.2528 98.5959 42.446C98.2379 42.6335 97.9368 42.9034 97.6925 43.2557C97.4538 43.608 97.2919 44.0341 97.2067 44.5341ZM111.301 48.5653L112.145 43.5966H112.716L117.199 38.9091H121.92L115.341 45.625H114.241L111.301 48.5653ZM106.98 52L109.878 34.5455H114.045L111.148 52H106.98ZM115.111 52L112.588 46.5625L115.835 43.6051L119.926 52H115.111Z" fill="#FCF2F6"/>
</g>
<g filter="url(#filter1_dd_222_10477)">
<path d="M45.8191 99.598L45.9114 84.456H47.5733L56.16 72.5455H70.4711L56.0677 91.1037H52.4668L45.8191 99.598ZM34.3702 108V60.7273H47.1117V108H34.3702ZM56.2523 108L48.1273 93.9659L56.437 84.9176L70.8404 108H56.2523ZM83.6684 108.554C81.4063 108.554 79.4059 108.185 77.667 107.446C75.9435 106.692 74.5893 105.553 73.6045 104.03C72.6196 102.506 72.1272 100.567 72.1272 98.2131C72.1272 96.2741 72.4581 94.6199 73.1198 93.2504C73.7815 91.8654 74.7048 90.7344 75.8896 89.8572C77.0745 88.9801 78.4518 88.3107 80.0214 87.8491C81.6064 87.3874 83.3145 87.0874 85.1457 86.9489C87.1308 86.795 88.7235 86.6103 89.9237 86.3949C91.1394 86.1641 92.0165 85.8486 92.5551 85.4485C93.0937 85.033 93.363 84.4867 93.363 83.8097V83.7173C93.363 82.794 93.0091 82.0862 92.3012 81.5938C91.5934 81.1013 90.6855 80.8551 89.5775 80.8551C88.3618 80.8551 87.3693 81.1244 86.5999 81.663C85.8459 82.1862 85.3919 82.9941 85.238 84.0866H73.5122C73.666 81.9323 74.3508 79.9472 75.5665 78.1314C76.7976 76.3002 78.5903 74.8383 80.9447 73.7457C83.2991 72.6378 86.2383 72.0838 89.7622 72.0838C92.3012 72.0838 94.5787 72.3839 96.5945 72.984C98.6104 73.5688 100.326 74.392 101.742 75.4538C103.158 76.5002 104.235 77.7313 104.973 79.147C105.727 80.5473 106.104 82.0708 106.104 83.7173V108H94.194V103.014H93.917C93.2091 104.338 92.3474 105.407 91.3318 106.223C90.3315 107.038 89.1851 107.631 87.8925 108C86.6153 108.369 85.2072 108.554 83.6684 108.554ZM87.8232 100.521C88.7927 100.521 89.7006 100.321 90.547 99.9212C91.4087 99.5211 92.1089 98.944 92.6475 98.19C93.1861 97.436 93.4553 96.5204 93.4553 95.4432V92.4886C93.1168 92.6271 92.7552 92.7579 92.3705 92.881C92.0012 93.0041 91.6011 93.1196 91.1702 93.2273C90.7547 93.335 90.3084 93.435 89.8314 93.5273C89.3698 93.6197 88.885 93.7043 88.3772 93.7812C87.3924 93.9351 86.5845 94.189 85.9536 94.543C85.338 94.8815 84.8764 95.3047 84.5686 95.8125C84.2762 96.3049 84.1301 96.8589 84.1301 97.4744C84.1301 98.4593 84.4763 99.2133 85.1688 99.7365C85.8612 100.26 86.7461 100.521 87.8232 100.521ZM124.934 88.0568V108H112.192V72.5455H124.288V79.2855H124.657C125.426 77.0388 126.781 75.2769 128.719 73.9996C130.674 72.7224 132.951 72.0838 135.552 72.0838C138.06 72.0838 140.238 72.6609 142.084 73.815C143.946 74.9537 145.385 76.5233 146.401 78.5238C147.432 80.5243 147.939 82.8094 147.924 85.3793V108H135.183V88.0568C135.198 86.3026 134.752 84.9253 133.844 83.9251C132.951 82.9248 131.705 82.4247 130.104 82.4247C129.058 82.4247 128.142 82.6555 127.358 83.1172C126.588 83.5634 125.996 84.2098 125.58 85.0561C125.165 85.8871 124.949 86.8873 124.934 88.0568ZM171.295 122.034C167.74 122.034 164.693 121.526 162.154 120.511C159.631 119.51 157.669 118.125 156.268 116.356C154.883 114.602 154.106 112.586 153.937 110.308H166.217C166.34 111.062 166.648 111.67 167.14 112.132C167.633 112.593 168.263 112.924 169.033 113.124C169.818 113.34 170.695 113.447 171.664 113.447C173.311 113.447 174.673 113.047 175.75 112.247C176.842 111.447 177.389 110 177.389 107.908V101.906H177.019C176.558 103.107 175.85 104.13 174.896 104.976C173.942 105.807 172.795 106.446 171.456 106.892C170.118 107.323 168.648 107.538 167.048 107.538C164.524 107.538 162.2 106.954 160.077 105.784C157.969 104.615 156.276 102.76 154.999 100.221C153.737 97.6822 153.106 94.366 153.106 90.2727C153.106 85.9948 153.768 82.517 155.091 79.8395C156.43 77.1619 158.153 75.1999 160.262 73.9535C162.385 72.707 164.616 72.0838 166.955 72.0838C168.71 72.0838 170.249 72.3916 171.572 73.0071C172.895 73.6072 174.003 74.4151 174.896 75.4308C175.788 76.431 176.465 77.5312 176.927 78.7315H177.204V72.5455H189.945V107.908C189.945 110.908 189.168 113.455 187.614 115.548C186.075 117.656 183.906 119.264 181.105 120.372C178.304 121.48 175.034 122.034 171.295 122.034ZM171.757 98.4901C172.926 98.4901 173.926 98.1669 174.757 97.5206C175.604 96.8589 176.25 95.9202 176.696 94.7045C177.158 93.4735 177.389 91.9962 177.389 90.2727C177.389 88.5185 177.158 87.0181 176.696 85.7717C176.25 84.5098 175.604 83.5481 174.757 82.8864C173.926 82.2093 172.926 81.8707 171.757 81.8707C170.587 81.8707 169.587 82.2093 168.756 82.8864C167.94 83.5481 167.309 84.5098 166.863 85.7717C166.432 87.0181 166.217 88.5185 166.217 90.2727C166.217 92.027 166.432 93.5196 166.863 94.7507C167.309 95.9664 167.94 96.8974 168.756 97.5437C169.587 98.1746 170.587 98.4901 171.757 98.4901ZM206.305 108.554C204.043 108.554 202.043 108.185 200.304 107.446C198.58 106.692 197.226 105.553 196.241 104.03C195.256 102.506 194.764 100.567 194.764 98.2131C194.764 96.2741 195.095 94.6199 195.756 93.2504C196.418 91.8654 197.341 90.7344 198.526 89.8572C199.711 88.9801 201.089 88.3107 202.658 87.8491C204.243 87.3874 205.951 87.0874 207.782 86.9489C209.767 86.795 211.36 86.6103 212.56 86.3949C213.776 86.1641 214.653 85.8486 215.192 85.4485C215.73 85.033 216 84.4867 216 83.8097V83.7173C216 82.794 215.646 82.0862 214.938 81.5938C214.23 81.1013 213.322 80.8551 212.214 80.8551C210.999 80.8551 210.006 81.1244 209.237 81.663C208.483 82.1862 208.029 82.9941 207.875 84.0866H196.149C196.303 81.9323 196.988 79.9472 198.203 78.1314C199.434 76.3002 201.227 74.8383 203.581 73.7457C205.936 72.6378 208.875 72.0838 212.399 72.0838C214.938 72.0838 217.215 72.3839 219.231 72.984C221.247 73.5688 222.963 74.392 224.379 75.4538C225.794 76.5002 226.872 77.7313 227.61 79.147C228.364 80.5473 228.741 82.0708 228.741 83.7173V108H216.831V103.014H216.554C215.846 104.338 214.984 105.407 213.968 106.223C212.968 107.038 211.822 107.631 210.529 108C209.252 108.369 207.844 108.554 206.305 108.554ZM210.46 100.521C211.429 100.521 212.337 100.321 213.184 99.9212C214.045 99.5211 214.746 98.944 215.284 98.19C215.823 97.436 216.092 96.5204 216.092 95.4432V92.4886C215.754 92.6271 215.392 92.7579 215.007 92.881C214.638 93.0041 214.238 93.1196 213.807 93.2273C213.391 93.335 212.945 93.435 212.468 93.5273C212.006 93.6197 211.522 93.7043 211.014 93.7812C210.029 93.9351 209.221 94.189 208.59 94.543C207.975 94.8815 207.513 95.3047 207.205 95.8125C206.913 96.3049 206.767 96.8589 206.767 97.4744C206.767 98.4593 207.113 99.2133 207.805 99.7365C208.498 100.26 209.383 100.521 210.46 100.521ZM234.829 108V72.5455H247.201V79.2855H247.571C248.217 76.7926 249.24 74.9691 250.641 73.815C252.056 72.6609 253.711 72.0838 255.603 72.0838C256.157 72.0838 256.704 72.13 257.242 72.2223C257.796 72.2992 258.327 72.4147 258.835 72.5685V83.4403C258.204 83.2249 257.427 83.0633 256.504 82.9556C255.58 82.8479 254.788 82.794 254.126 82.794C252.88 82.794 251.756 83.0787 250.756 83.6481C249.771 84.2021 248.994 84.9869 248.425 86.0025C247.855 87.0027 247.571 88.1799 247.571 89.5341V108H234.829ZM278.062 108.646C274.215 108.646 270.922 107.885 268.183 106.361C265.444 104.822 263.344 102.683 261.882 99.9442C260.42 97.1897 259.689 93.9967 259.689 90.3651C259.689 86.7334 260.42 83.5481 261.882 80.8089C263.344 78.0544 265.444 75.9155 268.183 74.392C270.922 72.8532 274.215 72.0838 278.062 72.0838C281.91 72.0838 285.203 72.8532 287.942 74.392C290.681 75.9155 292.781 78.0544 294.243 80.8089C295.705 83.5481 296.436 86.7334 296.436 90.3651C296.436 93.9967 295.705 97.1897 294.243 99.9442C292.781 102.683 290.681 104.822 287.942 106.361C285.203 107.885 281.91 108.646 278.062 108.646ZM278.155 99.2287C279.232 99.2287 280.163 98.8671 280.948 98.1438C281.733 97.4206 282.34 96.3896 282.771 95.0508C283.202 93.712 283.418 92.1193 283.418 90.2727C283.418 88.4107 283.202 86.8181 282.771 85.4947C282.34 84.1559 281.733 83.1249 280.948 82.4016C280.163 81.6784 279.232 81.3168 278.155 81.3168C277.016 81.3168 276.039 81.6784 275.223 82.4016C274.408 83.1249 273.785 84.1559 273.354 85.4947C272.923 86.8181 272.707 88.4107 272.707 90.2727C272.707 92.1193 272.923 93.712 273.354 95.0508C273.785 96.3896 274.408 97.4206 275.223 98.1438C276.039 98.8671 277.016 99.2287 278.155 99.2287ZM318.688 108.646C314.84 108.646 311.547 107.885 308.808 106.361C306.069 104.822 303.969 102.683 302.507 99.9442C301.045 97.1897 300.314 93.9967 300.314 90.3651C300.314 86.7334 301.045 83.5481 302.507 80.8089C303.969 78.0544 306.069 75.9155 308.808 74.392C311.547 72.8532 314.84 72.0838 318.688 72.0838C322.535 72.0838 325.828 72.8532 328.567 74.392C331.306 75.9155 333.406 78.0544 334.868 80.8089C336.33 83.5481 337.061 86.7334 337.061 90.3651C337.061 93.9967 336.33 97.1897 334.868 99.9442C333.406 102.683 331.306 104.822 328.567 106.361C325.828 107.885 322.535 108.646 318.688 108.646ZM318.78 99.2287C319.857 99.2287 320.788 98.8671 321.573 98.1438C322.358 97.4206 322.965 96.3896 323.396 95.0508C323.827 93.712 324.043 92.1193 324.043 90.2727C324.043 88.4107 323.827 86.8181 323.396 85.4947C322.965 84.1559 322.358 83.1249 321.573 82.4016C320.788 81.6784 319.857 81.3168 318.78 81.3168C317.641 81.3168 316.664 81.6784 315.848 82.4016C315.033 83.1249 314.41 84.1559 313.979 85.4947C313.548 86.8181 313.332 88.4107 313.332 90.2727C313.332 92.1193 313.548 93.712 313.979 95.0508C314.41 96.3896 315.033 97.4206 315.848 98.1438C316.664 98.8671 317.641 99.2287 318.78 99.2287Z" fill="#FCF2F6"/>
</g>
<defs>
<filter id="filter0_dd_222_10477" x="0.00518417" y="28.4167" width="136.769" height="55.4154" filterUnits="userSpaceOnUse" color-interpolation-filters="sRGB">
<feFlood flood-opacity="0" result="BackgroundImageFix"/>
<feColorMatrix in="SourceAlpha" type="matrix" values="0 0 0 0 0 0 0 0 0 0 0 0 0 0 0 0 0 0 127 0" result="hardAlpha"/>
<feOffset dx="1" dy="5.43135"/>
<feGaussianBlur stdDeviation="5.2048"/>
<feColorMatrix type="matrix" values="0 0 0 0 0 0 0 0 0 0 0 0 0 0 0 0 0 0 0.117297 0"/>
<feBlend mode="normal" in2="BackgroundImageFix" result="effect1_dropShadow_222_10477"/>
<feColorMatrix in="SourceAlpha" type="matrix" values="0 0 0 0 0 0 0 0 0 0 0 0 0 0 0 0 0 0 127 0" result="hardAlpha"/>
<feOffset dx="1" dy="13.0687"/>
<feGaussianBlur stdDeviation="6.9271"/>
<feColorMatrix type="matrix" values="0 0 0 0 0 0 0 0 0 0 0 0 0 0 0 0 0 0 0.0945694 0"/>
<feBlend mode="normal" in2="effect1_dropShadow_222_10477" result="effect2_dropShadow_222_10477"/>
<feBlend mode="normal" in="SourceGraphic" in2="effect2_dropShadow_222_10477" result="shape"/>
</filter>
<filter id="filter1_dd_222_10477" x="21.516" y="55.7491" width="330.399" height="93.2079" filterUnits="userSpaceOnUse" color-interpolation-filters="sRGB">
<feFlood flood-opacity="0" result="BackgroundImageFix"/>
<feColorMatrix in="SourceAlpha" type="matrix" values="0 0 0 0 0 0 0 0 0 0 0 0 0 0 0 0 0 0 127 0" result="hardAlpha"/>
<feOffset dx="1" dy="5.43135"/>
<feGaussianBlur stdDeviation="5.2048"/>
<feColorMatrix type="matrix" values="0 0 0 0 0 0 0 0 0 0 0 0 0 0 0 0 0 0 0.117297 0"/>
<feBlend mode="normal" in2="BackgroundImageFix" result="effect1_dropShadow_222_10477"/>
<feColorMatrix in="SourceAlpha" type="matrix" values="0 0 0 0 0 0 0 0 0 0 0 0 0 0 0 0 0 0 127 0" result="hardAlpha"/>
<feOffset dx="1" dy="13.0687"/>
<feGaussianBlur stdDeviation="6.9271"/>
<feColorMatrix type="matrix" values="0 0 0 0 0 0 0 0 0 0 0 0 0 0 0 0 0 0 0.0945694 0"/>
<feBlend mode="normal" in2="effect1_dropShadow_222_10477" result="effect2_dropShadow_222_10477"/>
<feBlend mode="normal" in="SourceGraphic" in2="effect2_dropShadow_222_10477" result="shape"/>
</filter>
</defs>
</svg>
