<svg width="352" height="149" viewBox="0 0 352 149" fill="none" xmlns="http://www.w3.org/2000/svg">
<g filter="url(#filter0_dd_218_10323)">
<path d="M13.3828 58.9091L16.3999 40.9091H20.5249L20.1584 43.1506H20.2862C20.5135 42.7528 20.8146 42.3693 21.1896 42C21.5703 41.6307 22.0277 41.3295 22.5618 41.0966C23.0959 40.858 23.7067 40.7386 24.3942 40.7386C25.3033 40.7386 26.1129 40.9773 26.8232 41.4545C27.5334 41.9318 28.0504 42.6676 28.3743 43.6619C28.6982 44.6562 28.7322 45.9233 28.4766 47.4631C28.2322 48.946 27.7891 50.1875 27.147 51.1875C26.5107 52.1875 25.755 52.9375 24.88 53.4375C24.005 53.9375 23.0874 54.1875 22.1271 54.1875C21.468 54.1875 20.9112 54.0795 20.4567 53.8636C20.0078 53.6477 19.6527 53.3636 19.3913 53.0114C19.13 52.6591 18.9482 52.2812 18.8459 51.8778H18.7266L17.5675 58.9091H13.3828ZM19.3913 47.4545C19.2777 48.1591 19.272 48.7727 19.3743 49.2955C19.4766 49.8182 19.6839 50.2244 19.9964 50.5142C20.3146 50.7983 20.7266 50.9403 21.2322 50.9403C21.7436 50.9403 22.1982 50.7983 22.5959 50.5142C22.9993 50.2244 23.3374 49.8182 23.6101 49.2955C23.8828 48.7727 24.0817 48.1591 24.2067 47.4545C24.3146 46.75 24.3175 46.1392 24.2152 45.6222C24.1186 45.1051 23.9169 44.7045 23.6101 44.4205C23.3033 44.1364 22.8913 43.9943 22.3743 43.9943C21.8686 43.9943 21.4084 44.1335 20.9936 44.4119C20.5845 44.6903 20.2436 45.0881 19.9709 45.6051C19.6982 46.1222 19.505 46.7386 19.3913 47.4545ZM29.5739 54L31.7557 40.9091H35.9233L33.7415 54H29.5739ZM34.1335 39.375C33.5426 39.375 33.0625 39.179 32.6932 38.7869C32.3239 38.3949 32.179 37.9261 32.2585 37.3807C32.3381 36.8295 32.6165 36.3608 33.0938 35.9744C33.571 35.5881 34.1023 35.3949 34.6875 35.3949C35.2784 35.3949 35.7528 35.5881 36.1108 35.9744C36.4744 36.3608 36.6165 36.8295 36.5369 37.3807C36.4688 37.9261 36.196 38.3949 35.7188 38.7869C35.2472 39.179 34.7188 39.375 34.1335 39.375ZM41.8317 46.5341L40.5874 54H36.4197L38.6016 40.9091H42.5646L42.1726 43.3125H42.3175C42.7266 42.5114 43.3203 41.8835 44.0987 41.429C44.8771 40.9688 45.7521 40.7386 46.7237 40.7386C47.6385 40.7386 48.4027 40.9432 49.0163 41.3523C49.63 41.7614 50.0646 42.3352 50.3203 43.0739C50.576 43.8068 50.6186 44.6676 50.4482 45.6562L49.0504 54H44.8828L46.1357 46.4744C46.2607 45.7528 46.1726 45.1875 45.8714 44.7784C45.576 44.3636 45.093 44.1562 44.4226 44.1562C43.9851 44.1562 43.5845 44.2528 43.2209 44.446C42.8629 44.6335 42.5618 44.9034 42.3175 45.2557C42.0788 45.608 41.9169 46.0341 41.8317 46.5341ZM55.9261 50.5653L56.7699 45.5966H57.3409L61.8239 40.9091H66.5455L59.9659 47.625H58.8665L55.9261 50.5653ZM51.6051 54L54.5028 36.5455H58.6705L55.7727 54H51.6051ZM59.7358 54L57.2131 48.5625L60.4602 45.6051L64.5511 54H59.7358ZM76.4489 46.5341L75.2045 54H71.0369L73.9347 36.5455H77.9659L76.858 43.3125H77.0028C77.4233 42.5057 78.0085 41.875 78.7585 41.4205C79.5085 40.9659 80.3778 40.7386 81.3665 40.7386C82.2756 40.7386 83.0369 40.9432 83.6506 41.3523C84.2642 41.7557 84.6989 42.3267 84.9545 43.0653C85.2102 43.804 85.2557 44.6676 85.0909 45.6562L83.6932 54H79.5256L80.7869 46.4744C80.9006 45.7472 80.8068 45.179 80.5057 44.7699C80.2045 44.3608 79.7216 44.1562 79.0568 44.1562C78.6193 44.1562 78.2159 44.2528 77.8466 44.446C77.483 44.6335 77.179 44.9034 76.9347 45.2557C76.6903 45.608 76.5284 46.0341 76.4489 46.5341ZM89.9254 54.2216C89.0959 54.2216 88.38 54.0824 87.7777 53.804C87.1811 53.5199 86.7436 53.0909 86.4652 52.517C86.1925 51.9432 86.1271 51.2273 86.2692 50.3693C86.3942 49.642 86.6243 49.0312 86.9595 48.5369C87.3004 48.0369 87.718 47.6307 88.2124 47.3182C88.7124 47.0057 89.2692 46.767 89.8828 46.6023C90.4964 46.4375 91.1385 46.3267 91.8089 46.2699C92.5589 46.2017 93.1669 46.1278 93.6328 46.0483C94.1044 45.9687 94.4567 45.858 94.6896 45.7159C94.9226 45.5682 95.0646 45.3636 95.1158 45.1023V45.0597C95.1839 44.6222 95.0902 44.2841 94.8345 44.0455C94.5788 43.8068 94.1953 43.6875 93.6839 43.6875C93.1385 43.6875 92.6726 43.8068 92.2862 44.0455C91.8999 44.2841 91.63 44.6136 91.4766 45.0341L87.6584 44.8977C87.897 44.1023 88.3061 43.392 88.8857 42.767C89.4652 42.1364 90.201 41.642 91.093 41.2841C91.9908 40.9205 93.0277 40.7386 94.2038 40.7386C95.0334 40.7386 95.7834 40.8381 96.4538 41.0369C97.1243 41.2301 97.6896 41.5142 98.1499 41.8892C98.6158 42.2585 98.9482 42.7131 99.147 43.2528C99.3459 43.7926 99.3885 44.4091 99.2749 45.1023L97.7834 54H93.8629L94.1697 52.1761H94.0675C93.7607 52.6193 93.3999 52.9943 92.9851 53.3011C92.576 53.608 92.1158 53.8381 91.6044 53.9915C91.093 54.1449 90.5334 54.2216 89.9254 54.2216ZM91.6811 51.4943C92.1186 51.4943 92.5334 51.4034 92.9254 51.2216C93.3175 51.0398 93.647 50.7898 93.9141 50.4716C94.1868 50.1477 94.3601 49.7727 94.4339 49.3466L94.63 48.1023C94.5107 48.1648 94.3601 48.2216 94.1783 48.2727C93.9964 48.3239 93.8033 48.3722 93.5987 48.4176C93.3942 48.4574 93.1839 48.4972 92.968 48.5369C92.7578 48.571 92.5561 48.6023 92.3629 48.6307C91.9538 48.6932 91.5987 48.7898 91.2976 48.9205C90.9964 49.0511 90.755 49.2216 90.5732 49.4318C90.397 49.6364 90.2891 49.8807 90.2493 50.1648C90.1811 50.5909 90.2805 50.9205 90.5476 51.1534C90.8146 51.3807 91.1925 51.4943 91.6811 51.4943ZM99.5391 58.9091L102.556 40.9091H106.681L106.315 43.1506H106.442C106.67 42.7528 106.971 42.3693 107.346 42C107.727 41.6307 108.184 41.3295 108.718 41.0966C109.252 40.858 109.863 40.7386 110.55 40.7386C111.46 40.7386 112.269 40.9773 112.979 41.4545C113.69 41.9318 114.207 42.6676 114.531 43.6619C114.854 44.6562 114.888 45.9233 114.633 47.4631C114.388 48.946 113.945 50.1875 113.303 51.1875C112.667 52.1875 111.911 52.9375 111.036 53.4375C110.161 53.9375 109.244 54.1875 108.283 54.1875C107.624 54.1875 107.067 54.0795 106.613 53.8636C106.164 53.6477 105.809 53.3636 105.548 53.0114C105.286 52.6591 105.104 52.2812 105.002 51.8778H104.883L103.724 58.9091H99.5391ZM105.548 47.4545C105.434 48.1591 105.428 48.7727 105.531 49.2955C105.633 49.8182 105.84 50.2244 106.153 50.5142C106.471 50.7983 106.883 50.9403 107.388 50.9403C107.9 50.9403 108.354 50.7983 108.752 50.5142C109.156 50.2244 109.494 49.8182 109.766 49.2955C110.039 48.7727 110.238 48.1591 110.363 47.4545C110.471 46.75 110.474 46.1392 110.371 45.6222C110.275 45.1051 110.073 44.7045 109.766 44.4205C109.46 44.1364 109.048 43.9943 108.531 43.9943C108.025 43.9943 107.565 44.1335 107.15 44.4119C106.741 44.6903 106.4 45.0881 106.127 45.6051C105.854 46.1222 105.661 46.7386 105.548 47.4545ZM114.938 58.9091L117.955 40.9091H122.08L121.713 43.1506H121.841C122.068 42.7528 122.369 42.3693 122.744 42C123.125 41.6307 123.582 41.3295 124.116 41.0966C124.651 40.858 125.261 40.7386 125.949 40.7386C126.858 40.7386 127.668 40.9773 128.378 41.4545C129.088 41.9318 129.605 42.6676 129.929 43.6619C130.253 44.6562 130.287 45.9233 130.031 47.4631C129.787 48.946 129.344 50.1875 128.702 51.1875C128.065 52.1875 127.31 52.9375 126.435 53.4375C125.56 53.9375 124.642 54.1875 123.682 54.1875C123.023 54.1875 122.466 54.0795 122.011 53.8636C121.562 53.6477 121.207 53.3636 120.946 53.0114C120.685 52.6591 120.503 52.2812 120.401 51.8778H120.281L119.122 58.9091H114.938ZM120.946 47.4545C120.832 48.1591 120.827 48.7727 120.929 49.2955C121.031 49.8182 121.239 50.2244 121.551 50.5142C121.869 50.7983 122.281 50.9403 122.787 50.9403C123.298 50.9403 123.753 50.7983 124.151 50.5142C124.554 50.2244 124.892 49.8182 125.165 49.2955C125.438 48.7727 125.636 48.1591 125.761 47.4545C125.869 46.75 125.872 46.1392 125.77 45.6222C125.673 45.1051 125.472 44.7045 125.165 44.4205C124.858 44.1364 124.446 43.9943 123.929 43.9943C123.423 43.9943 122.963 44.1335 122.548 44.4119C122.139 44.6903 121.798 45.0881 121.526 45.6051C121.253 46.1222 121.06 46.7386 120.946 47.4545ZM131.129 54L133.31 40.9091H137.478L135.296 54H131.129ZM135.688 39.375C135.097 39.375 134.617 39.179 134.248 38.7869C133.879 38.3949 133.734 37.9261 133.813 37.3807C133.893 36.8295 134.171 36.3608 134.648 35.9744C135.126 35.5881 135.657 35.3949 136.242 35.3949C136.833 35.3949 137.308 35.5881 137.665 35.9744C138.029 36.3608 138.171 36.8295 138.092 37.3807C138.023 37.9261 137.751 38.3949 137.273 38.7869C136.802 39.179 136.273 39.375 135.688 39.375ZM143.386 46.5341L142.142 54H137.974L140.156 40.9091H144.119L143.727 43.3125H143.872C144.281 42.5114 144.875 41.8835 145.653 41.429C146.432 40.9688 147.307 40.7386 148.278 40.7386C149.193 40.7386 149.957 40.9432 150.571 41.3523C151.185 41.7614 151.619 42.3352 151.875 43.0739C152.131 43.8068 152.173 44.6676 152.003 45.6562L150.605 54H146.438L147.69 46.4744C147.815 45.7528 147.727 45.1875 147.426 44.7784C147.131 44.3636 146.648 44.1562 145.977 44.1562C145.54 44.1562 145.139 44.2528 144.776 44.446C144.418 44.6335 144.116 44.9034 143.872 45.2557C143.634 45.608 143.472 46.0341 143.386 46.5341ZM159.245 54.2472C157.876 54.2472 156.739 53.9773 155.836 53.4375C154.938 52.892 154.308 52.1165 153.944 51.1108C153.58 50.0994 153.515 48.8977 153.748 47.5057C153.975 46.1534 154.438 44.9716 155.137 43.9602C155.842 42.9432 156.728 42.1534 157.796 41.5909C158.864 41.0227 160.055 40.7386 161.367 40.7386C162.299 40.7386 163.126 40.8835 163.847 41.1733C164.569 41.4631 165.165 41.8949 165.637 42.4688C166.109 43.0369 166.43 43.7358 166.6 44.5653C166.771 45.3949 166.765 46.3466 166.583 47.4205L166.421 48.4602H155.052L155.435 46.0398H162.935C163.004 45.5966 162.967 45.2017 162.825 44.8551C162.683 44.5085 162.452 44.2386 162.134 44.0455C161.822 43.8466 161.438 43.7472 160.984 43.7472C160.523 43.7472 160.092 43.8551 159.688 44.071C159.29 44.2812 158.952 44.5653 158.674 44.9233C158.396 45.2812 158.214 45.6847 158.129 46.1335L157.677 48.6136C157.586 49.1648 157.612 49.6364 157.754 50.0284C157.896 50.4205 158.14 50.7216 158.487 50.9318C158.833 51.1364 159.279 51.2386 159.825 51.2386C160.188 51.2386 160.529 51.1903 160.847 51.0938C161.165 50.9915 161.45 50.8409 161.7 50.642C161.955 50.4375 162.163 50.1903 162.322 49.9006L166.123 50.0114C165.816 50.8693 165.342 51.6165 164.7 52.2528C164.058 52.8835 163.273 53.375 162.347 53.7273C161.427 54.0739 160.393 54.2472 159.245 54.2472ZM180.533 44.9062L176.774 45.0085C176.78 44.7301 176.717 44.4858 176.587 44.2756C176.456 44.0597 176.271 43.892 176.033 43.7727C175.794 43.6534 175.51 43.5938 175.18 43.5938C174.646 43.5938 174.166 43.7131 173.74 43.9517C173.32 44.1903 173.084 44.5 173.033 44.8807C172.993 45.0852 173.05 45.2642 173.203 45.4176C173.357 45.5653 173.697 45.696 174.226 45.8097L176.68 46.2869C177.942 46.5369 178.857 46.9716 179.425 47.5909C179.999 48.2045 180.203 49.017 180.038 50.0284C179.891 50.892 179.51 51.6392 178.896 52.2699C178.288 52.9006 177.513 53.3892 176.57 53.7358C175.632 54.0767 174.595 54.2472 173.459 54.2472C171.538 54.2472 170.089 53.8608 169.112 53.0881C168.141 52.3097 167.686 51.2784 167.749 49.9943L171.805 49.892C171.822 50.375 171.984 50.7386 172.291 50.983C172.604 51.2216 173.027 51.3466 173.561 51.358C174.146 51.3693 174.652 51.2472 175.078 50.9915C175.504 50.7358 175.743 50.4205 175.794 50.0455C175.828 49.8011 175.746 49.6108 175.547 49.4744C175.354 49.3381 174.993 49.2159 174.464 49.108L172.249 48.6733C170.976 48.429 170.055 47.9687 169.487 47.2926C168.925 46.6108 168.732 45.7415 168.908 44.6847C169.055 43.8437 169.402 43.1307 169.947 42.5455C170.499 41.9545 171.217 41.5057 172.104 41.1989C172.996 40.892 174.013 40.7386 175.155 40.7386C176.984 40.7386 178.365 41.1108 179.297 41.8551C180.234 42.5937 180.646 43.6108 180.533 44.9062ZM194.337 44.9062L190.579 45.0085C190.585 44.7301 190.522 44.4858 190.391 44.2756C190.261 44.0597 190.076 43.892 189.837 43.7727C189.599 43.6534 189.315 43.5938 188.985 43.5938C188.451 43.5938 187.971 43.7131 187.545 43.9517C187.124 44.1903 186.888 44.5 186.837 44.8807C186.798 45.0852 186.854 45.2642 187.008 45.4176C187.161 45.5653 187.502 45.696 188.031 45.8097L190.485 46.2869C191.746 46.5369 192.661 46.9716 193.229 47.5909C193.803 48.2045 194.008 49.017 193.843 50.0284C193.695 50.892 193.315 51.6392 192.701 52.2699C192.093 52.9006 191.317 53.3892 190.374 53.7358C189.437 54.0767 188.4 54.2472 187.263 54.2472C185.343 54.2472 183.894 53.8608 182.917 53.0881C181.945 52.3097 181.491 51.2784 181.553 49.9943L185.61 49.892C185.627 50.375 185.789 50.7386 186.096 50.983C186.408 51.2216 186.832 51.3466 187.366 51.358C187.951 51.3693 188.457 51.2472 188.883 50.9915C189.309 50.7358 189.548 50.4205 189.599 50.0455C189.633 49.8011 189.55 49.6108 189.352 49.4744C189.158 49.3381 188.798 49.2159 188.269 49.108L186.053 48.6733C184.781 48.429 183.86 47.9687 183.292 47.2926C182.729 46.6108 182.536 45.7415 182.712 44.6847C182.86 43.8437 183.207 43.1307 183.752 42.5455C184.303 41.9545 185.022 41.5057 185.908 41.1989C186.8 40.892 187.817 40.7386 188.96 40.7386C190.789 40.7386 192.17 41.1108 193.102 41.8551C194.039 42.5937 194.451 43.6108 194.337 44.9062Z" fill="#F4DDE4"/>
</g>
<g filter="url(#filter1_dd_218_10323)">
<path d="M45.8191 99.598L45.9114 84.456H47.5733L56.16 72.5455H70.4711L56.0677 91.1037H52.4668L45.8191 99.598ZM34.3702 108V60.7273H47.1117V108H34.3702ZM56.2523 108L48.1273 93.9659L56.437 84.9176L70.8404 108H56.2523ZM83.6684 108.554C81.4063 108.554 79.4059 108.185 77.667 107.446C75.9435 106.692 74.5893 105.553 73.6045 104.03C72.6196 102.506 72.1272 100.567 72.1272 98.2131C72.1272 96.2741 72.4581 94.6199 73.1198 93.2504C73.7815 91.8654 74.7048 90.7344 75.8896 89.8572C77.0745 88.9801 78.4518 88.3107 80.0214 87.8491C81.6064 87.3874 83.3145 87.0874 85.1457 86.9489C87.1308 86.795 88.7235 86.6103 89.9237 86.3949C91.1394 86.1641 92.0165 85.8486 92.5551 85.4485C93.0937 85.033 93.363 84.4867 93.363 83.8097V83.7173C93.363 82.794 93.0091 82.0862 92.3012 81.5938C91.5934 81.1013 90.6855 80.8551 89.5775 80.8551C88.3618 80.8551 87.3693 81.1244 86.5999 81.663C85.8459 82.1862 85.3919 82.9941 85.238 84.0866H73.5122C73.666 81.9323 74.3508 79.9472 75.5665 78.1314C76.7976 76.3002 78.5903 74.8383 80.9447 73.7457C83.2991 72.6378 86.2383 72.0838 89.7622 72.0838C92.3012 72.0838 94.5787 72.3839 96.5945 72.984C98.6104 73.5688 100.326 74.392 101.742 75.4538C103.158 76.5002 104.235 77.7313 104.973 79.147C105.727 80.5473 106.104 82.0708 106.104 83.7173V108H94.194V103.014H93.917C93.2091 104.338 92.3474 105.407 91.3318 106.223C90.3315 107.038 89.1851 107.631 87.8925 108C86.6153 108.369 85.2072 108.554 83.6684 108.554ZM87.8232 100.521C88.7927 100.521 89.7006 100.321 90.547 99.9212C91.4087 99.5211 92.1089 98.944 92.6475 98.19C93.1861 97.436 93.4553 96.5204 93.4553 95.4432V92.4886C93.1168 92.6271 92.7552 92.7579 92.3705 92.881C92.0012 93.0041 91.6011 93.1196 91.1702 93.2273C90.7547 93.335 90.3084 93.435 89.8314 93.5273C89.3698 93.6197 88.885 93.7043 88.3772 93.7812C87.3924 93.9351 86.5845 94.189 85.9536 94.543C85.338 94.8815 84.8764 95.3047 84.5686 95.8125C84.2762 96.3049 84.1301 96.8589 84.1301 97.4744C84.1301 98.4593 84.4763 99.2133 85.1688 99.7365C85.8612 100.26 86.7461 100.521 87.8232 100.521ZM124.934 88.0568V108H112.192V72.5455H124.288V79.2855H124.657C125.426 77.0388 126.781 75.2769 128.719 73.9996C130.674 72.7224 132.951 72.0838 135.552 72.0838C138.06 72.0838 140.238 72.6609 142.084 73.815C143.946 74.9537 145.385 76.5233 146.401 78.5238C147.432 80.5243 147.939 82.8094 147.924 85.3793V108H135.183V88.0568C135.198 86.3026 134.752 84.9253 133.844 83.9251C132.951 82.9248 131.705 82.4247 130.104 82.4247C129.058 82.4247 128.142 82.6555 127.358 83.1172C126.588 83.5634 125.996 84.2098 125.58 85.0561C125.165 85.8871 124.949 86.8873 124.934 88.0568ZM171.295 122.034C167.74 122.034 164.693 121.526 162.154 120.511C159.631 119.51 157.669 118.125 156.268 116.356C154.883 114.602 154.106 112.586 153.937 110.308H166.217C166.34 111.062 166.648 111.67 167.14 112.132C167.633 112.593 168.263 112.924 169.033 113.124C169.818 113.34 170.695 113.447 171.664 113.447C173.311 113.447 174.673 113.047 175.75 112.247C176.842 111.447 177.389 110 177.389 107.908V101.906H177.019C176.558 103.107 175.85 104.13 174.896 104.976C173.942 105.807 172.795 106.446 171.456 106.892C170.118 107.323 168.648 107.538 167.048 107.538C164.524 107.538 162.2 106.954 160.077 105.784C157.969 104.615 156.276 102.76 154.999 100.221C153.737 97.6822 153.106 94.366 153.106 90.2727C153.106 85.9948 153.768 82.517 155.091 79.8395C156.43 77.1619 158.153 75.1999 160.262 73.9535C162.385 72.707 164.616 72.0838 166.955 72.0838C168.71 72.0838 170.249 72.3916 171.572 73.0071C172.895 73.6072 174.003 74.4151 174.896 75.4308C175.788 76.431 176.465 77.5312 176.927 78.7315H177.204V72.5455H189.945V107.908C189.945 110.908 189.168 113.455 187.614 115.548C186.075 117.656 183.906 119.264 181.105 120.372C178.304 121.48 175.034 122.034 171.295 122.034ZM171.757 98.4901C172.926 98.4901 173.926 98.1669 174.757 97.5206C175.604 96.8589 176.25 95.9202 176.696 94.7045C177.158 93.4735 177.389 91.9962 177.389 90.2727C177.389 88.5185 177.158 87.0181 176.696 85.7717C176.25 84.5098 175.604 83.5481 174.757 82.8864C173.926 82.2093 172.926 81.8707 171.757 81.8707C170.587 81.8707 169.587 82.2093 168.756 82.8864C167.94 83.5481 167.309 84.5098 166.863 85.7717C166.432 87.0181 166.217 88.5185 166.217 90.2727C166.217 92.027 166.432 93.5196 166.863 94.7507C167.309 95.9664 167.94 96.8974 168.756 97.5437C169.587 98.1746 170.587 98.4901 171.757 98.4901ZM206.305 108.554C204.043 108.554 202.043 108.185 200.304 107.446C198.58 106.692 197.226 105.553 196.241 104.03C195.256 102.506 194.764 100.567 194.764 98.2131C194.764 96.2741 195.095 94.6199 195.756 93.2504C196.418 91.8654 197.341 90.7344 198.526 89.8572C199.711 88.9801 201.089 88.3107 202.658 87.8491C204.243 87.3874 205.951 87.0874 207.782 86.9489C209.767 86.795 211.36 86.6103 212.56 86.3949C213.776 86.1641 214.653 85.8486 215.192 85.4485C215.73 85.033 216 84.4867 216 83.8097V83.7173C216 82.794 215.646 82.0862 214.938 81.5938C214.23 81.1013 213.322 80.8551 212.214 80.8551C210.999 80.8551 210.006 81.1244 209.237 81.663C208.483 82.1862 208.029 82.9941 207.875 84.0866H196.149C196.303 81.9323 196.988 79.9472 198.203 78.1314C199.434 76.3002 201.227 74.8383 203.581 73.7457C205.936 72.6378 208.875 72.0838 212.399 72.0838C214.938 72.0838 217.215 72.3839 219.231 72.984C221.247 73.5688 222.963 74.392 224.379 75.4538C225.794 76.5002 226.872 77.7313 227.61 79.147C228.364 80.5473 228.741 82.0708 228.741 83.7173V108H216.831V103.014H216.554C215.846 104.338 214.984 105.407 213.968 106.223C212.968 107.038 211.822 107.631 210.529 108C209.252 108.369 207.844 108.554 206.305 108.554ZM210.46 100.521C211.429 100.521 212.337 100.321 213.184 99.9212C214.045 99.5211 214.746 98.944 215.284 98.19C215.823 97.436 216.092 96.5204 216.092 95.4432V92.4886C215.754 92.6271 215.392 92.7579 215.007 92.881C214.638 93.0041 214.238 93.1196 213.807 93.2273C213.391 93.335 212.945 93.435 212.468 93.5273C212.006 93.6197 211.522 93.7043 211.014 93.7812C210.029 93.9351 209.221 94.189 208.59 94.543C207.975 94.8815 207.513 95.3047 207.205 95.8125C206.913 96.3049 206.767 96.8589 206.767 97.4744C206.767 98.4593 207.113 99.2133 207.805 99.7365C208.498 100.26 209.383 100.521 210.46 100.521ZM234.829 108V72.5455H247.201V79.2855H247.571C248.217 76.7926 249.24 74.9691 250.641 73.815C252.056 72.6609 253.711 72.0838 255.603 72.0838C256.157 72.0838 256.704 72.13 257.242 72.2223C257.796 72.2992 258.327 72.4147 258.835 72.5685V83.4403C258.204 83.2249 257.427 83.0633 256.504 82.9556C255.58 82.8479 254.788 82.794 254.126 82.794C252.88 82.794 251.756 83.0787 250.756 83.6481C249.771 84.2021 248.994 84.9869 248.425 86.0025C247.855 87.0027 247.571 88.1799 247.571 89.5341V108H234.829ZM278.062 108.646C274.215 108.646 270.922 107.885 268.183 106.361C265.444 104.822 263.344 102.683 261.882 99.9442C260.42 97.1897 259.689 93.9967 259.689 90.3651C259.689 86.7334 260.42 83.5481 261.882 80.8089C263.344 78.0544 265.444 75.9155 268.183 74.392C270.922 72.8532 274.215 72.0838 278.062 72.0838C281.91 72.0838 285.203 72.8532 287.942 74.392C290.681 75.9155 292.781 78.0544 294.243 80.8089C295.705 83.5481 296.436 86.7334 296.436 90.3651C296.436 93.9967 295.705 97.1897 294.243 99.9442C292.781 102.683 290.681 104.822 287.942 106.361C285.203 107.885 281.91 108.646 278.062 108.646ZM278.155 99.2287C279.232 99.2287 280.163 98.8671 280.948 98.1438C281.733 97.4206 282.34 96.3896 282.771 95.0508C283.202 93.712 283.418 92.1193 283.418 90.2727C283.418 88.4107 283.202 86.8181 282.771 85.4947C282.34 84.1559 281.733 83.1249 280.948 82.4016C280.163 81.6784 279.232 81.3168 278.155 81.3168C277.016 81.3168 276.039 81.6784 275.223 82.4016C274.408 83.1249 273.785 84.1559 273.354 85.4947C272.923 86.8181 272.707 88.4107 272.707 90.2727C272.707 92.1193 272.923 93.712 273.354 95.0508C273.785 96.3896 274.408 97.4206 275.223 98.1438C276.039 98.8671 277.016 99.2287 278.155 99.2287ZM318.688 108.646C314.84 108.646 311.547 107.885 308.808 106.361C306.069 104.822 303.969 102.683 302.507 99.9442C301.045 97.1897 300.314 93.9967 300.314 90.3651C300.314 86.7334 301.045 83.5481 302.507 80.8089C303.969 78.0544 306.069 75.9155 308.808 74.392C311.547 72.8532 314.84 72.0838 318.688 72.0838C322.535 72.0838 325.828 72.8532 328.567 74.392C331.306 75.9155 333.406 78.0544 334.868 80.8089C336.33 83.5481 337.061 86.7334 337.061 90.3651C337.061 93.9967 336.33 97.1897 334.868 99.9442C333.406 102.683 331.306 104.822 328.567 106.361C325.828 107.885 322.535 108.646 318.688 108.646ZM318.78 99.2287C319.857 99.2287 320.788 98.8671 321.573 98.1438C322.358 97.4206 322.965 96.3896 323.396 95.0508C323.827 93.712 324.043 92.1193 324.043 90.2727C324.043 88.4107 323.827 86.8181 323.396 85.4947C322.965 84.1559 322.358 83.1249 321.573 82.4016C320.788 81.6784 319.857 81.3168 318.78 81.3168C317.641 81.3168 316.664 81.6784 315.848 82.4016C315.033 83.1249 314.41 84.1559 313.979 85.4947C313.548 86.8181 313.332 88.4107 313.332 90.2727C313.332 92.1193 313.548 93.712 313.979 95.0508C314.41 96.3896 315.033 97.4206 315.848 98.1438C316.664 98.8671 317.641 99.2287 318.78 99.2287Z" fill="#F4DDE4"/>
</g>
<defs>
<filter id="filter0_dd_218_10323" x="0.528622" y="30.4167" width="208.833" height="55.4154" filterUnits="userSpaceOnUse" color-interpolation-filters="sRGB">
<feFlood flood-opacity="0" result="BackgroundImageFix"/>
<feColorMatrix in="SourceAlpha" type="matrix" values="0 0 0 0 0 0 0 0 0 0 0 0 0 0 0 0 0 0 127 0" result="hardAlpha"/>
<feOffset dx="1" dy="5.43135"/>
<feGaussianBlur stdDeviation="5.2048"/>
<feColorMatrix type="matrix" values="0 0 0 0 0 0 0 0 0 0 0 0 0 0 0 0 0 0 0.117297 0"/>
<feBlend mode="normal" in2="BackgroundImageFix" result="effect1_dropShadow_218_10323"/>
<feColorMatrix in="SourceAlpha" type="matrix" values="0 0 0 0 0 0 0 0 0 0 0 0 0 0 0 0 0 0 127 0" result="hardAlpha"/>
<feOffset dx="1" dy="13.0687"/>
<feGaussianBlur stdDeviation="6.9271"/>
<feColorMatrix type="matrix" values="0 0 0 0 0 0 0 0 0 0 0 0 0 0 0 0 0 0 0.0945694 0"/>
<feBlend mode="normal" in2="effect1_dropShadow_218_10323" result="effect2_dropShadow_218_10323"/>
<feBlend mode="normal" in="SourceGraphic" in2="effect2_dropShadow_218_10323" result="shape"/>
</filter>
<filter id="filter1_dd_218_10323" x="21.516" y="55.7491" width="330.399" height="93.2079" filterUnits="userSpaceOnUse" color-interpolation-filters="sRGB">
<feFlood flood-opacity="0" result="BackgroundImageFix"/>
<feColorMatrix in="SourceAlpha" type="matrix" values="0 0 0 0 0 0 0 0 0 0 0 0 0 0 0 0 0 0 127 0" result="hardAlpha"/>
<feOffset dx="1" dy="5.43135"/>
<feGaussianBlur stdDeviation="5.2048"/>
<feColorMatrix type="matrix" values="0 0 0 0 0 0 0 0 0 0 0 0 0 0 0 0 0 0 0.117297 0"/>
<feBlend mode="normal" in2="BackgroundImageFix" result="effect1_dropShadow_218_10323"/>
<feColorMatrix in="SourceAlpha" type="matrix" values="0 0 0 0 0 0 0 0 0 0 0 0 0 0 0 0 0 0 127 0" result="hardAlpha"/>
<feOffset dx="1" dy="13.0687"/>
<feGaussianBlur stdDeviation="6.9271"/>
<feColorMatrix type="matrix" values="0 0 0 0 0 0 0 0 0 0 0 0 0 0 0 0 0 0 0.0945694 0"/>
<feBlend mode="normal" in2="effect1_dropShadow_218_10323" result="effect2_dropShadow_218_10323"/>
<feBlend mode="normal" in="SourceGraphic" in2="effect2_dropShadow_218_10323" result="shape"/>
</filter>
</defs>
</svg>
