<svg width="362" height="58" viewBox="0 0 362 58" fill="none" xmlns="http://www.w3.org/2000/svg">
<g filter="url(#filter0_dd_68_6660)">
<path d="M13.2397 25L16.2582 6.81818H23.7688C25.1301 6.81818 26.2635 7.08156 27.169 7.60831C28.0746 8.13506 28.7167 8.87192 29.0955 9.81889C29.4743 10.7659 29.5601 11.8638 29.353 13.1126C29.1518 14.3732 28.699 15.4711 27.9947 16.4062C27.2963 17.3414 26.3967 18.0664 25.2958 18.5813C24.195 19.0962 22.9432 19.3537 21.5405 19.3537H16.9151L17.4922 15.8913H21.3097C21.9785 15.8913 22.5555 15.7759 23.0408 15.5451C23.5321 15.3143 23.9257 14.9917 24.2216 14.5774C24.5175 14.1631 24.7128 13.6748 24.8075 13.1126C24.8963 12.5503 24.8608 12.065 24.701 11.6566C24.5412 11.2423 24.2541 10.9227 23.8398 10.6978C23.4315 10.4729 22.8988 10.3604 22.2418 10.3604H20.0756L17.6342 25H13.2397ZM29.5239 25L31.7966 11.3636H36.1379L33.8651 25H29.5239ZM34.2735 9.76562C33.658 9.76562 33.1579 9.56143 32.7732 9.15305C32.3885 8.74467 32.2375 8.25639 32.3204 7.68821C32.4033 7.11411 32.6933 6.62583 33.1904 6.22337C33.6876 5.8209 34.241 5.61967 34.8506 5.61967C35.4661 5.61967 35.9603 5.8209 36.3332 6.22337C36.712 6.62583 36.8599 7.11411 36.7771 7.68821C36.7061 8.25639 36.422 8.74467 35.9248 9.15305C35.4336 9.56143 34.8831 9.76562 34.2735 9.76562ZM42.2924 17.223L40.9963 25H36.655L38.9277 11.3636H43.0559L42.6475 13.8672H42.7985C43.2246 13.0327 43.8431 12.3787 44.6539 11.9052C45.4648 11.4258 46.3762 11.1861 47.3883 11.1861C48.3412 11.1861 49.1373 11.3991 49.7765 11.8253C50.4157 12.2514 50.8684 12.8492 51.1348 13.6186C51.4011 14.3821 51.4455 15.2788 51.2679 16.3086L49.812 25H45.4707L46.7757 17.1609C46.906 16.4092 46.8142 15.8203 46.5005 15.3942C46.1928 14.9621 45.6897 14.7461 44.9913 14.7461C44.5356 14.7461 44.1183 14.8467 43.7395 15.0479C43.3667 15.2433 43.053 15.5244 42.7985 15.8913C42.5499 16.2583 42.3812 16.7022 42.2924 17.223ZM56.9742 21.4222L57.8531 16.2464H58.4479L63.1176 11.3636H68.036L61.1823 18.3594H60.037L56.9742 21.4222ZM52.4731 25L55.4916 6.81818H59.8328L56.8144 25H52.4731ZM60.9426 25L58.3147 19.3359L61.6972 16.2553L65.9585 25H60.9426ZM83.7231 17.223L82.4269 25H78.0857L81.1041 6.81818H85.3034L84.1492 13.8672H84.3002C84.7381 13.0268 85.3477 12.3698 86.129 11.8963C86.9102 11.4228 87.8158 11.1861 88.8456 11.1861C89.7926 11.1861 90.5857 11.3991 91.2249 11.8253C91.8641 12.2455 92.3169 12.8403 92.5832 13.6097C92.8495 14.3791 92.8969 15.2788 92.7252 16.3086L91.2693 25H86.928L88.2419 17.1609C88.3603 16.4033 88.2626 15.8114 87.949 15.3853C87.6353 14.9592 87.1322 14.7461 86.4397 14.7461C85.984 14.7461 85.5638 14.8467 85.1791 15.0479C84.8003 15.2433 84.4836 15.5244 84.2291 15.8913C83.9746 16.2583 83.806 16.7022 83.7231 17.223ZM97.7612 25.2308C96.8971 25.2308 96.1513 25.0858 95.524 24.7958C94.9025 24.4999 94.4468 24.053 94.1568 23.4553C93.8727 22.8575 93.8046 22.1117 93.9526 21.218C94.0828 20.4605 94.3225 19.8242 94.6717 19.3093C95.0268 18.7885 95.4618 18.3653 95.9767 18.0398C96.4976 17.7143 97.0776 17.4657 97.7168 17.294C98.356 17.1224 99.0248 17.007 99.7232 16.9478C100.504 16.8768 101.138 16.7998 101.623 16.717C102.114 16.6341 102.481 16.5187 102.724 16.3707C102.967 16.2169 103.115 16.0038 103.168 15.7315V15.6871C103.239 15.2314 103.141 14.8793 102.875 14.6307C102.608 14.3821 102.209 14.2578 101.676 14.2578C101.108 14.2578 100.623 14.3821 100.22 14.6307C99.8179 14.8793 99.5368 15.2225 99.377 15.6605L95.3997 15.5185C95.6483 14.6899 96.0744 13.95 96.6781 13.299C97.2818 12.642 98.0482 12.1271 98.9775 11.7543C99.9126 11.3755 100.993 11.1861 102.218 11.1861C103.082 11.1861 103.863 11.2897 104.562 11.4968C105.26 11.698 105.849 11.994 106.328 12.3846C106.814 12.7693 107.16 13.2428 107.367 13.805C107.574 14.3673 107.619 15.0095 107.5 15.7315L105.947 25H101.863L102.182 23.1001H102.076C101.756 23.5618 101.38 23.9524 100.948 24.272C100.522 24.5916 100.043 24.8313 99.5101 24.9911C98.9775 25.1509 98.3945 25.2308 97.7612 25.2308ZM99.59 22.3899C100.046 22.3899 100.478 22.2952 100.886 22.1058C101.295 21.9164 101.638 21.656 101.916 21.3246C102.2 20.9872 102.381 20.5966 102.458 20.1527L102.662 18.8565C102.537 18.9216 102.381 18.9808 102.191 19.0341C102.002 19.0874 101.801 19.1377 101.588 19.185C101.374 19.2264 101.155 19.2679 100.931 19.3093C100.712 19.3448 100.501 19.3774 100.3 19.407C99.8741 19.4721 99.5042 19.5727 99.1905 19.7088C98.8768 19.8449 98.6253 20.0225 98.4359 20.2415C98.2524 20.4545 98.14 20.709 98.0985 21.005C98.0275 21.4489 98.1311 21.7921 98.4093 22.0348C98.6874 22.2715 99.081 22.3899 99.59 22.3899ZM107.775 30.1136L110.918 11.3636H115.215L114.833 13.6985H114.966C115.203 13.2842 115.517 12.8847 115.907 12.5C116.304 12.1153 116.78 11.8016 117.337 11.5589C117.893 11.3104 118.529 11.1861 119.246 11.1861C120.193 11.1861 121.036 11.4347 121.776 11.9318C122.516 12.429 123.054 13.1954 123.392 14.2312C123.729 15.2669 123.764 16.5868 123.498 18.1907C123.244 19.7354 122.782 21.0286 122.113 22.0703C121.45 23.112 120.663 23.8932 119.752 24.4141C118.84 24.9349 117.884 25.1953 116.884 25.1953C116.198 25.1953 115.617 25.0829 115.144 24.858C114.676 24.633 114.307 24.3371 114.034 23.9702C113.762 23.6032 113.573 23.2096 113.466 22.7894H113.342L112.134 30.1136H107.775ZM114.034 18.1818C113.916 18.9157 113.91 19.5549 114.017 20.0994C114.123 20.6439 114.339 21.0671 114.665 21.369C114.996 21.6649 115.425 21.8129 115.952 21.8129C116.485 21.8129 116.958 21.6649 117.372 21.369C117.793 21.0671 118.145 20.6439 118.429 20.0994C118.713 19.5549 118.92 18.9157 119.05 18.1818C119.163 17.4479 119.166 16.8117 119.059 16.2731C118.959 15.7345 118.748 15.3172 118.429 15.0213C118.109 14.7254 117.68 14.5774 117.142 14.5774C116.615 14.5774 116.135 14.7224 115.703 15.0124C115.277 15.3024 114.922 15.7167 114.638 16.2553C114.354 16.7939 114.153 17.4361 114.034 18.1818ZM123.815 30.1136L126.958 11.3636H131.255L130.873 13.6985H131.006C131.243 13.2842 131.557 12.8847 131.948 12.5C132.344 12.1153 132.821 11.8016 133.377 11.5589C133.933 11.3104 134.569 11.1861 135.286 11.1861C136.233 11.1861 137.076 11.4347 137.816 11.9318C138.556 12.429 139.094 13.1954 139.432 14.2312C139.769 15.2669 139.804 16.5868 139.538 18.1907C139.284 19.7354 138.822 21.0286 138.153 22.0703C137.49 23.112 136.703 23.8932 135.792 24.4141C134.88 24.9349 133.924 25.1953 132.924 25.1953C132.238 25.1953 131.658 25.0829 131.184 24.858C130.716 24.633 130.347 24.3371 130.074 23.9702C129.802 23.6032 129.613 23.2096 129.506 22.7894H129.382L128.174 30.1136H123.815ZM130.074 18.1818C129.956 18.9157 129.95 19.5549 130.057 20.0994C130.163 20.6439 130.379 21.0671 130.705 21.369C131.036 21.6649 131.465 21.8129 131.992 21.8129C132.525 21.8129 132.998 21.6649 133.412 21.369C133.833 21.0671 134.185 20.6439 134.469 20.0994C134.753 19.5549 134.96 18.9157 135.09 18.1818C135.203 17.4479 135.206 16.8117 135.099 16.2731C134.999 15.7345 134.788 15.3172 134.469 15.0213C134.149 14.7254 133.72 14.5774 133.182 14.5774C132.655 14.5774 132.175 14.7224 131.743 15.0124C131.317 15.3024 130.962 15.7167 130.678 16.2553C130.394 16.7939 130.193 17.4361 130.074 18.1818ZM140.681 25L142.954 11.3636H147.295L145.022 25H140.681ZM145.431 9.76562C144.815 9.76562 144.315 9.56143 143.93 9.15305C143.546 8.74467 143.395 8.25639 143.478 7.68821C143.56 7.11411 143.85 6.62583 144.348 6.22337C144.845 5.8209 145.398 5.61967 146.008 5.61967C146.623 5.61967 147.118 5.8209 147.49 6.22337C147.869 6.62583 148.017 7.11411 147.934 7.68821C147.863 8.25639 147.579 8.74467 147.082 9.15305C146.591 9.56143 146.04 9.76562 145.431 9.76562ZM153.45 17.223L152.153 25H147.812L150.085 11.3636H154.213L153.805 13.8672H153.956C154.382 13.0327 155 12.3787 155.811 11.9052C156.622 11.4258 157.533 11.1861 158.546 11.1861C159.498 11.1861 160.294 11.3991 160.934 11.8253C161.573 12.2514 162.026 12.8492 162.292 13.6186C162.558 14.3821 162.603 15.2788 162.425 16.3086L160.969 25H156.628L157.933 17.1609C158.063 16.4092 157.971 15.8203 157.658 15.3942C157.35 14.9621 156.847 14.7461 156.149 14.7461C155.693 14.7461 155.276 14.8467 154.897 15.0479C154.524 15.2433 154.21 15.5244 153.956 15.8913C153.707 16.2583 153.538 16.7022 153.45 17.223ZM169.969 25.2575C168.543 25.2575 167.359 24.9763 166.418 24.4141C165.483 23.8459 164.826 23.038 164.447 21.9904C164.068 20.9369 164 19.6851 164.243 18.2351C164.48 16.8265 164.962 15.5954 165.69 14.5419C166.424 13.4825 167.347 12.6598 168.46 12.0739C169.573 11.482 170.812 11.1861 172.18 11.1861C173.15 11.1861 174.011 11.337 174.763 11.6388C175.515 11.9407 176.136 12.3905 176.627 12.9883C177.119 13.5801 177.453 14.3081 177.631 15.1722C177.808 16.0363 177.802 17.0277 177.613 18.1463L177.444 19.2294H165.601L166.001 16.7081H173.813C173.884 16.2464 173.846 15.8351 173.698 15.4741C173.55 15.113 173.31 14.8319 172.979 14.6307C172.653 14.4235 172.254 14.32 171.78 14.32C171.301 14.32 170.851 14.4324 170.431 14.6573C170.016 14.8763 169.664 15.1722 169.374 15.5451C169.084 15.918 168.895 16.3382 168.806 16.8058L168.336 19.3892C168.241 19.9633 168.268 20.4545 168.415 20.8629C168.563 21.2713 168.818 21.585 169.179 21.804C169.54 22.017 170.005 22.1236 170.573 22.1236C170.952 22.1236 171.307 22.0733 171.638 21.9727C171.97 21.8661 172.266 21.7093 172.526 21.5021C172.792 21.2891 173.008 21.0316 173.174 20.7298L177.134 20.8452C176.814 21.7389 176.32 22.5172 175.651 23.18C174.982 23.837 174.165 24.349 173.201 24.7159C172.242 25.0769 171.165 25.2575 169.969 25.2575ZM192.144 15.5273L188.229 15.6339C188.235 15.3439 188.169 15.0894 188.033 14.8704C187.897 14.6455 187.705 14.4709 187.456 14.3466C187.208 14.2223 186.912 14.1602 186.568 14.1602C186.012 14.1602 185.512 14.2844 185.068 14.533C184.63 14.7816 184.384 15.1042 184.331 15.5007C184.29 15.7138 184.349 15.9002 184.509 16.06C184.669 16.2139 185.024 16.35 185.574 16.4684L188.131 16.9656C189.445 17.226 190.398 17.6787 190.99 18.3239C191.587 18.9631 191.8 19.8094 191.629 20.8629C191.475 21.7625 191.078 22.5408 190.439 23.1978C189.806 23.8548 188.998 24.3638 188.016 24.7248C187.039 25.0799 185.959 25.2575 184.775 25.2575C182.775 25.2575 181.265 24.855 180.247 24.0501C179.235 23.2392 178.762 22.165 178.827 20.8274L183.053 20.7209C183.071 21.224 183.239 21.6027 183.559 21.8572C183.884 22.1058 184.325 22.236 184.882 22.2479C185.491 22.2597 186.018 22.1325 186.462 21.8661C186.906 21.5998 187.154 21.2713 187.208 20.8807C187.243 20.6262 187.157 20.4279 186.95 20.2859C186.749 20.1438 186.373 20.0166 185.823 19.9041L183.514 19.4513C182.189 19.1969 181.23 18.7174 180.638 18.0131C180.052 17.3029 179.851 16.3974 180.034 15.2965C180.188 14.4206 180.549 13.6778 181.117 13.0682C181.692 12.4527 182.44 11.9851 183.364 11.6655C184.293 11.3459 185.352 11.1861 186.542 11.1861C188.448 11.1861 189.886 11.5737 190.856 12.3491C191.833 13.1185 192.262 14.1779 192.144 15.5273ZM206.524 15.5273L202.608 15.6339C202.614 15.3439 202.549 15.0894 202.413 14.8704C202.277 14.6455 202.085 14.4709 201.836 14.3466C201.588 14.2223 201.292 14.1602 200.948 14.1602C200.392 14.1602 199.892 14.2844 199.448 14.533C199.01 14.7816 198.764 15.1042 198.711 15.5007C198.67 15.7138 198.729 15.9002 198.889 16.06C199.048 16.2139 199.404 16.35 199.954 16.4684L202.511 16.9656C203.825 17.226 204.778 17.6787 205.369 18.3239C205.967 18.9631 206.18 19.8094 206.009 20.8629C205.855 21.7625 205.458 22.5408 204.819 23.1978C204.186 23.8548 203.378 24.3638 202.395 24.7248C201.419 25.0799 200.339 25.2575 199.155 25.2575C197.155 25.2575 195.645 24.855 194.627 24.0501C193.615 23.2392 193.142 22.165 193.207 20.8274L197.433 20.7209C197.45 21.224 197.619 21.6027 197.939 21.8572C198.264 22.1058 198.705 22.236 199.262 22.2479C199.871 22.2597 200.398 22.1325 200.842 21.8661C201.286 21.5998 201.534 21.2713 201.588 20.8807C201.623 20.6262 201.537 20.4279 201.33 20.2859C201.129 20.1438 200.753 20.0166 200.203 19.9041L197.894 19.4513C196.569 19.1969 195.61 18.7174 195.018 18.0131C194.432 17.3029 194.231 16.3974 194.414 15.2965C194.568 14.4206 194.929 13.6778 195.497 13.0682C196.071 12.4527 196.82 11.9851 197.743 11.6655C198.673 11.3459 199.732 11.1861 200.922 11.1861C202.827 11.1861 204.266 11.5737 205.236 12.3491C206.213 13.1185 206.642 14.1779 206.524 15.5273ZM217.672 15.9712L217.13 19.3182H208.723L209.265 15.9712H217.672ZM237.658 13.4055H233.273C233.296 12.9439 233.252 12.5326 233.139 12.1715C233.027 11.8046 232.849 11.4909 232.607 11.2305C232.364 10.9641 232.062 10.7629 231.701 10.6268C231.34 10.4906 230.92 10.4226 230.441 10.4226C229.523 10.4226 228.692 10.6504 227.946 11.1062C227.2 11.5619 226.576 12.2189 226.073 13.0771C225.57 13.9353 225.217 14.9651 225.016 16.1665C224.833 17.3266 224.836 18.2943 225.025 19.0696C225.22 19.8449 225.581 20.4279 226.108 20.8185C226.635 21.2032 227.304 21.3956 228.115 21.3956C228.641 21.3956 229.13 21.3335 229.579 21.2092C230.035 21.079 230.446 20.8925 230.813 20.6499C231.18 20.4072 231.497 20.1142 231.763 19.771C232.036 19.4218 232.246 19.0341 232.394 18.608H236.815C236.596 19.407 236.235 20.203 235.732 20.9961C235.235 21.7833 234.607 22.4964 233.85 23.1357C233.092 23.7749 232.213 24.2868 231.213 24.6715C230.213 25.0562 229.1 25.2486 227.875 25.2486C226.2 25.2486 224.756 24.8728 223.542 24.1211C222.335 23.3694 221.462 22.2804 220.923 20.854C220.391 19.4218 220.29 17.6876 220.622 15.6516C220.947 13.6808 221.589 12.0206 222.548 10.6712C223.513 9.32173 224.685 8.30078 226.064 7.60831C227.449 6.91584 228.925 6.5696 230.494 6.5696C231.63 6.5696 232.651 6.72348 233.557 7.03125C234.468 7.3331 235.24 7.77699 235.874 8.36293C236.507 8.94294 236.978 9.65613 237.285 10.5025C237.599 11.3488 237.723 12.3165 237.658 13.4055ZM242.073 25.2308C241.209 25.2308 240.463 25.0858 239.835 24.7958C239.214 24.4999 238.758 24.053 238.468 23.4553C238.184 22.8575 238.116 22.1117 238.264 21.218C238.394 20.4605 238.634 19.8242 238.983 19.3093C239.338 18.7885 239.773 18.3653 240.288 18.0398C240.809 17.7143 241.389 17.4657 242.028 17.294C242.668 17.1224 243.336 17.007 244.035 16.9478C244.816 16.8768 245.449 16.7998 245.935 16.717C246.426 16.6341 246.793 16.5187 247.035 16.3707C247.278 16.2169 247.426 16.0038 247.479 15.7315V15.6871C247.55 15.2314 247.453 14.8793 247.186 14.6307C246.92 14.3821 246.521 14.2578 245.988 14.2578C245.42 14.2578 244.934 14.3821 244.532 14.6307C244.129 14.8793 243.848 15.2225 243.688 15.6605L239.711 15.5185C239.96 14.6899 240.386 13.95 240.99 13.299C241.593 12.642 242.36 12.1271 243.289 11.7543C244.224 11.3755 245.304 11.1861 246.529 11.1861C247.393 11.1861 248.175 11.2897 248.873 11.4968C249.572 11.698 250.16 11.994 250.64 12.3846C251.125 12.7693 251.471 13.2428 251.679 13.805C251.886 14.3673 251.93 15.0095 251.812 15.7315L250.258 25H246.174L246.494 23.1001H246.387C246.068 23.5618 245.692 23.9524 245.26 24.272C244.834 24.5916 244.354 24.8313 243.822 24.9911C243.289 25.1509 242.706 25.2308 242.073 25.2308ZM243.902 22.3899C244.357 22.3899 244.789 22.2952 245.198 22.1058C245.606 21.9164 245.949 21.656 246.228 21.3246C246.512 20.9872 246.692 20.5966 246.769 20.1527L246.973 18.8565C246.849 18.9216 246.692 18.9808 246.503 19.0341C246.313 19.0874 246.112 19.1377 245.899 19.185C245.686 19.2264 245.467 19.2679 245.242 19.3093C245.023 19.3448 244.813 19.3774 244.612 19.407C244.186 19.4721 243.816 19.5727 243.502 19.7088C243.188 19.8449 242.937 20.0225 242.747 20.2415C242.564 20.4545 242.451 20.709 242.41 21.005C242.339 21.4489 242.443 21.7921 242.721 22.0348C242.999 22.2715 243.393 22.3899 243.902 22.3899ZM252.913 25L255.185 11.3636H259.402L258.985 13.8494H259.127C259.524 12.9498 260.041 12.281 260.681 11.843C261.32 11.3991 262.012 11.1772 262.758 11.1772C262.959 11.1772 263.161 11.192 263.362 11.2216C263.569 11.2453 263.764 11.2808 263.948 11.3281L263.309 15.1101C263.107 15.0331 262.844 14.9769 262.518 14.9414C262.193 14.9 261.897 14.8793 261.631 14.8793C261.116 14.8793 260.636 14.9947 260.192 15.2255C259.754 15.4504 259.382 15.767 259.074 16.1754C258.772 16.5779 258.574 17.0514 258.479 17.5959L257.254 25H252.913ZM263.435 25L265.708 11.3636H270.049L267.776 25H263.435ZM268.185 9.76562C267.569 9.76562 267.069 9.56143 266.684 9.15305C266.3 8.74467 266.149 8.25639 266.232 7.68821C266.314 7.11411 266.604 6.62583 267.102 6.22337C267.599 5.8209 268.152 5.61967 268.762 5.61967C269.377 5.61967 269.871 5.8209 270.244 6.22337C270.623 6.62583 270.771 7.11411 270.688 7.68821C270.617 8.25639 270.333 8.74467 269.836 9.15305C269.345 9.56143 268.794 9.76562 268.185 9.76562ZM270.54 25L273.558 6.81818H277.899L276.772 13.6985H276.861C277.097 13.2842 277.411 12.8847 277.802 12.5C278.198 12.1153 278.675 11.8016 279.231 11.5589C279.787 11.3104 280.424 11.1861 281.14 11.1861C282.087 11.1861 282.93 11.4347 283.67 11.9318C284.41 12.429 284.948 13.1954 285.286 14.2312C285.623 15.2669 285.658 16.5868 285.392 18.1907C285.138 19.7354 284.679 21.0286 284.016 22.0703C283.353 23.112 282.563 23.8932 281.646 24.4141C280.734 24.9349 279.775 25.1953 278.769 25.1953C278.083 25.1953 277.506 25.0829 277.038 24.858C276.576 24.633 276.207 24.3371 275.928 23.9702C275.656 23.6032 275.467 23.2096 275.36 22.7894H275.191L274.836 25H270.54ZM275.928 18.1818C275.81 18.9157 275.804 19.5549 275.911 20.0994C276.023 20.6439 276.239 21.0671 276.559 21.369C276.884 21.6649 277.313 21.8129 277.846 21.8129C278.379 21.8129 278.855 21.6649 279.275 21.369C279.696 21.0671 280.048 20.6439 280.332 20.0994C280.616 19.5549 280.817 18.9157 280.935 18.1818C281.054 17.4479 281.06 16.8117 280.953 16.2731C280.853 15.7345 280.642 15.3172 280.323 15.0213C280.003 14.7254 279.574 14.5774 279.036 14.5774C278.503 14.5774 278.024 14.7224 277.597 15.0124C277.177 15.3024 276.822 15.7167 276.532 16.2553C276.248 16.7939 276.047 17.4361 275.928 18.1818ZM286.531 25L289.549 6.81818H293.89L292.763 13.6985H292.852C293.088 13.2842 293.402 12.8847 293.793 12.5C294.189 12.1153 294.666 11.8016 295.222 11.5589C295.778 11.3104 296.415 11.1861 297.131 11.1861C298.078 11.1861 298.921 11.4347 299.661 11.9318C300.401 12.429 300.939 13.1954 301.277 14.2312C301.614 15.2669 301.65 16.5868 301.383 18.1907C301.129 19.7354 300.67 21.0286 300.007 22.0703C299.344 23.112 298.554 23.8932 297.637 24.4141C296.725 24.9349 295.767 25.1953 294.76 25.1953C294.074 25.1953 293.497 25.0829 293.029 24.858C292.568 24.633 292.198 24.3371 291.92 23.9702C291.647 23.6032 291.458 23.2096 291.351 22.7894H291.183L290.828 25H286.531ZM291.92 18.1818C291.801 18.9157 291.795 19.5549 291.902 20.0994C292.014 20.6439 292.23 21.0671 292.55 21.369C292.875 21.6649 293.305 21.8129 293.837 21.8129C294.37 21.8129 294.846 21.6649 295.267 21.369C295.687 21.0671 296.039 20.6439 296.323 20.0994C296.607 19.5549 296.808 18.9157 296.927 18.1818C297.045 17.4479 297.051 16.8117 296.944 16.2731C296.844 15.7345 296.634 15.3172 296.314 15.0213C295.994 14.7254 295.565 14.5774 295.027 14.5774C294.494 14.5774 294.015 14.7224 293.589 15.0124C293.168 15.3024 292.813 15.7167 292.523 16.2553C292.239 16.7939 292.038 17.4361 291.92 18.1818ZM308.861 25.2575C307.434 25.2575 306.251 24.9763 305.31 24.4141C304.374 23.8459 303.717 23.038 303.339 21.9904C302.96 20.9369 302.892 19.6851 303.134 18.2351C303.371 16.8265 303.854 15.5954 304.582 14.5419C305.315 13.4825 306.239 12.6598 307.351 12.0739C308.464 11.482 309.704 11.1861 311.071 11.1861C312.042 11.1861 312.903 11.337 313.655 11.6388C314.406 11.9407 315.028 12.3905 315.519 12.9883C316.01 13.5801 316.345 14.3081 316.522 15.1722C316.7 16.0363 316.694 17.0277 316.505 18.1463L316.336 19.2294H304.493L304.892 16.7081H312.705C312.776 16.2464 312.737 15.8351 312.589 15.4741C312.441 15.113 312.202 14.8319 311.87 14.6307C311.545 14.4235 311.145 14.32 310.672 14.32C310.192 14.32 309.743 14.4324 309.322 14.6573C308.908 14.8763 308.556 15.1722 308.266 15.5451C307.976 15.918 307.786 16.3382 307.698 16.8058L307.227 19.3892C307.132 19.9633 307.159 20.4545 307.307 20.8629C307.455 21.2713 307.71 21.585 308.071 21.804C308.432 22.017 308.896 22.1236 309.464 22.1236C309.843 22.1236 310.198 22.0733 310.53 21.9727C310.861 21.8661 311.157 21.7093 311.418 21.5021C311.684 21.2891 311.9 21.0316 312.066 20.7298L316.025 20.8452C315.706 21.7389 315.211 22.5172 314.543 23.18C313.874 23.837 313.057 24.349 312.092 24.7159C311.133 25.0769 310.056 25.2575 308.861 25.2575ZM321.394 25.2308C320.53 25.2308 319.784 25.0858 319.157 24.7958C318.535 24.4999 318.08 24.053 317.79 23.4553C317.506 22.8575 317.437 22.1117 317.585 21.218C317.716 20.4605 317.955 19.8242 318.305 19.3093C318.66 18.7885 319.095 18.3653 319.61 18.0398C320.13 17.7143 320.71 17.4657 321.35 17.294C321.989 17.1224 322.658 17.007 323.356 16.9478C324.137 16.8768 324.771 16.7998 325.256 16.717C325.747 16.6341 326.114 16.5187 326.357 16.3707C326.599 16.2169 326.747 16.0038 326.801 15.7315V15.6871C326.872 15.2314 326.774 14.8793 326.508 14.6307C326.241 14.3821 325.842 14.2578 325.309 14.2578C324.741 14.2578 324.256 14.3821 323.853 14.6307C323.451 14.8793 323.17 15.2225 323.01 15.6605L319.032 15.5185C319.281 14.6899 319.707 13.95 320.311 13.299C320.915 12.642 321.681 12.1271 322.61 11.7543C323.545 11.3755 324.626 11.1861 325.851 11.1861C326.715 11.1861 327.496 11.2897 328.194 11.4968C328.893 11.698 329.482 11.994 329.961 12.3846C330.446 12.7693 330.793 13.2428 331 13.805C331.207 14.3673 331.251 15.0095 331.133 15.7315L329.579 25H325.496L325.815 23.1001H325.709C325.389 23.5618 325.013 23.9524 324.581 24.272C324.155 24.5916 323.676 24.8313 323.143 24.9911C322.61 25.1509 322.027 25.2308 321.394 25.2308ZM323.223 22.3899C323.679 22.3899 324.111 22.2952 324.519 22.1058C324.927 21.9164 325.271 21.656 325.549 21.3246C325.833 20.9872 326.013 20.5966 326.09 20.1527L326.295 18.8565C326.17 18.9216 326.013 18.9808 325.824 19.0341C325.635 19.0874 325.433 19.1377 325.22 19.185C325.007 19.2264 324.788 19.2679 324.563 19.3093C324.344 19.3448 324.134 19.3774 323.933 19.407C323.507 19.4721 323.137 19.5727 322.823 19.7088C322.51 19.8449 322.258 20.0225 322.069 20.2415C321.885 20.4545 321.773 20.709 321.731 21.005C321.66 21.4489 321.764 21.7921 322.042 22.0348C322.32 22.2715 322.714 22.3899 323.223 22.3899ZM337.898 17.223L336.602 25H332.26L334.533 11.3636H338.661L338.253 13.8672H338.404C338.83 13.0327 339.449 12.3787 340.259 11.9052C341.07 11.4258 341.982 11.1861 342.994 11.1861C343.947 11.1861 344.743 11.3991 345.382 11.8253C346.021 12.2514 346.474 12.8492 346.74 13.6186C347.007 14.3821 347.051 15.2788 346.873 16.3086L345.417 25H341.076L342.381 17.1609C342.511 16.4092 342.42 15.8203 342.106 15.3942C341.798 14.9621 341.295 14.7461 340.597 14.7461C340.141 14.7461 339.724 14.8467 339.345 15.0479C338.972 15.2433 338.658 15.5244 338.404 15.8913C338.155 16.2583 337.987 16.7022 337.898 17.223Z" fill="#F4DDE4"/>
</g>
<defs>
<filter id="filter0_dd_68_6660" x="0.385525" y="0.641393" width="361.608" height="56.395" filterUnits="userSpaceOnUse" color-interpolation-filters="sRGB">
<feFlood flood-opacity="0" result="BackgroundImageFix"/>
<feColorMatrix in="SourceAlpha" type="matrix" values="0 0 0 0 0 0 0 0 0 0 0 0 0 0 0 0 0 0 127 0" result="hardAlpha"/>
<feOffset dx="1" dy="5.43135"/>
<feGaussianBlur stdDeviation="5.2048"/>
<feColorMatrix type="matrix" values="0 0 0 0 0 0 0 0 0 0 0 0 0 0 0 0 0 0 0.117297 0"/>
<feBlend mode="normal" in2="BackgroundImageFix" result="effect1_dropShadow_68_6660"/>
<feColorMatrix in="SourceAlpha" type="matrix" values="0 0 0 0 0 0 0 0 0 0 0 0 0 0 0 0 0 0 127 0" result="hardAlpha"/>
<feOffset dx="1" dy="13.0687"/>
<feGaussianBlur stdDeviation="6.9271"/>
<feColorMatrix type="matrix" values="0 0 0 0 0 0 0 0 0 0 0 0 0 0 0 0 0 0 0.0945694 0"/>
<feBlend mode="normal" in2="effect1_dropShadow_68_6660" result="effect2_dropShadow_68_6660"/>
<feBlend mode="normal" in="SourceGraphic" in2="effect2_dropShadow_68_6660" result="shape"/>
</filter>
</defs>
</svg>
