<svg width="352" height="149" viewBox="0 0 352 149" fill="none" xmlns="http://www.w3.org/2000/svg">
<g filter="url(#filter0_dd_223_11296)">
<path d="M13.5078 56.9091L16.5249 38.9091H20.6499L20.2834 41.1506H20.4112C20.6385 40.7528 20.9396 40.3693 21.3146 40C21.6953 39.6307 22.1527 39.3295 22.6868 39.0966C23.2209 38.858 23.8317 38.7386 24.5192 38.7386C25.4283 38.7386 26.2379 38.9773 26.9482 39.4545C27.6584 39.9318 28.1754 40.6676 28.4993 41.6619C28.8232 42.6562 28.8572 43.9233 28.6016 45.4631C28.3572 46.946 27.9141 48.1875 27.272 49.1875C26.6357 50.1875 25.88 50.9375 25.005 51.4375C24.13 51.9375 23.2124 52.1875 22.2521 52.1875C21.593 52.1875 21.0362 52.0795 20.5817 51.8636C20.1328 51.6477 19.7777 51.3636 19.5163 51.0114C19.255 50.6591 19.0732 50.2812 18.9709 49.8778H18.8516L17.6925 56.9091H13.5078ZM19.5163 45.4545C19.4027 46.1591 19.397 46.7727 19.4993 47.2955C19.6016 47.8182 19.8089 48.2244 20.1214 48.5142C20.4396 48.7983 20.8516 48.9403 21.3572 48.9403C21.8686 48.9403 22.3232 48.7983 22.7209 48.5142C23.1243 48.2244 23.4624 47.8182 23.7351 47.2955C24.0078 46.7727 24.2067 46.1591 24.3317 45.4545C24.4396 44.75 24.4425 44.1392 24.3402 43.6222C24.2436 43.1051 24.0419 42.7045 23.7351 42.4205C23.4283 42.1364 23.0163 41.9943 22.4993 41.9943C21.9936 41.9943 21.5334 42.1335 21.1186 42.4119C20.7095 42.6903 20.3686 43.0881 20.0959 43.6051C19.8232 44.1222 19.63 44.7386 19.5163 45.4545ZM35.8011 52.2472C34.4205 52.2472 33.2813 51.9631 32.3835 51.3949C31.4915 50.8267 30.8636 50.0341 30.5 49.017C30.1364 48 30.0653 46.8182 30.2869 45.4716C30.5085 44.1307 30.9659 42.9545 31.6591 41.9432C32.3523 40.9318 33.2386 40.1449 34.3182 39.5824C35.3977 39.0199 36.6222 38.7386 37.9915 38.7386C39.3665 38.7386 40.5 39.0227 41.392 39.5909C42.2898 40.1591 42.9205 40.9517 43.2841 41.9688C43.6534 42.9858 43.7273 44.1705 43.5057 45.5227C43.2841 46.8636 42.8239 48.0398 42.125 49.0511C41.4261 50.0568 40.5398 50.8409 39.4659 51.4034C38.392 51.9659 37.1705 52.2472 35.8011 52.2472ZM36.2699 49.1023C36.7812 49.1023 37.2386 48.9489 37.642 48.642C38.0511 48.3352 38.3949 47.9062 38.6733 47.3551C38.9517 46.804 39.1506 46.1648 39.2699 45.4375C39.3892 44.7216 39.4006 44.0938 39.304 43.554C39.2131 43.0085 39.0199 42.5852 38.7244 42.2841C38.429 41.9773 38.0284 41.8239 37.5227 41.8239C37.0114 41.8239 36.5511 41.9801 36.142 42.2926C35.733 42.5994 35.3892 43.0284 35.1108 43.5795C34.8381 44.125 34.642 44.7642 34.5227 45.4972C34.4034 46.2131 34.3892 46.8409 34.4801 47.3807C34.571 47.9205 34.767 48.3438 35.0682 48.6506C35.3693 48.9517 35.7699 49.1023 36.2699 49.1023ZM43.7656 56.9091L46.7827 38.9091H50.9077L50.5412 41.1506H50.669C50.8963 40.7528 51.1974 40.3693 51.5724 40C51.9531 39.6307 52.4105 39.3295 52.9446 39.0966C53.4787 38.858 54.0895 38.7386 54.777 38.7386C55.6861 38.7386 56.4957 38.9773 57.206 39.4545C57.9162 39.9318 58.4332 40.6676 58.7571 41.6619C59.081 42.6562 59.1151 43.9233 58.8594 45.4631C58.6151 46.946 58.1719 48.1875 57.5298 49.1875C56.8935 50.1875 56.1378 50.9375 55.2628 51.4375C54.3878 51.9375 53.4702 52.1875 52.5099 52.1875C51.8509 52.1875 51.294 52.0795 50.8395 51.8636C50.3906 51.6477 50.0355 51.3636 49.7741 51.0114C49.5128 50.6591 49.331 50.2812 49.2287 49.8778H49.1094L47.9503 56.9091H43.7656ZM49.7741 45.4545C49.6605 46.1591 49.6548 46.7727 49.7571 47.2955C49.8594 47.8182 50.0668 48.2244 50.3793 48.5142C50.6974 48.7983 51.1094 48.9403 51.6151 48.9403C52.1264 48.9403 52.581 48.7983 52.9787 48.5142C53.3821 48.2244 53.7202 47.8182 53.9929 47.2955C54.2656 46.7727 54.4645 46.1591 54.5895 45.4545C54.6974 44.75 54.7003 44.1392 54.598 43.6222C54.5014 43.1051 54.2997 42.7045 53.9929 42.4205C53.6861 42.1364 53.2741 41.9943 52.7571 41.9943C52.2514 41.9943 51.7912 42.1335 51.3764 42.4119C50.9673 42.6903 50.6264 43.0881 50.3537 43.6051C50.081 44.1222 49.8878 44.7386 49.7741 45.4545ZM59.1641 56.9091L62.1811 38.9091H66.3061L65.9396 41.1506H66.0675C66.2947 40.7528 66.5959 40.3693 66.9709 40C67.3516 39.6307 67.8089 39.3295 68.343 39.0966C68.8771 38.858 69.4879 38.7386 70.1754 38.7386C71.0845 38.7386 71.8942 38.9773 72.6044 39.4545C73.3146 39.9318 73.8317 40.6676 74.1555 41.6619C74.4794 42.6562 74.5135 43.9233 74.2578 45.4631C74.0135 46.946 73.5703 48.1875 72.9283 49.1875C72.2919 50.1875 71.5362 50.9375 70.6612 51.4375C69.7862 51.9375 68.8686 52.1875 67.9084 52.1875C67.2493 52.1875 66.6925 52.0795 66.2379 51.8636C65.7891 51.6477 65.4339 51.3636 65.1726 51.0114C64.9112 50.6591 64.7294 50.2812 64.6271 49.8778H64.5078L63.3487 56.9091H59.1641ZM65.1726 45.4545C65.0589 46.1591 65.0533 46.7727 65.1555 47.2955C65.2578 47.8182 65.4652 48.2244 65.7777 48.5142C66.0959 48.7983 66.5078 48.9403 67.0135 48.9403C67.5249 48.9403 67.9794 48.7983 68.3771 48.5142C68.7805 48.2244 69.1186 47.8182 69.3913 47.2955C69.6641 46.7727 69.8629 46.1591 69.9879 45.4545C70.0959 44.75 70.0987 44.1392 69.9964 43.6222C69.8999 43.1051 69.6982 42.7045 69.3913 42.4205C69.0845 42.1364 68.6726 41.9943 68.1555 41.9943C67.6499 41.9943 67.1896 42.1335 66.7749 42.4119C66.3658 42.6903 66.0249 43.0881 65.7521 43.6051C65.4794 44.1222 65.2862 44.7386 65.1726 45.4545ZM76.6804 56.9091C76.1804 56.9091 75.7145 56.8693 75.2827 56.7898C74.8565 56.7159 74.4929 56.6165 74.1918 56.4915L75.6236 53.4659C76.0043 53.6023 76.3537 53.679 76.6719 53.696C76.9957 53.7188 77.2855 53.6648 77.5412 53.5341C77.8026 53.4091 78.0298 53.1847 78.223 52.8608L78.4616 52.4602L76.0668 38.9091H80.277L81.1293 48.2585H81.2656L85.2713 38.9091H89.8139L82.5099 53.2528C82.1406 53.9688 81.6946 54.6023 81.1719 55.1534C80.6491 55.7045 80.0185 56.1335 79.2798 56.4403C78.5469 56.7528 77.6804 56.9091 76.6804 56.9091Z" fill="#EFD4CF"/>
</g>
<g filter="url(#filter1_dd_223_11296)">
<path d="M45.8191 99.598L45.9114 84.456H47.5733L56.16 72.5455H70.4711L56.0677 91.1037H52.4668L45.8191 99.598ZM34.3702 108V60.7273H47.1117V108H34.3702ZM56.2523 108L48.1273 93.9659L56.437 84.9176L70.8404 108H56.2523ZM83.6684 108.554C81.4063 108.554 79.4059 108.185 77.667 107.446C75.9435 106.692 74.5893 105.553 73.6045 104.03C72.6196 102.506 72.1272 100.567 72.1272 98.2131C72.1272 96.2741 72.4581 94.6199 73.1198 93.2504C73.7815 91.8654 74.7048 90.7344 75.8896 89.8572C77.0745 88.9801 78.4518 88.3107 80.0214 87.8491C81.6064 87.3874 83.3145 87.0874 85.1457 86.9489C87.1308 86.795 88.7235 86.6103 89.9237 86.3949C91.1394 86.1641 92.0165 85.8486 92.5551 85.4485C93.0937 85.033 93.363 84.4867 93.363 83.8097V83.7173C93.363 82.794 93.0091 82.0862 92.3012 81.5938C91.5934 81.1013 90.6855 80.8551 89.5775 80.8551C88.3618 80.8551 87.3693 81.1244 86.5999 81.663C85.8459 82.1862 85.3919 82.9941 85.238 84.0866H73.5122C73.666 81.9323 74.3508 79.9472 75.5665 78.1314C76.7976 76.3002 78.5903 74.8383 80.9447 73.7457C83.2991 72.6378 86.2383 72.0838 89.7622 72.0838C92.3012 72.0838 94.5787 72.3839 96.5945 72.984C98.6104 73.5688 100.326 74.392 101.742 75.4538C103.158 76.5002 104.235 77.7313 104.973 79.147C105.727 80.5473 106.104 82.0708 106.104 83.7173V108H94.194V103.014H93.917C93.2091 104.338 92.3474 105.407 91.3318 106.223C90.3315 107.038 89.1851 107.631 87.8925 108C86.6153 108.369 85.2072 108.554 83.6684 108.554ZM87.8232 100.521C88.7927 100.521 89.7006 100.321 90.547 99.9212C91.4087 99.5211 92.1089 98.944 92.6475 98.19C93.1861 97.436 93.4553 96.5204 93.4553 95.4432V92.4886C93.1168 92.6271 92.7552 92.7579 92.3705 92.881C92.0012 93.0041 91.6011 93.1196 91.1702 93.2273C90.7547 93.335 90.3084 93.435 89.8314 93.5273C89.3698 93.6197 88.885 93.7043 88.3772 93.7812C87.3924 93.9351 86.5845 94.189 85.9536 94.543C85.338 94.8815 84.8764 95.3047 84.5686 95.8125C84.2762 96.3049 84.1301 96.8589 84.1301 97.4744C84.1301 98.4593 84.4763 99.2133 85.1688 99.7365C85.8612 100.26 86.7461 100.521 87.8232 100.521ZM124.934 88.0568V108H112.192V72.5455H124.288V79.2855H124.657C125.426 77.0388 126.781 75.2769 128.719 73.9996C130.674 72.7224 132.951 72.0838 135.552 72.0838C138.06 72.0838 140.238 72.6609 142.084 73.815C143.946 74.9537 145.385 76.5233 146.401 78.5238C147.432 80.5243 147.939 82.8094 147.924 85.3793V108H135.183V88.0568C135.198 86.3026 134.752 84.9253 133.844 83.9251C132.951 82.9248 131.705 82.4247 130.104 82.4247C129.058 82.4247 128.142 82.6555 127.358 83.1172C126.588 83.5634 125.996 84.2098 125.58 85.0561C125.165 85.8871 124.949 86.8873 124.934 88.0568ZM171.295 122.034C167.74 122.034 164.693 121.526 162.154 120.511C159.631 119.51 157.669 118.125 156.268 116.356C154.883 114.602 154.106 112.586 153.937 110.308H166.217C166.34 111.062 166.648 111.67 167.14 112.132C167.633 112.593 168.263 112.924 169.033 113.124C169.818 113.34 170.695 113.447 171.664 113.447C173.311 113.447 174.673 113.047 175.75 112.247C176.842 111.447 177.389 110 177.389 107.908V101.906H177.019C176.558 103.107 175.85 104.13 174.896 104.976C173.942 105.807 172.795 106.446 171.456 106.892C170.118 107.323 168.648 107.538 167.048 107.538C164.524 107.538 162.2 106.954 160.077 105.784C157.969 104.615 156.276 102.76 154.999 100.221C153.737 97.6822 153.106 94.366 153.106 90.2727C153.106 85.9948 153.768 82.517 155.091 79.8395C156.43 77.1619 158.153 75.1999 160.262 73.9535C162.385 72.707 164.616 72.0838 166.955 72.0838C168.71 72.0838 170.249 72.3916 171.572 73.0071C172.895 73.6072 174.003 74.4151 174.896 75.4308C175.788 76.431 176.465 77.5312 176.927 78.7315H177.204V72.5455H189.945V107.908C189.945 110.908 189.168 113.455 187.614 115.548C186.075 117.656 183.906 119.264 181.105 120.372C178.304 121.48 175.034 122.034 171.295 122.034ZM171.757 98.4901C172.926 98.4901 173.926 98.1669 174.757 97.5206C175.604 96.8589 176.25 95.9202 176.696 94.7045C177.158 93.4735 177.389 91.9962 177.389 90.2727C177.389 88.5185 177.158 87.0181 176.696 85.7717C176.25 84.5098 175.604 83.5481 174.757 82.8864C173.926 82.2093 172.926 81.8707 171.757 81.8707C170.587 81.8707 169.587 82.2093 168.756 82.8864C167.94 83.5481 167.309 84.5098 166.863 85.7717C166.432 87.0181 166.217 88.5185 166.217 90.2727C166.217 92.027 166.432 93.5196 166.863 94.7507C167.309 95.9664 167.94 96.8974 168.756 97.5437C169.587 98.1746 170.587 98.4901 171.757 98.4901ZM206.305 108.554C204.043 108.554 202.043 108.185 200.304 107.446C198.58 106.692 197.226 105.553 196.241 104.03C195.256 102.506 194.764 100.567 194.764 98.2131C194.764 96.2741 195.095 94.6199 195.756 93.2504C196.418 91.8654 197.341 90.7344 198.526 89.8572C199.711 88.9801 201.089 88.3107 202.658 87.8491C204.243 87.3874 205.951 87.0874 207.782 86.9489C209.767 86.795 211.36 86.6103 212.56 86.3949C213.776 86.1641 214.653 85.8486 215.192 85.4485C215.73 85.033 216 84.4867 216 83.8097V83.7173C216 82.794 215.646 82.0862 214.938 81.5938C214.23 81.1013 213.322 80.8551 212.214 80.8551C210.999 80.8551 210.006 81.1244 209.237 81.663C208.483 82.1862 208.029 82.9941 207.875 84.0866H196.149C196.303 81.9323 196.988 79.9472 198.203 78.1314C199.434 76.3002 201.227 74.8383 203.581 73.7457C205.936 72.6378 208.875 72.0838 212.399 72.0838C214.938 72.0838 217.215 72.3839 219.231 72.984C221.247 73.5688 222.963 74.392 224.379 75.4538C225.794 76.5002 226.872 77.7313 227.61 79.147C228.364 80.5473 228.741 82.0708 228.741 83.7173V108H216.831V103.014H216.554C215.846 104.338 214.984 105.407 213.968 106.223C212.968 107.038 211.822 107.631 210.529 108C209.252 108.369 207.844 108.554 206.305 108.554ZM210.46 100.521C211.429 100.521 212.337 100.321 213.184 99.9212C214.045 99.5211 214.746 98.944 215.284 98.19C215.823 97.436 216.092 96.5204 216.092 95.4432V92.4886C215.754 92.6271 215.392 92.7579 215.007 92.881C214.638 93.0041 214.238 93.1196 213.807 93.2273C213.391 93.335 212.945 93.435 212.468 93.5273C212.006 93.6197 211.522 93.7043 211.014 93.7812C210.029 93.9351 209.221 94.189 208.59 94.543C207.975 94.8815 207.513 95.3047 207.205 95.8125C206.913 96.3049 206.767 96.8589 206.767 97.4744C206.767 98.4593 207.113 99.2133 207.805 99.7365C208.498 100.26 209.383 100.521 210.46 100.521ZM234.829 108V72.5455H247.201V79.2855H247.571C248.217 76.7926 249.24 74.9691 250.641 73.815C252.056 72.6609 253.711 72.0838 255.603 72.0838C256.157 72.0838 256.704 72.13 257.242 72.2223C257.796 72.2992 258.327 72.4147 258.835 72.5685V83.4403C258.204 83.2249 257.427 83.0633 256.504 82.9556C255.58 82.8479 254.788 82.794 254.126 82.794C252.88 82.794 251.756 83.0787 250.756 83.6481C249.771 84.2021 248.994 84.9869 248.425 86.0025C247.855 87.0027 247.571 88.1799 247.571 89.5341V108H234.829ZM278.062 108.646C274.215 108.646 270.922 107.885 268.183 106.361C265.444 104.822 263.344 102.683 261.882 99.9442C260.42 97.1897 259.689 93.9967 259.689 90.3651C259.689 86.7334 260.42 83.5481 261.882 80.8089C263.344 78.0544 265.444 75.9155 268.183 74.392C270.922 72.8532 274.215 72.0838 278.062 72.0838C281.91 72.0838 285.203 72.8532 287.942 74.392C290.681 75.9155 292.781 78.0544 294.243 80.8089C295.705 83.5481 296.436 86.7334 296.436 90.3651C296.436 93.9967 295.705 97.1897 294.243 99.9442C292.781 102.683 290.681 104.822 287.942 106.361C285.203 107.885 281.91 108.646 278.062 108.646ZM278.155 99.2287C279.232 99.2287 280.163 98.8671 280.948 98.1438C281.733 97.4206 282.34 96.3896 282.771 95.0508C283.202 93.712 283.418 92.1193 283.418 90.2727C283.418 88.4107 283.202 86.8181 282.771 85.4947C282.34 84.1559 281.733 83.1249 280.948 82.4016C280.163 81.6784 279.232 81.3168 278.155 81.3168C277.016 81.3168 276.039 81.6784 275.223 82.4016C274.408 83.1249 273.785 84.1559 273.354 85.4947C272.923 86.8181 272.707 88.4107 272.707 90.2727C272.707 92.1193 272.923 93.712 273.354 95.0508C273.785 96.3896 274.408 97.4206 275.223 98.1438C276.039 98.8671 277.016 99.2287 278.155 99.2287ZM318.688 108.646C314.84 108.646 311.547 107.885 308.808 106.361C306.069 104.822 303.969 102.683 302.507 99.9442C301.045 97.1897 300.314 93.9967 300.314 90.3651C300.314 86.7334 301.045 83.5481 302.507 80.8089C303.969 78.0544 306.069 75.9155 308.808 74.392C311.547 72.8532 314.84 72.0838 318.688 72.0838C322.535 72.0838 325.828 72.8532 328.567 74.392C331.306 75.9155 333.406 78.0544 334.868 80.8089C336.33 83.5481 337.061 86.7334 337.061 90.3651C337.061 93.9967 336.33 97.1897 334.868 99.9442C333.406 102.683 331.306 104.822 328.567 106.361C325.828 107.885 322.535 108.646 318.688 108.646ZM318.78 99.2287C319.857 99.2287 320.788 98.8671 321.573 98.1438C322.358 97.4206 322.965 96.3896 323.396 95.0508C323.827 93.712 324.043 92.1193 324.043 90.2727C324.043 88.4107 323.827 86.8181 323.396 85.4947C322.965 84.1559 322.358 83.1249 321.573 82.4016C320.788 81.6784 319.857 81.3168 318.78 81.3168C317.641 81.3168 316.664 81.6784 315.848 82.4016C315.033 83.1249 314.41 84.1559 313.979 85.4947C313.548 86.8181 313.332 88.4107 313.332 90.2727C313.332 92.1193 313.548 93.712 313.979 95.0508C314.41 96.3896 315.033 97.4206 315.848 98.1438C316.664 98.8671 317.641 99.2287 318.78 99.2287Z" fill="#EFD4CF"/>
</g>
<defs>
<filter id="filter0_dd_223_11296" x="0.653622" y="33.7604" width="104.014" height="50.0716" filterUnits="userSpaceOnUse" color-interpolation-filters="sRGB">
<feFlood flood-opacity="0" result="BackgroundImageFix"/>
<feColorMatrix in="SourceAlpha" type="matrix" values="0 0 0 0 0 0 0 0 0 0 0 0 0 0 0 0 0 0 127 0" result="hardAlpha"/>
<feOffset dx="1" dy="5.43135"/>
<feGaussianBlur stdDeviation="5.2048"/>
<feColorMatrix type="matrix" values="0 0 0 0 0 0 0 0 0 0 0 0 0 0 0 0 0 0 0.117297 0"/>
<feBlend mode="normal" in2="BackgroundImageFix" result="effect1_dropShadow_223_11296"/>
<feColorMatrix in="SourceAlpha" type="matrix" values="0 0 0 0 0 0 0 0 0 0 0 0 0 0 0 0 0 0 127 0" result="hardAlpha"/>
<feOffset dx="1" dy="13.0687"/>
<feGaussianBlur stdDeviation="6.9271"/>
<feColorMatrix type="matrix" values="0 0 0 0 0 0 0 0 0 0 0 0 0 0 0 0 0 0 0.0945694 0"/>
<feBlend mode="normal" in2="effect1_dropShadow_223_11296" result="effect2_dropShadow_223_11296"/>
<feBlend mode="normal" in="SourceGraphic" in2="effect2_dropShadow_223_11296" result="shape"/>
</filter>
<filter id="filter1_dd_223_11296" x="21.516" y="55.7491" width="330.399" height="93.2079" filterUnits="userSpaceOnUse" color-interpolation-filters="sRGB">
<feFlood flood-opacity="0" result="BackgroundImageFix"/>
<feColorMatrix in="SourceAlpha" type="matrix" values="0 0 0 0 0 0 0 0 0 0 0 0 0 0 0 0 0 0 127 0" result="hardAlpha"/>
<feOffset dx="1" dy="5.43135"/>
<feGaussianBlur stdDeviation="5.2048"/>
<feColorMatrix type="matrix" values="0 0 0 0 0 0 0 0 0 0 0 0 0 0 0 0 0 0 0.117297 0"/>
<feBlend mode="normal" in2="BackgroundImageFix" result="effect1_dropShadow_223_11296"/>
<feColorMatrix in="SourceAlpha" type="matrix" values="0 0 0 0 0 0 0 0 0 0 0 0 0 0 0 0 0 0 127 0" result="hardAlpha"/>
<feOffset dx="1" dy="13.0687"/>
<feGaussianBlur stdDeviation="6.9271"/>
<feColorMatrix type="matrix" values="0 0 0 0 0 0 0 0 0 0 0 0 0 0 0 0 0 0 0.0945694 0"/>
<feBlend mode="normal" in2="effect1_dropShadow_223_11296" result="effect2_dropShadow_223_11296"/>
<feBlend mode="normal" in="SourceGraphic" in2="effect2_dropShadow_223_11296" result="shape"/>
</filter>
</defs>
</svg>
