<svg width="313" height="98" viewBox="0 0 313 98" fill="none" xmlns="http://www.w3.org/2000/svg">
<g filter="url(#filter0_dd_264_12336)">
<path d="M13.7301 70.3182V17.8182H27.3523V24.4801H27.6506C28.1477 23.1875 28.8769 22.0026 29.8381 20.9254C30.7992 19.8317 31.9924 18.9616 33.4176 18.3153C34.8428 17.6525 36.5 17.321 38.3892 17.321C40.9081 17.321 43.3028 17.9922 45.5732 19.3345C47.8601 20.6768 49.7161 22.7898 51.1413 25.6733C52.5831 28.5568 53.304 32.3021 53.304 36.9091C53.304 41.3172 52.6162 44.9714 51.2408 47.8714C49.8819 50.7715 48.0589 52.9342 45.772 54.3594C43.5017 55.7846 41.0076 56.4972 38.2898 56.4972C36.5 56.4972 34.9008 56.2071 33.4922 55.6271C32.1001 55.0305 30.907 54.2268 29.9126 53.2159C28.9349 52.1884 28.1809 51.0284 27.6506 49.7358H27.4517V70.3182H13.7301ZM27.1534 36.9091C27.1534 38.7652 27.3937 40.3726 27.8743 41.7315C28.3714 43.0739 29.0675 44.1179 29.9624 44.8636C30.8738 45.5928 31.9593 45.9574 33.2188 45.9574C34.4782 45.9574 35.5471 45.6011 36.4254 44.8885C37.3203 44.1593 37.9998 43.1236 38.4638 41.7812C38.9444 40.4223 39.1847 38.7983 39.1847 36.9091C39.1847 35.0199 38.9444 33.4041 38.4638 32.0618C37.9998 30.7029 37.3203 29.6671 36.4254 28.9545C35.5471 28.2254 34.4782 27.8608 33.2188 27.8608C31.9593 27.8608 30.8738 28.2254 29.9624 28.9545C29.0675 29.6671 28.3714 30.7029 27.8743 32.0618C27.3937 33.4041 27.1534 35.0199 27.1534 36.9091ZM77.4473 56.696C73.3043 56.696 69.7579 55.8757 66.8081 54.2351C63.8583 52.5779 61.5962 50.2744 60.0218 47.3246C58.4475 44.3582 57.6603 40.9195 57.6603 37.0085C57.6603 33.0975 58.4475 29.6671 60.0218 26.7173C61.5962 23.7509 63.8583 21.4474 66.8081 19.8068C69.7579 18.1496 73.3043 17.321 77.4473 17.321C81.5903 17.321 85.1367 18.1496 88.0865 19.8068C91.0363 21.4474 93.2984 23.7509 94.8727 26.7173C96.447 29.6671 97.2342 33.0975 97.2342 37.0085C97.2342 40.9195 96.447 44.3582 94.8727 47.3246C93.2984 50.2744 91.0363 52.5779 88.0865 54.2351C85.1367 55.8757 81.5903 56.696 77.4473 56.696ZM77.5467 46.554C78.7067 46.554 79.7093 46.1645 80.5545 45.3857C81.3997 44.6068 82.0543 43.4964 82.5183 42.0547C82.9823 40.6129 83.2143 38.8977 83.2143 36.9091C83.2143 34.9039 82.9823 33.1887 82.5183 31.7635C82.0543 30.3217 81.3997 29.2114 80.5545 28.4325C79.7093 27.6536 78.7067 27.2642 77.5467 27.2642C76.3204 27.2642 75.2681 27.6536 74.3897 28.4325C73.5114 29.2114 72.8403 30.3217 72.3762 31.7635C71.9122 33.1887 71.6802 34.9039 71.6802 36.9091C71.6802 38.8977 71.9122 40.6129 72.3762 42.0547C72.8403 43.4964 73.5114 44.6068 74.3897 45.3857C75.2681 46.1645 76.3204 46.554 77.5467 46.554ZM137.703 30.2472H125.075C125.009 29.4683 124.735 28.7971 124.255 28.2337C123.774 27.6702 123.153 27.2393 122.39 26.9411C121.645 26.6262 120.816 26.4688 119.905 26.4688C118.728 26.4688 117.717 26.6842 116.872 27.1151C116.027 27.5459 115.613 28.1591 115.629 28.9545C115.613 29.518 115.853 30.04 116.35 30.5206C116.864 31.0012 117.85 31.3741 119.308 31.6392L127.064 33.0312C130.975 33.7438 133.883 34.9453 135.789 36.6357C137.711 38.3094 138.681 40.5549 138.697 43.3722C138.681 46.09 137.869 48.4515 136.261 50.4567C134.67 52.4453 132.491 53.9865 129.724 55.0803C126.973 56.1574 123.832 56.696 120.302 56.696C114.469 56.696 109.903 55.5028 106.606 53.1165C103.324 50.7301 101.493 47.5814 101.112 43.6705H114.734C114.916 44.8802 115.513 45.8165 116.524 46.4794C117.551 47.1257 118.844 47.4489 120.402 47.4489C121.661 47.4489 122.697 47.2334 123.509 46.8026C124.338 46.3717 124.76 45.7585 124.777 44.9631C124.76 44.2339 124.396 43.6539 123.683 43.223C122.987 42.7921 121.893 42.4441 120.402 42.179L113.64 40.9858C109.746 40.3063 106.829 39.0137 104.89 37.108C102.952 35.2022 101.99 32.7495 102.007 29.75C101.99 27.0985 102.686 24.853 104.095 23.0135C105.52 21.1574 107.55 19.7488 110.185 18.7876C112.837 17.8099 115.977 17.321 119.606 17.321C125.125 17.321 129.475 18.4645 132.657 20.7514C135.855 23.0384 137.537 26.2036 137.703 30.2472ZM166.725 17.8182V27.7614H141.568V17.8182H166.725ZM146.441 8.67045H160.162V43.7202C160.162 44.2505 160.253 44.6979 160.436 45.0625C160.618 45.4105 160.9 45.6757 161.281 45.858C161.662 46.0237 162.151 46.1065 162.747 46.1065C163.162 46.1065 163.642 46.0568 164.189 45.9574C164.753 45.858 165.167 45.7751 165.432 45.7088L167.421 55.3537C166.807 55.536 165.929 55.7597 164.786 56.0249C163.659 56.29 162.316 56.464 160.759 56.5469C157.61 56.7126 154.967 56.3894 152.829 55.5774C150.691 54.7488 149.084 53.4479 148.007 51.6747C146.929 49.9015 146.407 47.6809 146.441 45.0128V8.67045ZM172.945 56V5.09091H186.667V24.4801H186.866C187.363 23.1875 188.092 22.0026 189.053 20.9254C190.014 19.8317 191.208 18.9616 192.633 18.3153C194.058 17.6525 195.715 17.321 197.604 17.321C200.123 17.321 202.518 17.9922 204.788 19.3345C207.075 20.6768 208.931 22.7898 210.357 25.6733C211.798 28.5568 212.519 32.3021 212.519 36.9091C212.519 41.3172 211.831 44.9714 210.456 47.8714C209.097 50.7715 207.274 52.9342 204.987 54.3594C202.717 55.7846 200.223 56.4972 197.505 56.4972C195.715 56.4972 194.116 56.2071 192.707 55.6271C191.315 55.0305 190.122 54.2268 189.128 53.2159C188.15 52.1884 187.396 51.0284 186.866 49.7358H186.567V56H172.945ZM186.369 36.9091C186.369 38.7652 186.609 40.3726 187.089 41.7315C187.587 43.0739 188.283 44.1179 189.178 44.8636C190.089 45.5928 191.174 45.9574 192.434 45.9574C193.693 45.9574 194.762 45.6011 195.641 44.8885C196.536 44.1593 197.215 43.1236 197.679 41.7812C198.16 40.4223 198.4 38.7983 198.4 36.9091C198.4 35.0199 198.16 33.4041 197.679 32.0618C197.215 30.7029 196.536 29.6671 195.641 28.9545C194.762 28.2254 193.693 27.8608 192.434 27.8608C191.174 27.8608 190.089 28.2254 189.178 28.9545C188.283 29.6671 187.587 30.7029 187.089 32.0618C186.609 33.4041 186.369 35.0199 186.369 36.9091ZM236.656 56.696C232.513 56.696 228.967 55.8757 226.017 54.2351C223.067 52.5779 220.805 50.2744 219.231 47.3246C217.656 44.3582 216.869 40.9195 216.869 37.0085C216.869 33.0975 217.656 29.6671 219.231 26.7173C220.805 23.7509 223.067 21.4474 226.017 19.8068C228.967 18.1496 232.513 17.321 236.656 17.321C240.799 17.321 244.346 18.1496 247.295 19.8068C250.245 21.4474 252.507 23.7509 254.082 26.7173C255.656 29.6671 256.443 33.0975 256.443 37.0085C256.443 40.9195 255.656 44.3582 254.082 47.3246C252.507 50.2744 250.245 52.5779 247.295 54.2351C244.346 55.8757 240.799 56.696 236.656 56.696ZM236.756 46.554C237.916 46.554 238.918 46.1645 239.763 45.3857C240.609 44.6068 241.263 43.4964 241.727 42.0547C242.191 40.6129 242.423 38.8977 242.423 36.9091C242.423 34.9039 242.191 33.1887 241.727 31.7635C241.263 30.3217 240.609 29.2114 239.763 28.4325C238.918 27.6536 237.916 27.2642 236.756 27.2642C235.529 27.2642 234.477 27.6536 233.599 28.4325C232.72 29.2114 232.049 30.3217 231.585 31.7635C231.121 33.1887 230.889 34.9039 230.889 36.9091C230.889 38.8977 231.121 40.6129 231.585 42.0547C232.049 43.4964 232.72 44.6068 233.599 45.3857C234.477 46.1645 235.529 46.554 236.756 46.554ZM272.545 17.8182L278.113 29.6506L283.98 17.8182H297.602L287.36 36.9091L298.099 56H284.576L278.113 43.8693L271.849 56H258.127L268.965 36.9091L258.823 17.8182H272.545Z" fill="#FDF6E2"/>
</g>
<defs>
<filter id="filter0_dd_264_12336" x="0.876034" y="0.112585" width="312.077" height="97.1287" filterUnits="userSpaceOnUse" color-interpolation-filters="sRGB">
<feFlood flood-opacity="0" result="BackgroundImageFix"/>
<feColorMatrix in="SourceAlpha" type="matrix" values="0 0 0 0 0 0 0 0 0 0 0 0 0 0 0 0 0 0 127 0" result="hardAlpha"/>
<feOffset dx="1" dy="5.43135"/>
<feGaussianBlur stdDeviation="5.2048"/>
<feColorMatrix type="matrix" values="0 0 0 0 0 0 0 0 0 0 0 0 0 0 0 0 0 0 0.117297 0"/>
<feBlend mode="normal" in2="BackgroundImageFix" result="effect1_dropShadow_264_12336"/>
<feColorMatrix in="SourceAlpha" type="matrix" values="0 0 0 0 0 0 0 0 0 0 0 0 0 0 0 0 0 0 127 0" result="hardAlpha"/>
<feOffset dx="1" dy="13.0687"/>
<feGaussianBlur stdDeviation="6.9271"/>
<feColorMatrix type="matrix" values="0 0 0 0 0 0 0 0 0 0 0 0 0 0 0 0 0 0 0.0945694 0"/>
<feBlend mode="normal" in2="effect1_dropShadow_264_12336" result="effect2_dropShadow_264_12336"/>
<feBlend mode="normal" in="SourceGraphic" in2="effect2_dropShadow_264_12336" result="shape"/>
</filter>
</defs>
</svg>
