<svg width="353" height="84" viewBox="0 0 353 84" fill="none" xmlns="http://www.w3.org/2000/svg">
<g filter="url(#filter0_dd_264_12421)">
<path d="M49.5721 30.2472H36.9442C36.878 29.4683 36.6045 28.7971 36.1239 28.2337C35.6433 27.6702 35.0219 27.2393 34.2596 26.9411C33.5138 26.6262 32.6853 26.4688 31.7738 26.4688C30.5972 26.4688 29.5863 26.6842 28.7411 27.1151C27.896 27.5459 27.4817 28.1591 27.4982 28.9545C27.4817 29.518 27.7219 30.04 28.2191 30.5206C28.7328 31.0012 29.7189 31.3741 31.1772 31.6392L38.9329 33.0312C42.8439 33.7438 45.7523 34.9453 47.658 36.6357C49.5804 38.3094 50.5498 40.5549 50.5664 43.3722C50.5498 46.09 49.7378 48.4515 48.1303 50.4567C46.5394 52.4453 44.3602 53.9865 41.5927 55.0803C38.8417 56.1574 35.7013 56.696 32.1715 56.696C26.3382 56.696 21.7726 55.5028 18.4748 53.1165C15.1935 50.7301 13.3623 47.5814 12.9812 43.6705H26.6033C26.7856 44.8802 27.3822 45.8165 28.3931 46.4794C29.4206 47.1257 30.7132 47.4489 32.271 47.4489C33.5304 47.4489 34.5662 47.2334 35.3782 46.8026C36.2068 46.3717 36.6294 45.7585 36.646 44.9631C36.6294 44.2339 36.2648 43.6539 35.5522 43.223C34.8562 42.7921 33.7624 42.4441 32.271 42.179L25.5096 40.9858C21.6152 40.3063 18.6985 39.0137 16.7596 37.108C14.8207 35.2022 13.8595 32.7495 13.8761 29.75C13.8595 27.0985 14.5555 24.853 15.9641 23.0135C17.3893 21.1574 19.4194 19.7488 22.0543 18.7876C24.7058 17.8099 27.8462 17.321 31.4755 17.321C36.994 17.321 41.3441 18.4645 44.5259 20.7514C47.7243 23.0384 49.4064 26.2036 49.5721 30.2472ZM74.2188 56.696C70.0758 56.696 66.5294 55.8757 63.5795 54.2351C60.6297 52.5779 58.3677 50.2744 56.7933 47.3246C55.219 44.3582 54.4318 40.9195 54.4318 37.0085C54.4318 33.0975 55.219 29.6671 56.7933 26.7173C58.3677 23.7509 60.6297 21.4474 63.5795 19.8068C66.5294 18.1496 70.0758 17.321 74.2188 17.321C78.3617 17.321 81.9081 18.1496 84.858 19.8068C87.8078 21.4474 90.0698 23.7509 91.6442 26.7173C93.2185 29.6671 94.0057 33.0975 94.0057 37.0085C94.0057 40.9195 93.2185 44.3582 91.6442 47.3246C90.0698 50.2744 87.8078 52.5779 84.858 54.2351C81.9081 55.8757 78.3617 56.696 74.2188 56.696ZM74.3182 46.554C75.4782 46.554 76.4808 46.1645 77.326 45.3857C78.1712 44.6068 78.8258 43.4964 79.2898 42.0547C79.7538 40.6129 79.9858 38.8977 79.9858 36.9091C79.9858 34.9039 79.7538 33.1887 79.2898 31.7635C78.8258 30.3217 78.1712 29.2114 77.326 28.4325C76.4808 27.6536 75.4782 27.2642 74.3182 27.2642C73.0919 27.2642 72.0395 27.6536 71.1612 28.4325C70.2829 29.2114 69.6117 30.3217 69.1477 31.7635C68.6837 33.1887 68.4517 34.9039 68.4517 36.9091C68.4517 38.8977 68.6837 40.6129 69.1477 42.0547C69.6117 43.4964 70.2829 44.6068 71.1612 45.3857C72.0395 46.1645 73.0919 46.554 74.3182 46.554ZM124.332 39.2955V17.8182H138.054V56H125.028V48.7415H124.631C123.802 51.1776 122.352 53.0833 120.281 54.4588C118.209 55.8177 115.748 56.4972 112.898 56.4972C110.23 56.4972 107.893 55.884 105.888 54.6577C103.899 53.4313 102.35 51.741 101.239 49.5866C100.146 47.4323 99.5904 44.9631 99.5739 42.179V17.8182H113.295V39.2955C113.312 41.1847 113.793 42.6678 114.737 43.745C115.698 44.8222 117.041 45.3608 118.764 45.3608C119.908 45.3608 120.894 45.1205 121.722 44.6399C122.567 44.1428 123.214 43.4467 123.661 42.5518C124.125 41.6404 124.349 40.5549 124.332 39.2955ZM158.754 5.09091V56H145.033V5.09091H158.754ZM165.746 56V17.8182H178.771V25.0767H179.169C179.964 22.6903 181.323 20.8011 183.246 19.4091C185.168 18.017 187.455 17.321 190.107 17.321C192.791 17.321 195.103 18.0336 197.042 19.4588C198.981 20.8674 200.149 22.7401 200.547 25.0767H200.945C201.591 22.7401 202.966 20.8674 205.071 19.4588C207.176 18.0336 209.645 17.321 212.479 17.321C216.141 17.321 219.107 18.4976 221.378 20.8509C223.665 23.2041 224.808 26.3362 224.808 30.2472V56H211.087V33.7273C211.087 32.0535 210.664 30.7443 209.819 29.7997C208.974 28.8385 207.839 28.358 206.413 28.358C205.005 28.358 203.886 28.8385 203.058 29.7997C202.246 30.7443 201.839 32.0535 201.839 33.7273V56H188.714V33.7273C188.714 32.0535 188.292 30.7443 187.447 29.7997C186.602 28.8385 185.466 28.358 184.041 28.358C183.097 28.358 182.285 28.5734 181.605 29.0043C180.926 29.4351 180.395 30.0566 180.014 30.8686C179.65 31.6641 179.467 32.617 179.467 33.7273V56H165.746ZM242.215 56.5966C239.779 56.5966 237.625 56.1989 235.752 55.4034C233.896 54.5914 232.438 53.3651 231.377 51.7244C230.316 50.0838 229.786 47.9957 229.786 45.4602C229.786 43.3722 230.142 41.5907 230.855 40.1158C231.568 38.6243 232.562 37.4062 233.838 36.4616C235.114 35.517 236.597 34.7962 238.287 34.299C239.994 33.8018 241.834 33.4787 243.806 33.3295C245.944 33.1638 247.659 32.965 248.952 32.733C250.261 32.4844 251.205 32.1446 251.785 31.7138C252.365 31.2663 252.655 30.678 252.655 29.9489V29.8494C252.655 28.8551 252.274 28.0928 251.512 27.5625C250.75 27.0322 249.772 26.767 248.579 26.767C247.269 26.767 246.201 27.0571 245.372 27.6371C244.56 28.2005 244.071 29.0705 243.905 30.2472H231.278C231.443 27.9271 232.181 25.7893 233.49 23.8338C234.816 21.8617 236.746 20.2874 239.282 19.1108C241.817 17.9176 244.983 17.321 248.778 17.321C251.512 17.321 253.965 17.6442 256.135 18.2905C258.306 18.9202 260.154 19.8068 261.679 20.9503C263.203 22.0772 264.363 23.4029 265.159 24.9276C265.971 26.4356 266.377 28.0762 266.377 29.8494V56H253.55V50.6307H253.252C252.49 52.0559 251.562 53.2076 250.468 54.0859C249.391 54.9643 248.156 55.6023 246.764 56C245.389 56.3977 243.872 56.5966 242.215 56.5966ZM246.689 47.946C247.733 47.946 248.711 47.7306 249.623 47.2997C250.551 46.8688 251.305 46.2474 251.885 45.4354C252.465 44.6233 252.755 43.6373 252.755 42.4773V39.2955C252.39 39.4446 252.001 39.5855 251.586 39.718C251.189 39.8506 250.758 39.9749 250.294 40.0909C249.846 40.2069 249.366 40.3146 248.852 40.4141C248.355 40.5135 247.833 40.6046 247.286 40.6875C246.225 40.8532 245.355 41.1267 244.676 41.5078C244.013 41.8724 243.516 42.3281 243.184 42.875C242.87 43.4053 242.712 44.0019 242.712 44.6648C242.712 45.7254 243.085 46.5374 243.831 47.1009C244.577 47.6643 245.529 47.946 246.689 47.946ZM295.703 17.8182V27.7614H270.547V17.8182H295.703ZM275.419 8.67045H289.141V43.7202C289.141 44.2505 289.232 44.6979 289.414 45.0625C289.596 45.4105 289.878 45.6757 290.259 45.858C290.64 46.0237 291.129 46.1065 291.726 46.1065C292.14 46.1065 292.621 46.0568 293.168 45.9574C293.731 45.858 294.145 45.7751 294.411 45.7088L296.399 55.3537C295.786 55.536 294.908 55.7597 293.764 56.0249C292.637 56.29 291.295 56.464 289.737 56.5469C286.589 56.7126 283.945 56.3894 281.808 55.5774C279.67 54.7488 278.062 53.4479 276.985 51.6747C275.908 49.9015 275.386 47.6809 275.419 45.0128V8.67045ZM319.188 56.696C315.111 56.696 311.598 55.9171 308.648 54.3594C305.715 52.785 303.453 50.5312 301.862 47.598C300.287 44.6482 299.5 41.1184 299.5 37.0085C299.5 33.0644 300.296 29.6174 301.887 26.6676C303.477 23.7178 305.723 21.4226 308.623 19.782C311.523 18.1413 314.945 17.321 318.889 17.321C321.773 17.321 324.383 17.7685 326.72 18.6634C329.056 19.5582 331.053 20.8591 332.71 22.5661C334.368 24.2564 335.644 26.3113 336.539 28.7308C337.433 31.1503 337.881 33.8764 337.881 36.9091V40.0909H303.776V32.5341H325.253C325.236 31.4403 324.955 30.4792 324.408 29.6506C323.878 28.8054 323.157 28.1508 322.245 27.6868C321.35 27.2062 320.331 26.9659 319.188 26.9659C318.077 26.9659 317.058 27.2062 316.13 27.6868C315.202 28.1508 314.456 28.7971 313.893 29.6257C313.346 30.4543 313.056 31.4238 313.023 32.5341V40.6875C313.023 41.9138 313.28 43.0076 313.794 43.9688C314.307 44.9299 315.045 45.6839 316.006 46.2308C316.967 46.7777 318.127 47.0511 319.486 47.0511C320.431 47.0511 321.292 46.9186 322.071 46.6534C322.867 46.3883 323.546 46.0071 324.11 45.5099C324.673 44.9962 325.087 44.383 325.352 43.6705H337.881C337.45 46.322 336.431 48.6255 334.823 50.581C333.216 52.5199 331.086 54.0279 328.435 55.1051C325.8 56.1657 322.718 56.696 319.188 56.696Z" fill="#FDF6E2"/>
</g>
<defs>
<filter id="filter0_dd_264_12421" x="0.12701" y="0.112585" width="352.608" height="83.6057" filterUnits="userSpaceOnUse" color-interpolation-filters="sRGB">
<feFlood flood-opacity="0" result="BackgroundImageFix"/>
<feColorMatrix in="SourceAlpha" type="matrix" values="0 0 0 0 0 0 0 0 0 0 0 0 0 0 0 0 0 0 127 0" result="hardAlpha"/>
<feOffset dx="1" dy="5.43135"/>
<feGaussianBlur stdDeviation="5.2048"/>
<feColorMatrix type="matrix" values="0 0 0 0 0 0 0 0 0 0 0 0 0 0 0 0 0 0 0.117297 0"/>
<feBlend mode="normal" in2="BackgroundImageFix" result="effect1_dropShadow_264_12421"/>
<feColorMatrix in="SourceAlpha" type="matrix" values="0 0 0 0 0 0 0 0 0 0 0 0 0 0 0 0 0 0 127 0" result="hardAlpha"/>
<feOffset dx="1" dy="13.0687"/>
<feGaussianBlur stdDeviation="6.9271"/>
<feColorMatrix type="matrix" values="0 0 0 0 0 0 0 0 0 0 0 0 0 0 0 0 0 0 0.0945694 0"/>
<feBlend mode="normal" in2="effect1_dropShadow_264_12421" result="effect2_dropShadow_264_12421"/>
<feBlend mode="normal" in="SourceGraphic" in2="effect2_dropShadow_264_12421" result="shape"/>
</filter>
</defs>
</svg>
