<svg width="270" height="61" viewBox="0 0 270 61" fill="none" xmlns="http://www.w3.org/2000/svg">
<g filter="url(#filter0_dd_68_6734)">
<path d="M13.4716 9.46449L14.196 5.18182H32.6371L31.9126 9.46449H25.2969L22.3991 27H17.2003L20.098 9.46449H13.4716ZM33.9341 27.277C32.8972 27.277 32.0023 27.103 31.2495 26.755C30.5037 26.3999 29.9569 25.8636 29.6088 25.1463C29.2679 24.429 29.1863 23.5341 29.3638 22.4616C29.5201 21.5526 29.8077 20.7891 30.2267 20.1712C30.6529 19.5462 31.1749 19.0384 31.7928 18.6477C32.4178 18.2571 33.1138 17.9588 33.8809 17.7528C34.6479 17.5469 35.4505 17.4084 36.2885 17.3374C37.226 17.2521 37.986 17.1598 38.5684 17.0604C39.1578 16.9609 39.5982 16.8224 39.8894 16.6449C40.1806 16.4602 40.3581 16.2045 40.4221 15.8778V15.8246C40.5073 15.2777 40.3901 14.8551 40.0705 14.5568C39.7509 14.2585 39.2715 14.1094 38.6323 14.1094C37.9505 14.1094 37.3681 14.2585 36.8851 14.5568C36.4022 14.8551 36.0648 15.267 35.873 15.7926L31.1003 15.6222C31.3986 14.6278 31.91 13.7401 32.6344 12.9588C33.3588 12.1705 34.2786 11.5526 35.3936 11.1051C36.5158 10.6506 37.812 10.4233 39.2821 10.4233C40.3191 10.4233 41.2566 10.5476 42.0946 10.7962C42.9327 11.0376 43.6394 11.3928 44.2147 11.8615C44.7971 12.3232 45.2125 12.8913 45.4611 13.5661C45.7097 14.2408 45.763 15.0114 45.6209 15.8778L43.7566 27H38.856L39.2395 24.7202H39.1117C38.7282 25.2741 38.2772 25.7429 37.7587 26.1264C37.2473 26.5099 36.6721 26.7976 36.0328 26.9893C35.3936 27.1811 34.6941 27.277 33.9341 27.277ZM36.1287 23.8679C36.6756 23.8679 37.1941 23.7543 37.6841 23.527C38.1742 23.2997 38.5861 22.9872 38.9199 22.5895C39.2608 22.1847 39.4775 21.7159 39.5698 21.1832L39.8148 19.6278C39.6657 19.706 39.4775 19.777 39.2502 19.8409C39.0229 19.9048 38.7814 19.9652 38.5257 20.022C38.2701 20.0717 38.0073 20.1214 37.7374 20.1712C37.4746 20.2138 37.2225 20.2528 36.981 20.2884C36.4696 20.3665 36.0257 20.4872 35.6493 20.6506C35.2729 20.8139 34.9711 21.027 34.7438 21.2898C34.5236 21.5455 34.3887 21.8509 34.339 22.206C34.2537 22.7386 34.378 23.1506 34.7118 23.4418C35.0456 23.7259 35.5179 23.8679 36.1287 23.8679ZM46.9419 27L49.6692 10.6364H54.7296L54.2289 13.6193H54.3993C54.8752 12.5398 55.4966 11.7372 56.2637 11.2116C57.0307 10.679 57.8617 10.4126 58.7566 10.4126C58.998 10.4126 59.2395 10.4304 59.481 10.4659C59.7296 10.4943 59.964 10.5369 60.1841 10.5938L59.4171 15.1321C59.1756 15.0398 58.8596 14.9723 58.4689 14.9297C58.0783 14.88 57.7232 14.8551 57.4036 14.8551C56.7857 14.8551 56.2104 14.9936 55.6777 15.2706C55.1522 15.5405 54.7047 15.9205 54.3354 16.4105C53.9732 16.8935 53.7353 17.4616 53.6216 18.1151L52.1515 27H46.9419ZM59.5689 27L62.2962 10.6364H67.3565L66.8558 13.6193H67.0263C67.5021 12.5398 68.1236 11.7372 68.8906 11.2116C69.6577 10.679 70.4886 10.4126 71.3835 10.4126C71.625 10.4126 71.8665 10.4304 72.108 10.4659C72.3565 10.4943 72.5909 10.5369 72.8111 10.5938L72.044 15.1321C71.8026 15.0398 71.4865 14.9723 71.0959 14.9297C70.7053 14.88 70.3501 14.8551 70.0305 14.8551C69.4126 14.8551 68.8374 14.9936 68.3047 15.2706C67.7791 15.5405 67.3317 15.9205 66.9624 16.4105C66.6001 16.8935 66.3622 17.4616 66.2486 18.1151L64.7784 27H59.5689ZM76.1509 27.277C75.114 27.277 74.2191 27.103 73.4663 26.755C72.7205 26.3999 72.1737 25.8636 71.8256 25.1463C71.4847 24.429 71.4031 23.5341 71.5806 22.4616C71.7369 21.5526 72.0245 20.7891 72.4435 20.1712C72.8697 19.5462 73.3917 19.0384 74.0096 18.6477C74.6346 18.2571 75.3306 17.9588 76.0977 17.7528C76.8647 17.5469 77.6673 17.4084 78.5053 17.3374C79.4428 17.2521 80.2028 17.1598 80.7852 17.0604C81.3746 16.9609 81.815 16.8224 82.1062 16.6449C82.3974 16.4602 82.5749 16.2045 82.6388 15.8778V15.8246C82.7241 15.2777 82.6069 14.8551 82.2873 14.5568C81.9677 14.2585 81.4883 14.1094 80.8491 14.1094C80.1673 14.1094 79.5849 14.2585 79.1019 14.5568C78.619 14.8551 78.2816 15.267 78.0898 15.7926L73.3171 15.6222C73.6154 14.6278 74.1268 13.7401 74.8512 12.9588C75.5756 12.1705 76.4954 11.5526 77.6104 11.1051C78.7326 10.6506 80.0288 10.4233 81.4989 10.4233C82.5359 10.4233 83.4734 10.5476 84.3114 10.7962C85.1495 11.0376 85.8562 11.3928 86.4315 11.8615C87.0138 12.3232 87.4293 12.8913 87.6779 13.5661C87.9265 14.2408 87.9798 15.0114 87.8377 15.8778L85.9734 27H81.0728L81.4563 24.7202H81.3285C80.945 25.2741 80.494 25.7429 79.9755 26.1264C79.4641 26.5099 78.8888 26.7976 78.2496 26.9893C77.6104 27.1811 76.9109 27.277 76.1509 27.277ZM78.3455 23.8679C78.8924 23.8679 79.4109 23.7543 79.9009 23.527C80.391 23.2997 80.8029 22.9872 81.1367 22.5895C81.4776 22.1847 81.6942 21.7159 81.7866 21.1832L82.0316 19.6278C81.8825 19.706 81.6942 19.777 81.467 19.8409C81.2397 19.9048 80.9982 19.9652 80.7425 20.022C80.4869 20.0717 80.2241 20.1214 79.9542 20.1712C79.6914 20.2138 79.4393 20.2528 79.1978 20.2884C78.6864 20.3665 78.2425 20.4872 77.8661 20.6506C77.4897 20.8139 77.1879 21.027 76.9606 21.2898C76.7404 21.5455 76.6055 21.8509 76.5558 22.206C76.4705 22.7386 76.5948 23.1506 76.9286 23.4418C77.2624 23.7259 77.7347 23.8679 78.3455 23.8679ZM95.7638 33.4773C94.2013 33.4773 92.9016 33.2607 91.8647 32.8274C90.8278 32.3942 90.0536 31.8011 89.5423 31.0483C89.0309 30.2955 88.7859 29.4432 88.8072 28.4915L93.793 28.2145C93.8356 28.5554 93.9599 28.8501 94.1658 29.0987C94.3718 29.3473 94.6665 29.5355 95.0501 29.6634C95.4336 29.7983 95.9094 29.8658 96.4776 29.8658C97.3512 29.8658 98.1112 29.6527 98.7575 29.2266C99.4038 28.8004 99.8015 28.0653 99.9506 27.0213L100.43 24.1449H100.249C99.9648 24.6491 99.5813 25.1001 99.0984 25.4979C98.6154 25.8956 98.0437 26.2081 97.3832 26.4354C96.7227 26.6626 95.9911 26.7763 95.1886 26.7763C93.9883 26.7763 92.9407 26.4993 92.0458 25.9453C91.1509 25.3842 90.5046 24.5178 90.1069 23.3459C89.7092 22.1669 89.663 20.6506 89.9684 18.7969C90.288 16.8864 90.8562 15.3132 91.6729 14.0774C92.4897 12.8345 93.4414 11.9148 94.5281 11.3182C95.6218 10.7216 96.7404 10.4233 97.8839 10.4233C98.7433 10.4233 99.4535 10.5724 100.015 10.8707C100.576 11.1619 101.016 11.5384 101.336 12C101.655 12.4616 101.882 12.9411 102.017 13.4382H102.167L102.625 10.6364H107.813L105.086 27.0639C104.865 28.456 104.329 29.6278 103.477 30.5795C102.625 31.5313 101.534 32.2521 100.206 32.7422C98.8782 33.2322 97.3974 33.4773 95.7638 33.4773ZM97.5962 22.9837C98.2283 22.9837 98.8001 22.8168 99.3114 22.483C99.8228 22.1491 100.252 21.6697 100.6 21.0447C100.949 20.4197 101.194 19.6705 101.336 18.7969C101.478 17.9091 101.478 17.1456 101.336 16.5064C101.201 15.8601 100.938 15.3629 100.547 15.0149C100.157 14.6669 99.6417 14.4929 99.0025 14.4929C98.3562 14.4929 97.7809 14.6705 97.2766 15.0256C96.7795 15.3807 96.3604 15.8814 96.0195 16.5277C95.6857 17.1669 95.4513 17.9233 95.3164 18.7969C95.1744 19.6705 95.1637 20.4197 95.2844 21.0447C95.4123 21.6697 95.668 22.1491 96.0515 22.483C96.4421 22.8168 96.957 22.9837 97.5962 22.9837ZM116.035 27.3089C114.309 27.3089 112.885 26.9538 111.763 26.2436C110.648 25.5334 109.863 24.5426 109.408 23.2713C108.954 22 108.865 20.5227 109.142 18.8395C109.419 17.1634 109.991 15.6932 110.857 14.429C111.724 13.1648 112.831 12.1811 114.181 11.478C115.53 10.7749 117.061 10.4233 118.773 10.4233C120.491 10.4233 121.908 10.7784 123.023 11.4886C124.145 12.1989 124.934 13.1896 125.388 14.4609C125.85 15.7322 125.942 17.2131 125.665 18.9034C125.388 20.5795 124.813 22.0497 123.939 23.3139C123.066 24.571 121.958 25.5511 120.616 26.2543C119.273 26.9574 117.746 27.3089 116.035 27.3089ZM116.621 23.3778C117.26 23.3778 117.831 23.1861 118.336 22.8026C118.847 22.419 119.277 21.8828 119.625 21.1939C119.973 20.505 120.221 19.706 120.371 18.7969C120.52 17.902 120.534 17.1172 120.413 16.4425C120.3 15.7607 120.058 15.2315 119.689 14.8551C119.319 14.4716 118.819 14.2798 118.187 14.2798C117.547 14.2798 116.972 14.4751 116.461 14.8658C115.949 15.2493 115.52 15.7855 115.172 16.4744C114.831 17.1562 114.586 17.9553 114.437 18.8714C114.287 19.7663 114.27 20.5511 114.383 21.2259C114.497 21.9006 114.742 22.4297 115.118 22.8132C115.495 23.1896 115.996 23.3778 116.621 23.3778ZM133.778 17.6676L132.222 27H127.013L129.74 10.6364H134.694L134.204 13.6406H134.385C134.896 12.6392 135.639 11.8544 136.612 11.2862C137.585 10.7109 138.678 10.4233 139.893 10.4233C141.036 10.4233 141.992 10.679 142.759 11.1903C143.526 11.7017 144.069 12.419 144.389 13.3423C144.708 14.2585 144.762 15.3345 144.548 16.5703L142.801 27H137.592L139.158 17.593C139.314 16.6911 139.204 15.9844 138.828 15.473C138.458 14.9545 137.855 14.6953 137.017 14.6953C136.47 14.6953 135.969 14.8161 135.514 15.0575C135.067 15.2919 134.691 15.6293 134.385 16.0696C134.087 16.5099 133.884 17.0426 133.778 17.6676ZM158.257 16.1655L157.607 20.1818H147.518L148.168 16.1655H158.257ZM160.145 27L163.767 5.18182H172.78C174.414 5.18182 175.774 5.49787 176.86 6.12997C177.947 6.76207 178.718 7.64631 179.172 8.78267C179.627 9.91903 179.73 11.2365 179.481 12.7351C179.24 14.2479 178.696 15.5653 177.851 16.6875C177.013 17.8097 175.933 18.6797 174.612 19.2976C173.291 19.9155 171.789 20.2244 170.106 20.2244H164.556L165.248 16.0696H169.829C170.632 16.0696 171.324 15.9311 171.906 15.6541C172.496 15.3771 172.968 14.9901 173.323 14.4929C173.678 13.9957 173.913 13.4098 174.026 12.7351C174.133 12.0604 174.09 11.478 173.899 10.9879C173.707 10.4908 173.362 10.1072 172.865 9.83736C172.375 9.56747 171.736 9.43253 170.948 9.43253H168.348L165.419 27H160.145ZM186.992 27.3089C185.266 27.3089 183.842 26.9538 182.72 26.2436C181.605 25.5334 180.82 24.5426 180.365 23.2713C179.911 22 179.822 20.5227 180.099 18.8395C180.376 17.1634 180.948 15.6932 181.814 14.429C182.681 13.1648 183.789 12.1811 185.138 11.478C186.487 10.7749 188.018 10.4233 189.73 10.4233C191.448 10.4233 192.865 10.7784 193.98 11.4886C195.102 12.1989 195.891 13.1896 196.345 14.4609C196.807 15.7322 196.899 17.2131 196.622 18.9034C196.345 20.5795 195.77 22.0497 194.896 23.3139C194.023 24.571 192.915 25.5511 191.573 26.2543C190.23 26.9574 188.703 27.3089 186.992 27.3089ZM187.578 23.3778C188.217 23.3778 188.789 23.1861 189.293 22.8026C189.804 22.419 190.234 21.8828 190.582 21.1939C190.93 20.505 191.178 19.706 191.328 18.7969C191.477 17.902 191.491 17.1172 191.37 16.4425C191.257 15.7607 191.015 15.2315 190.646 14.8551C190.276 14.4716 189.776 14.2798 189.144 14.2798C188.504 14.2798 187.929 14.4751 187.418 14.8658C186.906 15.2493 186.477 15.7855 186.129 16.4744C185.788 17.1562 185.543 17.9553 185.394 18.8714C185.244 19.7663 185.227 20.5511 185.34 21.2259C185.454 21.9006 185.699 22.4297 186.075 22.8132C186.452 23.1896 186.953 23.3778 187.578 23.3778ZM196.947 33.1364L200.719 10.6364H205.875L205.417 13.4382H205.577C205.861 12.9411 206.237 12.4616 206.706 12C207.182 11.5384 207.753 11.1619 208.421 10.8707C209.089 10.5724 209.852 10.4233 210.711 10.4233C211.848 10.4233 212.86 10.7216 213.748 11.3182C214.635 11.9148 215.282 12.8345 215.687 14.0774C216.091 15.3203 216.134 16.9041 215.814 18.8288C215.509 20.6825 214.955 22.2344 214.153 23.4844C213.357 24.7344 212.412 25.6719 211.319 26.2969C210.225 26.9219 209.078 27.2344 207.878 27.2344C207.054 27.2344 206.358 27.0994 205.79 26.8295C205.229 26.5597 204.785 26.2045 204.458 25.7642C204.131 25.3239 203.904 24.8516 203.776 24.3473H203.627L202.178 33.1364H196.947ZM204.458 18.8182C204.316 19.6989 204.309 20.4659 204.437 21.1193C204.564 21.7727 204.824 22.2805 205.214 22.6428C205.612 22.9979 206.127 23.1754 206.759 23.1754C207.398 23.1754 207.966 22.9979 208.464 22.6428C208.968 22.2805 209.39 21.7727 209.731 21.1193C210.072 20.4659 210.321 19.6989 210.477 18.8182C210.612 17.9375 210.616 17.174 210.488 16.5277C210.367 15.8814 210.115 15.3807 209.731 15.0256C209.348 14.6705 208.833 14.4929 208.187 14.4929C207.555 14.4929 206.979 14.6669 206.461 15.0149C205.949 15.3629 205.523 15.8601 205.182 16.5064C204.841 17.1527 204.6 17.9233 204.458 18.8182ZM216.195 33.1364L219.967 10.6364H225.123L224.665 13.4382H224.825C225.109 12.9411 225.485 12.4616 225.954 12C226.43 11.5384 227.001 11.1619 227.669 10.8707C228.337 10.5724 229.1 10.4233 229.96 10.4233C231.096 10.4233 232.108 10.7216 232.996 11.3182C233.884 11.9148 234.53 12.8345 234.935 14.0774C235.339 15.3203 235.382 16.9041 235.062 18.8288C234.757 20.6825 234.203 22.2344 233.401 23.4844C232.605 24.7344 231.661 25.6719 230.567 26.2969C229.473 26.9219 228.326 27.2344 227.126 27.2344C226.302 27.2344 225.606 27.0994 225.038 26.8295C224.477 26.5597 224.033 26.2045 223.706 25.7642C223.379 25.3239 223.152 24.8516 223.024 24.3473H222.875L221.426 33.1364H216.195ZM223.706 18.8182C223.564 19.6989 223.557 20.4659 223.685 21.1193C223.813 21.7727 224.072 22.2805 224.462 22.6428C224.86 22.9979 225.375 23.1754 226.007 23.1754C226.646 23.1754 227.214 22.9979 227.712 22.6428C228.216 22.2805 228.638 21.7727 228.979 21.1193C229.32 20.4659 229.569 19.6989 229.725 18.8182C229.86 17.9375 229.864 17.174 229.736 16.5277C229.615 15.8814 229.363 15.3807 228.979 15.0256C228.596 14.6705 228.081 14.4929 227.435 14.4929C226.803 14.4929 226.227 14.6669 225.709 15.0149C225.197 15.3629 224.771 15.8601 224.43 16.5064C224.089 17.1527 223.848 17.9233 223.706 18.8182ZM238.091 33.1364C237.466 33.1364 236.883 33.0866 236.344 32.9872C235.811 32.8949 235.356 32.7706 234.98 32.6143L236.77 28.8324C237.246 29.0028 237.682 29.0987 238.08 29.12C238.485 29.1484 238.847 29.081 239.167 28.9176C239.493 28.7614 239.778 28.4808 240.019 28.076L240.317 27.5753L237.324 10.6364H242.586L243.652 22.3232H243.822L248.829 10.6364H254.508L245.378 28.5661C244.916 29.4609 244.358 30.2528 243.705 30.9418C243.052 31.6307 242.263 32.1669 241.34 32.5504C240.424 32.9411 239.341 33.1364 238.091 33.1364Z" fill="#CED7D3"/>
</g>
<defs>
<filter id="filter0_dd_68_6734" x="0.617397" y="0.203649" width="268.744" height="60.1966" filterUnits="userSpaceOnUse" color-interpolation-filters="sRGB">
<feFlood flood-opacity="0" result="BackgroundImageFix"/>
<feColorMatrix in="SourceAlpha" type="matrix" values="0 0 0 0 0 0 0 0 0 0 0 0 0 0 0 0 0 0 127 0" result="hardAlpha"/>
<feOffset dx="1" dy="5.43135"/>
<feGaussianBlur stdDeviation="5.2048"/>
<feColorMatrix type="matrix" values="0 0 0 0 0 0 0 0 0 0 0 0 0 0 0 0 0 0 0.117297 0"/>
<feBlend mode="normal" in2="BackgroundImageFix" result="effect1_dropShadow_68_6734"/>
<feColorMatrix in="SourceAlpha" type="matrix" values="0 0 0 0 0 0 0 0 0 0 0 0 0 0 0 0 0 0 127 0" result="hardAlpha"/>
<feOffset dx="1" dy="13.0687"/>
<feGaussianBlur stdDeviation="6.9271"/>
<feColorMatrix type="matrix" values="0 0 0 0 0 0 0 0 0 0 0 0 0 0 0 0 0 0 0.0945694 0"/>
<feBlend mode="normal" in2="effect1_dropShadow_68_6734" result="effect2_dropShadow_68_6734"/>
<feBlend mode="normal" in="SourceGraphic" in2="effect2_dropShadow_68_6734" result="shape"/>
</filter>
</defs>
</svg>
