<svg width="352" height="149" viewBox="0 0 352 149" fill="none" xmlns="http://www.w3.org/2000/svg">
<g filter="url(#filter0_dd_218_10325)">
<path d="M21.9808 38.9091L21.4609 41.9773H13.2024L13.7223 38.9091H21.9808ZM15.9638 35.7727H20.1314L18.12 47.8835C18.0803 48.1392 18.0859 48.3466 18.1371 48.5057C18.1939 48.6591 18.2962 48.7699 18.4439 48.8381C18.5973 48.9006 18.7848 48.9318 19.0064 48.9318C19.1598 48.9318 19.3303 48.9148 19.5178 48.8807C19.7053 48.8466 19.8473 48.821 19.9439 48.804L20.0803 51.8125C19.8587 51.875 19.5604 51.946 19.1854 52.0256C18.8161 52.1108 18.3842 52.1648 17.8899 52.1875C16.8899 52.2273 16.0632 52.1108 15.4098 51.8381C14.7621 51.5597 14.3047 51.1278 14.0376 50.5426C13.7763 49.9574 13.7251 49.2244 13.8842 48.3438L15.9638 35.7727ZM25.5817 52.2216C24.7521 52.2216 24.0362 52.0824 23.4339 51.804C22.8374 51.5199 22.3999 51.0909 22.1214 50.517C21.8487 49.9432 21.7834 49.2273 21.9254 48.3693C22.0504 47.642 22.2805 47.0312 22.6158 46.5369C22.9567 46.0369 23.3743 45.6307 23.8686 45.3182C24.3686 45.0057 24.9254 44.767 25.5391 44.6023C26.1527 44.4375 26.7947 44.3267 27.4652 44.2699C28.2152 44.2017 28.8232 44.1278 29.2891 44.0483C29.7607 43.9687 30.1129 43.858 30.3459 43.7159C30.5788 43.5682 30.7209 43.3636 30.772 43.1023V43.0597C30.8402 42.6222 30.7464 42.2841 30.4908 42.0455C30.2351 41.8068 29.8516 41.6875 29.3402 41.6875C28.7947 41.6875 28.3288 41.8068 27.9425 42.0455C27.5561 42.2841 27.2862 42.6136 27.1328 43.0341L23.3146 42.8977C23.5533 42.1023 23.9624 41.392 24.5419 40.767C25.1214 40.1364 25.8572 39.642 26.7493 39.2841C27.647 38.9205 28.6839 38.7386 29.8601 38.7386C30.6896 38.7386 31.4396 38.8381 32.1101 39.0369C32.7805 39.2301 33.3459 39.5142 33.8061 39.8892C34.272 40.2585 34.6044 40.7131 34.8033 41.2528C35.0021 41.7926 35.0447 42.4091 34.9311 43.1023L33.4396 52H29.5192L29.826 50.1761H29.7237C29.4169 50.6193 29.0561 50.9943 28.6413 51.3011C28.2322 51.608 27.772 51.8381 27.2607 51.9915C26.7493 52.1449 26.1896 52.2216 25.5817 52.2216ZM27.3374 49.4943C27.7749 49.4943 28.1896 49.4034 28.5817 49.2216C28.9737 49.0398 29.3033 48.7898 29.5703 48.4716C29.843 48.1477 30.0163 47.7727 30.0902 47.3466L30.2862 46.1023C30.1669 46.1648 30.0163 46.2216 29.8345 46.2727C29.6527 46.3239 29.4595 46.3722 29.255 46.4176C29.0504 46.4574 28.8402 46.4972 28.6243 46.5369C28.4141 46.571 28.2124 46.6023 28.0192 46.6307C27.6101 46.6932 27.255 46.7898 26.9538 46.9205C26.6527 47.0511 26.4112 47.2216 26.2294 47.4318C26.0533 47.6364 25.9453 47.8807 25.9055 48.1648C25.8374 48.5909 25.9368 48.9205 26.2038 49.1534C26.4709 49.3807 26.8487 49.4943 27.3374 49.4943ZM35.9879 52L38.1697 38.9091H42.218L41.8175 41.2955H41.9538C42.3345 40.4318 42.8317 39.7898 43.4453 39.3693C44.0589 38.9432 44.7237 38.7301 45.4396 38.7301C45.6328 38.7301 45.826 38.7443 46.0192 38.7727C46.218 38.7955 46.4055 38.8295 46.5817 38.875L45.968 42.5057C45.7749 42.4318 45.522 42.3778 45.2095 42.3438C44.897 42.304 44.6129 42.2841 44.3572 42.2841C43.8629 42.2841 43.4027 42.3949 42.9766 42.6165C42.5561 42.8324 42.1982 43.1364 41.9027 43.5284C41.6129 43.9148 41.4226 44.3693 41.3317 44.892L40.1555 52H35.9879ZM46.0895 52L48.2713 38.9091H52.3196L51.919 41.2955H52.0554C52.4361 40.4318 52.9332 39.7898 53.5469 39.3693C54.1605 38.9432 54.8253 38.7301 55.5412 38.7301C55.7344 38.7301 55.9276 38.7443 56.1207 38.7727C56.3196 38.7955 56.5071 38.8295 56.6832 38.875L56.0696 42.5057C55.8764 42.4318 55.6236 42.3778 55.3111 42.3438C54.9986 42.304 54.7145 42.2841 54.4588 42.2841C53.9645 42.2841 53.5043 42.3949 53.0781 42.6165C52.6577 42.8324 52.2997 43.1364 52.0043 43.5284C51.7145 43.9148 51.5241 44.3693 51.4332 44.892L50.2571 52H46.0895ZM59.3551 52.2216C58.5256 52.2216 57.8097 52.0824 57.2074 51.804C56.6108 51.5199 56.1733 51.0909 55.8949 50.517C55.6222 49.9432 55.5568 49.2273 55.6989 48.3693C55.8239 47.642 56.054 47.0312 56.3892 46.5369C56.7301 46.0369 57.1477 45.6307 57.642 45.3182C58.142 45.0057 58.6989 44.767 59.3125 44.6023C59.9261 44.4375 60.5682 44.3267 61.2386 44.2699C61.9886 44.2017 62.5966 44.1278 63.0625 44.0483C63.5341 43.9687 63.8864 43.858 64.1193 43.7159C64.3523 43.5682 64.4943 43.3636 64.5455 43.1023V43.0597C64.6136 42.6222 64.5199 42.2841 64.2642 42.0455C64.0085 41.8068 63.625 41.6875 63.1136 41.6875C62.5682 41.6875 62.1023 41.8068 61.7159 42.0455C61.3295 42.2841 61.0597 42.6136 60.9062 43.0341L57.0881 42.8977C57.3267 42.1023 57.7358 41.392 58.3153 40.767C58.8949 40.1364 59.6307 39.642 60.5227 39.2841C61.4205 38.9205 62.4574 38.7386 63.6335 38.7386C64.4631 38.7386 65.2131 38.8381 65.8835 39.0369C66.554 39.2301 67.1193 39.5142 67.5795 39.8892C68.0455 40.2585 68.3778 40.7131 68.5767 41.2528C68.7756 41.7926 68.8182 42.4091 68.7045 43.1023L67.2131 52H63.2926L63.5994 50.1761H63.4972C63.1903 50.6193 62.8295 50.9943 62.4148 51.3011C62.0057 51.608 61.5455 51.8381 61.0341 51.9915C60.5227 52.1449 59.9631 52.2216 59.3551 52.2216ZM61.1108 49.4943C61.5483 49.4943 61.9631 49.4034 62.3551 49.2216C62.7472 49.0398 63.0767 48.7898 63.3438 48.4716C63.6165 48.1477 63.7898 47.7727 63.8636 47.3466L64.0597 46.1023C63.9403 46.1648 63.7898 46.2216 63.608 46.2727C63.4261 46.3239 63.233 46.3722 63.0284 46.4176C62.8239 46.4574 62.6136 46.4972 62.3977 46.5369C62.1875 46.571 61.9858 46.6023 61.7926 46.6307C61.3835 46.6932 61.0284 46.7898 60.7273 46.9205C60.4261 47.0511 60.1847 47.2216 60.0028 47.4318C59.8267 47.6364 59.7188 47.8807 59.679 48.1648C59.6108 48.5909 59.7102 48.9205 59.9773 49.1534C60.2443 49.3807 60.6222 49.4943 61.1108 49.4943ZM75.0455 57.1818C73.7955 57.1818 72.7557 57.0085 71.9261 56.6619C71.0966 56.3153 70.4773 55.8409 70.0682 55.2386C69.6591 54.6364 69.4631 53.9545 69.4801 53.1932L73.4688 52.9716C73.5028 53.2443 73.6023 53.4801 73.767 53.679C73.9318 53.8778 74.1676 54.0284 74.4744 54.1307C74.7813 54.2386 75.1619 54.2926 75.6165 54.2926C76.3153 54.2926 76.9233 54.1222 77.4403 53.7812C77.9574 53.4403 78.2756 52.8523 78.3949 52.017L78.7784 49.7159H78.6335C78.4063 50.1193 78.0994 50.4801 77.7131 50.7983C77.3267 51.1165 76.8693 51.3665 76.3409 51.5483C75.8125 51.7301 75.2273 51.821 74.5852 51.821C73.625 51.821 72.7869 51.5994 72.071 51.1562C71.3551 50.7074 70.8381 50.0142 70.5199 49.0767C70.2017 48.1335 70.1648 46.9205 70.4091 45.4375C70.6648 43.9091 71.1193 42.6506 71.7727 41.6619C72.4261 40.6676 73.1875 39.9318 74.0568 39.4545C74.9318 38.9773 75.8267 38.7386 76.7415 38.7386C77.429 38.7386 77.9972 38.858 78.446 39.0966C78.8949 39.3295 79.2472 39.6307 79.5028 40C79.7585 40.3693 79.9403 40.7528 80.0483 41.1506H80.1676L80.5341 38.9091H84.6847L82.5028 52.0511C82.3267 53.1648 81.8977 54.1023 81.2159 54.8636C80.5341 55.625 79.6619 56.2017 78.5994 56.5938C77.5369 56.9858 76.3523 57.1818 75.0455 57.1818ZM76.5114 48.7869C77.017 48.7869 77.4744 48.6534 77.8835 48.3864C78.2926 48.1193 78.6364 47.7358 78.9148 47.2358C79.1932 46.7358 79.3892 46.1364 79.5028 45.4375C79.6165 44.7273 79.6165 44.1165 79.5028 43.6051C79.3949 43.0881 79.1847 42.6903 78.8722 42.4119C78.5597 42.1335 78.1477 41.9943 77.6364 41.9943C77.1193 41.9943 76.6591 42.1364 76.2557 42.4205C75.858 42.7045 75.5227 43.1051 75.25 43.6222C74.983 44.1335 74.7955 44.7386 74.6875 45.4375C74.5739 46.1364 74.5653 46.7358 74.6619 47.2358C74.7642 47.7358 74.9688 48.1193 75.2756 48.3864C75.5881 48.6534 76 48.7869 76.5114 48.7869ZM91.2621 52.2472C89.8814 52.2472 88.7422 51.9631 87.8445 51.3949C86.9524 50.8267 86.3246 50.0341 85.9609 49.017C85.5973 48 85.5263 46.8182 85.7479 45.4716C85.9695 44.1307 86.4268 42.9545 87.12 41.9432C87.8132 40.9318 88.6996 40.1449 89.7791 39.5824C90.8587 39.0199 92.0831 38.7386 93.4524 38.7386C94.8274 38.7386 95.9609 39.0227 96.853 39.5909C97.7507 40.1591 98.3814 40.9517 98.745 41.9688C99.1143 42.9858 99.1882 44.1705 98.9666 45.5227C98.745 46.8636 98.2848 48.0398 97.5859 49.0511C96.8871 50.0568 96.0007 50.8409 94.9268 51.4034C93.853 51.9659 92.6314 52.2472 91.2621 52.2472ZM91.7308 49.1023C92.2422 49.1023 92.6996 48.9489 93.103 48.642C93.5121 48.3352 93.8558 47.9062 94.1342 47.3551C94.4126 46.804 94.6115 46.1648 94.7308 45.4375C94.8501 44.7216 94.8615 44.0938 94.7649 43.554C94.674 43.0085 94.4808 42.5852 94.1854 42.2841C93.8899 41.9773 93.4893 41.8239 92.9837 41.8239C92.4723 41.8239 92.0121 41.9801 91.603 42.2926C91.1939 42.5994 90.8501 43.0284 90.5717 43.5795C90.299 44.125 90.103 44.7642 89.9837 45.4972C89.8643 46.2131 89.8501 46.8409 89.9411 47.3807C90.032 47.9205 90.228 48.3438 90.5291 48.6506C90.8303 48.9517 91.2308 49.1023 91.7308 49.1023ZM105.457 44.5341L104.212 52H100.045L102.227 38.9091H106.19L105.798 41.3125H105.942C106.352 40.5114 106.945 39.8835 107.724 39.429C108.502 38.9688 109.377 38.7386 110.349 38.7386C111.263 38.7386 112.028 38.9432 112.641 39.3523C113.255 39.7614 113.69 40.3352 113.945 41.0739C114.201 41.8068 114.244 42.6676 114.073 43.6562L112.675 52H108.508L109.761 44.4744C109.886 43.7528 109.798 43.1875 109.496 42.7784C109.201 42.3636 108.718 42.1562 108.048 42.1562C107.61 42.1562 107.21 42.2528 106.846 42.446C106.488 42.6335 106.187 42.9034 105.942 43.2557C105.704 43.608 105.542 44.0341 105.457 44.5341Z" fill="#CED7D3"/>
</g>
<g filter="url(#filter1_dd_218_10325)">
<path d="M45.8191 99.598L45.9114 84.456H47.5733L56.16 72.5455H70.4711L56.0677 91.1037H52.4668L45.8191 99.598ZM34.3702 108V60.7273H47.1117V108H34.3702ZM56.2523 108L48.1273 93.9659L56.437 84.9176L70.8404 108H56.2523ZM83.6684 108.554C81.4063 108.554 79.4059 108.185 77.667 107.446C75.9435 106.692 74.5893 105.553 73.6045 104.03C72.6196 102.506 72.1272 100.567 72.1272 98.2131C72.1272 96.2741 72.4581 94.6199 73.1198 93.2504C73.7815 91.8654 74.7048 90.7344 75.8896 89.8572C77.0745 88.9801 78.4518 88.3107 80.0214 87.8491C81.6064 87.3874 83.3145 87.0874 85.1457 86.9489C87.1308 86.795 88.7235 86.6103 89.9237 86.3949C91.1394 86.1641 92.0165 85.8486 92.5551 85.4485C93.0937 85.033 93.363 84.4867 93.363 83.8097V83.7173C93.363 82.794 93.0091 82.0862 92.3012 81.5938C91.5934 81.1013 90.6855 80.8551 89.5775 80.8551C88.3618 80.8551 87.3693 81.1244 86.5999 81.663C85.8459 82.1862 85.3919 82.9941 85.238 84.0866H73.5122C73.666 81.9323 74.3508 79.9472 75.5665 78.1314C76.7976 76.3002 78.5903 74.8383 80.9447 73.7457C83.2991 72.6378 86.2383 72.0838 89.7622 72.0838C92.3012 72.0838 94.5787 72.3839 96.5945 72.984C98.6104 73.5688 100.326 74.392 101.742 75.4538C103.158 76.5002 104.235 77.7313 104.973 79.147C105.727 80.5473 106.104 82.0708 106.104 83.7173V108H94.194V103.014H93.917C93.2091 104.338 92.3474 105.407 91.3318 106.223C90.3315 107.038 89.1851 107.631 87.8925 108C86.6153 108.369 85.2072 108.554 83.6684 108.554ZM87.8232 100.521C88.7927 100.521 89.7006 100.321 90.547 99.9212C91.4087 99.5211 92.1089 98.944 92.6475 98.19C93.1861 97.436 93.4553 96.5204 93.4553 95.4432V92.4886C93.1168 92.6271 92.7552 92.7579 92.3705 92.881C92.0012 93.0041 91.6011 93.1196 91.1702 93.2273C90.7547 93.335 90.3084 93.435 89.8314 93.5273C89.3698 93.6197 88.885 93.7043 88.3772 93.7812C87.3924 93.9351 86.5845 94.189 85.9536 94.543C85.338 94.8815 84.8764 95.3047 84.5686 95.8125C84.2762 96.3049 84.1301 96.8589 84.1301 97.4744C84.1301 98.4593 84.4763 99.2133 85.1688 99.7365C85.8612 100.26 86.7461 100.521 87.8232 100.521ZM124.934 88.0568V108H112.192V72.5455H124.288V79.2855H124.657C125.426 77.0388 126.781 75.2769 128.719 73.9996C130.674 72.7224 132.951 72.0838 135.552 72.0838C138.06 72.0838 140.238 72.6609 142.084 73.815C143.946 74.9537 145.385 76.5233 146.401 78.5238C147.432 80.5243 147.939 82.8094 147.924 85.3793V108H135.183V88.0568C135.198 86.3026 134.752 84.9253 133.844 83.9251C132.951 82.9248 131.705 82.4247 130.104 82.4247C129.058 82.4247 128.142 82.6555 127.358 83.1172C126.588 83.5634 125.996 84.2098 125.58 85.0561C125.165 85.8871 124.949 86.8873 124.934 88.0568ZM171.295 122.034C167.74 122.034 164.693 121.526 162.154 120.511C159.631 119.51 157.669 118.125 156.268 116.356C154.883 114.602 154.106 112.586 153.937 110.308H166.217C166.34 111.062 166.648 111.67 167.14 112.132C167.633 112.593 168.263 112.924 169.033 113.124C169.818 113.34 170.695 113.447 171.664 113.447C173.311 113.447 174.673 113.047 175.75 112.247C176.842 111.447 177.389 110 177.389 107.908V101.906H177.019C176.558 103.107 175.85 104.13 174.896 104.976C173.942 105.807 172.795 106.446 171.456 106.892C170.118 107.323 168.648 107.538 167.048 107.538C164.524 107.538 162.2 106.954 160.077 105.784C157.969 104.615 156.276 102.76 154.999 100.221C153.737 97.6822 153.106 94.366 153.106 90.2727C153.106 85.9948 153.768 82.517 155.091 79.8395C156.43 77.1619 158.153 75.1999 160.262 73.9535C162.385 72.707 164.616 72.0838 166.955 72.0838C168.71 72.0838 170.249 72.3916 171.572 73.0071C172.895 73.6072 174.003 74.4151 174.896 75.4308C175.788 76.431 176.465 77.5312 176.927 78.7315H177.204V72.5455H189.945V107.908C189.945 110.908 189.168 113.455 187.614 115.548C186.075 117.656 183.906 119.264 181.105 120.372C178.304 121.48 175.034 122.034 171.295 122.034ZM171.757 98.4901C172.926 98.4901 173.926 98.1669 174.757 97.5206C175.604 96.8589 176.25 95.9202 176.696 94.7045C177.158 93.4735 177.389 91.9962 177.389 90.2727C177.389 88.5185 177.158 87.0181 176.696 85.7717C176.25 84.5098 175.604 83.5481 174.757 82.8864C173.926 82.2093 172.926 81.8707 171.757 81.8707C170.587 81.8707 169.587 82.2093 168.756 82.8864C167.94 83.5481 167.309 84.5098 166.863 85.7717C166.432 87.0181 166.217 88.5185 166.217 90.2727C166.217 92.027 166.432 93.5196 166.863 94.7507C167.309 95.9664 167.94 96.8974 168.756 97.5437C169.587 98.1746 170.587 98.4901 171.757 98.4901ZM206.305 108.554C204.043 108.554 202.043 108.185 200.304 107.446C198.58 106.692 197.226 105.553 196.241 104.03C195.256 102.506 194.764 100.567 194.764 98.2131C194.764 96.2741 195.095 94.6199 195.756 93.2504C196.418 91.8654 197.341 90.7344 198.526 89.8572C199.711 88.9801 201.089 88.3107 202.658 87.8491C204.243 87.3874 205.951 87.0874 207.782 86.9489C209.767 86.795 211.36 86.6103 212.56 86.3949C213.776 86.1641 214.653 85.8486 215.192 85.4485C215.73 85.033 216 84.4867 216 83.8097V83.7173C216 82.794 215.646 82.0862 214.938 81.5938C214.23 81.1013 213.322 80.8551 212.214 80.8551C210.999 80.8551 210.006 81.1244 209.237 81.663C208.483 82.1862 208.029 82.9941 207.875 84.0866H196.149C196.303 81.9323 196.988 79.9472 198.203 78.1314C199.434 76.3002 201.227 74.8383 203.581 73.7457C205.936 72.6378 208.875 72.0838 212.399 72.0838C214.938 72.0838 217.215 72.3839 219.231 72.984C221.247 73.5688 222.963 74.392 224.379 75.4538C225.794 76.5002 226.872 77.7313 227.61 79.147C228.364 80.5473 228.741 82.0708 228.741 83.7173V108H216.831V103.014H216.554C215.846 104.338 214.984 105.407 213.968 106.223C212.968 107.038 211.822 107.631 210.529 108C209.252 108.369 207.844 108.554 206.305 108.554ZM210.46 100.521C211.429 100.521 212.337 100.321 213.184 99.9212C214.045 99.5211 214.746 98.944 215.284 98.19C215.823 97.436 216.092 96.5204 216.092 95.4432V92.4886C215.754 92.6271 215.392 92.7579 215.007 92.881C214.638 93.0041 214.238 93.1196 213.807 93.2273C213.391 93.335 212.945 93.435 212.468 93.5273C212.006 93.6197 211.522 93.7043 211.014 93.7812C210.029 93.9351 209.221 94.189 208.59 94.543C207.975 94.8815 207.513 95.3047 207.205 95.8125C206.913 96.3049 206.767 96.8589 206.767 97.4744C206.767 98.4593 207.113 99.2133 207.805 99.7365C208.498 100.26 209.383 100.521 210.46 100.521ZM234.829 108V72.5455H247.201V79.2855H247.571C248.217 76.7926 249.24 74.9691 250.641 73.815C252.056 72.6609 253.711 72.0838 255.603 72.0838C256.157 72.0838 256.704 72.13 257.242 72.2223C257.796 72.2992 258.327 72.4147 258.835 72.5685V83.4403C258.204 83.2249 257.427 83.0633 256.504 82.9556C255.58 82.8479 254.788 82.794 254.126 82.794C252.88 82.794 251.756 83.0787 250.756 83.6481C249.771 84.2021 248.994 84.9869 248.425 86.0025C247.855 87.0027 247.571 88.1799 247.571 89.5341V108H234.829ZM278.062 108.646C274.215 108.646 270.922 107.885 268.183 106.361C265.444 104.822 263.344 102.683 261.882 99.9442C260.42 97.1897 259.689 93.9967 259.689 90.3651C259.689 86.7334 260.42 83.5481 261.882 80.8089C263.344 78.0544 265.444 75.9155 268.183 74.392C270.922 72.8532 274.215 72.0838 278.062 72.0838C281.91 72.0838 285.203 72.8532 287.942 74.392C290.681 75.9155 292.781 78.0544 294.243 80.8089C295.705 83.5481 296.436 86.7334 296.436 90.3651C296.436 93.9967 295.705 97.1897 294.243 99.9442C292.781 102.683 290.681 104.822 287.942 106.361C285.203 107.885 281.91 108.646 278.062 108.646ZM278.155 99.2287C279.232 99.2287 280.163 98.8671 280.948 98.1438C281.733 97.4206 282.34 96.3896 282.771 95.0508C283.202 93.712 283.418 92.1193 283.418 90.2727C283.418 88.4107 283.202 86.8181 282.771 85.4947C282.34 84.1559 281.733 83.1249 280.948 82.4016C280.163 81.6784 279.232 81.3168 278.155 81.3168C277.016 81.3168 276.039 81.6784 275.223 82.4016C274.408 83.1249 273.785 84.1559 273.354 85.4947C272.923 86.8181 272.707 88.4107 272.707 90.2727C272.707 92.1193 272.923 93.712 273.354 95.0508C273.785 96.3896 274.408 97.4206 275.223 98.1438C276.039 98.8671 277.016 99.2287 278.155 99.2287ZM318.688 108.646C314.84 108.646 311.547 107.885 308.808 106.361C306.069 104.822 303.969 102.683 302.507 99.9442C301.045 97.1897 300.314 93.9967 300.314 90.3651C300.314 86.7334 301.045 83.5481 302.507 80.8089C303.969 78.0544 306.069 75.9155 308.808 74.392C311.547 72.8532 314.84 72.0838 318.688 72.0838C322.535 72.0838 325.828 72.8532 328.567 74.392C331.306 75.9155 333.406 78.0544 334.868 80.8089C336.33 83.5481 337.061 86.7334 337.061 90.3651C337.061 93.9967 336.33 97.1897 334.868 99.9442C333.406 102.683 331.306 104.822 328.567 106.361C325.828 107.885 322.535 108.646 318.688 108.646ZM318.78 99.2287C319.857 99.2287 320.788 98.8671 321.573 98.1438C322.358 97.4206 322.965 96.3896 323.396 95.0508C323.827 93.712 324.043 92.1193 324.043 90.2727C324.043 88.4107 323.827 86.8181 323.396 85.4947C322.965 84.1559 322.358 83.1249 321.573 82.4016C320.788 81.6784 319.857 81.3168 318.78 81.3168C317.641 81.3168 316.664 81.6784 315.848 82.4016C315.033 83.1249 314.41 84.1559 313.979 85.4947C313.548 86.8181 313.332 88.4107 313.332 90.2727C313.332 92.1193 313.548 93.712 313.979 95.0508C314.41 96.3896 315.033 97.4206 315.848 98.1438C316.664 98.8671 317.641 99.2287 318.78 99.2287Z" fill="#CED7D3"/>
</g>
<defs>
<filter id="filter0_dd_218_10325" x="0.348232" y="30.7945" width="128.835" height="53.3103" filterUnits="userSpaceOnUse" color-interpolation-filters="sRGB">
<feFlood flood-opacity="0" result="BackgroundImageFix"/>
<feColorMatrix in="SourceAlpha" type="matrix" values="0 0 0 0 0 0 0 0 0 0 0 0 0 0 0 0 0 0 127 0" result="hardAlpha"/>
<feOffset dx="1" dy="5.43135"/>
<feGaussianBlur stdDeviation="5.2048"/>
<feColorMatrix type="matrix" values="0 0 0 0 0 0 0 0 0 0 0 0 0 0 0 0 0 0 0.117297 0"/>
<feBlend mode="normal" in2="BackgroundImageFix" result="effect1_dropShadow_218_10325"/>
<feColorMatrix in="SourceAlpha" type="matrix" values="0 0 0 0 0 0 0 0 0 0 0 0 0 0 0 0 0 0 127 0" result="hardAlpha"/>
<feOffset dx="1" dy="13.0687"/>
<feGaussianBlur stdDeviation="6.9271"/>
<feColorMatrix type="matrix" values="0 0 0 0 0 0 0 0 0 0 0 0 0 0 0 0 0 0 0.0945694 0"/>
<feBlend mode="normal" in2="effect1_dropShadow_218_10325" result="effect2_dropShadow_218_10325"/>
<feBlend mode="normal" in="SourceGraphic" in2="effect2_dropShadow_218_10325" result="shape"/>
</filter>
<filter id="filter1_dd_218_10325" x="21.516" y="55.7491" width="330.399" height="93.2079" filterUnits="userSpaceOnUse" color-interpolation-filters="sRGB">
<feFlood flood-opacity="0" result="BackgroundImageFix"/>
<feColorMatrix in="SourceAlpha" type="matrix" values="0 0 0 0 0 0 0 0 0 0 0 0 0 0 0 0 0 0 127 0" result="hardAlpha"/>
<feOffset dx="1" dy="5.43135"/>
<feGaussianBlur stdDeviation="5.2048"/>
<feColorMatrix type="matrix" values="0 0 0 0 0 0 0 0 0 0 0 0 0 0 0 0 0 0 0.117297 0"/>
<feBlend mode="normal" in2="BackgroundImageFix" result="effect1_dropShadow_218_10325"/>
<feColorMatrix in="SourceAlpha" type="matrix" values="0 0 0 0 0 0 0 0 0 0 0 0 0 0 0 0 0 0 127 0" result="hardAlpha"/>
<feOffset dx="1" dy="13.0687"/>
<feGaussianBlur stdDeviation="6.9271"/>
<feColorMatrix type="matrix" values="0 0 0 0 0 0 0 0 0 0 0 0 0 0 0 0 0 0 0.0945694 0"/>
<feBlend mode="normal" in2="effect1_dropShadow_218_10325" result="effect2_dropShadow_218_10325"/>
<feBlend mode="normal" in="SourceGraphic" in2="effect2_dropShadow_218_10325" result="shape"/>
</filter>
</defs>
</svg>
