<svg width="178" height="58" viewBox="0 0 178 58" fill="none" xmlns="http://www.w3.org/2000/svg">
<g filter="url(#filter0_d_92_4580)">
<path d="M10.2498 23.218V18.518H10.9298C11.3032 18.518 11.6232 18.3714 11.8898 18.078C12.1698 17.7847 12.4032 17.318 12.5898 16.678C12.7898 16.038 12.9432 15.198 13.0498 14.158C13.1698 13.1047 13.2565 11.818 13.3098 10.298L13.4098 6.29805H22.5498V18.518H24.3498V23.218H22.3698V20.498H12.2298V23.218H10.2498ZM13.7698 18.518H20.2898V8.27805H15.4898L15.4298 10.598C15.3898 12.1314 15.3098 13.4314 15.1898 14.498C15.0698 15.5514 14.8965 16.4047 14.6698 17.058C14.4432 17.7114 14.1432 18.198 13.7698 18.518ZM26.3591 20.498V10.038H31.9591C32.6257 10.038 33.1724 10.1647 33.5991 10.418C34.0391 10.658 34.3657 10.9714 34.5791 11.358C34.7924 11.7314 34.8991 12.1447 34.8991 12.598C34.8991 13.1714 34.7657 13.678 34.4991 14.118C34.2324 14.558 33.8391 14.8914 33.3191 15.118C33.9191 15.2914 34.4057 15.598 34.7791 16.038C35.1657 16.4647 35.3591 17.018 35.3591 17.698C35.3591 18.3114 35.2124 18.8314 34.9191 19.258C34.6257 19.6714 34.2057 19.9847 33.6591 20.198C33.1257 20.398 32.4991 20.498 31.7791 20.498H26.3591ZM28.4391 18.978H31.7191C31.9991 18.978 32.2524 18.9114 32.4791 18.778C32.7191 18.6314 32.9057 18.4447 33.0391 18.218C33.1724 17.978 33.2391 17.7247 33.2391 17.458C33.2391 17.1647 33.1724 16.9047 33.0391 16.678C32.9191 16.4514 32.7457 16.2714 32.5191 16.138C32.3057 16.0047 32.0524 15.938 31.7591 15.938H28.4391V18.978ZM28.4391 14.518H31.3991C31.6791 14.518 31.9257 14.4514 32.1391 14.318C32.3524 14.1714 32.5191 13.978 32.6391 13.738C32.7591 13.498 32.8191 13.2447 32.8191 12.978C32.8191 12.5914 32.6924 12.258 32.4391 11.978C32.1857 11.698 31.8524 11.558 31.4391 11.558H28.4391V14.518ZM36.6928 17.438C36.6928 16.7714 36.8795 16.1914 37.2528 15.698C37.6395 15.1914 38.1661 14.8047 38.8328 14.538C39.4995 14.258 40.2728 14.118 41.1528 14.118C41.6195 14.118 42.0928 14.1514 42.5728 14.218C43.0661 14.2847 43.4995 14.3914 43.8728 14.538V13.878C43.8728 13.1447 43.6528 12.5714 43.2128 12.158C42.7728 11.7447 42.1395 11.538 41.3128 11.538C40.7261 11.538 40.1728 11.6447 39.6528 11.858C39.1328 12.058 38.5795 12.3447 37.9928 12.718L37.2528 11.238C37.9461 10.7714 38.6395 10.4247 39.3328 10.198C40.0395 9.97138 40.7795 9.85805 41.5528 9.85805C42.9528 9.85805 44.0528 10.2314 44.8528 10.978C45.6661 11.7114 46.0728 12.758 46.0728 14.118V18.018C46.0728 18.2714 46.1128 18.4514 46.1928 18.558C46.2861 18.6647 46.4395 18.7247 46.6528 18.738V20.498C46.4528 20.538 46.2728 20.5647 46.1128 20.578C45.9528 20.5914 45.8195 20.598 45.7128 20.598C45.2461 20.598 44.8928 20.4847 44.6528 20.258C44.4128 20.0314 44.2728 19.7647 44.2328 19.458L44.1728 18.858C43.7195 19.4447 43.1395 19.898 42.4328 20.218C41.7261 20.538 41.0128 20.698 40.2928 20.698C39.5995 20.698 38.9795 20.558 38.4328 20.278C37.8861 19.9847 37.4595 19.5914 37.1528 19.098C36.8461 18.6047 36.6928 18.0514 36.6928 17.438ZM43.3528 18.078C43.5128 17.9047 43.6395 17.7314 43.7328 17.558C43.8261 17.3847 43.8728 17.2314 43.8728 17.098V15.898C43.4995 15.7514 43.1061 15.6447 42.6928 15.578C42.2795 15.498 41.8728 15.458 41.4728 15.458C40.6728 15.458 40.0195 15.618 39.5128 15.938C39.0195 16.258 38.7728 16.698 38.7728 17.258C38.7728 17.5647 38.8528 17.858 39.0128 18.138C39.1861 18.418 39.4261 18.6447 39.7328 18.818C40.0528 18.9914 40.4461 19.078 40.9128 19.078C41.3928 19.078 41.8528 18.9847 42.2928 18.798C42.7328 18.6114 43.0861 18.3714 43.3528 18.078ZM53.6833 20.498V10.038H55.8633V14.178H56.9033L59.9833 10.038H62.4233L58.6033 15.098L62.8633 20.498H60.3233L56.8833 16.158H55.8633V20.498H53.6833ZM63.7436 17.438C63.7436 16.7714 63.9303 16.1914 64.3036 15.698C64.6903 15.1914 65.2169 14.8047 65.8836 14.538C66.5503 14.258 67.3236 14.118 68.2036 14.118C68.6703 14.118 69.1436 14.1514 69.6236 14.218C70.1169 14.2847 70.5503 14.3914 70.9236 14.538V13.878C70.9236 13.1447 70.7036 12.5714 70.2636 12.158C69.8236 11.7447 69.1903 11.538 68.3636 11.538C67.7769 11.538 67.2236 11.6447 66.7036 11.858C66.1836 12.058 65.6303 12.3447 65.0436 12.718L64.3036 11.238C64.9969 10.7714 65.6903 10.4247 66.3836 10.198C67.0903 9.97138 67.8303 9.85805 68.6036 9.85805C70.0036 9.85805 71.1036 10.2314 71.9036 10.978C72.7169 11.7114 73.1236 12.758 73.1236 14.118V18.018C73.1236 18.2714 73.1636 18.4514 73.2436 18.558C73.3369 18.6647 73.4903 18.7247 73.7036 18.738V20.498C73.5036 20.538 73.3236 20.5647 73.1636 20.578C73.0036 20.5914 72.8703 20.598 72.7636 20.598C72.2969 20.598 71.9436 20.4847 71.7036 20.258C71.4636 20.0314 71.3236 19.7647 71.2836 19.458L71.2236 18.858C70.7703 19.4447 70.1903 19.898 69.4836 20.218C68.7769 20.538 68.0636 20.698 67.3436 20.698C66.6503 20.698 66.0303 20.558 65.4836 20.278C64.9369 19.9847 64.5103 19.5914 64.2036 19.098C63.8969 18.6047 63.7436 18.0514 63.7436 17.438ZM70.4036 18.078C70.5636 17.9047 70.6903 17.7314 70.7836 17.558C70.8769 17.3847 70.9236 17.2314 70.9236 17.098V15.898C70.5503 15.7514 70.1569 15.6447 69.7436 15.578C69.3303 15.498 68.9236 15.458 68.5236 15.458C67.7236 15.458 67.0703 15.618 66.5636 15.938C66.0703 16.258 65.8236 16.698 65.8236 17.258C65.8236 17.5647 65.9036 17.858 66.0636 18.138C66.2369 18.418 66.4769 18.6447 66.7836 18.818C67.1036 18.9914 67.4969 19.078 67.9636 19.078C68.4436 19.078 68.9036 18.9847 69.3436 18.798C69.7836 18.6114 70.1369 18.3714 70.4036 18.078ZM81.7327 20.698C80.8927 20.698 80.1527 20.498 79.5127 20.098C78.8727 19.698 78.366 19.178 77.9927 18.538V24.758H75.7927V10.038H77.7327V11.918C78.1327 11.2914 78.6527 10.7914 79.2927 10.418C79.9327 10.0447 80.646 9.85805 81.4327 9.85805C82.1527 9.85805 82.8127 10.0047 83.4127 10.298C84.0127 10.578 84.5327 10.9714 84.9727 11.478C85.4127 11.9847 85.7527 12.5647 85.9927 13.218C86.246 13.858 86.3727 14.538 86.3727 15.258C86.3727 16.258 86.1727 17.1714 85.7727 17.998C85.386 18.8247 84.8393 19.4847 84.1327 19.978C83.4393 20.458 82.6393 20.698 81.7327 20.698ZM81.0127 18.818C81.4793 18.818 81.8993 18.718 82.2727 18.518C82.6593 18.318 82.986 18.0514 83.2527 17.718C83.5327 17.3847 83.746 17.0047 83.8927 16.578C84.0393 16.1514 84.1127 15.7114 84.1127 15.258C84.1127 14.778 84.0327 14.3247 83.8727 13.898C83.7127 13.4714 83.4793 13.098 83.1727 12.778C82.8793 12.458 82.5327 12.2047 82.1327 12.018C81.746 11.8314 81.3193 11.738 80.8527 11.738C80.5727 11.738 80.2793 11.7914 79.9727 11.898C79.666 12.0047 79.3793 12.1514 79.1127 12.338C78.846 12.5247 78.6127 12.7447 78.4127 12.998C78.2127 13.2514 78.0727 13.518 77.9927 13.798V16.538C78.1793 16.9647 78.426 17.3514 78.7327 17.698C79.0393 18.0314 79.3927 18.3047 79.7927 18.518C80.1927 18.718 80.5993 18.818 81.0127 18.818ZM88.3512 20.498V10.038H90.6313L94.2313 16.498L97.8513 10.038H100.091V20.498H97.9913V13.138L94.9113 18.638H93.5313L90.4313 13.138V20.498H88.3512ZM101.966 17.438C101.966 16.7714 102.153 16.1914 102.526 15.698C102.913 15.1914 103.44 14.8047 104.106 14.538C104.773 14.258 105.546 14.118 106.426 14.118C106.893 14.118 107.366 14.1514 107.846 14.218C108.34 14.2847 108.773 14.3914 109.146 14.538V13.878C109.146 13.1447 108.926 12.5714 108.486 12.158C108.046 11.7447 107.413 11.538 106.586 11.538C106 11.538 105.446 11.6447 104.926 11.858C104.406 12.058 103.853 12.3447 103.266 12.718L102.526 11.238C103.22 10.7714 103.913 10.4247 104.606 10.198C105.313 9.97138 106.053 9.85805 106.826 9.85805C108.226 9.85805 109.326 10.2314 110.126 10.978C110.94 11.7114 111.346 12.758 111.346 14.118V18.018C111.346 18.2714 111.386 18.4514 111.466 18.558C111.56 18.6647 111.713 18.7247 111.926 18.738V20.498C111.726 20.538 111.546 20.5647 111.386 20.578C111.226 20.5914 111.093 20.598 110.986 20.598C110.52 20.598 110.166 20.4847 109.926 20.258C109.686 20.0314 109.546 19.7647 109.506 19.458L109.446 18.858C108.993 19.4447 108.413 19.898 107.706 20.218C107 20.538 106.286 20.698 105.566 20.698C104.873 20.698 104.253 20.558 103.706 20.278C103.16 19.9847 102.733 19.5914 102.426 19.098C102.12 18.6047 101.966 18.0514 101.966 17.438ZM108.626 18.078C108.786 17.9047 108.913 17.7314 109.006 17.558C109.1 17.3847 109.146 17.2314 109.146 17.098V15.898C108.773 15.7514 108.38 15.6447 107.966 15.578C107.553 15.498 107.146 15.458 106.746 15.458C105.946 15.458 105.293 15.618 104.786 15.938C104.293 16.258 104.046 16.698 104.046 17.258C104.046 17.5647 104.126 17.858 104.286 18.138C104.46 18.418 104.7 18.6447 105.006 18.818C105.326 18.9914 105.72 19.078 106.186 19.078C106.666 19.078 107.126 18.9847 107.566 18.798C108.006 18.6114 108.36 18.3714 108.626 18.078ZM114.015 20.498V10.038H116.215V14.198H121.075V10.038H123.275V20.498H121.075V16.098H116.215V20.498H114.015ZM125.169 17.438C125.169 16.7714 125.356 16.1914 125.729 15.698C126.116 15.1914 126.643 14.8047 127.309 14.538C127.976 14.258 128.749 14.118 129.629 14.118C130.096 14.118 130.569 14.1514 131.049 14.218C131.543 14.2847 131.976 14.3914 132.349 14.538V13.878C132.349 13.1447 132.129 12.5714 131.689 12.158C131.249 11.7447 130.616 11.538 129.789 11.538C129.203 11.538 128.649 11.6447 128.129 11.858C127.609 12.058 127.056 12.3447 126.469 12.718L125.729 11.238C126.423 10.7714 127.116 10.4247 127.809 10.198C128.516 9.97138 129.256 9.85805 130.029 9.85805C131.429 9.85805 132.529 10.2314 133.329 10.978C134.143 11.7114 134.549 12.758 134.549 14.118V18.018C134.549 18.2714 134.589 18.4514 134.669 18.558C134.763 18.6647 134.916 18.7247 135.129 18.738V20.498C134.929 20.538 134.749 20.5647 134.589 20.578C134.429 20.5914 134.296 20.598 134.189 20.598C133.723 20.598 133.369 20.4847 133.129 20.258C132.889 20.0314 132.749 19.7647 132.709 19.458L132.649 18.858C132.196 19.4447 131.616 19.898 130.909 20.218C130.203 20.538 129.489 20.698 128.769 20.698C128.076 20.698 127.456 20.558 126.909 20.278C126.363 19.9847 125.936 19.5914 125.629 19.098C125.323 18.6047 125.169 18.0514 125.169 17.438ZM131.829 18.078C131.989 17.9047 132.116 17.7314 132.209 17.558C132.303 17.3847 132.349 17.2314 132.349 17.098V15.898C131.976 15.7514 131.583 15.6447 131.169 15.578C130.756 15.498 130.349 15.458 129.949 15.458C129.149 15.458 128.496 15.618 127.989 15.938C127.496 16.258 127.249 16.698 127.249 17.258C127.249 17.5647 127.329 17.858 127.489 18.138C127.663 18.418 127.903 18.6447 128.209 18.818C128.529 18.9914 128.923 19.078 129.389 19.078C129.869 19.078 130.329 18.9847 130.769 18.798C131.209 18.6114 131.563 18.3714 131.829 18.078ZM10.9098 41.498V31.058H13.1098V38.558L18.4098 31.038H20.4098V41.498H18.2098V34.158L12.9698 41.498H10.9098ZM26.9802 43.998V39.558H27.2202C27.5002 39.558 27.7602 39.478 28.0002 39.318C28.2402 39.158 28.4535 38.8847 28.6402 38.498C28.8268 38.098 28.9802 37.5514 29.1002 36.858C29.2202 36.1514 29.2935 35.2647 29.3202 34.198L29.4402 31.038H36.9002V39.558H38.3402V43.998H36.4002V41.498H28.9002V43.998H26.9802ZM30.1202 39.558H34.7002V32.938H31.3802L31.3202 34.398C31.2802 35.4114 31.2068 36.2647 31.1002 36.958C31.0068 37.6514 30.8735 38.2047 30.7002 38.618C30.5402 39.0314 30.3468 39.3447 30.1202 39.558ZM40.2067 41.498V31.038H45.8067C46.4734 31.038 47.0201 31.1647 47.4467 31.418C47.8867 31.658 48.2134 31.9714 48.4267 32.358C48.6401 32.7314 48.7467 33.1447 48.7467 33.598C48.7467 34.1714 48.6134 34.678 48.3467 35.118C48.0801 35.558 47.6867 35.8914 47.1667 36.118C47.7667 36.2914 48.2534 36.598 48.6267 37.038C49.0134 37.4647 49.2067 38.018 49.2067 38.698C49.2067 39.3114 49.0601 39.8314 48.7667 40.258C48.4734 40.6714 48.0534 40.9847 47.5067 41.198C46.9734 41.398 46.3467 41.498 45.6267 41.498H40.2067ZM42.2867 39.978H45.5667C45.8467 39.978 46.1001 39.9114 46.3267 39.778C46.5667 39.6314 46.7534 39.4447 46.8867 39.218C47.0201 38.978 47.0867 38.7247 47.0867 38.458C47.0867 38.1647 47.0201 37.9047 46.8867 37.678C46.7667 37.4514 46.5934 37.2714 46.3667 37.138C46.1534 37.0047 45.9001 36.938 45.6067 36.938H42.2867V39.978ZM42.2867 35.518H45.2467C45.5267 35.518 45.7734 35.4514 45.9867 35.318C46.2001 35.1714 46.3667 34.978 46.4867 34.738C46.6067 34.498 46.6667 34.2447 46.6667 33.978C46.6667 33.5914 46.5401 33.258 46.2867 32.978C46.0334 32.698 45.7001 32.558 45.2867 32.558H42.2867V35.518ZM50.5405 38.438C50.5405 37.7714 50.7271 37.1914 51.1005 36.698C51.4871 36.1914 52.0138 35.8047 52.6805 35.538C53.3471 35.258 54.1205 35.118 55.0005 35.118C55.4671 35.118 55.9405 35.1514 56.4205 35.218C56.9138 35.2847 57.3471 35.3914 57.7205 35.538V34.878C57.7205 34.1447 57.5005 33.5714 57.0605 33.158C56.6205 32.7447 55.9871 32.538 55.1605 32.538C54.5738 32.538 54.0205 32.6447 53.5005 32.858C52.9805 33.058 52.4271 33.3447 51.8405 33.718L51.1005 32.238C51.7938 31.7714 52.4871 31.4247 53.1805 31.198C53.8871 30.9714 54.6271 30.858 55.4005 30.858C56.8005 30.858 57.9005 31.2314 58.7005 31.978C59.5138 32.7114 59.9205 33.758 59.9205 35.118V39.018C59.9205 39.2714 59.9605 39.4514 60.0405 39.558C60.1338 39.6647 60.2871 39.7247 60.5005 39.738V41.498C60.3005 41.538 60.1205 41.5647 59.9605 41.578C59.8005 41.5914 59.6671 41.598 59.5605 41.598C59.0938 41.598 58.7405 41.4847 58.5005 41.258C58.2605 41.0314 58.1205 40.7647 58.0805 40.458L58.0205 39.858C57.5671 40.4447 56.9871 40.898 56.2805 41.218C55.5738 41.538 54.8605 41.698 54.1405 41.698C53.4471 41.698 52.8271 41.558 52.2805 41.278C51.7338 40.9847 51.3071 40.5914 51.0005 40.098C50.6938 39.6047 50.5405 39.0514 50.5405 38.438ZM57.2005 39.078C57.3605 38.9047 57.4871 38.7314 57.5805 38.558C57.6738 38.3847 57.7205 38.2314 57.7205 38.098V36.898C57.3471 36.7514 56.9538 36.6447 56.5405 36.578C56.1271 36.498 55.7205 36.458 55.3205 36.458C54.5205 36.458 53.8671 36.618 53.3605 36.938C52.8671 37.258 52.6205 37.698 52.6205 38.258C52.6205 38.5647 52.7005 38.858 52.8605 39.138C53.0338 39.418 53.2738 39.6447 53.5805 39.818C53.9005 39.9914 54.2938 40.078 54.7605 40.078C55.2405 40.078 55.7005 39.9847 56.1405 39.798C56.5805 39.6114 56.9338 39.3714 57.2005 39.078ZM67.5309 41.498V31.038H69.7109V35.178H70.7509L73.8309 31.038H76.2709L72.4509 36.098L76.7109 41.498H74.1709L70.7309 37.158H69.7109V41.498H67.5309ZM77.5913 38.438C77.5913 37.7714 77.7779 37.1914 78.1513 36.698C78.5379 36.1914 79.0646 35.8047 79.7313 35.538C80.3979 35.258 81.1713 35.118 82.0513 35.118C82.5179 35.118 82.9913 35.1514 83.4713 35.218C83.9646 35.2847 84.3979 35.3914 84.7713 35.538V34.878C84.7713 34.1447 84.5513 33.5714 84.1113 33.158C83.6713 32.7447 83.0379 32.538 82.2113 32.538C81.6246 32.538 81.0713 32.6447 80.5513 32.858C80.0313 33.058 79.4779 33.3447 78.8913 33.718L78.1513 32.238C78.8446 31.7714 79.5379 31.4247 80.2313 31.198C80.9379 30.9714 81.6779 30.858 82.4513 30.858C83.8513 30.858 84.9513 31.2314 85.7513 31.978C86.5646 32.7114 86.9713 33.758 86.9713 35.118V39.018C86.9713 39.2714 87.0113 39.4514 87.0913 39.558C87.1846 39.6647 87.3379 39.7247 87.5513 39.738V41.498C87.3513 41.538 87.1713 41.5647 87.0113 41.578C86.8513 41.5914 86.7179 41.598 86.6113 41.598C86.1446 41.598 85.7913 41.4847 85.5513 41.258C85.3113 41.0314 85.1713 40.7647 85.1313 40.458L85.0713 39.858C84.6179 40.4447 84.0379 40.898 83.3313 41.218C82.6246 41.538 81.9113 41.698 81.1913 41.698C80.4979 41.698 79.8779 41.558 79.3313 41.278C78.7846 40.9847 78.3579 40.5914 78.0513 40.098C77.7446 39.6047 77.5913 39.0514 77.5913 38.438ZM84.2513 39.078C84.4113 38.9047 84.5379 38.7314 84.6313 38.558C84.7246 38.3847 84.7713 38.2314 84.7713 38.098V36.898C84.3979 36.7514 84.0046 36.6447 83.5913 36.578C83.1779 36.498 82.7713 36.458 82.3713 36.458C81.5713 36.458 80.9179 36.618 80.4113 36.938C79.9179 37.258 79.6712 37.698 79.6712 38.258C79.6712 38.5647 79.7513 38.858 79.9113 39.138C80.0846 39.418 80.3246 39.6447 80.6313 39.818C80.9513 39.9914 81.3446 40.078 81.8113 40.078C82.2913 40.078 82.7513 39.9847 83.1913 39.798C83.6313 39.6114 83.9846 39.3714 84.2513 39.078ZM89.6403 41.498V31.038H98.6403V41.498H96.4403V32.978H91.8403V41.498H89.6403ZM110.3 41.698C109.38 41.698 108.56 41.5047 107.84 41.118C107.134 40.7314 106.56 40.2047 106.12 39.538C105.694 38.858 105.42 38.0914 105.3 37.238H103.5V41.498H101.3V31.038H103.5V35.318H105.3C105.42 34.438 105.7 33.6647 106.14 32.998C106.594 32.318 107.174 31.7914 107.88 31.418C108.587 31.0447 109.394 30.858 110.3 30.858C111.394 30.858 112.327 31.1047 113.1 31.598C113.874 32.0914 114.467 32.7447 114.88 33.558C115.294 34.3714 115.5 35.278 115.5 36.278C115.5 37.3047 115.287 38.2247 114.86 39.038C114.447 39.8514 113.847 40.498 113.06 40.978C112.287 41.458 111.367 41.698 110.3 41.698ZM110.3 39.818C110.887 39.818 111.4 39.6714 111.84 39.378C112.28 39.0714 112.627 38.658 112.88 38.138C113.134 37.6047 113.26 36.9847 113.26 36.278C113.26 35.558 113.134 34.938 112.88 34.418C112.627 33.8847 112.274 33.4714 111.82 33.178C111.367 32.8847 110.86 32.738 110.3 32.738C109.74 32.738 109.24 32.8847 108.8 33.178C108.374 33.4714 108.04 33.8847 107.8 34.418C107.56 34.9514 107.44 35.5714 107.44 36.278C107.44 36.998 107.56 37.6247 107.8 38.158C108.054 38.6914 108.394 39.1047 108.82 39.398C109.26 39.678 109.754 39.818 110.3 39.818ZM117.472 41.498V31.038H119.672V39.578H123.412V31.038H125.632V39.578H129.352V31.038H131.552V41.498H117.472ZM138.911 41.698C138.084 41.698 137.344 41.558 136.691 41.278C136.037 40.9847 135.471 40.5847 134.991 40.078C134.524 39.5714 134.164 38.998 133.911 38.358C133.657 37.7047 133.531 37.0114 133.531 36.278C133.531 35.5447 133.657 34.8514 133.911 34.198C134.164 33.5447 134.524 32.9714 134.991 32.478C135.471 31.9714 136.037 31.578 136.691 31.298C137.357 31.0047 138.097 30.858 138.911 30.858C139.724 30.858 140.457 31.0047 141.111 31.298C141.777 31.578 142.344 31.9714 142.811 32.478C143.291 32.9714 143.657 33.5447 143.911 34.198C144.164 34.8514 144.291 35.5447 144.291 36.278C144.291 37.0114 144.164 37.7047 143.911 38.358C143.657 38.998 143.291 39.5714 142.811 40.078C142.344 40.5847 141.777 40.9847 141.111 41.278C140.457 41.558 139.724 41.698 138.911 41.698ZM135.791 36.298C135.791 36.9647 135.931 37.5647 136.211 38.098C136.491 38.6314 136.864 39.0514 137.331 39.358C137.797 39.6647 138.324 39.818 138.911 39.818C139.484 39.818 140.004 39.6647 140.471 39.358C140.951 39.038 141.331 38.6114 141.611 38.078C141.891 37.5314 142.031 36.9314 142.031 36.278C142.031 35.6114 141.891 35.0114 141.611 34.478C141.331 33.9447 140.951 33.5247 140.471 33.218C140.004 32.898 139.484 32.738 138.911 32.738C138.324 32.738 137.797 32.898 137.331 33.218C136.864 33.538 136.491 33.9647 136.211 34.498C135.931 35.018 135.791 35.618 135.791 36.298ZM146.242 41.498V31.038H148.442V35.198H153.302V31.038H155.502V41.498H153.302V37.098H148.442V41.498H146.242ZM157.396 38.438C157.396 37.7714 157.583 37.1914 157.956 36.698C158.343 36.1914 158.869 35.8047 159.536 35.538C160.203 35.258 160.976 35.118 161.856 35.118C162.323 35.118 162.796 35.1514 163.276 35.218C163.769 35.2847 164.203 35.3914 164.576 35.538V34.878C164.576 34.1447 164.356 33.5714 163.916 33.158C163.476 32.7447 162.843 32.538 162.016 32.538C161.429 32.538 160.876 32.6447 160.356 32.858C159.836 33.058 159.283 33.3447 158.696 33.718L157.956 32.238C158.649 31.7714 159.343 31.4247 160.036 31.198C160.743 30.9714 161.483 30.858 162.256 30.858C163.656 30.858 164.756 31.2314 165.556 31.978C166.369 32.7114 166.776 33.758 166.776 35.118V39.018C166.776 39.2714 166.816 39.4514 166.896 39.558C166.989 39.6647 167.143 39.7247 167.356 39.738V41.498C167.156 41.538 166.976 41.5647 166.816 41.578C166.656 41.5914 166.523 41.598 166.416 41.598C165.949 41.598 165.596 41.4847 165.356 41.258C165.116 41.0314 164.976 40.7647 164.936 40.458L164.876 39.858C164.423 40.4447 163.843 40.898 163.136 41.218C162.429 41.538 161.716 41.698 160.996 41.698C160.303 41.698 159.683 41.558 159.136 41.278C158.589 40.9847 158.163 40.5914 157.856 40.098C157.549 39.6047 157.396 39.0514 157.396 38.438ZM164.056 39.078C164.216 38.9047 164.343 38.7314 164.436 38.558C164.529 38.3847 164.576 38.2314 164.576 38.098V36.898C164.203 36.7514 163.809 36.6447 163.396 36.578C162.983 36.498 162.576 36.458 162.176 36.458C161.376 36.458 160.723 36.618 160.216 36.938C159.723 37.258 159.476 37.698 159.476 38.258C159.476 38.5647 159.556 38.858 159.716 39.138C159.889 39.418 160.129 39.6447 160.436 39.818C160.756 39.9914 161.149 40.078 161.616 40.078C162.096 40.078 162.556 39.9847 162.996 39.798C163.436 39.6114 163.789 39.3714 164.056 39.078Z" fill="white"/>
</g>
<defs>
<filter id="filter0_d_92_4580" x="0.249756" y="0.297852" width="177.106" height="57.7002" filterUnits="userSpaceOnUse" color-interpolation-filters="sRGB">
<feFlood flood-opacity="0" result="BackgroundImageFix"/>
<feColorMatrix in="SourceAlpha" type="matrix" values="0 0 0 0 0 0 0 0 0 0 0 0 0 0 0 0 0 0 127 0" result="hardAlpha"/>
<feOffset dy="4"/>
<feGaussianBlur stdDeviation="5"/>
<feComposite in2="hardAlpha" operator="out"/>
<feColorMatrix type="matrix" values="0 0 0 0 0.94902 0 0 0 0 0.94902 0 0 0 0 0.94902 0 0 0 0.5 0"/>
<feBlend mode="normal" in2="BackgroundImageFix" result="effect1_dropShadow_92_4580"/>
<feBlend mode="normal" in="SourceGraphic" in2="effect1_dropShadow_92_4580" result="shape"/>
</filter>
</defs>
</svg>
